<?xml version="1.0" encoding="utf-8"?>
<!-- Generator: Adobe Illustrator 25.0.1, SVG Export Plug-In . SVG Version: 6.00 Build 0)  -->
<svg version="1.1" id="Capa_1" xmlns="http://www.w3.org/2000/svg" xmlns:xlink="http://www.w3.org/1999/xlink" x="0px" y="0px"
	 viewBox="0 0 108 101.1" style="enable-background:new 0 0 108 101.1;" xml:space="preserve">
<style type="text/css">
	.st0{fill:#9B59B6;}
	.st1{fill:#1ABC9C;}
</style>
<g>
	<g>
		<path class="st0" d="M54,53.4c-8.6,0-15.7-7-15.7-15.6s7-15.6,15.7-15.6c8.6,0,15.6,7,15.6,15.6S62.6,53.4,54,53.4z M54,27.6
			c-5.6,0-10.2,4.6-10.2,10.1S48.4,47.9,54,47.9c5.6,0,10.1-4.6,10.1-10.1S59.6,27.6,54,27.6z"/>
	</g>
	<g>
		<g>
			<path class="st0" d="M23.8,78h-5.5c0-6.9,5.6-12.5,12.6-12.5h13.3c3.9,0,7.1-3.2,7.1-7.1v-1.1h5.5v1.1c0,6.9-5.6,12.6-12.6,12.6
				H30.9C27,71,23.8,74.1,23.8,78z"/>
		</g>
		<g>
			<path class="st0" d="M89.7,78h-5.5c0-3.9-3.2-7-7-7H63.9c-6.9,0-12.5-5.6-12.5-12.6v-1.1h5.5v1.1c0,3.9,3.2,7.1,7,7.1h13.3
				C84.1,65.5,89.7,71.1,89.7,78z"/>
		</g>
	</g>
	<g>
		<g>
			<polygon class="st1" points="107.2,98.4 88.3,98.4 88.3,92.9 101.7,92.9 101.7,8.3 88.3,8.3 88.3,2.8 107.2,2.8 			"/>
		</g>
		<g>
			<polygon class="st1" points="19.9,98.4 0.8,98.4 0.8,2.8 19.9,2.8 19.9,8.3 6.3,8.3 6.3,92.9 19.9,92.9 			"/>
		</g>
	</g>
</g>
</svg>
