<?xml version="1.0" encoding="utf-8"?>
<!-- Generator: Adobe Illustrator 25.0.1, SVG Export Plug-In . SVG Version: 6.00 Build 0)  -->
<svg version="1.1" xmlns="http://www.w3.org/2000/svg" xmlns:xlink="http://www.w3.org/1999/xlink" x="0px" y="0px"
	 viewBox="0 0 454 187.4" style="enable-background:new 0 0 454 187.4;" xml:space="preserve">
<style type="text/css">
	.st0{display:none;}
	.st1{display:inline;}
	.st2{fill-rule:evenodd;clip-rule:evenodd;fill:#A2DEAF;}
	.st3{fill-rule:evenodd;clip-rule:evenodd;fill:#114E4E;}
	.st4{fill-rule:evenodd;clip-rule:evenodd;fill:#FFFFFF;}
	.st5{fill-rule:evenodd;clip-rule:evenodd;fill:#E17334;}
	.st6{fill:#9B59B6;}
	.st7{fill:none;stroke:#9B59B6;stroke-width:5;stroke-miterlimit:10;}
	.st8{fill:none;stroke:#1ABC9C;stroke-width:5;stroke-miterlimit:10;}
	.st9{fill:none;stroke:#9B59B6;stroke-width:5.5;stroke-miterlimit:10;}
	.st10{fill:none;stroke:#1ABC9C;stroke-width:5.5;stroke-miterlimit:10;}
	.st11{display:inline;fill:none;}
	.st12{font-family:'PermanentMarker';}
	.st13{font-size:63px;}
	.st14{font-size:10px;}
	.st15{display:inline;fill:none;stroke:#9B59B6;stroke-width:5.5;stroke-miterlimit:10;}
</style>
<g id="Capa_1" class="st0">
	<g id="Capa_1_1_">
		<desc>Created with Sketch.</desc>
		<g id="Tablet_x2B_" class="st1">
			<g id="_x30_0---App---Tablet_x2B_" transform="translate(-177.000000, -351.000000)">
				<g id="Group-4" transform="translate(175.000000, 348.000000)">
					<g id="Tarjetas-molonas">
						<g id="Group-2">
							
								<g id="Group" transform="translate(63.191223, 54.437060) rotate(-10.000000) translate(-63.191223, -54.437060) translate(7.318166, 11.294573)">
								<path id="Path" class="st2" d="M-30.9,85.5c2.9,0,5.3,1,7.3,3c2,2,3,4.4,3,7.3l0,62c0,2.9-1,5.3-3,7.3s-4.4,3-7.3,3l-89.5,0
									c-2.9,0-5.3-1-7.3-3s-3-4.4-3-7.3l0-62c0-2.9,1-5.3,3-7.3c2-2,4.4-3,7.3-3L-30.9,85.5z"/>
								<path id="Path-Copy" class="st3" d="M-32,83.9c2.9,0,5.3,1,7.3,3s3,4.4,3,7.3l0,62c0,2.9-1,5.3-3,7.3s-4.4,3-7.3,3l-89.5,0
									c-2.9,0-5.3-1-7.3-3s-3-4.4-3-7.3l0-62c0-2.9,1-5.3,3-7.3s4.4-3,7.3-3L-32,83.9z"/>
								<path id="Path_1_" class="st4" d="M-28.6,156.2l0-62c0-1-0.3-1.8-1-2.5c-0.6-0.6-1.5-1-2.5-1l-89.5,0c-1,0-1.8,0.3-2.5,1
									c-0.6,0.6-1,1.5-1,2.5l0,62c0,1,0.3,1.8,1,2.5c0.6,0.6,1.5,1,2.5,1l89.5,0c1,0,1.8-0.3,2.5-1S-28.6,157.2-28.6,156.2z"/>
								<path id="Combined-Shape" class="st5" d="M-60.4,139c-0.7,0-1.3-0.3-1.8-0.8s-0.8-1.1-0.8-1.8v-1.7c0-0.7,0.3-1.3,0.8-1.8
									s1.1-0.8,1.8-0.8H-38c0.7,0,1.3,0.3,1.8,0.8s0.8,1.1,0.8,1.8v1.7c0,0.7-0.3,1.3-0.8,1.8s-1.1,0.8-1.8,0.8H-60.4z
									 M-60.4,125.2c-0.7,0-1.3-0.3-1.8-0.8s-0.8-1.1-0.8-1.8v-1.7c0-0.7,0.3-1.3,0.8-1.8s1.1-0.8,1.8-0.8H-38
									c0.7,0,1.3,0.3,1.8,0.8s0.8,1.1,0.8,1.8v1.7c0,0.7-0.3,1.3-0.8,1.8c-0.5,0.5-1.1,0.8-1.8,0.8H-60.4z M-60.4,111.4
									c-0.7,0-1.3-0.3-1.8-0.8s-0.8-1.1-0.8-1.8v-1.7c0-0.7,0.3-1.3,0.8-1.8s1.1-0.8,1.8-0.8l22.4,0c0.7,0,1.3,0.3,1.8,0.8
									s0.8,1.1,0.8,1.8l0,1.7c0,0.7-0.3,1.3-0.8,1.8s-1.1,0.8-1.8,0.8H-60.4z"/>
								<path id="Combined-Shape_1_" class="st2" d="M-80.6,125.6c3.7,1.1,6.6,3.4,8.6,6.7c1.4,2.6,2.2,5.2,2.2,8v3
									c0,2.6-0.9,4.8-2.8,6.7s-4.1,2.8-6.7,2.8l-29.3,0c-2.6,0-4.8-0.9-6.7-2.8s-2.8-4.1-2.8-6.7v-3c0-2.7,0.7-5.4,2.2-8
									c2-3.3,4.9-5.5,8.6-6.7c-2.6-3.2-3.9-6.7-3.9-10.8c0-4.7,1.7-8.8,5.1-12.2c3.4-3.4,7.4-5.1,12.2-5.1c4.7,0,8.8,1.7,12.2,5.1
									c3.4,3.4,5.1,7.4,5.1,12.2C-76.8,118.9-78.1,122.5-80.6,125.6z M-94,104.5c-2.9,0-5.3,1-7.3,3s-3,4.4-3,7.3s1,5.3,3,7.3
									c2,2,4.4,3,7.3,3s5.3-1,7.3-3s3-4.4,3-7.3c0-2.9-1-5.3-3-7.3C-88.7,105.5-91.1,104.5-94,104.5z M-76.8,143.3v-3
									c0-1.9-0.6-3.5-1.7-5.1c-1.1-1.5-2.7-2.5-4.5-3.1l-4.5-1.3c-2,0.9-4.2,1.3-6.5,1.3s-4.4-0.4-6.5-1.3l-4.5,1.3
									c-1.9,0.6-3.4,1.6-4.5,3.1s-1.7,3.2-1.7,5.1v3c0,0.7,0.3,1.3,0.8,1.8s1.1,0.8,1.8,0.8h29.3c0.7,0,1.3-0.3,1.8-0.8
									C-77,144.6-76.8,144-76.8,143.3z"/>
							</g>
							<path id="Awesome" class="st2" d="M22.5,158.4c-1.4,0-2.6-0.1-3.7-0.3c-1.1-0.2-2-0.8-2.7-1.6c-0.7-0.8-1.2-2.2-1.2-4
								c0-2.5,0.8-5.9,2.3-10.2c1.5-4.3,3.5-8.5,6-12.8c-1.9,0.1-3.4,0.4-4.5,0.8c-1.1,0.5-1.8,1.2-2.2,2.1c0.2,0,0.3,0.2,0.5,0.6
								c0.2,0.4,0.3,0.8,0.3,1.2c0,0.7-0.3,1.2-0.9,1.6c-0.6,0.4-1.4,0.6-2.3,0.6c-1.1,0-1.9-0.3-2.5-0.8c-0.6-0.6-1-1.4-1-2.4
								c0-1.3,0.5-2.5,1.5-3.5c1-1.1,2.4-1.9,4.2-2.5c1.8-0.6,3.7-0.9,5.9-0.9c0.8,0,1.8,0.1,2.9,0.2c3.1-4.9,6.4-8.9,9.8-12
								c3.5-3.1,6.7-4.7,9.9-4.7c1.8,0,3.3,0.3,4.5,0.8l-8.9,41.6h-8.1l4.4-20.5c-1.4-0.6-2.7-1.1-3.8-1.4c-1.2-0.3-2.4-0.5-3.7-0.6
								c-2.2,4.6-3.9,9.4-5.3,14.2c-1.4,4.8-2.1,8.7-2.1,11.6C21.7,156.6,22,157.7,22.5,158.4z M40.5,113.5
								c-1.6,0.9-3.3,2.5-5.1,4.8c-1.8,2.4-3.5,5.2-5.1,8.6c2.7,0.5,5,1.2,6.9,2L40.5,113.5z M53.6,152.2c-1.8,0-3.3-0.6-4.4-1.7
								c-1.1-1.1-1.7-2.8-1.7-5.1c0-0.9,0.2-2.2,0.5-3.7l3.8-18.2h8.1l-4.1,19.2c-0.1,0.5-0.2,0.9-0.2,1.4c0,1.7,0.6,2.5,1.7,2.5
								c1.1,0,2-0.4,2.7-1.3c0.8-0.9,1.4-2.1,1.8-3.6l3.8-18.2h8.1l-4.1,19.2c-0.2,0.9-0.3,1.6-0.3,2c0,1.2,0.6,1.9,1.9,1.9
								c1.7,0,3.3-1.1,4.8-3.3c1.5-2.2,2.7-4.8,3.6-7.8c0.9-3,1.4-5.6,1.4-7.8c-0.1,0.2-0.3,0.3-0.7,0.4c-0.4,0.1-0.8,0.1-1.1,0.1
								c-0.6,0-1.1-0.3-1.5-0.9s-0.5-1.3-0.5-2c0-0.9,0.3-1.6,0.9-2.2s1.5-0.8,2.6-0.8c1.2,0,2.2,0.5,2.7,1.4
								c0.6,0.9,0.8,2.1,0.8,3.5c0,3.4-0.6,7-1.8,10.9c-1.2,3.9-3,7.2-5.4,9.9c-2.4,2.7-5.4,4.1-9,4.1c-1.8,0-3.4-0.4-4.5-1.2
								c-1.2-0.8-1.9-2-2.3-3.6C59.5,150.6,56.8,152.2,53.6,152.2z M93.5,152.2c-2.8,0-5-0.7-6.5-2.2s-2.3-3.7-2.3-6.8
								c0-2.6,0.5-5.5,1.5-8.6c1-3.1,2.7-5.8,5-8.1c2.3-2.3,5.2-3.4,8.8-3.4c4.1,0,6.2,1.8,6.2,5.4c0,2.1-0.6,4.1-1.8,5.8
								c-1.2,1.8-2.8,3.2-4.8,4.3c-2,1.1-4.1,1.7-6.4,1.8c-0.1,1.1-0.1,1.9-0.1,2.3c0,1.8,0.3,3.1,1,3.8c0.6,0.7,1.7,1,3.1,1
								c2,0,3.8-0.5,5.2-1.4c1.5-0.9,3-2.4,4.8-4.3h1.9C104.8,148.8,99.7,152.2,93.5,152.2z M93.6,137.8c1.4-0.1,2.7-0.6,4-1.5
								c1.3-0.9,2.3-2.1,3.1-3.5c0.8-1.4,1.2-2.9,1.2-4.4c0-1.5-0.5-2.3-1.4-2.3c-1.4,0-2.7,1.2-4,3.6
								C95.1,132.1,94.2,134.8,93.6,137.8z M113.6,152.2c-1.8,0-3.3-0.3-4.6-1c-1.2-0.7-2.2-1.6-2.8-2.7c-0.6-1.1-0.9-2.3-0.9-3.5
								s0.3-2.3,0.9-3.3c0.6-0.9,1.3-1.6,2.1-2c1.5-2.6,2.8-5.3,3.8-8c1.1-2.7,2.1-5.6,3.1-8.7l8.4-1.1c0.2,4.8,0.5,10.1,1,15.7
								c0.2,2.3,0.3,3.9,0.3,4.9c0,0.9-0.1,1.6-0.2,2.2c1.8-1,3.1-2,4.1-2.8h2.4c-2.4,2.8-5.3,5.1-8.7,7.1c-1.1,1.2-2.4,2-4,2.6
								C116.8,151.9,115.2,152.2,113.6,152.2z M111.7,147.8c1.4,0,2.6-0.4,3.5-1.2c0.9-0.8,1.4-2.2,1.4-4c0-1.1-0.1-2.7-0.3-4.8
								c-0.4-4.3-0.6-7.2-0.7-8.7c-0.9,3-2.4,6.5-4.6,10.7c0.9,0.5,1.3,1.1,1.3,2c0,0.7-0.2,1.4-0.7,1.9c-0.5,0.6-1.1,0.8-1.8,0.8
								c-0.8,0-1.3-0.2-1.5-0.7c0,1.4,0.3,2.4,0.8,3C109.7,147.4,110.5,147.8,111.7,147.8z M137,152.2c-2.8,0-5-0.7-6.6-2.2
								c-1.6-1.4-2.4-3.7-2.4-6.8c0-2.6,0.5-5.4,1.6-8.5c1.1-3.1,2.8-5.8,5.1-8.1c2.3-2.3,5.3-3.4,8.8-3.4c4.8,0,7.2,3,7.2,9.1v0.1
								c0.1,0,0.3,0.1,0.6,0.1c1.2,0,2.7-0.3,4.3-1s3.1-1.5,4.4-2.4l0.5,1.5c-1.1,1.2-2.5,2.2-4.3,3s-3.7,1.4-5.7,1.7
								c-0.3,3.4-1.1,6.4-2.3,9c-1.2,2.6-2.8,4.5-4.8,5.9C141.4,151.4,139.3,152.2,137,152.2z M139.2,147.1c0.9,0,1.8-0.5,2.7-1.6
								c0.9-1,1.7-2.5,2.4-4.2c0.7-1.8,1.2-3.8,1.5-6c-1-0.2-1.5-1-1.5-2.4c0-1.5,0.6-2.6,1.8-3.1c-0.1-1.2-0.3-2.1-0.6-2.6
								s-0.8-0.7-1.6-0.7c-1.2,0-2.5,0.9-3.6,2.7c-1.2,1.8-2.1,4-2.8,6.5s-1.1,4.8-1.1,6.7c0,1.8,0.2,3,0.6,3.6
								C137.4,146.6,138.2,147.1,139.2,147.1z M188,152.2c-2.3,0-4-0.6-5.1-1.8s-1.6-2.7-1.6-4.6c0-0.8,0.1-1.7,0.3-2.7
								s0.4-2,0.6-2.9c0.2-0.9,0.3-1.5,0.4-1.8c0.3-1.3,0.6-2.6,0.8-3.9s0.4-2.3,0.4-3.1c0-1.9-0.7-2.9-2-2.9c-1,0-1.8,0.5-2.6,1.4
								c-0.8,1-1.4,2.2-1.8,3.8l-3.8,18.2h-8.1l4.1-19.5c0.1-0.5,0.2-0.9,0.2-1.4c0-1.7-0.6-2.5-1.7-2.5c-1.1,0-2,0.5-2.7,1.4
								c-0.8,1-1.4,2.2-1.8,3.8l-3.8,18.2h-8.1l6-28.3h8.1l-0.6,2.9c1.9-2.2,4.2-3.2,6.9-3.2c3.3,0,5.3,1.6,5.8,4.9
								c2.1-3.2,4.7-4.8,7.9-4.8c1.9,0,3.5,0.5,4.6,1.6s1.7,2.7,1.7,4.8c0,1.1-0.1,2.3-0.4,3.6c-0.3,1.3-0.6,3-1.1,4.9
								c-0.3,1.2-0.6,2.3-0.8,3.4c-0.2,1.1-0.4,2-0.4,2.6c0,0.8,0.2,1.3,0.5,1.8c0.3,0.4,0.9,0.6,1.8,0.6c1.1,0,2-0.4,2.7-1.2
								c0.7-0.8,1.4-2.1,2-3.8h2.4c-1.4,4.1-3,6.9-4.8,8.3C191.8,151.6,189.9,152.2,188,152.2z M204.1,152.2c-2.8,0-4.9-0.7-6.5-2.2
								c-1.5-1.5-2.3-3.7-2.3-6.8c0-2.6,0.5-5.5,1.5-8.6c1-3.1,2.7-5.8,5-8.1c2.3-2.3,5.2-3.4,8.8-3.4c4.1,0,6.2,1.8,6.2,5.4
								c0,2.1-0.6,4.1-1.8,5.8c-1.2,1.7-2.8,3.2-4.8,4.3c-2,1.1-4.1,1.7-6.4,1.8c-0.1,0.8-0.1,1.4-0.1,1.7c0,3.1,1.2,4.7,3.5,4.7
								c1.1,0,2.2-0.3,3.4-0.8c1.2-0.6,2.3-1.3,3.3-2.2C212.9,149.4,209.6,152.2,204.1,152.2z M204.2,137.8c1.4,0,2.8-0.5,4-1.4
								c1.3-0.9,2.3-2.1,3.1-3.5c0.8-1.4,1.2-2.9,1.2-4.4s-0.5-2.3-1.4-2.3c-1.3,0-2.6,1.2-3.9,3.6
								C205.8,132.1,204.8,134.8,204.2,137.8z"/>
							<path id="profile-cards" class="st2" d="M31.5,169.6h8.1l-0.9,4.2c1.9-1.6,4.1-2.4,6.6-2.4c2.1,0,3.8,0.7,5,2.1
								c1.2,1.4,1.9,3.7,1.9,6.8c0,3-0.4,6-1.3,9c-0.9,3-2.3,5.6-4.4,7.8c-2.1,2.1-4.8,3.2-8.2,3.2c-2.4,0-4-0.7-4.8-2l-2.9,13.8
								l-8.5,2L31.5,169.6z M36.6,195.4c1.8,0,3.3-0.8,4.5-2.5s2.1-3.7,2.6-6.1c0.5-2.4,0.8-4.6,0.8-6.6c0-3.1-0.9-4.7-2.8-4.7
								c-0.7,0-1.4,0.2-2.1,0.7s-1.3,1.2-1.8,2l-3.3,15.8C34.7,194.9,35.4,195.4,36.6,195.4z M57.5,171.7h8.1l-0.7,3.5
								c1.3-1.1,2.4-2,3.5-2.6c1-0.6,2.2-0.9,3.4-0.9c1.2,0,2.2,0.4,2.9,1.2c0.7,0.8,1,1.8,1,3c0,1.1-0.4,2.1-1.1,2.9
								s-1.7,1.2-3,1.2c-0.8,0-1.4-0.2-1.7-0.6c-0.3-0.4-0.5-1-0.7-1.7c-0.1-0.5-0.2-0.8-0.3-1.1s-0.3-0.3-0.6-0.3
								c-0.8,0-1.5,0.2-2,0.5s-1.3,0.9-2.1,1.7l-4.5,21.5h-8.1L57.5,171.7z M83.2,200.2c-2.8,0-5-0.7-6.6-2.2
								c-1.6-1.4-2.4-3.7-2.4-6.8c0-2.6,0.5-5.4,1.6-8.5s2.8-5.8,5.1-8.1c2.3-2.3,5.3-3.4,8.8-3.4c4.8,0,7.2,3,7.2,9.1v0.1
								c0.1,0,0.3,0.1,0.6,0.1c1.2,0,2.7-0.3,4.3-1s3.1-1.5,4.4-2.4l0.5,1.5c-1.1,1.2-2.5,2.2-4.3,3s-3.7,1.4-5.7,1.7
								c-0.3,3.4-1.1,6.4-2.3,9c-1.2,2.6-2.8,4.5-4.8,5.9C87.6,199.4,85.5,200.2,83.2,200.2z M85.4,195.2c0.9,0,1.8-0.5,2.7-1.6
								s1.7-2.5,2.4-4.2c0.7-1.8,1.2-3.8,1.5-6c-1-0.2-1.5-1-1.5-2.4c0-1.5,0.6-2.6,1.8-3.1c-0.1-1.2-0.3-2.1-0.6-2.6
								c-0.3-0.5-0.8-0.7-1.6-0.7c-1.2,0-2.5,0.9-3.6,2.7c-1.2,1.8-2.1,4-2.8,6.5c-0.7,2.5-1.1,4.8-1.1,6.7c0,1.8,0.2,3,0.6,3.6
								C83.6,194.8,84.3,195.2,85.4,195.2z M95.1,214.2c-2.1,0-3.8-0.6-5.1-1.7c-1.3-1.2-2-2.7-2-4.6c0-1.6,0.5-2.9,1.4-3.9
								s2-1.8,3.3-2.4c1.3-0.6,3-1.2,5.1-1.9l6.3-29.8c1-4.7,2.7-7.9,5.1-9.6s5.1-2.6,8.1-2.6c2.8,0,5.2,0.5,7.2,1.4
								s2.9,2.6,2.9,5.1c0,1.6-0.4,2.7-1.3,3.5s-1.9,1.1-3.2,1.1c-1,0-1.8-0.2-2.4-0.7s-1-1.3-1-2.3c0-0.7,0.2-1.4,0.5-1.9
								s0.8-0.8,1.4-0.8c0.3,0,0.4,0,0.5,0.1c0-0.8-0.3-1.3-0.9-1.7c-0.5-0.4-1.3-0.6-2.2-0.6c-1.7,0-3,0.6-4,1.8s-1.7,2.7-2,4.6
								l-1,4.6h4.5l-0.5,2.3h-4.5l-6.5,30.6c-0.8,3.5-2.1,6-3.9,7.5C99.3,213.4,97.2,214.2,95.1,214.2z M120.5,200.4
								c-1.8,0-3.3-0.6-4.4-1.7c-1.1-1.1-1.7-2.8-1.7-5.1c0-0.9,0.2-2.2,0.5-3.7l3.8-18.2h8.1l-4.1,19.2c-0.2,0.6-0.2,1.2-0.2,1.8
								c0,0.8,0.2,1.3,0.5,1.6c0.4,0.3,1,0.5,1.8,0.5c1.1,0,2.1-0.5,3.1-1.4c0.9-0.9,1.6-2.1,2-3.6h2.4c-1.4,4.1-3.2,6.8-5.4,8.3
								C124.8,199.6,122.6,200.4,120.5,200.4z M93.5,209.1c0.6,0,1.3-0.4,1.9-1.1c0.6-0.7,1.1-1.8,1.4-3.3l0.7-3.3
								c-1.9,0.6-3.5,1.4-4.6,2.3c-1.1,0.9-1.7,2-1.7,3.1c0,0.8,0.3,1.4,0.8,1.8C92.5,208.9,93,209.1,93.5,209.1z M135.6,200.4
								c-1.8,0-3.3-0.6-4.4-1.7c-1.1-1.1-1.7-2.8-1.7-5.1c0-0.9,0.2-2.2,0.5-3.7l6.1-28.3l8.4-1.1l-6.5,30.6
								c-0.2,0.6-0.2,1.2-0.2,1.8c0,0.8,0.2,1.3,0.5,1.6c0.4,0.3,1,0.5,1.8,0.5c1.1,0,2.1-0.5,3.1-1.4c0.9-0.9,1.6-2.1,2-3.6h2.4
								c-1.4,4.1-3.2,6.8-5.4,8.3C139.9,199.6,137.7,200.4,135.6,200.4z M153.1,200.4c-2.8,0-4.9-0.7-6.5-2.2
								c-1.5-1.5-2.3-3.7-2.3-6.8c0-2.6,0.5-5.5,1.5-8.6s2.7-5.8,5-8.1s5.2-3.4,8.8-3.4c4.1,0,6.2,1.8,6.2,5.4
								c0,2.1-0.6,4.1-1.8,5.8c-1.2,1.8-2.8,3.2-4.8,4.3s-4.1,1.7-6.4,1.8c-0.1,0.8-0.1,1.4-0.1,1.7c0,3.1,1.2,4.7,3.5,4.7
								c1.1,0,2.2-0.3,3.4-0.8c1.2-0.6,2.3-1.3,3.3-2.2C161.8,197.6,158.6,200.4,153.1,200.4z M153.2,185.9c1.4,0,2.8-0.5,4-1.4
								s2.3-2.1,3.1-3.5s1.2-2.9,1.2-4.4s-0.5-2.3-1.4-2.3c-1.3,0-2.6,1.2-3.9,3.6C154.8,180.2,153.8,182.9,153.2,185.9z
								 M167.9,182.9h11.3l-1,4.5h-11.4L167.9,182.9z M190.3,200.4c-2.8,0-5-0.7-6.5-2.2s-2.3-3.7-2.3-6.8c0-2.6,0.5-5.5,1.6-8.6
								c1-3.1,2.7-5.8,5-8.1s5.2-3.4,8.7-3.4c2.3,0,3.9,0.5,4.8,1.5c1,1,1.4,2.2,1.4,3.7c0,1.3-0.3,2.3-0.8,3.1
								c-0.6,0.7-1.3,1.1-2.2,1.1c-0.6,0-1.3-0.2-2-0.7c0.5-1.2,0.7-2.4,0.7-3.3c0-0.7-0.1-1.3-0.4-1.7c-0.3-0.4-0.7-0.6-1.2-0.6
								c-1.1,0-2.3,0.9-3.4,2.8c-1.1,1.8-2.1,4.1-2.8,6.7s-1.1,5-1.1,7.1c0,1.8,0.3,3.1,1,3.8s1.7,1,3.1,1c2,0,3.8-0.5,5.2-1.4
								c1.5-0.9,3-2.4,4.8-4.3h1.9C201.7,196.9,196.5,200.4,190.3,200.4z M210.7,200.4c-2.2,0-3.9-0.7-5.4-2.2s-2.2-3.8-2.2-6.9
								c0-2.8,0.6-5.7,1.7-8.8c1.1-3.1,2.8-5.7,5-7.8s4.8-3.2,7.9-3.2c1.5,0,2.7,0.3,3.5,0.8s1.1,1.2,1.1,2.1v0.4l0.6-3h8.1
								l-4.1,19.2c-0.2,0.6-0.2,1.2-0.2,1.8c0,1.6,0.8,2.4,2.3,2.4c1.1,0,2-0.5,2.7-1.5c0.8-1,1.4-2.3,1.8-3.8h2.4
								c-1.4,4.1-3.1,6.8-5.2,8.3s-4.1,2.2-6.2,2.2c-1.6,0-2.9-0.4-3.8-1.3c-1-0.9-1.5-2.2-1.7-3.9c-1.1,1.5-2.3,2.8-3.6,3.8
								C214.1,199.9,212.6,200.4,210.7,200.4z M214.4,194.9c0.9,0,1.9-0.4,2.8-1.3s1.6-2.1,1.9-3.6l2.7-12.8c0-0.5-0.2-1-0.6-1.4
								c-0.4-0.5-1-0.7-1.8-0.7c-1.5,0-2.9,0.9-4.1,2.6c-1.2,1.8-2.2,3.9-2.8,6.3s-1,4.6-1,6.5s0.3,3.1,0.8,3.6
								C212.9,194.6,213.6,194.9,214.4,194.9z M237.5,171.7h8.1l-0.7,3.5c1.3-1.1,2.4-2,3.5-2.6c1-0.6,2.2-0.9,3.4-0.9
								s2.2,0.4,2.9,1.2s1,1.8,1,3c0,1.1-0.4,2.1-1.1,2.9c-0.7,0.8-1.7,1.2-3,1.2c-0.8,0-1.4-0.2-1.7-0.6c-0.3-0.4-0.5-1-0.7-1.7
								c-0.1-0.5-0.2-0.8-0.3-1.1s-0.3-0.3-0.6-0.3c-0.8,0-1.5,0.2-2,0.5s-1.3,0.9-2.1,1.7l-4.5,21.5h-8.1L237.5,171.7z
								 M261.7,200.4c-2.2,0-3.9-0.7-5.4-2.2c-1.4-1.5-2.2-3.8-2.2-6.9c0-2.8,0.6-5.7,1.7-8.8c1.1-3.1,2.8-5.7,5-7.8
								c2.2-2.1,4.8-3.2,7.9-3.2c1.5,0,2.7,0.3,3.5,0.8s1.1,1.2,1.1,2.1v0.2l2.8-13l8.4-1.1l-6.5,30.6c-0.2,0.6-0.2,1.2-0.2,1.8
								c0,0.8,0.2,1.3,0.5,1.6c0.4,0.3,1,0.5,1.8,0.5c1.1,0,2-0.5,2.7-1.4c0.8-0.9,1.4-2.1,1.8-3.6h2.4c-2.3,6.8-6.1,10.1-11.4,10.1
								c-1.5,0-2.8-0.4-3.8-1.2s-1.6-2-1.8-3.6c-1,1.5-2.2,2.8-3.5,3.7C265.2,199.9,263.6,200.4,261.7,200.4z M265.4,194.9
								c0.9,0,1.8-0.4,2.7-1.2s1.6-2,1.9-3.5v-0.3l2.8-13c-0.3-1.3-1.1-2-2.3-2c-1.5,0-2.9,0.9-4.1,2.6c-1.2,1.8-2.2,3.9-2.8,6.3
								c-0.7,2.5-1,4.6-1,6.5s0.3,3.1,0.8,3.6C264,194.6,264.6,194.9,265.4,194.9z M291.1,200.4c-1.8,0-3.3-0.3-4.6-1
								s-2.2-1.6-2.8-2.7c-0.6-1.1-0.9-2.3-0.9-3.5s0.3-2.3,0.9-3.3c0.6-0.9,1.3-1.6,2.1-2c1.5-2.6,2.8-5.3,3.8-8
								c1.1-2.7,2.1-5.6,3.1-8.7l8.4-1.1c0.2,4.8,0.5,10.1,1,15.7c0.2,2.3,0.3,3.9,0.3,4.9c0,2.3-0.6,4.2-1.8,5.7
								c-1.2,1.5-2.6,2.5-4.3,3.2S292.9,200.4,291.1,200.4z M289.3,195.9c1.4,0,2.6-0.4,3.5-1.2s1.4-2.2,1.4-4
								c0-1.1-0.1-2.7-0.3-4.8c-0.4-4.3-0.6-7.2-0.7-8.7c-0.9,3-2.4,6.5-4.6,10.7c0.9,0.5,1.3,1.1,1.3,2c0,0.7-0.2,1.4-0.7,1.9
								c-0.5,0.6-1.1,0.8-1.8,0.8c-0.8,0-1.3-0.2-1.5-0.7c0,1.4,0.3,2.4,0.8,3S288.1,195.9,289.3,195.9z"/>
							<path id="Awesome_1_" class="st3" d="M21.1,156.9c-1.4,0-2.6-0.1-3.7-0.3s-2-0.8-2.7-1.6c-0.7-0.8-1.2-2.2-1.2-4
								c0-2.5,0.8-5.9,2.3-10.2c1.5-4.3,3.5-8.5,6-12.8c-1.9,0.1-3.4,0.4-4.5,0.8c-1.1,0.4-1.8,1.2-2.2,2.1c0.2,0,0.3,0.2,0.5,0.6
								c0.2,0.4,0.3,0.8,0.3,1.2c0,0.7-0.3,1.2-0.9,1.6c-0.6,0.4-1.4,0.6-2.3,0.6c-1.1,0-1.9-0.3-2.5-0.8c-0.6-0.6-1-1.4-1-2.4
								c0-1.3,0.5-2.5,1.5-3.5c1-1.1,2.4-1.9,4.2-2.5c1.8-0.6,3.7-0.9,5.9-0.9c0.8,0,1.8,0.1,2.9,0.2c3.1-4.9,6.4-8.9,9.8-12
								c3.4-3.1,6.7-4.7,9.9-4.7c1.8,0,3.3,0.3,4.5,0.8L39,150.7h-8.1l4.4-20.5c-1.4-0.6-2.7-1.1-3.8-1.4c-1.2-0.3-2.4-0.5-3.7-0.6
								c-2.2,4.6-3.9,9.4-5.3,14.2c-1.4,4.8-2.1,8.7-2.1,11.6C20.3,155.2,20.6,156.2,21.1,156.9z M39,112.1
								c-1.6,0.9-3.3,2.5-5.1,4.8c-1.8,2.4-3.5,5.2-5.1,8.6c2.7,0.5,5,1.2,6.9,2L39,112.1z M52.2,150.8c-1.8,0-3.3-0.6-4.4-1.7
								c-1.1-1.1-1.7-2.8-1.7-5.1c0-0.9,0.2-2.2,0.5-3.7l3.8-18.2h8.1l-4.1,19.2c-0.1,0.5-0.2,0.9-0.2,1.4c0,1.7,0.6,2.5,1.7,2.5
								c1.1,0,2-0.4,2.7-1.3c0.7-0.9,1.4-2.1,1.8-3.6l3.8-18.2h8.1l-4.1,19.2c-0.2,0.9-0.3,1.6-0.3,2c0,1.2,0.6,1.9,1.9,1.9
								c1.7,0,3.3-1.1,4.8-3.3c1.5-2.2,2.7-4.8,3.6-7.8c0.9-3,1.4-5.6,1.4-7.8c-0.1,0.2-0.3,0.3-0.7,0.4c-0.4,0.1-0.8,0.1-1.1,0.1
								c-0.6,0-1.1-0.3-1.5-0.9s-0.5-1.3-0.5-2c0-0.9,0.3-1.6,0.9-2.2c0.6-0.6,1.5-0.8,2.6-0.8c1.2,0,2.2,0.5,2.7,1.4
								c0.6,0.9,0.8,2.1,0.8,3.5c0,3.4-0.6,7-1.8,10.9c-1.2,3.9-3,7.2-5.4,9.9s-5.4,4.1-9,4.1c-1.8,0-3.4-0.4-4.5-1.2
								c-1.2-0.8-1.9-2-2.3-3.6C58.1,149.2,55.4,150.8,52.2,150.8z M92.1,150.8c-2.8,0-5-0.7-6.5-2.2s-2.3-3.7-2.3-6.8
								c0-2.6,0.5-5.5,1.5-8.6c1-3.1,2.7-5.8,5-8.1c2.3-2.3,5.2-3.4,8.8-3.4c4.1,0,6.2,1.8,6.2,5.4c0,2.1-0.6,4.1-1.8,5.8
								c-1.2,1.8-2.8,3.2-4.8,4.3c-2,1.1-4.1,1.7-6.4,1.8c-0.1,1.1-0.1,1.9-0.1,2.3c0,1.8,0.3,3.1,1,3.8c0.6,0.7,1.7,1,3.1,1
								c2,0,3.8-0.5,5.2-1.4c1.4-0.9,3-2.4,4.8-4.3h1.9C103.4,147.4,98.2,150.8,92.1,150.8z M92.2,136.4c1.4-0.1,2.7-0.6,4-1.5
								c1.3-0.9,2.3-2.1,3.1-3.5c0.8-1.4,1.2-2.9,1.2-4.4c0-1.5-0.5-2.3-1.4-2.3c-1.4,0-2.7,1.2-4,3.6
								C93.7,130.6,92.7,133.2,92.2,136.4z M112.1,150.8c-1.8,0-3.3-0.3-4.6-1c-1.2-0.7-2.2-1.6-2.8-2.7c-0.6-1.1-0.9-2.3-0.9-3.5
								s0.3-2.3,0.9-3.3s1.3-1.6,2.1-2c1.5-2.6,2.8-5.3,3.8-8c1.1-2.7,2.1-5.6,3.1-8.7l8.4-1.1c0.2,4.8,0.5,10.1,1,15.7
								c0.2,2.3,0.3,3.9,0.3,4.9c0,0.9-0.1,1.6-0.2,2.2c1.8-1,3.1-2,4.1-2.8h2.4c-2.4,2.8-5.3,5.1-8.7,7.1c-1.1,1.2-2.4,2-4,2.6
								C115.4,150.7,113.8,150.8,112.1,150.8z M110.3,146.4c1.4,0,2.6-0.4,3.5-1.2c0.9-0.8,1.4-2.2,1.4-4c0-1.1-0.1-2.7-0.3-4.8
								c-0.4-4.3-0.6-7.2-0.7-8.7c-0.9,3-2.4,6.5-4.6,10.7c0.9,0.5,1.3,1.1,1.3,2c0,0.7-0.2,1.4-0.7,1.9c-0.5,0.6-1.1,0.8-1.8,0.8
								c-0.8,0-1.3-0.2-1.5-0.7c0,1.4,0.3,2.4,0.8,3C108.2,146.1,109.1,146.4,110.3,146.4z M135.6,150.6c-2.8,0-5-0.7-6.6-2.2
								c-1.6-1.4-2.4-3.7-2.4-6.8c0-2.6,0.5-5.4,1.6-8.5c1.1-3.1,2.8-5.8,5.1-8.1c2.3-2.3,5.3-3.4,8.8-3.4c4.8,0,7.2,3,7.2,9.1v0.1
								c0.1,0,0.3,0.1,0.6,0.1c1.2,0,2.7-0.3,4.3-1s3.1-1.5,4.4-2.4l0.5,1.5c-1.1,1.2-2.5,2.2-4.3,3s-3.7,1.4-5.7,1.7
								c-0.3,3.4-1.1,6.4-2.3,9c-1.2,2.6-2.8,4.5-4.8,5.9C140,149.9,137.9,150.6,135.6,150.6z M137.8,145.6c0.9,0,1.8-0.5,2.7-1.6
								c0.9-1,1.7-2.5,2.4-4.2c0.7-1.8,1.2-3.8,1.5-6c-1-0.2-1.5-1-1.5-2.4c0-1.5,0.6-2.6,1.8-3.1c-0.1-1.2-0.3-2.1-0.6-2.6
								s-0.8-0.7-1.6-0.7c-1.2,0-2.5,0.9-3.6,2.7c-1.2,1.8-2.1,4-2.8,6.5c-0.7,2.5-1.1,4.8-1.1,6.7c0,1.8,0.2,3,0.6,3.6
								C136,145.2,136.7,145.6,137.8,145.6z M186.5,150.8c-2.3,0-4-0.6-5.1-1.8s-1.6-2.7-1.6-4.6c0-0.8,0.1-1.7,0.3-2.7
								s0.4-2,0.6-2.9c0.2-0.9,0.3-1.5,0.4-1.8c0.3-1.3,0.6-2.6,0.8-3.9s0.4-2.3,0.4-3.1c0-1.9-0.7-2.9-2-2.9c-1,0-1.8,0.5-2.6,1.4
								c-0.8,1-1.4,2.2-1.8,3.8l-3.8,18.2H164l4.1-19.5c0.1-0.5,0.2-0.9,0.2-1.4c0-1.7-0.6-2.5-1.7-2.5c-1.1,0-2,0.5-2.7,1.4
								c-0.8,1-1.4,2.2-1.8,3.8l-3.8,18.2h-8.1l6-28.3h8.1l-0.6,2.9c1.9-2.2,4.2-3.2,6.9-3.2c3.3,0,5.3,1.6,5.8,4.9
								c2.1-3.2,4.7-4.8,7.9-4.8c1.9,0,3.5,0.5,4.6,1.6s1.7,2.7,1.7,4.8c0,1.1-0.1,2.3-0.4,3.6c-0.3,1.3-0.6,3-1.1,4.9
								c-0.3,1.2-0.6,2.3-0.8,3.4c-0.2,1.1-0.4,2-0.4,2.6c0,0.8,0.2,1.3,0.5,1.8s0.9,0.6,1.8,0.6c1.1,0,2-0.4,2.7-1.2
								c0.7-0.8,1.4-2.1,2-3.8h2.4c-1.4,4.1-3,6.9-4.8,8.3C190.7,149.9,188.5,150.8,186.5,150.8z M202.7,150.8
								c-2.8,0-4.9-0.7-6.5-2.2c-1.5-1.5-2.3-3.7-2.3-6.8c0-2.6,0.5-5.5,1.5-8.6c1-3.1,2.7-5.8,5-8.1c2.3-2.3,5.2-3.4,8.8-3.4
								c4.1,0,6.2,1.8,6.2,5.4c0,2.1-0.6,4.1-1.8,5.8c-1.2,1.8-2.8,3.2-4.8,4.3c-2,1.1-4.1,1.7-6.4,1.8c-0.1,0.8-0.1,1.4-0.1,1.7
								c0,3.1,1.2,4.7,3.5,4.7c1.1,0,2.2-0.3,3.4-0.8c1.2-0.6,2.3-1.3,3.3-2.2C211.4,148.1,208.2,150.8,202.7,150.8z M202.8,136.4
								c1.4,0,2.8-0.5,4-1.4c1.3-0.9,2.3-2.1,3.1-3.5c0.8-1.4,1.2-2.9,1.2-4.4s-0.5-2.3-1.4-2.3c-1.3,0-2.6,1.2-3.9,3.6
								C204.5,130.8,203.4,133.4,202.8,136.4z"/>
							<path id="profile-cards_1_" class="st3" d="M30,168.2h8.2l-0.9,4.2c1.9-1.6,4.1-2.4,6.6-2.4c2.1,0,3.8,0.7,5,2.1
								c1.2,1.4,1.9,3.7,1.9,6.8c0,3-0.4,6-1.3,9c-0.9,3-2.3,5.6-4.4,7.8c-2.1,2.1-4.8,3.2-8.2,3.2c-2.4,0-4-0.7-4.8-2l-2.9,13.8
								l-8.5,2L30,168.2z M35.1,193.9c1.8,0,3.3-0.8,4.5-2.5s2.1-3.7,2.6-6.1s0.8-4.6,0.8-6.6c0-3.1-0.9-4.7-2.8-4.7
								c-0.7,0-1.4,0.2-2.1,0.7s-1.3,1.2-1.8,2L33,192.5C33.3,193.6,34,193.9,35.1,193.9z M56.1,170.2h8.1l-0.7,3.5
								c1.3-1.1,2.4-2,3.5-2.6c1-0.6,2.2-0.9,3.4-0.9c1.2,0,2.2,0.4,2.9,1.2c0.7,0.8,1,1.8,1,3c0,1.1-0.4,2.1-1.1,2.9
								s-1.7,1.2-3,1.2c-0.8,0-1.4-0.2-1.7-0.6c-0.3-0.4-0.5-1-0.7-1.7c-0.1-0.5-0.2-0.8-0.3-1.1s-0.3-0.3-0.6-0.3
								c-0.8,0-1.5,0.2-2,0.5s-1.3,0.9-2.1,1.7l-4.6,21.5h-8.1L56.1,170.2z M81.8,198.8c-2.8,0-5-0.7-6.6-2.2
								c-1.6-1.4-2.4-3.7-2.4-6.8c0-2.6,0.5-5.4,1.6-8.5s2.8-5.8,5.1-8.1s5.3-3.4,8.8-3.4c4.8,0,7.2,3,7.2,9.1v0.1
								c0.1,0,0.3,0.1,0.6,0.1c1.2,0,2.7-0.3,4.3-1c1.6-0.7,3.1-1.5,4.4-2.4l0.5,1.5c-1.1,1.2-2.5,2.2-4.3,3s-3.7,1.4-5.7,1.7
								c-0.3,3.4-1.1,6.4-2.3,9c-1.2,2.6-2.8,4.5-4.8,5.9C86.2,198.1,84.1,198.8,81.8,198.8z M84,193.7c0.9,0,1.8-0.5,2.7-1.6
								s1.7-2.5,2.4-4.2s1.2-3.8,1.5-6c-1-0.2-1.5-1-1.5-2.4c0-1.5,0.6-2.6,1.8-3.1c-0.1-1.2-0.3-2.1-0.6-2.6
								c-0.3-0.5-0.8-0.7-1.6-0.7c-1.2,0-2.5,0.9-3.6,2.7c-1.2,1.8-2.1,4-2.8,6.5s-1.1,4.8-1.1,6.7c0,1.8,0.2,3,0.6,3.6
								C82.2,193.4,82.9,193.7,84,193.7z M93.6,212.7c-2.1,0-3.8-0.6-5.1-1.7c-1.3-1.2-2-2.7-2-4.6c0-1.6,0.5-2.9,1.4-3.9
								s2-1.8,3.3-2.4c1.3-0.6,3-1.2,5.1-1.9l6.3-29.8c1-4.7,2.7-7.9,5.1-9.6c2.4-1.7,5.1-2.6,8.1-2.6c2.8,0,5.2,0.5,7.2,1.4
								s2.9,2.6,2.9,5.1c0,1.6-0.4,2.7-1.3,3.5s-1.9,1.1-3.2,1.1c-1,0-1.8-0.2-2.4-0.7s-1-1.3-1-2.3c0-0.7,0.2-1.4,0.5-1.9
								c0.4-0.6,0.8-0.8,1.4-0.8c0.3,0,0.4,0,0.5,0.1c0-0.8-0.3-1.3-0.9-1.7c-0.5-0.4-1.3-0.6-2.2-0.6c-1.7,0-3,0.6-4,1.8
								s-1.7,2.7-2,4.6l-1,4.6h4.5l-0.5,2.3h-4.5l-6.5,30.6c-0.8,3.5-2.1,6-3.9,7.5C97.8,211.9,95.8,212.7,93.6,212.7z M119,198.9
								c-1.8,0-3.3-0.6-4.4-1.7c-1.1-1.1-1.7-2.8-1.7-5.1c0-0.9,0.2-2.2,0.5-3.7l3.8-18.2h8.1l-4.1,19.2c-0.2,0.6-0.2,1.2-0.2,1.8
								c0,0.8,0.2,1.3,0.5,1.6c0.4,0.3,1,0.5,1.8,0.5c1.1,0,2.1-0.5,3.1-1.4s1.6-2.1,2-3.6h2.4c-1.4,4.1-3.2,6.8-5.4,8.3
								C123.4,198.2,121.2,198.9,119,198.9z M92.1,207.7c0.6,0,1.3-0.4,1.9-1.1s1.1-1.8,1.4-3.3l0.7-3.3c-1.9,0.6-3.5,1.4-4.6,2.3
								s-1.7,2-1.7,3.1c0,0.8,0.3,1.4,0.8,1.8C91.1,207.4,91.6,207.7,92.1,207.7z M134.2,198.9c-1.8,0-3.3-0.6-4.4-1.7
								c-1.1-1.1-1.7-2.8-1.7-5.1c0-0.9,0.2-2.2,0.5-3.7l6.1-28.3l8.4-1.1l-6.5,30.6c-0.2,0.6-0.2,1.2-0.2,1.8
								c0,0.8,0.2,1.3,0.5,1.6c0.4,0.3,1,0.5,1.8,0.5c1.1,0,2.1-0.5,3.1-1.4c0.9-0.9,1.6-2.1,2-3.6h2.4c-1.4,4.1-3.2,6.8-5.4,8.3
								C138.5,198.2,136.3,198.9,134.2,198.9z M151.6,198.9c-2.8,0-4.9-0.7-6.5-2.2c-1.5-1.5-2.3-3.7-2.3-6.8c0-2.6,0.5-5.5,1.5-8.6
								s2.7-5.8,5-8.1s5.2-3.4,8.8-3.4c4.1,0,6.2,1.8,6.2,5.4c0,2.1-0.6,4.1-1.8,5.8s-2.8,3.2-4.8,4.3s-4.1,1.7-6.4,1.8
								c-0.1,0.8-0.1,1.4-0.1,1.7c0,3.1,1.2,4.7,3.5,4.7c1.1,0,2.2-0.3,3.4-0.8c1.2-0.6,2.3-1.3,3.3-2.2
								C160.4,196.2,157.1,198.9,151.6,198.9z M151.7,184.4c1.4,0,2.8-0.5,4-1.4c1.3-0.9,2.3-2.1,3.1-3.5s1.2-2.9,1.2-4.4
								s-0.5-2.3-1.4-2.3c-1.3,0-2.6,1.2-3.9,3.6S152.4,181.4,151.7,184.4z M166.5,181.6h11.3l-1,4.5h-11.4L166.5,181.6z
								 M188.9,198.9c-2.8,0-5-0.7-6.5-2.2s-2.3-3.7-2.3-6.8c0-2.6,0.5-5.5,1.6-8.6c1-3.1,2.7-5.8,5-8.1s5.2-3.4,8.7-3.4
								c2.3,0,3.9,0.5,4.8,1.5c1,1,1.4,2.2,1.4,3.7c0,1.3-0.3,2.3-0.8,3.1s-1.3,1.1-2.2,1.1c-0.6,0-1.3-0.2-2-0.7
								c0.5-1.2,0.7-2.4,0.7-3.3c0-0.7-0.1-1.3-0.4-1.7c-0.3-0.4-0.7-0.6-1.2-0.6c-1.1,0-2.3,0.9-3.4,2.8c-1.1,1.8-2.1,4.1-2.8,6.7
								c-0.7,2.6-1.1,5-1.1,7.1c0,1.8,0.3,3.1,1,3.8c0.6,0.7,1.7,1,3.1,1c2,0,3.8-0.5,5.2-1.4s3-2.4,4.8-4.3h1.9
								C200.2,195.4,195.1,198.9,188.9,198.9z M209.3,198.9c-2.2,0-3.9-0.7-5.4-2.2c-1.4-1.5-2.2-3.8-2.2-6.9c0-2.8,0.6-5.7,1.7-8.8
								c1.1-3.1,2.8-5.7,5-7.8s4.8-3.2,7.9-3.2c1.5,0,2.7,0.3,3.5,0.8s1.1,1.2,1.1,2.1v0.4l0.6-3h8.1l-4.1,19.2
								c-0.2,0.6-0.2,1.2-0.2,1.8c0,1.6,0.8,2.4,2.3,2.4c1.1,0,2-0.5,2.7-1.5c0.8-1,1.4-2.3,1.8-3.8h2.4c-1.4,4.1-3.1,6.8-5.2,8.3
								c-2.1,1.5-4.1,2.2-6.2,2.2c-1.6,0-2.9-0.4-3.8-1.3s-1.5-2.2-1.7-3.9c-1.1,1.5-2.3,2.8-3.6,3.8
								C212.7,198.4,211.1,198.9,209.3,198.9z M213,193.4c0.9,0,1.9-0.4,2.8-1.3c0.9-0.9,1.6-2.1,1.9-3.6l2.7-12.8
								c0-0.5-0.2-1-0.6-1.4c-0.4-0.5-1-0.7-1.8-0.7c-1.5,0-2.9,0.9-4.1,2.6c-1.2,1.8-2.2,3.9-2.8,6.3c-0.7,2.5-1,4.6-1,6.5
								s0.3,3.1,0.8,3.6C211.5,193.2,212.2,193.4,213,193.4z M236.1,170.2h8.1l-0.7,3.5c1.3-1.1,2.4-2,3.5-2.6
								c1-0.6,2.2-0.9,3.4-0.9s2.2,0.4,2.9,1.2s1,1.8,1,3c0,1.1-0.4,2.1-1.1,2.9s-1.7,1.2-3,1.2c-0.8,0-1.4-0.2-1.7-0.6
								c-0.3-0.4-0.5-1-0.7-1.7c-0.1-0.5-0.2-0.8-0.3-1.1s-0.3-0.3-0.6-0.3c-0.8,0-1.5,0.2-2,0.5s-1.3,0.9-2.1,1.7l-4.5,21.5h-8.1
								L236.1,170.2z M260.3,198.9c-2.2,0-3.9-0.7-5.4-2.2c-1.4-1.5-2.2-3.8-2.2-6.9c0-2.8,0.6-5.7,1.7-8.8c1.1-3.1,2.8-5.7,5-7.8
								c2.2-2.1,4.8-3.2,7.9-3.2c1.5,0,2.7,0.3,3.5,0.8c0.8,0.5,1.1,1.2,1.1,2.1v0.2l2.8-13l8.4-1.1l-6.5,30.6
								c-0.2,0.6-0.2,1.2-0.2,1.8c0,0.8,0.2,1.3,0.5,1.6c0.4,0.3,1,0.5,1.8,0.5c1.1,0,2-0.5,2.7-1.4c0.8-0.9,1.4-2.1,1.8-3.6h2.4
								c-2.3,6.8-6.1,10.1-11.4,10.1c-1.5,0-2.8-0.4-3.8-1.2c-1-0.8-1.6-2-1.8-3.6c-1,1.5-2.2,2.8-3.5,3.7
								C263.8,198.4,262.2,198.9,260.3,198.9z M264,193.4c0.9,0,1.8-0.4,2.7-1.2s1.6-2,1.9-3.5v-0.3l2.8-13c-0.3-1.3-1.1-2-2.3-2
								c-1.5,0-2.9,0.9-4.1,2.6c-1.2,1.8-2.2,3.9-2.8,6.3c-0.7,2.5-1,4.6-1,6.5s0.3,3.1,0.8,3.6C262.5,193.2,263.2,193.4,264,193.4z
								 M289.7,198.9c-1.8,0-3.3-0.3-4.6-1c-1.2-0.7-2.2-1.6-2.8-2.7c-0.6-1.1-0.9-2.3-0.9-3.5s0.3-2.3,0.9-3.3
								c0.6-0.9,1.3-1.6,2.1-2c1.5-2.6,2.8-5.3,3.8-8c1.1-2.7,2.1-5.6,3.1-8.7l8.4-1.1c0.2,4.8,0.5,10.1,1,15.7
								c0.2,2.3,0.3,3.9,0.3,4.9c0,2.3-0.6,4.2-1.8,5.7c-1.2,1.5-2.6,2.5-4.3,3.2C293.2,198.6,291.5,198.9,289.7,198.9z
								 M287.9,194.4c1.4,0,2.6-0.4,3.5-1.2s1.4-2.2,1.4-4c0-1.1-0.1-2.7-0.3-4.8c-0.4-4.3-0.6-7.2-0.7-8.7c-0.9,3-2.4,6.5-4.6,10.7
								c0.9,0.5,1.3,1.1,1.3,2c0,0.7-0.2,1.4-0.7,1.9c-0.5,0.6-1.1,0.8-1.8,0.8c-0.8,0-1.3-0.2-1.5-0.7c0,1.4,0.3,2.4,0.8,3
								C285.8,194.2,286.7,194.4,287.9,194.4z"/>
						</g>
					</g>
				</g>
			</g>
		</g>
	</g>
	<g id="Capa_2_1_" class="st1">
		<g class="st0">
			<path class="st1" d="M-62.5,161.9c9,0,16.4-7.4,16.4-16.4c0-9-7.4-16.4-16.4-16.4s-16.4,7.4-16.4,16.4S-71.5,161.9-62.5,161.9z
				 M-62.5,135.9c5.3,0,9.5,4.3,9.5,9.5s-4.3,9.5-9.5,9.5c-5.3,0-9.5-4.3-9.5-9.5S-67.7,135.9-62.5,135.9z"/>
			<path class="st1" d="M-39.1,172.9h-13.4c-3.5,0-6.4-2.9-6.4-6.4v-1.1H-59h-6.8h-0.1v1.1c0,3.5-2.9,6.4-6.4,6.4h-13.5
				c-7.3,0-13.3,6-13.3,13.3h6.9c0-3.5,2.9-6.4,6.4-6.4h13.4c3.9,0,7.5-1.7,9.9-4.4c2.4,2.7,6,4.4,9.9,4.4h13.4
				c3.5,0,6.4,2.9,6.4,6.4h6.9C-25.8,178.9-31.8,172.9-39.1,172.9z"/>
			<polygon class="st1" points="-28,109.6 -28,116.5 -15,116.5 -15,200.4 -28,200.4 -28,207.4 -8.1,207.4 -8.1,109.6 			"/>
			<polygon class="st1" points="-109.9,116.5 -96.9,116.5 -96.9,109.6 -116.8,109.6 -116.8,207.4 -96.9,207.4 -96.9,200.4 
				-109.9,200.4 			"/>
		</g>
		<g>
			<g>
				<path class="st6" d="M15.2,179.9v-4.9h5.4v-33.9h-5.4v-4.9h7c3.6,4.6,7.1,9.2,10.7,13.8c3.5,4.6,7.1,9.2,10.7,13.8
					c3.6-4.6,7.1-9.2,10.7-13.8c3.5-4.6,7.1-9.2,10.7-13.8h7v4.9h-5.4v33.9H72v4.9H56.7v-4.9h4.5v-24.5c0-0.3,0.1-0.7,0.1-1
					s0.1-0.7,0.1-1c-0.3,0.5-0.7,0.9-1,1.4s-0.7,1-1,1.4l-15.9,20.7l-16.6-21.7c-0.3-0.4-0.5-0.7-0.7-0.9c-0.2-0.2-0.4-0.6-0.6-0.9
					c0,0.3,0.1,0.7,0.1,1s0.1,0.7,0.1,1v24.4h4.5v4.9H15.2V179.9z"/>
				<path class="st6" d="M107.2,178.7c-2.7,1.2-5.6,1.8-8.7,1.8s-6-0.6-8.7-1.8s-5.1-2.8-7.1-4.8s-3.6-4.4-4.8-7.1
					c-1.2-2.7-1.8-5.6-1.8-8.7c0-3,0.6-5.9,1.8-8.7c1.2-2.7,2.8-5.1,4.8-7.2c2-2,4.4-3.7,7.1-4.8c2.7-1.2,5.6-1.8,8.7-1.8
					c3,0,5.9,0.6,8.7,1.8c2.7,1.2,5.1,2.8,7.2,4.8c2,2,3.7,4.4,4.8,7.2c1.2,2.7,1.8,5.6,1.8,8.7c0,3.1-0.6,6-1.8,8.7
					c-1.2,2.7-2.8,5.1-4.8,7.1C112.3,175.9,109.9,177.6,107.2,178.7z M91.9,174.2c2.1,0.9,4.3,1.4,6.7,1.4s4.6-0.5,6.7-1.4
					s3.9-2.2,5.5-3.8c1.5-1.5,2.8-3.4,3.7-5.5c0.9-2.1,1.3-4.4,1.3-6.8c0-2.4-0.4-4.7-1.3-6.8s-2.1-3.9-3.7-5.5
					c-1.6-1.6-3.4-2.8-5.5-3.8c-2.1-0.9-4.3-1.4-6.7-1.4s-4.6,0.5-6.7,1.4c-2.1,0.9-3.9,2.2-5.4,3.8c-1.6,1.6-2.8,3.4-3.7,5.5
					c-0.9,2.1-1.3,4.4-1.3,6.8c0,2.4,0.4,4.7,1.3,6.8s2.1,3.9,3.7,5.5C88,171.9,89.8,173.2,91.9,174.2z"/>
				<path class="st6" d="M125.3,179.9v-5h2.9v-33.8h-2.9v-4.9h13.1c3,0,5.8,0.5,8.5,1.5s5,2.5,7,4.4c2,1.9,3.6,4.2,4.8,6.9
					c1.2,2.7,1.8,5.7,1.8,9.1c0,2.5-0.4,5-1.3,7.6c-0.9,2.6-2.2,4.9-4.2,7c-1.9,2.1-4.4,3.9-7.5,5.2c-3.1,1.4-6.8,2-11.2,2H125.3z
					 M133.5,174.9h4.4c2.5,0,4.8-0.4,6.9-1.2c2.1-0.8,4-1.9,5.6-3.4c1.5-1.5,2.8-3.2,3.7-5.3s1.3-4.4,1.3-7s-0.4-4.9-1.3-7
					c-0.9-2.1-2.1-3.9-3.7-5.4c-1.6-1.5-3.4-2.6-5.6-3.4c-2.1-0.8-4.4-1.2-6.9-1.2h-4.4V174.9z"/>
				<path class="st6" d="M169.6,149.9c1.2-1.9,2.5-3.8,3.8-5.7c1.2-1.9,2.5-3.8,3.8-5.7c1.2,1.9,2.5,3.8,3.8,5.7
					c1.2,1.9,2.5,3.8,3.8,5.7h-3.7c-0.6-0.8-1.3-1.5-1.9-2.2c-0.6-0.8-1.3-1.5-1.9-2.3c-0.6,0.8-1.3,1.5-1.9,2.3
					c-0.6,0.8-1.3,1.5-1.9,2.2H169.6z"/>
				<path class="st6" d="M194.2,179.9v-4.9h3.5v-33.9h-3.5v-4.9h13.9v4.9h-5.2v33.9h17.7v-4.7h4.9v9.6L194.2,179.9L194.2,179.9z"/>
				<path class="st6" d="M277,179.6c-1.9,0.6-3.9,0.8-6,0.8c-3.1,0-6-0.6-8.7-1.8c-2.7-1.2-5.1-2.8-7.1-4.8s-3.6-4.4-4.8-7.1
					c-1.2-2.7-1.8-5.6-1.8-8.7c0-3.1,0.6-6,1.8-8.7s2.8-5.1,4.8-7.2c2-2,4.4-3.6,7.1-4.8s5.6-1.8,8.7-1.8c2.1,0,4.1,0.3,6,0.8
					s3.7,1.3,5.4,2.3v7h-4.9v-3.8c-1-0.5-2.1-0.8-3.2-1s-2.2-0.3-3.3-0.3c-2.4,0-4.6,0.5-6.7,1.4c-2.1,0.9-3.9,2.2-5.4,3.8
					c-1.6,1.6-2.8,3.5-3.7,5.6s-1.3,4.4-1.3,6.8c0,2.4,0.4,4.6,1.3,6.8c0.9,2.1,2.1,4,3.7,5.5c1.5,1.6,3.3,2.8,5.4,3.8
					c2.1,0.9,4.3,1.4,6.7,1.4c1.5,0,3-0.2,4.5-0.6c1.4-0.4,2.8-1,4.1-1.7l2.8,4.1C280.7,178.2,278.9,179.1,277,179.6z"/>
				<path class="st6" d="M286.8,179.9v-4.9h5.1c2.9-6.9,5.8-13.7,8.7-20.4c2.9-6.7,5.8-13.5,8.7-20.4c2.9,6.9,5.8,13.7,8.7,20.4
					c2.9,6.7,5.8,13.5,8.7,20.4h5.1v4.9h-13.9v-4.9h3.5c-0.9-2.1-1.7-4.1-2.6-6.2c-0.9-2-1.7-4.1-2.6-6.2h-13.8
					c-1.2,2.8-2,4.8-2.6,6.2s-1.5,3.4-2.6,6.2h3.6v4.9H286.8z M306.4,152.9c-0.7,1.8-1.3,3.4-1.9,4.8h9.5l-4.2-9.9l-0.6-2.1
					c-0.2,0.7-0.3,1.1-0.4,1.4s-0.2,0.5-0.2,0.6C307.8,149.4,307.1,151.1,306.4,152.9z"/>
				<path class="st6" d="M336,179.9v-4.9h2.8v-33.9H336v-4.9h13.2c1.4,0,3,0.2,4.7,0.7c1.7,0.4,3.3,1.1,4.8,2.1s2.8,2.2,3.8,3.7
					s1.5,3.3,1.5,5.4c0,3.1-0.8,5.7-2.3,7.8c-1.6,2.1-3.8,3.5-6.8,4.1l7,15h5.9v4.9h-9.1l-9.2-19.6c-0.6,0-1,0-1.3,0s-0.8,0-1.3,0
					h-2.6v14.6h7.1v4.9H336V179.9z M344,155.4h5.4c1.8,0,3.3-0.2,4.5-0.7s2.1-1.1,2.8-1.8c0.7-0.7,1.2-1.5,1.5-2.4
					c0.3-0.9,0.4-1.7,0.4-2.5c0-0.9-0.2-1.8-0.7-2.6c-0.5-0.8-1.1-1.6-1.9-2.2c-0.8-0.6-1.8-1.1-3-1.5c-1.1-0.4-2.4-0.6-3.7-0.6
					h-5.5v14.3H344z"/>
				<path class="st6" d="M372,179.9v-5h2.9v-33.8H372v-4.9h13.2c3,0,5.8,0.5,8.5,1.5s5,2.5,7,4.4c2,1.9,3.6,4.2,4.8,6.9
					c1.2,2.7,1.8,5.7,1.8,9.1c0,2.5-0.4,5-1.3,7.6s-2.2,4.9-4.2,7c-1.9,2.1-4.4,3.9-7.5,5.2c-3.1,1.4-6.8,2-11.2,2H372z
					 M380.2,174.9h4.4c2.5,0,4.8-0.4,6.9-1.2s4-1.9,5.6-3.4c1.5-1.5,2.8-3.2,3.7-5.3c0.9-2.1,1.3-4.4,1.3-7s-0.4-4.9-1.3-7
					s-2.1-3.9-3.7-5.4s-3.4-2.6-5.6-3.4c-2.1-0.8-4.4-1.2-6.9-1.2h-4.4V174.9z"/>
				<path class="st6" d="M430,179.6c-1.6,0.6-3.2,0.8-5,0.8c-1.6,0-3.1-0.2-4.6-0.5c-1.5-0.4-2.9-0.8-4.1-1.4
					c-1.2-0.6-2.4-1.2-3.3-2c-1-0.8-1.7-1.5-2.3-2.4v-7.2h4.9v5.6c1.1,0.8,2.4,1.6,3.9,2.2c1.5,0.6,3.2,0.9,5.1,0.9
					c1.1,0,2.1-0.2,3.1-0.5s1.9-0.8,2.7-1.3c0.8-0.6,1.4-1.4,1.8-2.3c0.5-0.9,0.7-2,0.7-3.2c0-0.8-0.1-1.5-0.2-2.2
					c-0.1-0.8-0.3-1.4-0.7-1.9c-0.5-0.9-1.2-1.6-1.9-2.1c-0.7-0.5-1.6-1-2.5-1.5c-1.5-0.6-3.1-1.2-4.9-1.6c-1.8-0.5-3.4-1.1-4.9-1.9
					c-1.5-0.8-2.8-1.9-3.8-3.3c-1-1.4-1.6-3.4-1.6-6c0-1.4,0.1-2.8,0.6-4.1c0.4-1.4,1.1-2.6,2.1-3.8c1-1.1,2.2-2,3.8-2.8
					c1.6-0.7,3.5-1.1,5.8-1.1c0.8,0,1.6,0,2.4,0.1c0.9,0.1,1.8,0.2,2.8,0.5c1,0.2,1.9,0.6,3,1.1c1,0.5,2,1.2,3,2v6.1H431v-3.7
					c-0.8-0.3-1.7-0.6-2.8-0.9c-1-0.2-2.2-0.4-3.4-0.4s-2.3,0.2-3.2,0.6c-0.9,0.4-1.7,0.9-2.2,1.6c-0.5,0.6-0.9,1.3-1.2,2.2
					c-0.3,0.8-0.4,1.7-0.4,2.6c0,1.2,0.3,2.3,0.9,3c0.6,0.8,1.4,1.4,2.3,2c1.5,0.8,3.3,1.5,5.4,2.1s4.1,1.4,6,2.3
					c1.8,0.8,3.2,2.1,4.2,3.9c1.1,1.8,1.6,4.1,1.6,7.2c0,1.9-0.3,3.6-1,5.1s-1.6,2.8-2.8,3.9C433,178.2,431.6,179.1,430,179.6z"/>
			</g>
		</g>
		<g>
			<circle class="st7" cx="226.1" cy="50.8" r="9.9"/>
			<g>
				<path class="st7" d="M200.8,81.8L200.8,81.8c0-4.2,3.4-7.5,7.5-7.5h10.2c4.2,0,7.5-3.4,7.5-7.5v-0.9"/>
				<path class="st7" d="M251.4,81.8L251.4,81.8c0-4.2-3.4-7.5-7.5-7.5h-10.2c-4.2,0-7.5-3.4-7.5-7.5v-0.9"/>
			</g>
			<g>
				<polyline class="st8" points="252.4,26.1 264.9,26.1 264.9,95.2 252.4,95.2 				"/>
				<polyline class="st8" points="199.9,95.2 187.4,95.2 187.4,26.1 199.9,26.1 				"/>
			</g>
		</g>
	</g>
</g>
<g id="Capa_3">
	<g>
		<circle class="st9" cx="226.7" cy="32.3" r="11.6"/>
		<g>
			<path class="st9" d="M197.2,68.5L197.2,68.5c0-4.8,3.9-8.8,8.8-8.8h11.9c4.8,0,8.8-3.9,8.8-8.8v-1"/>
			<path class="st9" d="M256.3,68.5L256.3,68.5c0-4.8-3.9-8.8-8.8-8.8h-11.9c-4.8,0-8.8-3.9-8.8-8.8v-1"/>
		</g>
		<g>
			<polyline class="st10" points="257.5,3.4 272,3.4 272,84.3 257.5,84.3 			"/>
			<polyline class="st10" points="196.1,84.3 181.5,84.3 181.5,3.4 196.1,3.4 			"/>
		</g>
	</g>
	<g>
		<g>
			<path class="st6" d="M3.8,184.1c-1.2,0-2.1-0.4-2.6-1.1s-0.8-1.8-0.8-3c0-1.1,0.2-2.2,0.5-3.2c0.3-1,0.7-1.9,1.1-2.7
				c0.4-0.8,1.7-2.4,3.9-4.8c2.2-2.4,3.7-5.4,4.5-9.1c0.8-3.7,1.8-8.2,3-13.6c0.8-2.1,1.7-3.3,3-3.5c1.2-0.2,2-0.3,2.3-0.3
				c1.1,0,2.1,0.4,2.8,1.2c0.8,0.8,1.1,1.8,0.9,3c-0.7,8.2-1.5,14.7-2.3,19.4c-0.8,4.7-2.5,8.8-5,12.4
				C12.5,182.3,8.8,184.1,3.8,184.1z M46.9,142.1c-2.2,1.3-4,3.5-5.4,6.3c-1.4,2.9-2.9,6.7-4.4,11.3c-1.5,4.7-2.6,7.7-3.3,9
				c-0.7,1.3-1.6,2.4-2.6,3.1c-1.1,0.8-2.2,1.1-3.2,1.1c-1.2,0-2-0.5-2.5-1.6c-0.5-1.1-0.8-2.2-1-3.4c-0.2-1.2-0.3-2.5-0.3-3.9
				c0-1.6,0.2-3.9,0.6-7.1c0.4-3.2,0.6-5.5,0.6-7.1c0-1-0.1-2-0.2-3.1c-0.1-1-0.3-1.9-0.5-2.6c-0.2-0.7-0.5-1.4-0.9-1.9
				c-0.4-0.5-0.8-0.8-1.1-0.8c-0.4,0-0.7-0.1-0.9-0.1c-0.2,0-0.4,0-0.5,0c-0.5,0-1.4,0.1-2.5,0.2c-1.1,0.1-1.9,0.2-2.4,0.2
				c-0.7,0-1.2-0.1-1.7-0.2c-0.4-0.1-1-0.3-1.7-0.7c-0.7-0.4-1.2-1-1.6-1.8c-0.4-0.8-0.6-1.7-0.6-2.6c0-1,0.3-2.3,1-3.9
				c0.7-1.5,2-2.8,3.9-3.8c1.9-1,4-1.5,6.4-1.5c1.8,0,3.7,0.3,5.7,1c2,0.7,3.6,2.2,4.9,4.4c1.2,2.2,1.8,4.7,1.8,7.4
				c0,1.1-0.1,2.1-0.3,3c2.1-3.1,4-5.8,5.7-7.9c1.8-2.1,3.8-4,6.1-5.4c2.3-1.5,4.9-2.2,7.7-2.2c1.5,0,2.9,0.2,4.4,0.7
				c1.5,0.4,2.6,1.1,3.3,2.1c0.7,1,1.1,2.1,1.1,3.4c0,0.2,0,0.4,0,0.7c0,0.3-0.3,1.4-0.9,3.4c-0.6,2-3.1,3.2-7.6,3.5
				C49.5,141.7,47.2,141.9,46.9,142.1z M43.2,172.4c-0.9-0.4-1.6-1.1-2.2-2.1c-0.6-1-0.9-2.1-0.9-3.3c0-0.4,0.1-1.8,0.4-4.1
				c0.3-2.3,0.9-5,1.8-8.1c0.9-3.1,2-5.7,3.2-7.7c1.2-2,2.4-3.3,3.4-3.9c1-0.6,2.1-0.9,3.1-0.9c1.4,0,2.3,0.5,2.5,1.4
				c0.2,1,0.3,1.9,0.3,2.8c0,1-0.2,2-0.5,3c-0.4,1-0.7,2.1-0.9,3.2c-0.3,1.1-0.4,2.2-0.4,3.2c0,0.9,0.1,1.7,0.3,2.4
				c0.2,0.7,0.5,1.4,0.9,2c0.4,0.6,0.7,1.2,0.9,1.9c0.1,0.7,0.2,1.4,0.2,2.1c0,2.1-0.9,4.1-2.7,6c-1.8,1.8-3.8,2.8-6.1,2.8
				C45.4,173.2,44.3,173,43.2,172.4z"/>
			<path class="st6" d="M93.6,168.9c-3.3,4.4-7.7,6.6-13.1,6.6c-2,0-3.9-0.3-5.5-0.9s-2.9-1.4-3.7-2.5c-0.8-1.1-1.5-2.2-2-3.4
				c-0.5-1.2-0.9-2.5-1.1-3.9s-0.4-2.7-0.4-4c0-3.6,0.8-6.8,2.4-9.7c1.6-2.9,3.3-4.7,5.1-5.3c1.8-0.7,3-1,3.6-1c1,0,1.8,0.2,2.4,0.7
				c0.6,0.4,0.9,1.1,0.9,2c0,0.9-0.5,2.6-1.5,5.1c-1,2.5-1.5,4.2-1.5,5.3c0,0.5,0,1.1,0.1,1.7c0.1,0.6,0.5,1.3,1.1,2
				c0.7,0.7,1.4,1.1,2.3,1.1c0.5,0,1.5-0.5,2.8-1.4c1.3-0.9,2.5-2.6,3.4-4.9c0.9-2.4,1.4-5,1.4-7.8c0-2-0.1-3.6-0.3-4.9
				c-0.2-1.3-0.5-2.2-1-2.8c-0.5-0.6-1-0.9-1.8-0.9c-0.3,0-0.5,0.1-0.9,0.2c-2.1,1.1-4.2,2.2-6.3,3.3c-0.5,0.1-0.9,0.2-1.3,0.2
				c-1.4,0-2.7-0.4-3.7-1.3c-1.1-0.8-1.6-2-1.6-3.4c0-0.4,0.2-1.5,0.6-3.2c0.4-1.7,1.7-3.4,4.1-5.2c2.4-1.8,4.5-2.8,6.5-3.1
				c2-0.3,3.4-0.4,4.2-0.4c2.1,0,3.9,0.4,5.5,1.1c1.6,0.7,3,2,4.2,3.8c1.2,1.8,2.1,3.9,2.8,6.1c0.7,2.3,1,4.6,1,7.1
				c0,4-0.8,8.1-2.3,12.1C98.4,161.5,96.3,165.3,93.6,168.9z"/>
			<path class="st6" d="M136,179.6c-2.2,2.4-4.8,4.3-7.8,5.6c-3,1.3-6.1,2-9.4,2c-3.1,0-6.1-0.6-9.1-1.8c-2.9-1.2-4.4-3.4-4.4-6.6
				c0-0.3,0.1-1,0.2-2.1c0.1-1.1,1-2.3,2.6-3.5c1.6-1.2,3.3-1.9,5.3-1.9c0.8,0,1.6,0.1,2.5,0.4c0.9,0.3,1.9,0.5,3,0.8
				c1.1,0.2,2.1,0.3,3.1,0.3c2.1,0,3.9-0.4,5.5-1.2c1.6-0.8,3-2.6,4.4-5.3c1.4-2.7,2.5-5.5,3.3-8.2c0.8-2.8,1.2-5.1,1.2-7.1
				c0-2.3-0.5-4.2-1.5-5.9c-1-1.7-2.2-2.8-3.5-3.2c-1.4-0.5-2.2-0.7-2.6-0.8c-0.4,0-0.9-0.1-1.5-0.1c-0.7,0-1.7,0.1-3.1,0.3
				c-1.4,0.2-2.4,0.3-3.1,0.3c-1.1,0-2.1-0.1-2.9-0.4c-0.8-0.3-1.6-0.8-2.4-1.7c-0.8-0.9-1.2-1.9-1.2-3.2c0-1.1,0.3-2.2,1-3.2
				c0.7-1.1,1.6-2,2.7-2.8c1.1-0.8,2.3-1.3,3.6-1.7c1.3-0.4,2.5-0.6,3.6-0.7c1.1-0.1,1.9-0.2,2.3-0.2c0.4,0,0.7,0,1,0
				c4.2,0,7.9,1,11.2,3c3.3,2,5.5,4.8,6.7,8.5c1.2,3.7,1.8,7.4,1.8,11c0,5.4-1.1,10.6-3.3,15.8C142.9,170.9,139.9,175.5,136,179.6z
				 M128.3,155c0.3,1.1,0.4,2.3,0.4,3.4c0,3.3-0.9,6.1-2.7,8.5c-1.8,2.4-4.1,3.6-6.9,3.6c-1.5,0-2.8-0.3-3.9-0.8s-1.9-1.2-2.3-2.1
				c-0.4-0.9-0.6-1.9-0.6-3c0-2.1,0.7-4,2-5.7c1.4-1.8,2.2-3.1,2.6-4.1c0.3-0.9,0.7-2.5,1-4.6c0.3-2.1,1.3-3.9,2.9-5.3
				c1.6-1.4,3.3-2,5.2-2c1,0,1.9,0.3,2.9,0.8c0.7,0.4,1.1,0.8,1.4,1.2c0.3,0.4,0.4,0.9,0.4,1.5c0,0.6-0.4,1.8-1.3,3.7
				c-0.8,1.9-1.3,3.2-1.3,4C128.2,154.3,128.2,154.6,128.3,155z"/>
			<path class="st6" d="M208.6,144.2c-0.4,0.1-0.7,0.2-0.9,0.3c-0.2,0-0.5,0.1-0.9,0.1c-1.2,0-2.6-0.4-4.2-1.3
				c-1.3-0.8-2.4-1.5-3.1-2c-0.7-0.5-1.3-0.7-1.6-0.7c-0.5,0-1,0.2-1.5,0.5c-0.5,0.3-0.7,0.6-0.7,0.9c0.2,2,0.5,4,0.7,6
				c0.3,2,0.4,3.4,0.4,4.2c0,1.2-0.3,2.5-1,4c-0.8,1.5-1.5,2.8-2,3.8c-0.4,0.4-0.7,0.8-1,1.1c-0.3,0.3-0.3,0.7-0.1,0.9
				c0.2,0.3,0.5,0.5,1.1,0.7c0.6,0.2,1.2,0.3,1.8,0.3c0.6,0,1.5-0.3,2.5-0.8c1-0.5,2.6-0.8,4.6-0.8c1.6,0,2.8,0.3,3.7,1
				s1.4,1.7,1.4,3.1c0,1.8-0.3,3.5-1,4.9c-0.7,1.5-1.8,2.7-3.4,3.6c-1.6,0.9-3.3,1.3-5,1.3c-1.5,0-3-0.3-4.3-0.8
				c-1.4-0.5-2.8-1.1-4.4-1.8c-1.6-0.7-2.6-1-3-1c-0.8,0-2,0.4-3.7,1.2c-1.7,0.8-2.9,1.2-3.8,1.2c-0.5,0-1-0.1-1.4-0.3
				c-0.5-0.2-1-0.6-1.6-1.1c-0.6-0.6-0.9-1.4-0.9-2.6c0-0.6,0.1-1.2,0.2-1.7c0.1-0.5,0.3-1,0.5-1.4c0.2-0.5,1.8-2.3,4.8-5.5
				c3-3.2,4.5-5.6,4.5-7.4c0-0.5-0.2-1.5-0.5-3.1c-0.4-1.6-0.6-3-0.8-4.1c-0.2-1.1-0.3-2.5-0.3-4.1c0-1.6,0.2-3,0.5-4.2
				c0.4-1.2,1.2-2.8,2.6-4.5c1.4-1.8,3.4-3.3,6-4.6c2.6-1.3,5.5-1.9,8.5-1.9c0.6,0,1.3,0,1.9,0.1c0.6,0,1.7,0.2,3.2,0.4
				c1.5,0.3,3.1,0.9,4.8,1.8c1.7,1,2.6,2.1,2.9,3.3c0.3,1.2,0.4,2.3,0.4,3.2c0,1.8-0.5,3.4-1.4,4.9
				C211.8,142.6,210.4,143.6,208.6,144.2z"/>
			<path class="st6" d="M265.7,143.3c-0.5,0.1-0.8,0.1-1,0.1c-0.8,0-1.9-0.3-3.3-1c-1.4-0.7-2.5-1-3.1-1c-0.5,0-1.4,0.3-2.6,1
				c-1.2,0.7-2.4,2.4-3.6,5.3c-1.2,2.8-1.8,5.6-1.8,8.4c0,1.6,0.2,2.9,0.7,4c0.4,1.1,0.9,1.8,1.4,2c0.5,0.3,1,0.4,1.4,0.4
				c0.6,0,1.9-0.4,3.9-1.1c2-0.7,3.6-1.1,4.7-1.1c1,0,1.9,0.3,2.7,0.8c0.7,0.5,1.2,1.4,1.5,2.5c0.3,1.1,0.4,2,0.4,2.6
				c0,2.8-1.3,5.2-3.9,7.1c-2.6,1.9-5.6,2.9-8.8,2.9c-5.3,0-9.2-1.5-11.6-4.6c-2.4-3.1-3.6-7.1-3.6-12.1c0-3.2,0.4-6.3,1.2-9.5
				c0.8-3.2,2-6.4,3.6-9.8s3.9-6.3,7.1-8.6c3.1-2.4,6.8-3.6,10.9-3.6c3,0,5.2,0.3,6.5,0.8c1.3,0.5,2.2,1.2,2.6,2.1
				c0.5,0.9,0.8,1.6,0.9,2.1c0.1,0.6,0.2,1.2,0.2,1.9c0,1.9-0.6,3.6-1.7,5.1C269.1,141.8,267.6,142.8,265.7,143.3z"/>
			<path class="st6" d="M311.7,142.4c-0.5-0.2-0.9-0.3-1.4-0.3c-1.7,0-2.9,0.9-3.7,2.6c-0.8,1.7-1.5,4.1-2.3,7.2
				c-0.2,0.8,0,1.4,0.6,1.8c0.6,0.5,1.1,0.6,1.4,0.3c0.8-0.6,2-2.4,3.6-5.3s3.4-4.4,5.4-4.4c0.3,0,0.7,0.1,1.5,0.2
				c0.7,0.1,1.4,0.5,1.9,1.2c0.5,0.7,0.8,1.4,0.8,2.3c0,0.3-0.1,0.8-0.3,1.6c-0.2,0.8-0.4,1.9-0.6,3.3c-0.2,1.3-0.3,2.6-0.3,3.7
				c0,1.3,0.1,2.5,0.3,3.6c0.2,1.2,0.6,2.2,1,3.2c0.4,0.9,0.6,2,0.6,3.1c0,2.1-0.8,3.9-2.4,5.5c-1.6,1.5-3.5,2.3-5.8,2.3
				c-0.8,0-2-0.2-3.5-0.7c-1.5-0.5-2.5-1.6-3-3.2c-0.5-1.7-0.8-3-0.8-4.1c0-0.3,0-0.8,0.1-1.4c0-0.6,0.1-1,0.1-1.3
				c0-0.8-0.1-1.4-0.3-1.8c-0.2-0.3-0.5-0.7-0.8-0.9s-0.6-0.4-1-0.4c-0.5,0-0.8,0.2-1,0.6c-0.2,0.4-0.9,3.1-2.1,8
				c-1.2,4.9-3,8.9-5.3,12.1c-2.3,3.1-4.7,4.9-7.3,5.3s-4,0.6-4.4,0.6c-1.5,0-2.8-0.4-3.8-1.2c-1.1-0.8-1.7-1.6-1.9-2.4
				c-0.2-0.8-0.3-1.4-0.3-1.9c0-0.4-0.1-0.8-0.1-1.2c0-2.6,1.6-4.8,4.7-6.7s5-3.3,5.7-4.4c0.6-1.1,1.4-2.9,2.3-5.4
				c0.9-2.5,1.4-4.5,1.5-5.8c0-0.2-0.1-0.3-0.1-0.5c0-0.1,0-0.2,0-0.3c0-0.4-0.3-0.7-0.9-0.9c-1.5,1.5-3.2,2.3-4.9,2.3
				c-1.3,0-2.4-0.6-3-1.9c-0.4-0.8-0.6-1.6-0.6-2.4c0-1.6,0.6-3,1.8-4.3c1.2-1.3,2.4-2.1,3.6-2.4c1.2-0.3,2.1-0.5,2.8-0.5
				c0.7-0.1,1.5-0.1,2.4-0.1h1.1c0.3,0,0.6-0.2,0.8-0.5c0.3-0.5,0.6-1.2,1.1-2.1c0.5-1,1.2-2.4,2.1-4.2c1.8-3.1,4.1-5.8,7-8.1
				c2.9-2.2,6.4-3.4,10.7-3.4c1.6,0,3.2,0.2,4.9,0.5c1.7,0.4,3,1.1,3.9,2.2c0.9,1.1,1.3,2.4,1.3,3.8c0,0.6-0.2,1.5-0.6,2.8
				s-1.4,2.4-3.2,3.5c-1.7,1.1-3.7,1.6-5.8,1.6C314.3,143,313.1,142.8,311.7,142.4z"/>
			<path class="st6" d="M357.7,153.3c-1,0.6-1.4,1.1-1.4,1.6c0,0.3,0.3,0.7,0.9,1.4c0.6,0.7,1,1.5,1.3,2.5s0.4,2,0.4,3.3v2.3
				c0,0.6,0,1.3,0,1.9c0,0.6,0.1,1.2,0.3,1.9c0.2,0.7,0.8,1.7,2,3c1.2,1.3,1.8,2.7,1.8,4c0,0.6-0.2,1.6-0.6,3
				c-0.4,1.4-1.4,2.6-2.9,3.7c-1.5,1.1-3.3,1.7-5.2,1.7c-2.6,0-4.4-0.9-5.6-2.8c-1.2-1.9-1.8-4.2-1.8-7c0-0.5,0-1,0-1.2
				c0-0.3,0.1-0.9,0.2-1.8c0.5-2.3,1-4.6,1.5-7c0-1-0.3-2-0.8-3c-0.2-0.3-0.5-0.3-0.9,0c-0.4,0.3-0.7,0.5-0.8,0.8
				c-0.4,3.4-1.6,6.5-3.5,9.4c-1.9,2.9-4.3,4.3-7.1,4.3c-1.3,0-2.5-0.3-3.5-0.8c-1.1-0.5-1.8-1.2-2.1-2c-0.4-0.8-0.6-1.6-0.6-2.6
				c0-1.1,0.2-2.1,0.6-2.9c0.4-0.8,0.9-1.8,1.5-2.8c0.6-1,1.4-2.1,2.2-3.2c0.9-1.1,1.4-1.9,1.5-2.3c0.1-0.4,0.2-1.7,0.2-3.8
				c0-0.5,0-0.9,0-1.4c0-0.5,0-0.9,0-1.3c0-0.9,0.1-1.7,0.3-2.4c0.2-0.7,0.7-1.6,1.3-2.5c0.7-1,1.4-1.7,2.3-2.2
				c0.9-0.5,1.9-0.7,2.9-0.7c0.6,0,1.2,0.1,1.7,0.4s1,0.7,1.4,1.4c0.5,0.7,0.8,1.3,0.9,1.9c0.2,0.5,0.3,1.1,0.3,1.6
				c0,0.5,0,0.8-0.1,1.1c0.1,0,0.3,0.2,0.5,0.6c0.3,0.4,0.6,0.5,0.9,0.4c1.2-0.2,2.3-0.7,3.2-1.3c0.9-0.7,1.5-1.4,1.8-2.2
				c0.3-0.8,0.5-1.5,0.5-2c0-1.4-0.4-2.3-1.3-2.7c-0.8-0.4-1.6-0.6-2.2-0.7s-1.4-0.1-2.2-0.1c-0.9,0-2.4,0.1-4.5,0.3
				s-3.4,0.3-3.9,0.3c-1.6,0-2.9-0.3-3.7-0.9c-0.9-0.6-1.3-1.3-1.4-2.3c-0.1-1-0.2-1.7-0.2-2.2c0-3.3,1.4-5.7,4.3-7.2
				c2.9-1.5,6.4-2.3,10.6-2.3c3.2,0,6.2,0.4,8.8,1.2c2.6,0.8,4.6,2.3,5.9,4.5s2,4.6,2,7.3c0,0.4,0,0.8,0,1.3
				c-0.1,0.4-0.2,1.1-0.3,2.2c-0.1,1.1-1,2.5-2.5,4.3C361.2,150.8,359.5,152.2,357.7,153.3z"/>
			<path class="st6" d="M398.7,179.6c-2.2,2.4-4.8,4.3-7.8,5.6c-3,1.3-6.1,2-9.4,2c-3.1,0-6.1-0.6-9.1-1.8c-2.9-1.2-4.4-3.4-4.4-6.6
				c0-0.3,0.1-1,0.2-2.1c0.1-1.1,1-2.3,2.6-3.5c1.6-1.2,3.3-1.9,5.3-1.9c0.8,0,1.6,0.1,2.5,0.4c0.9,0.3,1.9,0.5,3,0.8
				c1.1,0.2,2.1,0.3,3.1,0.3c2.1,0,3.9-0.4,5.5-1.2c1.6-0.8,3-2.6,4.4-5.3c1.4-2.7,2.5-5.5,3.3-8.2c0.8-2.8,1.2-5.1,1.2-7.1
				c0-2.3-0.5-4.2-1.5-5.9c-1-1.7-2.2-2.8-3.5-3.2c-1.4-0.5-2.2-0.7-2.6-0.8c-0.4,0-0.9-0.1-1.5-0.1c-0.7,0-1.7,0.1-3.1,0.3
				c-1.4,0.2-2.4,0.3-3.1,0.3c-1.1,0-2.1-0.1-2.9-0.4c-0.8-0.3-1.6-0.8-2.4-1.7c-0.8-0.9-1.2-1.9-1.2-3.2c0-1.1,0.3-2.2,1-3.2
				c0.7-1.1,1.6-2,2.7-2.8c1.1-0.8,2.3-1.3,3.6-1.7c1.3-0.4,2.5-0.6,3.6-0.7c1.1-0.1,1.9-0.2,2.3-0.2c0.4,0,0.7,0,1,0
				c4.2,0,7.9,1,11.2,3c3.3,2,5.5,4.8,6.7,8.5c1.2,3.7,1.8,7.4,1.8,11c0,5.4-1.1,10.6-3.3,15.8C405.6,170.9,402.6,175.5,398.7,179.6
				z M391,155c0.3,1.1,0.4,2.3,0.4,3.4c0,3.3-0.9,6.1-2.7,8.5c-1.8,2.4-4.1,3.6-6.9,3.6c-1.5,0-2.8-0.3-3.9-0.8s-1.9-1.2-2.3-2.1
				c-0.4-0.9-0.6-1.9-0.6-3c0-2.1,0.7-4,2-5.7c1.4-1.8,2.2-3.1,2.6-4.1c0.3-0.9,0.7-2.5,1-4.6c0.3-2.1,1.3-3.9,2.9-5.3
				c1.6-1.4,3.3-2,5.2-2c1,0,1.9,0.3,2.9,0.8c0.7,0.4,1.1,0.8,1.4,1.2c0.3,0.4,0.4,0.9,0.4,1.5c0,0.6-0.4,1.8-1.3,3.7
				c-0.8,1.9-1.3,3.2-1.3,4C390.9,154.3,390.9,154.6,391,155z"/>
			<path class="st6" d="M445.9,144.7c-0.9,0-2.3-0.6-4.2-1.9c-1.9-1.3-3.2-1.9-4-1.9c-1,0-1.8,0.7-2.4,2.1c-0.2,0.5-0.1,1.1,0.3,2
				c0.4,0.8,1.7,1.5,3.9,2c2.2,0.5,4.4,2,6.6,4.5c2.2,2.5,3.3,5.3,3.3,8.4c0,2.1-0.7,4.5-2,7.1c-1.3,2.6-3.7,4.9-7,6.9
				c-3.4,2-6.9,2.9-10.6,2.9c-2.5,0-4.8-0.5-6.9-1.4c-2.1-0.9-3.7-2.2-4.8-3.8c-1.1-1.6-1.7-2.9-1.7-3.9c0-0.7,0.2-1.5,0.5-2.3
				c0.4-0.8,0.9-1.7,1.6-2.6c0.7-0.9,1.7-1.7,2.8-2.4s2.4-1,3.7-1c0.3,0,0.8,0,1.3,0.1s1.6,0.8,3.3,2.1c1.7,1.3,3,2,3.9,2
				c1-0.1,1.9-0.5,2.6-1.1c0.7-0.7,1-1.4,1-2.2c0-0.4-0.2-0.9-0.6-1.7c-0.4-0.8-2.3-2.1-5.6-4c-3.3-1.9-5.4-3.7-6.3-5.4
				c-0.8-1.7-1.3-3.6-1.3-5.6c0-4.2,1.8-7.9,5.4-11c3.6-3.1,7.7-4.7,12.4-4.7c2.3,0,4.3,0.3,6,0.8c1.7,0.6,3,1.4,3.9,2.5
				c0.9,1.1,1.4,2.1,1.7,3c0.3,0.9,0.4,1.8,0.4,2.6c0,2.1-0.7,3.9-2.1,5.4S448,144.7,445.9,144.7z"/>
		</g>
		<g>
			<polygon class="st6" points="171.2,142.8 162.9,134.5 154.5,142.8 150.6,138.9 162.9,126.7 175.1,138.9 			"/>
		</g>
	</g>
</g>
<g id="Capa_2" class="st0">
	<rect x="-3.2" y="143.5" class="st11" width="531" height="56.9"/>
	<text transform="matrix(1 0 0 1 -3.2278 181.3661)" class="st1"><tspan x="0" y="0" class="st6 st12 st13">MOD </tspan><tspan x="181.2" y="0" class="st6 st12 st14"> </tspan><tspan x="185.4" y="0" class="st6 st12 st13">L CARDS</tspan></text>
	<g class="st1">
		<circle class="st9" cx="228.4" cy="38" r="12.9"/>
		<g>
			<path class="st9" d="M195.5,78.3L195.5,78.3c0-5.4,4.4-9.8,9.8-9.8h13.3c5.4,0,9.8-4.4,9.8-9.8v-1.1"/>
			<path class="st9" d="M261.4,78.3L261.4,78.3c0-5.4-4.4-9.8-9.8-9.8h-13.3c-5.4,0-9.8-4.4-9.8-9.8v-1.1"/>
		</g>
		<g>
			<polyline class="st10" points="262.7,5.8 278.9,5.8 278.9,95.9 262.7,95.9 			"/>
			<polyline class="st10" points="194.3,95.9 178,95.9 178,5.8 194.3,5.8 			"/>
		</g>
	</g>
	<polyline class="st15" points="153.5,152.7 165.7,140.4 178,152.7 	"/>
</g>
</svg>
