<?xml version="1.0" encoding="utf-8"?>
<!-- Generator: Adobe Illustrator 25.0.1, SVG Export Plug-In . SVG Version: 6.00 Build 0)  -->
<svg version="1.1" xmlns="http://www.w3.org/2000/svg" xmlns:xlink="http://www.w3.org/1999/xlink" x="0px" y="0px"
	 viewBox="0 0 599.3 96.1" style="enable-background:new 0 0 599.3 96.1;" xml:space="preserve">
<style type="text/css">
	.st0{display:none;}
	.st1{display:inline;}
	.st2{fill-rule:evenodd;clip-rule:evenodd;fill:#A2DEAF;}
	.st3{fill-rule:evenodd;clip-rule:evenodd;fill:#114E4E;}
	.st4{fill-rule:evenodd;clip-rule:evenodd;fill:#FFFFFF;}
	.st5{fill-rule:evenodd;clip-rule:evenodd;fill:#E17334;}
	.st6{fill:#9B59B6;}
	.st7{fill:none;stroke:#9B59B6;stroke-width:5;stroke-miterlimit:10;}
	.st8{fill:none;stroke:#1ABC9C;stroke-width:5;stroke-miterlimit:10;}
	.st9{display:inline;fill:none;stroke:#9B59B6;stroke-width:5.5;stroke-miterlimit:10;}
	.st10{fill:none;stroke:#9B59B6;stroke-width:5.5;stroke-miterlimit:10;}
	.st11{fill:none;stroke:#1ABC9C;stroke-width:5.5;stroke-miterlimit:10;}
	.st12{fill:none;}
	.st13{font-family:'PermanentMarker';}
	.st14{font-size:63px;}
	.st15{font-size:10px;}
	.st16{font-family:'Advert-Italic';}
	.st17{display:inline;fill:none;}
	.st18{display:inline;fill:#9B59B6;}
	.st19{font-family:'OPTIHobo-BoldAgency';}
	.st20{font-family:'ZillaSlab-Medium';}
	.st21{font-size:68px;}
	.st22{display:inline;fill:none;stroke:#9B59B6;stroke-width:6.5;stroke-miterlimit:10;}
	.st23{fill:none;stroke:#9B59B6;stroke-width:6.5;stroke-miterlimit:10;}
	.st24{fill:none;stroke:#1ABC9C;stroke-width:6.5;stroke-miterlimit:10;}
	.st25{font-family:'HeptaSlab-Medium';}
</style>
<g id="Capa_1" class="st0">
	<g id="Capa_1_1_">
		<desc>Created with Sketch.</desc>
		<g id="Tablet_x2B_" class="st1">
			<g id="_x30_0---App---Tablet_x2B_" transform="translate(-177.000000, -351.000000)">
				<g id="Group-4" transform="translate(175.000000, 348.000000)">
					<g id="Tarjetas-molonas">
						<g id="Group-2">
							
								<g id="Group" transform="translate(63.191223, 54.437060) rotate(-10.000000) translate(-63.191223, -54.437060) translate(7.318166, 11.294573)">
								<path id="Path" class="st2" d="M101.6-3.3c2.9,0,5.3,1,7.3,3s3,4.4,3,7.3l0,62c0,2.9-1,5.3-3,7.3s-4.4,3-7.3,3l-89.5,0
									c-2.9,0-5.3-1-7.3-3s-3-4.4-3-7.3l0-62c0-2.9,1-5.3,3-7.3s4.4-3,7.3-3L101.6-3.3z"/>
								<path id="Path-Copy" class="st3" d="M100.4-5c2.9,0,5.3,1,7.3,3s3,4.4,3,7.3l0,62c0,2.9-1,5.3-3,7.3s-4.4,3-7.3,3l-89.5,0
									c-2.9,0-5.3-1-7.3-3s-3-4.4-3-7.3l0-62c0-2.9,1-5.3,3-7.3S8-5,10.9-5L100.4-5z"/>
								<path id="Path_1_" class="st4" d="M103.9,67.3l0-62c0-1-0.3-1.8-1-2.5c-0.6-0.6-1.5-1-2.5-1l-89.5,0c-1,0-1.8,0.3-2.5,1
									s-1,1.5-1,2.5l0,62c0,1,0.3,1.8,1,2.5c0.6,0.6,1.5,1,2.5,1l89.5,0c1,0,1.8-0.3,2.5-1C103.6,69.2,103.9,68.3,103.9,67.3z"/>
								<path id="Combined-Shape" class="st5" d="M72,50.1c-0.7,0-1.3-0.3-1.8-0.8s-0.8-1.1-0.8-1.8l0-1.7c0-0.7,0.3-1.3,0.8-1.8
									s1.1-0.8,1.8-0.8l22.4,0c0.7,0,1.3,0.3,1.8,0.8s0.8,1.1,0.8,1.8v1.7c0,0.7-0.3,1.3-0.8,1.8s-1.1,0.8-1.8,0.8L72,50.1z
									 M72,36.4c-0.7,0-1.3-0.3-1.8-0.8s-0.8-1.1-0.8-1.8v-1.7c0-0.7,0.3-1.3,0.8-1.8s1.1-0.8,1.8-0.8l22.4,0
									c0.7,0,1.3,0.3,1.8,0.8s0.8,1.1,0.8,1.8v1.7c0,0.7-0.3,1.3-0.8,1.8s-1.1,0.8-1.8,0.8L72,36.4z M72,22.6
									c-0.7,0-1.3-0.3-1.8-0.8s-0.8-1.1-0.8-1.8v-1.7c0-0.7,0.3-1.3,0.8-1.8c0.5-0.5,1.1-0.8,1.8-0.8l22.4,0
									c0.7,0,1.3,0.3,1.8,0.8c0.5,0.5,0.8,1.1,0.8,1.8V20c0,0.7-0.3,1.3-0.8,1.8s-1.1,0.8-1.8,0.8L72,22.6z"/>
								<path id="Combined-Shape_1_" class="st2" d="M51.8,36.8c3.7,1.1,6.6,3.4,8.6,6.7c1.4,2.6,2.2,5.2,2.2,8v3
									c0,2.6-0.9,4.8-2.8,6.7c-1.9,1.9-4.1,2.8-6.7,2.8l-29.3,0c-2.6,0-4.8-0.9-6.7-2.8c-1.9-1.9-2.8-4.1-2.8-6.7l0-3
									c0-2.7,0.7-5.4,2.2-8c2-3.3,4.9-5.5,8.6-6.7c-2.6-3.2-3.9-6.7-3.9-10.8c0-4.7,1.7-8.8,5.1-12.2s7.4-5.1,12.2-5.1
									s8.8,1.7,12.2,5.1s5.1,7.4,5.1,12.2C55.7,30,54.4,33.6,51.8,36.8z M38.5,15.7c-2.9,0-5.3,1-7.3,3s-3,4.4-3,7.3
									c0,2.9,1,5.3,3,7.3s4.4,3,7.3,3c2.9,0,5.3-1,7.3-3c2-2,3-4.4,3-7.3s-1-5.3-3-7.3S41.3,15.7,38.5,15.7z M55.7,54.4v-3
									c0-1.9-0.6-3.5-1.7-5.1c-1.1-1.5-2.7-2.5-4.5-3.1L45,41.9c-2,0.9-4.2,1.3-6.5,1.3c-2.3,0-4.4-0.4-6.5-1.3l-4.5,1.3
									c-1.9,0.6-3.4,1.6-4.5,3.1c-1.1,1.5-1.7,3.2-1.7,5.1v3c0,0.7,0.3,1.3,0.8,1.8s1.1,0.8,1.8,0.8l29.3,0c0.7,0,1.3-0.3,1.8-0.8
									C55.4,55.7,55.7,55.1,55.7,54.4z"/>
							</g>
							<path id="Awesome" class="st2" d="M137.5,47.8c-1.4,0-2.6-0.1-3.7-0.3c-1.1-0.2-2-0.8-2.7-1.6s-1.2-2.2-1.2-4
								c0-2.5,0.8-5.9,2.3-10.2s3.5-8.5,6-12.8c-1.9,0.1-3.4,0.4-4.5,0.8c-1.1,0.5-1.8,1.2-2.2,2.1c0.2,0,0.3,0.2,0.5,0.6
								s0.3,0.8,0.3,1.2c0,0.7-0.3,1.2-0.9,1.6c-0.6,0.4-1.4,0.6-2.3,0.6c-1.1,0-1.9-0.3-2.5-0.8c-0.6-0.6-1-1.4-1-2.4
								c0-1.3,0.5-2.5,1.5-3.5c1-1.1,2.4-1.9,4.2-2.5s3.7-0.9,5.9-0.9c0.8,0,1.8,0.1,2.9,0.2c3.1-4.9,6.4-8.9,9.8-12
								s6.7-4.7,9.9-4.7c1.8,0,3.3,0.3,4.5,0.8l-8.9,41.6h-8.1l4.4-20.5c-1.4-0.6-2.7-1.1-3.8-1.4c-1.2-0.3-2.4-0.5-3.7-0.6
								c-2.2,4.6-3.9,9.4-5.3,14.2c-1.4,4.8-2.1,8.7-2.1,11.6C136.7,46,137,47.1,137.5,47.8z M155.5,2.9c-1.6,0.9-3.3,2.5-5.1,4.8
								s-3.5,5.2-5.1,8.6c2.7,0.5,5,1.2,6.9,2L155.5,2.9z M168.6,41.7c-1.8,0-3.3-0.6-4.4-1.7c-1.1-1.1-1.7-2.8-1.7-5.1
								c0-0.9,0.2-2.2,0.5-3.7l3.8-18.2h8.1l-4.1,19.2c-0.1,0.5-0.2,0.9-0.2,1.4c0,1.7,0.6,2.5,1.7,2.5c1.1,0,2-0.4,2.7-1.3
								c0.8-0.9,1.4-2.1,1.8-3.6l3.8-18.2h8.1l-4.1,19.2c-0.2,0.9-0.3,1.6-0.3,2c0,1.2,0.6,1.9,1.9,1.9c1.7,0,3.3-1.1,4.8-3.3
								s2.7-4.8,3.6-7.8s1.4-5.6,1.4-7.8c-0.1,0.2-0.3,0.3-0.7,0.4s-0.8,0.1-1.1,0.1c-0.6,0-1.1-0.3-1.5-0.9s-0.5-1.3-0.5-2
								c0-0.9,0.3-1.6,0.9-2.2c0.6-0.6,1.5-0.8,2.6-0.8c1.2,0,2.2,0.5,2.7,1.4c0.6,0.9,0.8,2.1,0.8,3.5c0,3.4-0.6,7-1.8,10.9
								s-3,7.2-5.4,9.9s-5.4,4.1-9,4.1c-1.8,0-3.4-0.4-4.5-1.2c-1.2-0.8-1.9-2-2.3-3.6C174.5,40.1,171.8,41.7,168.6,41.7z
								 M208.5,41.7c-2.8,0-5-0.7-6.5-2.2s-2.3-3.7-2.3-6.8c0-2.6,0.5-5.5,1.5-8.6s2.7-5.8,5-8.1s5.2-3.4,8.8-3.4
								c4.1,0,6.2,1.8,6.2,5.4c0,2.1-0.6,4.1-1.8,5.8c-1.2,1.8-2.8,3.2-4.8,4.3s-4.1,1.7-6.4,1.8c-0.1,1.1-0.1,1.9-0.1,2.3
								c0,1.8,0.3,3.1,1,3.8s1.7,1,3.1,1c2,0,3.8-0.5,5.2-1.4c1.5-0.9,3-2.4,4.8-4.3h1.9C219.9,38.2,214.7,41.7,208.5,41.7z
								 M208.6,27.2c1.4-0.1,2.7-0.6,4-1.5c1.3-0.9,2.3-2.1,3.1-3.5s1.2-2.9,1.2-4.4s-0.5-2.3-1.4-2.3c-1.4,0-2.7,1.2-4,3.6
								C210.1,21.5,209.2,24.2,208.6,27.2z M228.6,41.7c-1.8,0-3.3-0.3-4.6-1c-1.2-0.7-2.2-1.6-2.8-2.7c-0.6-1.1-0.9-2.3-0.9-3.5
								s0.3-2.3,0.9-3.3c0.6-0.9,1.3-1.6,2.1-2c1.5-2.6,2.8-5.3,3.8-8c1.1-2.7,2.1-5.6,3.1-8.7l8.4-1.1c0.2,4.8,0.5,10.1,1,15.7
								c0.2,2.3,0.3,3.9,0.3,4.9c0,0.9-0.1,1.6-0.2,2.2c1.8-1,3.1-2,4.1-2.8h2.4c-2.4,2.8-5.3,5.1-8.7,7.1c-1.1,1.2-2.4,2-4,2.6
								C231.8,41.4,230.2,41.7,228.6,41.7z M226.8,37.2c1.4,0,2.6-0.4,3.5-1.2s1.4-2.2,1.4-4c0-1.1-0.1-2.7-0.3-4.8
								c-0.4-4.3-0.6-7.2-0.7-8.7c-0.9,3-2.4,6.5-4.6,10.7c0.9,0.5,1.3,1.1,1.3,2c0,0.7-0.2,1.4-0.7,1.9c-0.5,0.6-1.1,0.8-1.8,0.8
								c-0.8,0-1.3-0.2-1.5-0.7c0,1.4,0.3,2.4,0.8,3C224.7,36.9,225.5,37.2,226.8,37.2z M252,41.5c-2.8,0-5-0.7-6.6-2.2
								c-1.6-1.4-2.4-3.7-2.4-6.8c0-2.6,0.5-5.4,1.6-8.5s2.8-5.8,5.1-8.1s5.3-3.4,8.8-3.4c4.8,0,7.2,3,7.2,9.1v0.1
								c0.1,0,0.3,0.1,0.6,0.1c1.2,0,2.7-0.3,4.3-1c1.6-0.7,3.1-1.5,4.4-2.4l0.5,1.5c-1.1,1.2-2.5,2.2-4.3,3s-3.7,1.4-5.7,1.7
								c-0.3,3.4-1.1,6.4-2.3,9s-2.8,4.5-4.8,5.9C256.4,40.9,254.3,41.5,252,41.5z M254.3,36.5c0.9,0,1.8-0.5,2.7-1.6
								c0.9-1,1.7-2.5,2.4-4.2c0.7-1.8,1.2-3.8,1.5-6c-1-0.2-1.5-1-1.5-2.4c0-1.5,0.6-2.6,1.8-3.1c-0.1-1.2-0.3-2.1-0.6-2.6
								c-0.3-0.5-0.8-0.7-1.6-0.7c-1.2,0-2.5,0.9-3.6,2.7c-1.1,1.8-2.1,4-2.8,6.5s-1.1,4.8-1.1,6.7c0,1.8,0.2,3,0.6,3.6
								C252.4,36.1,253.2,36.5,254.3,36.5z M303,41.7c-2.3,0-4-0.6-5.1-1.8s-1.6-2.7-1.6-4.6c0-0.8,0.1-1.7,0.3-2.7
								c0.2-1,0.4-2,0.6-2.9s0.3-1.5,0.4-1.8c0.3-1.3,0.6-2.6,0.8-3.9s0.4-2.3,0.4-3.1c0-1.9-0.7-2.9-2-2.9c-1,0-1.8,0.5-2.6,1.4
								c-0.8,1-1.4,2.2-1.8,3.8l-3.8,18.2h-8.1l4.1-19.5c0.1-0.5,0.2-0.9,0.2-1.4c0-1.7-0.6-2.5-1.7-2.5s-2,0.5-2.7,1.4
								c-0.8,1-1.4,2.2-1.8,3.8l-3.8,18.2h-8.1l6-28.3h8.1l-0.6,2.9c1.9-2.2,4.2-3.2,6.9-3.2c3.3,0,5.3,1.6,5.8,4.9
								c2.1-3.2,4.7-4.8,7.9-4.8c1.9,0,3.5,0.5,4.6,1.6s1.7,2.7,1.7,4.8c0,1.1-0.1,2.3-0.4,3.6c-0.3,1.3-0.6,3-1.1,4.9
								c-0.3,1.2-0.6,2.3-0.8,3.4c-0.2,1.1-0.4,2-0.4,2.6c0,0.8,0.2,1.3,0.5,1.8c0.3,0.4,0.9,0.6,1.8,0.6c1.1,0,2-0.4,2.7-1.2
								s1.4-2.1,2-3.8h2.4c-1.4,4.1-3,6.9-4.8,8.3C306.8,41,304.9,41.7,303,41.7z M319.1,41.7c-2.8,0-4.9-0.7-6.5-2.2
								s-2.3-3.7-2.3-6.8c0-2.6,0.5-5.5,1.5-8.6s2.7-5.8,5-8.1s5.2-3.4,8.8-3.4c4.1,0,6.2,1.8,6.2,5.4c0,2.1-0.6,4.1-1.8,5.8
								c-1.2,1.8-2.8,3.2-4.8,4.3s-4.1,1.7-6.4,1.8c-0.1,0.8-0.1,1.4-0.1,1.7c0,3.1,1.2,4.7,3.5,4.7c1.1,0,2.2-0.3,3.4-0.8
								c1.2-0.6,2.3-1.3,3.3-2.2C327.9,38.9,324.6,41.7,319.1,41.7z M319.2,27.2c1.4,0,2.8-0.5,4-1.4c1.3-0.9,2.3-2.1,3.1-3.5
								c0.8-1.4,1.2-2.9,1.2-4.4s-0.5-2.3-1.4-2.3c-1.3,0-2.6,1.2-3.9,3.6S319.8,24.2,319.2,27.2z"/>
							<path id="profile-cards" class="st2" d="M146.5,59h8.1l-0.9,4.2c1.9-1.6,4.1-2.4,6.6-2.4c2.1,0,3.8,0.7,5,2.1
								c1.2,1.4,1.9,3.7,1.9,6.8c0,3-0.4,6-1.3,9s-2.3,5.6-4.4,7.8c-2.1,2.1-4.8,3.2-8.2,3.2c-2.4,0-4-0.7-4.8-2l-2.9,13.8l-8.5,2
								L146.5,59z M151.6,84.8c1.8,0,3.3-0.8,4.5-2.5s2.1-3.7,2.6-6.1s0.8-4.6,0.8-6.6c0-3.1-0.9-4.7-2.8-4.7
								c-0.7,0-1.4,0.2-2.1,0.7s-1.3,1.2-1.8,2l-3.3,15.8C149.7,84.4,150.4,84.8,151.6,84.8z M172.5,61.1h8.1l-0.7,3.5
								c1.3-1.1,2.4-2,3.5-2.6c1-0.6,2.2-0.9,3.4-0.9s2.2,0.4,2.9,1.2s1,1.8,1,3c0,1.1-0.4,2.1-1.1,2.9s-1.7,1.2-3,1.2
								c-0.8,0-1.4-0.2-1.7-0.6s-0.5-1-0.7-1.7c-0.1-0.5-0.2-0.8-0.3-1.1c-0.1-0.2-0.3-0.3-0.6-0.3c-0.8,0-1.5,0.2-2,0.5
								s-1.3,0.9-2.1,1.7l-4.6,21.5h-8.1L172.5,61.1z M198.2,89.6c-2.8,0-5-0.7-6.6-2.2c-1.6-1.4-2.4-3.7-2.4-6.8
								c0-2.6,0.5-5.4,1.6-8.5s2.8-5.8,5.1-8.1c2.3-2.3,5.3-3.4,8.8-3.4c4.8,0,7.2,3,7.2,9.1v0.1c0.1,0,0.3,0.1,0.6,0.1
								c1.2,0,2.7-0.3,4.3-1s3.1-1.5,4.4-2.4l0.5,1.5c-1.1,1.2-2.5,2.2-4.3,3s-3.7,1.4-5.7,1.7c-0.3,3.4-1.1,6.4-2.3,9
								s-2.8,4.5-4.8,5.9C202.6,88.9,200.5,89.6,198.2,89.6z M200.4,84.5c0.9,0,1.8-0.5,2.7-1.6c0.9-1,1.7-2.5,2.4-4.2
								c0.7-1.8,1.2-3.8,1.5-6c-1-0.2-1.5-1-1.5-2.4c0-1.5,0.6-2.6,1.8-3.1c-0.1-1.2-0.3-2.1-0.6-2.6s-0.8-0.7-1.6-0.7
								c-1.2,0-2.5,0.9-3.6,2.7c-1.2,1.8-2.1,4-2.8,6.5s-1.1,4.8-1.1,6.7c0,1.8,0.2,3,0.6,3.6C198.6,84.2,199.3,84.5,200.4,84.5z
								 M210.1,103.6c-2.1,0-3.8-0.6-5.1-1.7c-1.3-1.2-2-2.7-2-4.6c0-1.6,0.5-2.9,1.4-3.9s2-1.8,3.3-2.4s3-1.2,5.1-1.9l6.3-29.8
								c1-4.7,2.7-7.9,5.1-9.6s5.1-2.6,8.1-2.6c2.8,0,5.2,0.5,7.2,1.4s2.9,2.6,2.9,5.1c0,1.6-0.4,2.7-1.3,3.5
								c-0.8,0.7-1.9,1.1-3.2,1.1c-1,0-1.8-0.2-2.4-0.7c-0.6-0.5-1-1.3-1-2.3c0-0.7,0.2-1.4,0.5-1.9c0.4-0.6,0.8-0.8,1.4-0.8
								c0.3,0,0.4,0,0.5,0.1c0-0.8-0.3-1.3-0.9-1.7c-0.5-0.4-1.3-0.6-2.2-0.6c-1.7,0-3,0.6-4,1.8s-1.7,2.7-2,4.6l-1,4.6h4.5
								l-0.5,2.3h-4.5l-6.5,30.6c-0.8,3.5-2.1,6-3.9,7.5C214.3,102.8,212.2,103.6,210.1,103.6z M235.5,89.8c-1.8,0-3.3-0.6-4.4-1.7
								c-1.1-1.1-1.7-2.8-1.7-5.1c0-0.9,0.2-2.2,0.5-3.7l3.8-18.2h8.1l-4,19.3c-0.2,0.6-0.2,1.2-0.2,1.8c0,0.8,0.2,1.3,0.5,1.6
								c0.4,0.3,1,0.5,1.8,0.5c1.1,0,2.1-0.5,3.1-1.4c0.9-0.9,1.6-2.1,2-3.6h2.4c-1.4,4.1-3.2,6.8-5.4,8.3
								C239.8,89,237.6,89.8,235.5,89.8z M208.5,98.5c0.6,0,1.3-0.4,1.9-1.1c0.6-0.7,1.1-1.8,1.4-3.3l0.7-3.3
								c-1.9,0.6-3.5,1.4-4.6,2.3s-1.7,2-1.7,3.1c0,0.8,0.3,1.4,0.8,1.8C207.5,98.4,208,98.5,208.5,98.5z M250.6,89.8
								c-1.8,0-3.3-0.6-4.4-1.7s-1.7-2.8-1.7-5.1c0-0.9,0.2-2.2,0.5-3.7l6.1-28.3l8.4-1.1l-6.6,30.5c-0.2,0.6-0.2,1.2-0.2,1.8
								c0,0.8,0.2,1.3,0.5,1.6s1,0.5,1.8,0.5c1.1,0,2.1-0.5,3.1-1.4c0.9-0.9,1.6-2.1,2-3.6h2.4c-1.4,4.1-3.2,6.8-5.4,8.3
								C254.9,89,252.7,89.8,250.6,89.8z M268.1,89.8c-2.8,0-4.9-0.7-6.5-2.2c-1.5-1.5-2.3-3.7-2.3-6.8c0-2.6,0.5-5.5,1.5-8.6
								s2.7-5.8,5-8.1c2.3-2.3,5.2-3.4,8.8-3.4c4.1,0,6.2,1.8,6.2,5.4c0,2.1-0.6,4.1-1.8,5.8c-1.2,1.8-2.8,3.2-4.8,4.3
								c-2,1.1-4.1,1.7-6.4,1.8c-0.1,0.8-0.1,1.4-0.1,1.7c0,3.1,1.2,4.7,3.5,4.7c1.1,0,2.2-0.3,3.4-0.8c1.2-0.6,2.3-1.3,3.3-2.2
								C276.8,87,273.6,89.8,268.1,89.8z M268.2,75.3c1.4,0,2.8-0.5,4-1.4s2.3-2.1,3.1-3.5c0.8-1.4,1.2-2.9,1.2-4.4
								s-0.5-2.3-1.4-2.3c-1.3,0-2.6,1.2-3.9,3.6C269.8,69.6,268.8,72.3,268.2,75.3z M282.9,72.4h11.3l-1,4.5h-11.4L282.9,72.4z
								 M305.3,89.8c-2.8,0-5-0.7-6.5-2.2s-2.3-3.7-2.3-6.8c0-2.6,0.5-5.5,1.6-8.6c1-3.1,2.7-5.8,5-8.1c2.3-2.3,5.2-3.4,8.7-3.4
								c2.3,0,3.9,0.5,4.8,1.5c1,1,1.4,2.2,1.4,3.7c0,1.3-0.3,2.3-0.8,3.1c-0.6,0.7-1.3,1.1-2.2,1.1c-0.6,0-1.3-0.2-2-0.7
								c0.5-1.2,0.7-2.4,0.7-3.3c0-0.7-0.1-1.3-0.4-1.7s-0.7-0.6-1.2-0.6c-1.1,0-2.3,0.9-3.4,2.8c-1.1,1.8-2.1,4.1-2.8,6.7
								s-1.1,5-1.1,7.1c0,1.8,0.3,3.1,1,3.8c0.6,0.7,1.7,1,3.1,1c2,0,3.8-0.5,5.2-1.4c1.5-0.9,3-2.4,4.8-4.3h1.9
								C316.7,86.3,311.5,89.8,305.3,89.8z M325.7,89.8c-2.2,0-3.9-0.7-5.4-2.2c-1.4-1.5-2.2-3.8-2.2-6.9c0-2.8,0.6-5.7,1.7-8.8
								s2.8-5.7,5-7.8c2.2-2.1,4.8-3.2,7.9-3.2c1.5,0,2.7,0.3,3.5,0.8s1.1,1.2,1.1,2.1v0.4l0.6-3h8.1l-4,19.2
								c-0.2,0.6-0.2,1.2-0.2,1.8c0,1.6,0.8,2.4,2.3,2.4c1.1,0,2-0.5,2.7-1.5c0.8-1,1.4-2.3,1.8-3.8h2.4c-1.4,4.1-3.1,6.8-5.2,8.3
								s-4.1,2.2-6.2,2.2c-1.6,0-2.9-0.4-3.8-1.3c-1-0.9-1.5-2.2-1.7-3.9c-1.1,1.5-2.3,2.8-3.6,3.8
								C329.2,89.3,327.6,89.8,325.7,89.8z M329.4,84.3c0.9,0,1.9-0.4,2.8-1.3s1.6-2.1,1.9-3.6l2.7-12.8c0-0.5-0.2-1-0.6-1.4
								c-0.4-0.5-1-0.7-1.8-0.7c-1.5,0-2.9,0.9-4.1,2.6c-1.2,1.8-2.2,3.9-2.8,6.3c-0.7,2.5-1,4.6-1,6.5s0.3,3.1,0.8,3.6
								C327.9,84,328.6,84.3,329.4,84.3z M352.5,61.1h8.1l-0.7,3.5c1.3-1.1,2.4-2,3.5-2.6c1-0.6,2.2-0.9,3.4-0.9
								c1.2,0,2.2,0.4,2.9,1.2c0.7,0.8,1,1.8,1,3c0,1.1-0.4,2.1-1.1,2.9s-1.7,1.2-3,1.2c-0.8,0-1.4-0.2-1.7-0.6s-0.5-1-0.7-1.7
								c-0.1-0.5-0.2-0.8-0.3-1.1c-0.1-0.2-0.3-0.3-0.6-0.3c-0.8,0-1.5,0.2-2,0.5s-1.3,0.9-2.1,1.7l-4.5,21.5h-8.1L352.5,61.1z
								 M376.7,89.8c-2.2,0-3.9-0.7-5.4-2.2c-1.4-1.5-2.2-3.8-2.2-6.9c0-2.8,0.6-5.7,1.7-8.8c1.1-3.1,2.8-5.7,5-7.8
								c2.2-2.1,4.8-3.2,7.9-3.2c1.5,0,2.7,0.3,3.5,0.8s1.1,1.2,1.1,2.1V64l2.8-13l8.4-1.1L393,80.4c-0.2,0.6-0.2,1.2-0.2,1.8
								c0,0.8,0.2,1.3,0.5,1.6c0.4,0.3,1,0.5,1.8,0.5c1.1,0,2-0.5,2.7-1.4c0.8-0.9,1.4-2.1,1.8-3.6h2.4c-2.3,6.8-6.1,10.1-11.4,10.1
								c-1.5,0-2.8-0.4-3.8-1.2c-1-0.8-1.6-2-1.8-3.6c-1,1.5-2.2,2.8-3.5,3.7C380.2,89.3,378.6,89.8,376.7,89.8z M380.4,84.3
								c0.9,0,1.8-0.4,2.7-1.2c0.9-0.8,1.6-2,1.9-3.5v-0.3l2.8-13c-0.3-1.3-1.1-2-2.3-2c-1.5,0-2.9,0.9-4.1,2.6
								c-1.2,1.8-2.2,3.9-2.8,6.3c-0.7,2.5-1,4.6-1,6.5s0.3,3.1,0.8,3.6C379,84,379.6,84.3,380.4,84.3z M406.1,89.8
								c-1.8,0-3.3-0.3-4.6-1c-1.2-0.7-2.2-1.6-2.8-2.7c-0.6-1.1-0.9-2.3-0.9-3.5s0.3-2.3,0.9-3.3c0.6-0.9,1.3-1.6,2.1-2
								c1.5-2.6,2.8-5.3,3.8-8c1.1-2.7,2.1-5.6,3.1-8.7l8.4-1.1c0.2,4.8,0.5,10.1,1,15.7c0.2,2.3,0.3,3.9,0.3,4.9
								c0,2.3-0.6,4.2-1.8,5.7s-2.6,2.5-4.3,3.2C409.6,89.4,407.9,89.8,406.1,89.8z M404.3,85.3c1.4,0,2.6-0.4,3.5-1.2
								c0.9-0.8,1.4-2.2,1.4-4c0-1.1-0.1-2.7-0.3-4.8c-0.4-4.3-0.6-7.2-0.7-8.7c-0.9,3-2.4,6.5-4.6,10.7c0.9,0.5,1.3,1.1,1.3,2
								c0,0.7-0.2,1.4-0.7,1.9c-0.5,0.6-1.1,0.8-1.8,0.8c-0.8,0-1.3-0.2-1.5-0.7c0,1.4,0.3,2.4,0.8,3
								C402.2,85,403.1,85.3,404.3,85.3z"/>
							<path id="Awesome_1_" class="st3" d="M136.1,46.4c-1.4,0-2.6-0.1-3.7-0.3s-2-0.8-2.7-1.6s-1.2-2.2-1.2-4
								c0-2.5,0.8-5.9,2.3-10.2s3.5-8.5,6-12.8c-1.9,0.1-3.4,0.4-4.5,0.8c-1.1,0.5-1.8,1.2-2.2,2.1c0.2,0,0.3,0.2,0.5,0.6
								s0.3,0.8,0.3,1.2c0,0.7-0.3,1.2-0.9,1.6s-1.4,0.6-2.3,0.6c-1.1,0-1.9-0.3-2.5-0.8c-0.6-0.6-1-1.4-1-2.4
								c0-1.3,0.5-2.5,1.5-3.5c1-1.1,2.4-1.9,4.2-2.5s3.7-0.9,5.9-0.9c0.8,0,1.8,0.1,2.9,0.2c3.1-4.9,6.4-8.9,9.8-12
								s6.7-4.7,9.9-4.7c1.8,0,3.3,0.3,4.5,0.8L154,40.2h-8.1l4.4-20.8c-1.4-0.6-2.7-1.1-3.8-1.4c-1.2-0.3-2.4-0.5-3.7-0.6
								c-2.2,4.6-3.9,9.4-5.3,14.2c-1.4,4.8-2.1,8.7-2.1,11.6C135.3,44.6,135.6,45.7,136.1,46.4z M154,1.5c-1.6,0.9-3.3,2.5-5.1,4.8
								s-3.5,5.2-5.1,8.6c2.7,0.5,5,1.2,6.9,2L154,1.5z M167.2,40.2c-1.8,0-3.3-0.6-4.4-1.7c-1.1-1.1-1.7-2.8-1.7-5.1
								c0-0.9,0.2-2.2,0.5-3.7l3.8-18.2h8.1l-4.1,19.2c-0.1,0.5-0.2,0.9-0.2,1.4c0,1.7,0.6,2.5,1.7,2.5c1.1,0,2-0.4,2.7-1.3
								s1.4-2.1,1.8-3.6l3.8-18.2h8.1l-4.1,19.2c-0.2,0.9-0.3,1.6-0.3,2c0,1.2,0.6,1.9,1.9,1.9c1.7,0,3.3-1.1,4.8-3.3
								s2.7-4.8,3.6-7.8s1.4-5.6,1.4-7.8c-0.1,0.2-0.3,0.3-0.7,0.4s-0.8,0.1-1.1,0.1c-0.6,0-1.1-0.3-1.5-0.9s-0.5-1.3-0.5-2
								c0-0.9,0.3-1.6,0.9-2.2s1.5-0.8,2.6-0.8c1.2,0,2.2,0.5,2.7,1.4c0.6,0.9,0.8,2.1,0.8,3.5c0,3.4-0.6,7-1.8,10.9s-3,7.2-5.4,9.9
								s-5.4,4.1-9,4.1c-1.8,0-3.4-0.4-4.5-1.2c-1.2-0.8-1.9-2-2.3-3.6C173.1,38.7,170.4,40.2,167.2,40.2z M207.1,40.2
								c-2.8,0-5-0.7-6.5-2.2s-2.3-3.7-2.3-6.8c0-2.6,0.5-5.5,1.5-8.6s2.7-5.8,5-8.1s5.2-3.4,8.8-3.4c4.1,0,6.2,1.8,6.2,5.4
								c0,2.1-0.6,4.1-1.8,5.8c-1.2,1.8-2.8,3.2-4.8,4.3s-4.1,1.7-6.4,1.8c-0.1,1.1-0.1,1.9-0.1,2.3c0,1.8,0.3,3.1,1,3.8
								s1.7,1,3.1,1c2,0,3.8-0.5,5.2-1.4s3-2.4,4.8-4.3h1.9C218.4,36.8,213.2,40.2,207.1,40.2z M207.2,25.8c1.4-0.1,2.7-0.6,4-1.5
								s2.3-2.1,3.1-3.5s1.2-2.9,1.2-4.4s-0.5-2.3-1.4-2.3c-1.4,0-2.7,1.2-4,3.6C208.7,20,207.7,22.7,207.2,25.8z M227.1,40.2
								c-1.8,0-3.3-0.3-4.6-1c-1.2-0.7-2.2-1.6-2.8-2.7s-0.9-2.3-0.9-3.5c0-1.2,0.3-2.3,0.9-3.3c0.6-0.9,1.3-1.6,2.1-2
								c1.5-2.6,2.8-5.3,3.8-8s2.1-5.6,3.1-8.7l8.4-1.1c0.2,4.8,0.5,10.1,1,15.7c0.2,2.3,0.3,3.9,0.3,4.9c0,0.9-0.1,1.6-0.2,2.2
								c1.8-1,3.1-2,4.1-2.8h2.4c-2.4,2.8-5.3,5.1-8.7,7.1c-1.1,1.2-2.4,2-4,2.6C230.4,40,228.8,40.2,227.1,40.2z M225.3,35.8
								c1.4,0,2.6-0.4,3.5-1.2s1.4-2.2,1.4-4c0-1.1-0.1-2.7-0.3-4.8c-0.4-4.3-0.6-7.2-0.7-8.7c-0.9,3-2.4,6.5-4.6,10.7
								c0.9,0.5,1.3,1.1,1.3,2c0,0.7-0.2,1.4-0.7,1.9c-0.5,0.6-1.1,0.8-1.8,0.8c-0.8,0-1.3-0.2-1.5-0.7c0,1.4,0.3,2.4,0.8,3
								C223.3,35.5,224.1,35.8,225.3,35.8z M250.6,40.1c-2.8,0-5-0.7-6.6-2.2s-2.4-3.7-2.4-6.8c0-2.6,0.5-5.4,1.6-8.5
								s2.8-5.8,5.1-8.1s5.3-3.4,8.8-3.4c4.8,0,7.2,3,7.2,9.1v0.1c0.1,0,0.3,0.1,0.6,0.1c1.2,0,2.7-0.3,4.3-1s3.1-1.5,4.4-2.4
								l0.5,1.5c-1.1,1.2-2.5,2.2-4.3,3s-3.7,1.4-5.7,1.7c-0.3,3.4-1.1,6.4-2.3,9c-1.2,2.6-2.8,4.5-4.8,5.9
								C255,39.4,252.9,40.1,250.6,40.1z M252.8,35c0.9,0,1.8-0.5,2.7-1.6c0.9-1,1.7-2.5,2.4-4.2c0.7-1.8,1.2-3.8,1.5-6
								c-1-0.2-1.5-1-1.5-2.4c0-1.5,0.6-2.6,1.8-3.1c-0.1-1.2-0.3-2.1-0.6-2.6c-0.3-0.5-0.8-0.7-1.6-0.7c-1.2,0-2.5,0.9-3.6,2.7
								c-1.2,1.8-2.1,4-2.8,6.5s-1.1,4.8-1.1,6.7c0,1.8,0.2,3,0.6,3.6C251,34.7,251.7,35,252.8,35z M301.6,40.2
								c-2.3,0-4-0.6-5.1-1.8s-1.6-2.7-1.6-4.6c0-0.8,0.1-1.7,0.3-2.7c0.2-1,0.4-2,0.6-2.9s0.3-1.5,0.4-1.8c0.3-1.3,0.6-2.6,0.8-3.9
								s0.4-2.3,0.4-3.1c0-1.9-0.7-2.9-2-2.9c-1,0-1.8,0.5-2.6,1.4c-0.8,1-1.4,2.2-1.8,3.8l-3.8,18.2h-8.1l4.1-19.5
								c0.1-0.5,0.2-0.9,0.2-1.4c0-1.7-0.6-2.5-1.7-2.5s-2,0.5-2.7,1.4c-0.8,1-1.4,2.2-1.8,3.8l-3.8,18.2h-8.1l6-28.3h8.1l-0.6,2.9
								c1.9-2.2,4.2-3.2,6.9-3.2c3.3,0,5.3,1.6,5.8,4.9c2.1-3.2,4.7-4.8,7.9-4.8c1.9,0,3.5,0.5,4.6,1.6s1.7,2.7,1.7,4.8
								c0,1.1-0.1,2.3-0.4,3.6c-0.3,1.3-0.6,3-1.1,4.9c-0.3,1.2-0.6,2.3-0.8,3.4c-0.2,1.1-0.4,2-0.4,2.6c0,0.8,0.2,1.3,0.5,1.8
								s0.9,0.6,1.8,0.6c1.1,0,2-0.4,2.7-1.2s1.4-2.1,2-3.8h2.4c-1.4,4.1-3,6.9-4.8,8.3C305.4,39.5,303.5,40.2,301.6,40.2z
								 M317.7,40.2c-2.8,0-4.9-0.7-6.5-2.2s-2.3-3.7-2.3-6.8c0-2.6,0.5-5.5,1.5-8.6s2.7-5.8,5-8.1s5.2-3.4,8.8-3.4
								c4.1,0,6.2,1.8,6.2,5.4c0,2.1-0.6,4.1-1.8,5.8c-1.2,1.8-2.8,3.2-4.8,4.3s-4.1,1.7-6.4,1.8c-0.1,0.8-0.1,1.4-0.1,1.7
								c0,3.1,1.2,4.7,3.5,4.7c1.1,0,2.2-0.3,3.4-0.8c1.2-0.6,2.3-1.3,3.3-2.2C326.4,37.5,323.2,40.2,317.7,40.2z M317.8,25.8
								c1.4,0,2.8-0.5,4-1.4c1.3-0.9,2.3-2.1,3.1-3.5c0.8-1.4,1.2-2.9,1.2-4.4s-0.5-2.3-1.4-2.3c-1.3,0-2.6,1.2-3.9,3.6
								S318.4,22.8,317.8,25.8z"/>
							<path id="profile-cards_1_" class="st3" d="M145.1,57.6h8.1l-0.9,4.2c1.9-1.6,4.1-2.4,6.6-2.4c2.1,0,3.8,0.7,5,2.1
								s1.9,3.7,1.9,6.8c0,3-0.4,6-1.3,9s-2.3,5.6-4.4,7.8c-2.1,2.1-4.8,3.2-8.2,3.2c-2.4,0-4-0.7-4.8-2l-2.9,13.8l-8.5,2
								L145.1,57.6z M150.1,83.4c1.8,0,3.3-0.8,4.5-2.5s2.1-3.7,2.6-6.1s0.8-4.6,0.8-6.6c0-3.1-0.9-4.7-2.8-4.7
								c-0.7,0-1.4,0.2-2.1,0.7c-0.7,0.5-1.3,1.2-1.8,2L148,82C148.3,83,149,83.4,150.1,83.4z M171.1,59.7h8.1l-0.7,3.5
								c1.3-1.1,2.4-2,3.5-2.6c1-0.6,2.2-0.9,3.4-0.9s2.2,0.4,2.9,1.2s1,1.8,1,3c0,1.1-0.4,2.1-1.1,2.9s-1.7,1.2-3,1.2
								c-0.8,0-1.4-0.2-1.7-0.6s-0.5-1-0.7-1.7c-0.1-0.5-0.2-0.8-0.3-1.1c-0.1-0.2-0.3-0.3-0.6-0.3c-0.8,0-1.5,0.2-2,0.5
								s-1.3,0.9-2.1,1.7L173.3,88h-8.1L171.1,59.7z M196.8,88.2c-2.8,0-5-0.7-6.6-2.2c-1.6-1.4-2.4-3.7-2.4-6.8
								c0-2.6,0.5-5.4,1.6-8.5s2.8-5.8,5.1-8.1c2.3-2.3,5.3-3.4,8.8-3.4c4.8,0,7.2,3,7.2,9.1v0.1c0.1,0,0.3,0.1,0.6,0.1
								c1.2,0,2.7-0.3,4.3-1s3.1-1.5,4.4-2.4l0.5,1.5c-1.1,1.2-2.5,2.2-4.3,3s-3.7,1.4-5.7,1.7c-0.3,3.4-1.1,6.4-2.3,9
								s-2.8,4.5-4.8,5.9C201.2,87.5,199.1,88.2,196.8,88.2z M199,83.1c0.9,0,1.8-0.5,2.7-1.6c0.9-1,1.7-2.5,2.4-4.2s1.2-3.8,1.5-6
								c-1-0.2-1.5-1-1.5-2.4c0-1.5,0.6-2.6,1.8-3.1c-0.1-1.2-0.3-2.1-0.6-2.6s-0.8-0.7-1.6-0.7c-1.2,0-2.5,0.9-3.6,2.7
								c-1.2,1.8-2.1,4-2.8,6.5s-1.1,4.8-1.1,6.7c0,1.8,0.2,3,0.6,3.6C197.2,82.8,197.9,83.1,199,83.1z M208.6,102.1
								c-2.1,0-3.8-0.6-5.1-1.7c-1.3-1.2-2-2.7-2-4.6c0-1.6,0.5-2.9,1.4-3.9s2-1.8,3.3-2.4s3-1.2,5.1-1.9l6.3-29.8
								c1-4.7,2.7-7.9,5.1-9.6c2.4-1.7,5.1-2.6,8.1-2.6c2.8,0,5.2,0.5,7.2,1.4s2.9,2.6,2.9,5.1c0,1.6-0.4,2.7-1.3,3.5
								c-0.8,0.7-1.9,1.1-3.2,1.1c-1,0-1.8-0.2-2.4-0.7s-1-1.3-1-2.3c0-0.7,0.2-1.4,0.5-1.9c0.4-0.6,0.8-0.8,1.4-0.8
								c0.3,0,0.4,0,0.5,0.1c0-0.8-0.3-1.3-0.9-1.7c-0.5-0.4-1.3-0.6-2.2-0.6c-1.7,0-3,0.6-4,1.8s-1.7,2.7-2,4.6l-1,4.6h4.5
								l-0.5,2.3h-4.5l-6.5,30.6c-0.8,3.5-2.1,6-3.9,7.5S210.8,102.1,208.6,102.1z M234.1,88.3c-1.8,0-3.3-0.6-4.4-1.7
								c-1.1-1.1-1.7-2.8-1.7-5.1c0-0.9,0.2-2.2,0.5-3.7l3.8-18.2h8.1l-4.1,19.2c-0.2,0.6-0.2,1.2-0.2,1.8c0,0.8,0.2,1.3,0.5,1.6
								c0.4,0.3,1,0.5,1.8,0.5c1.1,0,2.1-0.5,3.1-1.4s1.6-2.1,2-3.6h2.4c-1.4,4.1-3.2,6.8-5.4,8.3C238.4,87.6,236.2,88.3,234.1,88.3
								z M207.1,97.1c0.6,0,1.3-0.4,1.9-1.1c0.6-0.7,1.1-1.8,1.4-3.3l0.7-3.3c-1.9,0.6-3.5,1.4-4.6,2.3s-1.7,2-1.7,3.1
								c0,0.8,0.3,1.4,0.8,1.8C206.1,96.9,206.6,97.1,207.1,97.1z M249.2,88.3c-1.8,0-3.3-0.6-4.4-1.7c-1.1-1.1-1.7-2.8-1.7-5.1
								c0-0.9,0.2-2.2,0.5-3.7l6.1-28.3l8.4-1.1L251.6,79c-0.2,0.6-0.2,1.2-0.2,1.8c0,0.8,0.2,1.3,0.5,1.6c0.4,0.3,1,0.5,1.8,0.5
								c1.1,0,2.1-0.5,3.1-1.4c0.9-0.9,1.6-2.1,2-3.6h2.4c-1.4,4.1-3.2,6.8-5.4,8.3C253.6,87.7,251.3,88.3,249.2,88.3z M266.6,88.3
								c-2.8,0-4.9-0.7-6.5-2.2s-2.3-3.7-2.3-6.8c0-2.6,0.5-5.5,1.5-8.6s2.7-5.8,5-8.1c2.3-2.3,5.2-3.4,8.8-3.4
								c4.1,0,6.2,1.8,6.2,5.4c0,2.1-0.6,4.1-1.8,5.8s-2.8,3.2-4.8,4.3c-2,1.1-4.1,1.7-6.4,1.8c-0.1,0.8-0.1,1.4-0.1,1.7
								c0,3.1,1.2,4.7,3.5,4.7c1.1,0,2.2-0.3,3.4-0.8c1.2-0.6,2.3-1.3,3.3-2.2C275.4,85.5,272.1,88.3,266.6,88.3z M266.8,73.9
								c1.4,0,2.8-0.5,4-1.4c1.3-0.9,2.3-2.1,3.1-3.5c0.8-1.4,1.2-2.9,1.2-4.4c0-1.5-0.5-2.3-1.4-2.3c-1.3,0-2.6,1.2-3.9,3.6
								C268.5,68.3,267.4,70.9,266.8,73.9z M281.5,71h11.3l-1,4.5h-11.4L281.5,71z M303.9,88.3c-2.8,0-5-0.7-6.5-2.2
								s-2.3-3.7-2.3-6.8c0-2.6,0.5-5.5,1.6-8.6c1-3.1,2.7-5.8,5-8.1c2.3-2.3,5.2-3.4,8.7-3.4c2.3,0,3.9,0.5,4.8,1.5
								c1,1,1.4,2.2,1.4,3.7c0,1.3-0.3,2.3-0.8,3.1c-0.6,0.7-1.3,1.1-2.2,1.1c-0.6,0-1.3-0.2-2-0.7c0.5-1.2,0.7-2.4,0.7-3.3
								c0-0.7-0.1-1.3-0.4-1.7c-0.3-0.4-0.7-0.6-1.2-0.6c-1.1,0-2.3,0.9-3.4,2.8c-1.1,1.8-2.1,4.1-2.8,6.7c-0.7,2.6-1.1,5-1.1,7.1
								c0,1.8,0.3,3.1,1,3.8c0.6,0.7,1.7,1,3.1,1c2,0,3.8-0.5,5.2-1.4s3-2.4,4.8-4.3h1.9C315.2,84.9,310.1,88.3,303.9,88.3z
								 M324.3,88.3c-2.2,0-3.9-0.7-5.4-2.2c-1.4-1.5-2.2-3.8-2.2-6.9c0-2.8,0.6-5.7,1.7-8.8c1.1-3.1,2.8-5.7,5-7.8
								c2.2-2.1,4.8-3.2,7.9-3.2c1.5,0,2.7,0.3,3.5,0.8s1.1,1.2,1.1,2.1v0.4l0.6-3h8.1l-4.1,19.2c-0.2,0.6-0.2,1.2-0.2,1.8
								c0,1.6,0.8,2.4,2.3,2.4c1.1,0,2-0.5,2.7-1.5c0.8-1,1.4-2.3,1.8-3.8h2.4c-1.4,4.1-3.1,6.8-5.2,8.3s-4.1,2.2-6.2,2.2
								c-1.6,0-2.9-0.4-3.8-1.3s-1.5-2.2-1.7-3.9c-1.1,1.5-2.3,2.8-3.6,3.8C327.7,87.9,326.1,88.3,324.3,88.3z M328,82.9
								c0.9,0,1.9-0.4,2.8-1.3s1.6-2.1,1.9-3.6l2.7-12.8c0-0.5-0.2-1-0.6-1.4c-0.4-0.4-1-0.7-1.8-0.7c-1.5,0-2.9,0.9-4.1,2.6
								c-1.2,1.8-2.2,3.9-2.8,6.3c-0.7,2.5-1,4.6-1,6.5s0.3,3.1,0.8,3.6C326.5,82.6,327.2,82.9,328,82.9z M351.1,59.7h8.1l-0.7,3.5
								c1.3-1.1,2.4-2,3.5-2.6c1-0.6,2.2-0.9,3.4-0.9s2.2,0.4,2.9,1.2s1,1.8,1,3c0,1.1-0.4,2.1-1.1,2.9s-1.7,1.2-3,1.2
								c-0.8,0-1.4-0.2-1.7-0.6s-0.5-1-0.7-1.7c-0.1-0.5-0.2-0.8-0.3-1.1c-0.1-0.2-0.3-0.3-0.6-0.3c-0.8,0-1.5,0.2-2,0.5
								s-1.3,0.9-2.1,1.7L353.3,88h-8.1L351.1,59.7z M375.3,88.3c-2.2,0-3.9-0.7-5.4-2.2c-1.4-1.5-2.2-3.8-2.2-6.9
								c0-2.8,0.6-5.7,1.7-8.8c1.1-3.1,2.8-5.7,5-7.8c2.2-2.1,4.8-3.2,7.9-3.2c1.5,0,2.7,0.3,3.5,0.8s1.1,1.2,1.1,2.1v0.2l2.8-13
								l8.4-1.1L391.6,79c-0.2,0.6-0.2,1.2-0.2,1.8c0,0.8,0.2,1.3,0.5,1.6c0.4,0.3,1,0.5,1.8,0.5c1.1,0,2-0.5,2.7-1.4
								c0.8-0.9,1.4-2.1,1.8-3.6h2.4c-2.3,6.8-6.1,10.1-11.4,10.1c-1.5,0-2.8-0.4-3.8-1.2c-1-0.8-1.6-2-1.8-3.6
								c-1,1.5-2.2,2.8-3.5,3.7S377.2,88.3,375.3,88.3z M379,82.9c0.9,0,1.8-0.4,2.7-1.2c0.9-0.8,1.6-2,1.9-3.5v-0.3l2.8-13
								c-0.3-1.3-1.1-2-2.3-2c-1.5,0-2.9,0.9-4.1,2.6c-1.2,1.8-2.2,3.9-2.8,6.3c-0.7,2.5-1,4.6-1,6.5s0.3,3.1,0.8,3.6
								C377.5,82.6,378.2,82.9,379,82.9z M404.7,88.3c-1.8,0-3.3-0.3-4.6-1c-1.2-0.7-2.2-1.6-2.8-2.7c-0.6-1.1-0.9-2.3-0.9-3.5
								s0.3-2.3,0.9-3.3c0.6-0.9,1.3-1.6,2.1-2c1.5-2.6,2.8-5.3,3.8-8c1.1-2.7,2.1-5.6,3.1-8.7l8.4-1.1c0.2,4.8,0.5,10.1,1,15.7
								c0.2,2.3,0.3,3.9,0.3,4.9c0,2.3-0.6,4.2-1.8,5.7c-1.2,1.5-2.6,2.5-4.3,3.2C408.2,88,406.5,88.3,404.7,88.3z M402.9,83.9
								c1.4,0,2.6-0.4,3.5-1.2s1.4-2.2,1.4-4c0-1.1-0.1-2.7-0.3-4.8c-0.4-4.3-0.6-7.2-0.7-8.7c-0.9,3-2.4,6.5-4.6,10.7
								c0.9,0.5,1.3,1.1,1.3,2c0,0.7-0.2,1.4-0.7,1.9c-0.5,0.6-1.1,0.8-1.8,0.8c-0.8,0-1.3-0.2-1.5-0.7c0,1.4,0.3,2.4,0.8,3
								C400.8,83.6,401.7,83.9,402.9,83.9z"/>
						</g>
					</g>
				</g>
			</g>
		</g>
	</g>
	<g id="Capa_2_1_" class="st1">
		<g class="st0">
			<path class="st1" d="M52.5,51.3c9,0,16.4-7.4,16.4-16.4s-7.4-16.4-16.4-16.4s-16.4,7.4-16.4,16.4S43.5,51.3,52.5,51.3z
				 M52.5,25.4c5.3,0,9.5,4.3,9.5,9.5s-4.3,9.5-9.5,9.5S43,40.1,43,34.9S47.3,25.4,52.5,25.4z"/>
			<path class="st1" d="M75.9,62.3H62.5c-3.5,0-6.4-2.9-6.4-6.4v-1.1H56h-6.8h-0.1v1.1c0,3.5-2.9,6.4-6.4,6.4H29.2
				c-7.3,0-13.3,6-13.3,13.3h6.9c0-3.5,2.9-6.4,6.4-6.4h13.4c3.9,0,7.5-1.7,9.9-4.4c2.4,2.7,6,4.4,9.9,4.4h13.4
				c3.5,0,6.4,2.9,6.4,6.4h6.9C89.2,68.3,83.3,62.3,75.9,62.3z"/>
			<polygon class="st1" points="87,-1 87,5.9 100,5.9 100,89.9 87,89.9 87,96.8 106.9,96.8 106.9,-1 			"/>
			<polygon class="st1" points="5.1,5.9 18.1,5.9 18.1,-1 -1.8,-1 -1.8,96.8 18.1,96.8 18.1,89.9 5.1,89.9 			"/>
		</g>
		<g>
			<g>
				<path class="st6" d="M129.9,69.4v-5h5.4V30.6h-5.4v-4.9h7c3.6,4.6,7.1,9.2,10.7,13.8c3.5,4.6,7.1,9.2,10.7,13.8
					c3.6-4.6,7.1-9.2,10.7-13.8c3.5-4.6,7.1-9.2,10.7-13.8h7v4.9h-5.4v33.8h5.4v5h-15.1v-5h4.5V40c0-0.3,0.1-0.7,0.1-1
					s0.1-0.7,0.1-1c-0.3,0.5-0.7,0.9-1,1.4s-0.7,1-1,1.4l-15.9,20.7l-16.6-21.7c-0.3-0.4-0.5-0.7-0.7-0.9s-0.4-0.6-0.6-0.9
					c0,0.3,0.1,0.7,0.1,1s0.1,0.7,0.1,1v24.4h4.5v5H129.9z"/>
				<path class="st6" d="M221.9,68.1c-2.7,1.2-5.6,1.8-8.7,1.8c-3.1,0-6-0.6-8.7-1.8c-2.7-1.2-5.1-2.8-7.1-4.8c-2-2-3.6-4.4-4.8-7.1
					c-1.2-2.7-1.8-5.6-1.8-8.7c0-3,0.6-5.9,1.8-8.7c1.2-2.7,2.8-5.1,4.8-7.2c2-2,4.4-3.7,7.1-4.8c2.7-1.2,5.6-1.8,8.7-1.8
					c3,0,5.9,0.6,8.7,1.8c2.7,1.2,5.1,2.8,7.2,4.8c2,2,3.7,4.4,4.8,7.2c1.2,2.7,1.8,5.6,1.8,8.7c0,3.1-0.6,6-1.8,8.7
					c-1.2,2.7-2.8,5.1-4.8,7.1C227,65.4,224.6,67,221.9,68.1z M206.6,63.6c2.1,0.9,4.3,1.4,6.7,1.4s4.6-0.5,6.7-1.4
					c2.1-0.9,3.9-2.2,5.5-3.8c1.5-1.5,2.8-3.4,3.7-5.5s1.3-4.4,1.3-6.8c0-2.4-0.4-4.7-1.3-6.8c-0.9-2.1-2.1-3.9-3.7-5.5
					c-1.6-1.6-3.4-2.8-5.5-3.8c-2.1-0.9-4.3-1.4-6.7-1.4s-4.6,0.5-6.7,1.4c-2.1,0.9-3.9,2.2-5.4,3.8c-1.6,1.6-2.8,3.4-3.7,5.5
					s-1.3,4.4-1.3,6.8c0,2.4,0.4,4.7,1.3,6.8c0.9,2.1,2.1,3.9,3.7,5.5C202.7,61.4,204.5,62.7,206.6,63.6z"/>
				<path class="st6" d="M240.1,69.4v-5h2.9V30.6h-2.9v-4.9h13.1c3,0,5.8,0.5,8.5,1.5c2.7,1,5,2.5,7,4.4c2,1.9,3.6,4.2,4.8,6.9
					c1.2,2.7,1.8,5.7,1.8,9.1c0,2.5-0.4,5-1.3,7.6s-2.2,4.9-4.2,7c-1.9,2.1-4.4,3.9-7.5,5.2c-3.1,1.4-6.8,2-11.2,2H240.1z
					 M248.2,64.4h4.4c2.5,0,4.8-0.4,6.9-1.2c2.1-0.8,4-1.9,5.6-3.4c1.5-1.5,2.8-3.2,3.7-5.3c0.9-2.1,1.3-4.4,1.3-7s-0.4-4.9-1.3-7
					s-2.1-3.9-3.7-5.4s-3.4-2.6-5.6-3.4c-2.1-0.8-4.4-1.2-6.9-1.2h-4.4V64.4z"/>
				<path class="st6" d="M284.4,39.4c1.2-1.9,2.5-3.8,3.8-5.7c1.2-1.9,2.5-3.8,3.8-5.7c1.2,1.9,2.5,3.8,3.8,5.7
					c1.2,1.9,2.5,3.8,3.8,5.7h-3.7c-0.6-0.8-1.3-1.5-1.9-2.2c-0.6-0.8-1.3-1.5-1.9-2.3c-0.6,0.8-1.3,1.5-1.9,2.3s-1.3,1.5-1.9,2.2
					H284.4z"/>
				<path class="st6" d="M308.9,69.4v-5h3.5V30.6h-3.5v-4.9h13.9v4.9h-5.2v33.8h17.7v-4.7h4.9v9.7H308.9z"/>
				<path class="st6" d="M391.7,69c-1.9,0.6-3.9,0.8-6,0.8c-3.1,0-6-0.6-8.7-1.8c-2.7-1.2-5.1-2.8-7.1-4.8c-2-2-3.6-4.4-4.8-7.1
					c-1.2-2.7-1.8-5.6-1.8-8.7c0-3.1,0.6-6,1.8-8.7c1.2-2.7,2.8-5.1,4.8-7.2c2-2,4.4-3.6,7.1-4.8s5.6-1.8,8.7-1.8
					c2.1,0,4.1,0.3,6,0.8s3.7,1.3,5.4,2.3v7h-4.9v-3.6c-1-0.5-2.1-0.8-3.2-1s-2.2-0.3-3.3-0.3c-2.4,0-4.6,0.5-6.7,1.4
					c-2.1,0.9-3.9,2.2-5.4,3.8c-1.6,1.6-2.8,3.5-3.7,5.6c-0.9,2.1-1.3,4.4-1.3,6.8c0,2.4,0.4,4.6,1.3,6.8c0.9,2.1,2.1,4,3.7,5.5
					c1.5,1.6,3.3,2.8,5.4,3.8c2.1,0.9,4.3,1.4,6.7,1.4c1.5,0,3-0.2,4.5-0.6c1.4-0.4,2.8-1,4.1-1.7l2.8,4.1
					C395.4,67.7,393.6,68.5,391.7,69z"/>
				<path class="st6" d="M401.5,69.4v-5h5.1c2.9-6.9,5.8-13.7,8.7-20.4c2.9-6.7,5.8-13.5,8.7-20.4c2.9,6.9,5.8,13.7,8.7,20.4
					c2.9,6.7,5.8,13.5,8.7,20.4h5.1v5h-13.9v-5h3.5c-0.9-2.1-1.7-4.1-2.6-6.2c-0.9-2-1.7-4.1-2.6-6.2h-13.8c-1.2,2.8-2,4.8-2.6,6.2
					c-0.6,1.4-1.5,3.4-2.6,6.2h3.6v5H401.5z M421.1,42.3c-0.7,1.8-1.3,3.4-1.9,4.8h9.5l-4.2-9.9l-0.6-2.1c-0.2,0.7-0.3,1.1-0.4,1.4
					c-0.1,0.3-0.2,0.5-0.2,0.6C422.5,38.8,421.8,40.5,421.1,42.3z"/>
				<path class="st6" d="M450.8,69.4v-5h2.8V30.6h-2.8v-4.9h13.1c1.4,0,3,0.2,4.7,0.7c1.7,0.4,3.3,1.1,4.8,2.1s2.8,2.2,3.8,3.7
					c1,1.5,1.5,3.3,1.5,5.4c0,3.1-0.8,5.7-2.3,7.8c-1.6,2.1-3.8,3.5-6.8,4.1l7,15h5.9v4.9h-9.2l-9.2-19.6c-0.6,0-1,0-1.3,0
					s-0.8,0-1.3,0h-2.6v14.6h7.1v5H450.8z M458.8,44.9h5.4c1.8,0,3.3-0.2,4.5-0.7s2.1-1.1,2.8-1.8c0.7-0.7,1.2-1.5,1.5-2.4
					s0.4-1.7,0.4-2.5c0-0.9-0.2-1.8-0.7-2.6s-1.1-1.6-1.9-2.2c-0.8-0.6-1.8-1.1-3-1.5c-1.1-0.4-2.4-0.6-3.7-0.6h-5.5v14.3H458.8z"/>
				<path class="st6" d="M486.8,69.4v-5h2.9V30.6h-2.9v-4.9h13.1c3,0,5.8,0.5,8.5,1.5c2.7,1,5,2.5,7,4.4c2,1.9,3.6,4.2,4.8,6.9
					s1.8,5.7,1.8,9.1c0,2.5-0.4,5-1.3,7.6c-0.9,2.6-2.2,4.9-4.2,7c-1.9,2.1-4.4,3.9-7.5,5.2c-3.1,1.4-6.8,2-11.2,2H486.8z
					 M494.9,64.4h4.4c2.5,0,4.8-0.4,6.9-1.2c2.1-0.8,4-1.9,5.6-3.4c1.5-1.5,2.8-3.2,3.7-5.3s1.3-4.4,1.3-7s-0.4-4.9-1.3-7
					c-0.9-2.1-2.1-3.9-3.7-5.4c-1.6-1.5-3.4-2.6-5.6-3.4c-2.1-0.8-4.4-1.2-6.9-1.2h-4.4V64.4z"/>
				<path class="st6" d="M544.8,69c-1.6,0.6-3.2,0.8-5,0.8c-1.6,0-3.1-0.2-4.6-0.5c-1.5-0.4-2.9-0.8-4.1-1.4c-1.2-0.6-2.4-1.2-3.3-2
					c-1-0.8-1.7-1.5-2.3-2.4v-7.2h4.9v5.6c1.1,0.8,2.4,1.6,3.9,2.2c1.5,0.6,3.2,0.9,5.1,0.9c1.1,0,2.1-0.2,3.1-0.5s1.9-0.8,2.7-1.3
					c0.8-0.6,1.4-1.4,1.8-2.3c0.5-0.9,0.7-2,0.7-3.2c0-0.8-0.1-1.5-0.2-2.2c-0.1-0.8-0.3-1.4-0.7-1.9c-0.5-0.9-1.2-1.6-1.9-2.1
					s-1.6-1-2.5-1.5c-1.5-0.6-3.1-1.2-4.9-1.6c-1.8-0.5-3.4-1.1-4.9-1.9c-1.5-0.8-2.8-1.9-3.8-3.3c-1-1.4-1.6-3.4-1.6-6
					c0-1.4,0.1-2.8,0.6-4.1c0.4-1.4,1.1-2.6,2.1-3.8c1-1.1,2.2-2,3.8-2.8c1.6-0.7,3.5-1.1,5.8-1.1c0.8,0,1.6,0,2.4,0.1
					c0.9,0.1,1.8,0.2,2.8,0.5c1,0.2,1.9,0.6,3,1.1c1,0.5,2,1.2,3,2v6.1h-4.9v-3.7c-0.8-0.3-1.7-0.6-2.8-0.9c-1-0.2-2.2-0.4-3.4-0.4
					s-2.3,0.2-3.2,0.6c-0.9,0.4-1.7,0.9-2.2,1.6c-0.5,0.6-0.9,1.3-1.2,2.2c-0.3,0.8-0.4,1.7-0.4,2.6c0,1.2,0.3,2.3,0.9,3
					c0.6,0.8,1.4,1.4,2.3,2c1.5,0.8,3.3,1.5,5.4,2.1c2.1,0.6,4.1,1.4,6,2.3c1.8,0.8,3.2,2.1,4.2,3.9c1.1,1.8,1.6,4.1,1.6,7.2
					c0,1.9-0.3,3.6-1,5.1c-0.7,1.5-1.6,2.8-2.8,3.9C547.7,67.7,546.3,68.5,544.8,69z"/>
			</g>
		</g>
		<circle class="st7" cx="52.5" cy="35.1" r="12.9"/>
		<g>
			<path class="st7" d="M19.6,75.4L19.6,75.4c0-5.4,4.4-9.8,9.8-9.8h13.3c5.4,0,9.8-4.4,9.8-9.8v-1.1"/>
			<path class="st7" d="M85.5,75.4L85.5,75.4c0-5.4-4.4-9.8-9.8-9.8H62.4c-5.4,0-9.8-4.4-9.8-9.8v-1.1"/>
		</g>
		<g>
			<polyline class="st8" points="86.8,2.9 103,2.9 103,93 86.8,93 			"/>
			<polyline class="st8" points="18.4,93 2.1,93 2.1,2.9 18.4,2.9 			"/>
		</g>
	</g>
</g>
<g id="Capa_2_copia_2" class="st0">
	<g class="st1">
		<g>
			<path class="st6" d="M130.1,69.9v-5h5.5V30.8h-5.5v-5h7.1c3.6,4.7,7.2,9.3,10.7,14c3.5,4.6,7.1,9.3,10.7,14
				c3.6-4.7,7.2-9.3,10.7-14c3.5-4.6,7.1-9.3,10.7-14h7.1v5h-5.5v34.1h5.5v5h-15.2v-5h4.5V40.3c0-0.3,0.1-0.7,0.1-1
				c0-0.3,0.1-0.7,0.1-1c-0.3,0.5-0.7,0.9-1,1.4c-0.3,0.5-0.7,1-1,1.4l-16,20.9l-16.7-21.9c-0.3-0.4-0.5-0.7-0.7-0.9
				s-0.4-0.6-0.6-0.9c0,0.3,0.1,0.7,0.1,1c0,0.3,0.1,0.7,0.1,1v24.6h4.5v5H130.1z"/>
			<path class="st6" d="M225.9,68.6c-2.8,1.2-5.7,1.8-8.7,1.8c-3.1,0-6-0.6-8.8-1.8c-2.7-1.2-5.1-2.8-7.1-4.9
				c-2.1-2-3.7-4.4-4.9-7.1c-1.2-2.7-1.8-5.6-1.8-8.8c0-3.1,0.6-6,1.8-8.7c1.2-2.8,2.8-5.2,4.9-7.2c2-2.1,4.4-3.7,7.1-4.9
				c2.7-1.2,5.6-1.8,8.8-1.8c3.1,0,6,0.6,8.7,1.8c2.8,1.2,5.2,2.8,7.2,4.9c2.1,2.1,3.7,4.5,4.9,7.2c1.2,2.8,1.8,5.7,1.8,8.7
				c0,3.1-0.6,6-1.8,8.8c-1.2,2.7-2.8,5.1-4.9,7.1C231.1,65.8,228.7,67.5,225.9,68.6z M210.5,64c2.1,0.9,4.3,1.4,6.7,1.4
				c2.4,0,4.6-0.5,6.7-1.4c2.1-0.9,3.9-2.2,5.5-3.8c1.6-1.6,2.8-3.4,3.7-5.5c0.9-2.1,1.4-4.4,1.4-6.8c0-2.4-0.5-4.7-1.4-6.8
				c-0.9-2.1-2.1-4-3.7-5.6c-1.6-1.6-3.4-2.9-5.5-3.8c-2.1-0.9-4.3-1.4-6.7-1.4c-2.4,0-4.6,0.5-6.7,1.4c-2.1,0.9-3.9,2.2-5.5,3.8
				c-1.6,1.6-2.8,3.5-3.7,5.6c-0.9,2.1-1.4,4.4-1.4,6.8c0,2.4,0.5,4.7,1.4,6.8c0.9,2.1,2.2,4,3.7,5.5
				C206.6,61.8,208.4,63.1,210.5,64z"/>
			<path class="st6" d="M247.4,69.9v-5h3V30.8h-3v-5h13.2c3,0,5.9,0.5,8.6,1.5c2.7,1,5,2.5,7.1,4.4c2,1.9,3.6,4.3,4.8,7
				s1.8,5.8,1.8,9.2c0,2.5-0.4,5-1.3,7.6c-0.9,2.6-2.3,5-4.2,7.1c-1.9,2.1-4.4,3.9-7.5,5.3c-3.1,1.4-6.9,2-11.3,2H247.4z
				 M255.6,64.8h4.4c2.5,0,4.8-0.4,6.9-1.2c2.1-0.8,4-2,5.6-3.5c1.6-1.5,2.8-3.2,3.7-5.3c0.9-2.1,1.4-4.4,1.4-7c0-2.6-0.5-5-1.4-7.1
				c-0.9-2.1-2.1-3.9-3.7-5.4c-1.6-1.5-3.5-2.6-5.6-3.4c-2.1-0.8-4.5-1.2-6.9-1.2h-4.4V64.8z"/>
			<path class="st6" d="M295.2,39.7c1.3-1.9,2.5-3.8,3.8-5.7c1.3-1.9,2.5-3.8,3.8-5.7c1.3,1.9,2.5,3.8,3.8,5.7
				c1.3,1.9,2.5,3.8,3.8,5.7h-3.7c-0.6-0.8-1.3-1.5-1.9-2.3s-1.3-1.5-1.9-2.3c-0.6,0.8-1.3,1.5-1.9,2.3c-0.7,0.8-1.3,1.5-1.9,2.3
				H295.2z"/>
			<path class="st6" d="M323.1,69.9v-5h3.5V30.8h-3.5v-5h14v5h-5.2v34.1h17.8v-4.7h5v9.7H323.1z"/>
			<path class="st6" d="M412.9,69.5c-1.9,0.6-3.9,0.9-6.1,0.9c-3.1,0-6-0.6-8.8-1.8c-2.7-1.2-5.1-2.8-7.1-4.9
				c-2.1-2-3.7-4.4-4.9-7.1c-1.2-2.7-1.8-5.6-1.8-8.8c0-3.1,0.6-6,1.8-8.8c1.2-2.8,2.8-5.2,4.9-7.2c2-2,4.4-3.6,7.1-4.8
				c2.7-1.2,5.6-1.8,8.8-1.8c2.1,0,4.2,0.3,6.1,0.8c1.9,0.5,3.7,1.3,5.4,2.3v7.1h-5v-3.8c-1.1-0.5-2.1-0.8-3.2-1
				c-1.1-0.2-2.2-0.3-3.3-0.3c-2.4,0-4.6,0.5-6.7,1.4c-2.1,0.9-3.9,2.2-5.4,3.8c-1.6,1.6-2.8,3.5-3.7,5.7s-1.4,4.4-1.4,6.8
				c0,2.4,0.5,4.7,1.4,6.8c0.9,2.1,2.2,4,3.7,5.5c1.6,1.6,3.4,2.9,5.4,3.8c2.1,0.9,4.3,1.4,6.7,1.4c1.6,0,3.1-0.2,4.5-0.6
				c1.4-0.4,2.8-1,4.1-1.7l2.8,4.2C416.6,68.2,414.8,69,412.9,69.5z"/>
			<path class="st6" d="M425.9,69.9v-5h5.2c2.9-6.9,5.8-13.8,8.7-20.6c2.9-6.8,5.8-13.6,8.7-20.6c2.9,6.9,5.8,13.8,8.7,20.6
				c2.9,6.8,5.8,13.6,8.7,20.6h5.2v5h-14v-5h3.5c-0.9-2.1-1.8-4.2-2.6-6.2c-0.9-2.1-1.7-4.1-2.6-6.2h-13.9c-1.2,2.8-2.1,4.9-2.6,6.2
				c-0.6,1.4-1.5,3.5-2.6,6.2h3.6v5H425.9z M445.6,42.6c-0.7,1.8-1.3,3.4-1.9,4.9h9.6l-4.2-10l-0.6-2.1c-0.2,0.7-0.3,1.2-0.4,1.4
				c-0.1,0.3-0.2,0.5-0.2,0.6C447,39.1,446.3,40.8,445.6,42.6z"/>
			<path class="st6" d="M478.7,69.9v-5h2.8V30.8h-2.8v-5h13.2c1.4,0,3,0.2,4.8,0.7c1.7,0.4,3.4,1.1,4.9,2.1c1.5,1,2.8,2.2,3.8,3.7
				c1,1.5,1.5,3.3,1.5,5.5c0,3.1-0.8,5.8-2.4,7.9c-1.6,2.1-3.9,3.5-6.9,4.2l7.1,15.1h5.9v5h-9.2l-9.3-19.7c-0.6,0-1,0-1.4,0
				c-0.3,0-0.8,0-1.4,0h-2.6v14.7h7.2v5H478.7z M486.7,45.2h5.5c1.8,0,3.4-0.2,4.6-0.7c1.2-0.5,2.2-1.1,2.9-1.8
				c0.7-0.7,1.2-1.5,1.5-2.4c0.3-0.9,0.4-1.7,0.4-2.5c0-0.9-0.2-1.8-0.7-2.6c-0.5-0.8-1.1-1.6-1.9-2.3c-0.8-0.6-1.8-1.1-3-1.5
				s-2.4-0.6-3.7-0.6h-5.5V45.2z"/>
			<path class="st6" d="M518.1,69.9v-5h3V30.8h-3v-5h13.2c3,0,5.9,0.5,8.6,1.5c2.7,1,5,2.5,7.1,4.4c2,1.9,3.6,4.3,4.8,7
				s1.8,5.8,1.8,9.2c0,2.5-0.4,5-1.3,7.6c-0.9,2.6-2.3,5-4.2,7.1c-1.9,2.1-4.4,3.9-7.5,5.3c-3.1,1.4-6.9,2-11.3,2H518.1z
				 M526.3,64.8h4.4c2.5,0,4.8-0.4,6.9-1.2c2.1-0.8,4-2,5.6-3.5c1.6-1.5,2.8-3.2,3.7-5.3c0.9-2.1,1.4-4.4,1.4-7c0-2.6-0.5-5-1.4-7.1
				c-0.9-2.1-2.1-3.9-3.7-5.4c-1.6-1.5-3.5-2.6-5.6-3.4c-2.1-0.8-4.5-1.2-6.9-1.2h-4.4V64.8z"/>
			<path class="st6" d="M579.7,69.5c-1.6,0.6-3.3,0.9-5,0.9c-1.6,0-3.2-0.2-4.7-0.5c-1.5-0.4-2.9-0.8-4.2-1.4
				c-1.3-0.6-2.4-1.3-3.4-2c-1-0.8-1.8-1.6-2.3-2.4v-7.3h5v5.6c1.1,0.8,2.4,1.6,3.9,2.2c1.5,0.6,3.2,0.9,5.1,0.9
				c1.1,0,2.1-0.2,3.2-0.5c1-0.3,1.9-0.8,2.7-1.4c0.8-0.6,1.4-1.4,1.8-2.3c0.5-0.9,0.7-2,0.7-3.2c0-0.8-0.1-1.5-0.2-2.3
				c-0.1-0.8-0.3-1.4-0.7-2c-0.5-0.9-1.2-1.6-1.9-2.1c-0.7-0.5-1.6-1-2.6-1.5c-1.5-0.6-3.2-1.2-4.9-1.6c-1.8-0.5-3.4-1.1-4.9-1.9
				c-1.6-0.8-2.8-1.9-3.9-3.3c-1-1.4-1.6-3.4-1.6-6c0-1.4,0.1-2.8,0.6-4.2c0.4-1.4,1.1-2.6,2.1-3.8c1-1.1,2.2-2.1,3.8-2.8
				c1.6-0.7,3.5-1.1,5.9-1.1c0.8,0,1.6,0,2.5,0.1c0.9,0.1,1.8,0.3,2.8,0.5c1,0.3,2,0.6,3,1.1s2,1.2,3.1,2v6.2h-5v-3.7
				c-0.8-0.3-1.7-0.6-2.8-0.9s-2.2-0.4-3.5-0.4s-2.4,0.2-3.3,0.6c-0.9,0.4-1.7,0.9-2.3,1.6c-0.5,0.6-1,1.4-1.2,2.2
				c-0.3,0.8-0.4,1.7-0.4,2.6c0,1.3,0.3,2.3,0.9,3.1c0.6,0.8,1.4,1.4,2.3,2c1.5,0.8,3.3,1.5,5.4,2.1c2.1,0.6,4.1,1.4,6,2.3
				c1.8,0.8,3.2,2.1,4.3,3.9c1.1,1.8,1.6,4.2,1.6,7.2c0,1.9-0.3,3.6-1,5.1c-0.7,1.5-1.6,2.8-2.8,3.9C582.7,68.2,581.3,69,579.7,69.5
				z"/>
		</g>
	</g>
	<circle class="st9" cx="53.5" cy="35.1" r="12.9"/>
	<g class="st1">
		<path class="st10" d="M20.6,75.4L20.6,75.4c0-5.4,4.4-9.8,9.8-9.8h13.3c5.4,0,9.8-4.4,9.8-9.8v-1.1"/>
		<path class="st10" d="M86.5,75.4L86.5,75.4c0-5.4-4.4-9.8-9.8-9.8H63.4c-5.4,0-9.8-4.4-9.8-9.8v-1.1"/>
	</g>
	<g class="st1">
		<polyline class="st11" points="87.8,2.9 104,2.9 104,93 87.8,93 		"/>
		<polyline class="st11" points="19.4,93 3.1,93 3.1,2.9 19.4,2.9 		"/>
	</g>
</g>
<g id="Capa_2_copia_5">
	<rect x="127.9" y="33.3" class="st12" width="531" height="56.9"/>
	<text transform="matrix(1 0 0 1 127.8806 71.2048)"><tspan x="0" y="0" class="st6 st13 st14">MOD </tspan><tspan x="181.2" y="0" class="st6 st13 st15"> </tspan><tspan x="185.4" y="0" class="st6 st13 st14">L CARDS</tspan></text>
	<circle class="st10" cx="53.5" cy="35.1" r="12.9"/>
	<g>
		<path class="st10" d="M20.6,75.4L20.6,75.4c0-5.4,4.4-9.8,9.8-9.8h13.3c5.4,0,9.8-4.4,9.8-9.8v-1.1"/>
		<path class="st10" d="M86.5,75.4L86.5,75.4c0-5.4-4.4-9.8-9.8-9.8H63.4c-5.4,0-9.8-4.4-9.8-9.8v-1.1"/>
	</g>
	<g>
		<polyline class="st11" points="87.8,2.9 104,2.9 104,93 87.8,93 		"/>
		<polyline class="st11" points="19.4,93 3.1,93 3.1,2.9 19.4,2.9 		"/>
	</g>
	<polyline class="st10" points="284.6,42.6 296.9,30.3 309.2,42.6 	"/>
</g>
<g id="Capa_2_copia_3" class="st0">
	<circle class="st9" cx="53.5" cy="35.1" r="12.9"/>
	<g class="st1">
		<path class="st10" d="M20.6,75.4L20.6,75.4c0-5.4,4.4-9.8,9.8-9.8h13.3c5.4,0,9.8-4.4,9.8-9.8v-1.1"/>
		<path class="st10" d="M86.5,75.4L86.5,75.4c0-5.4-4.4-9.8-9.8-9.8H63.4c-5.4,0-9.8-4.4-9.8-9.8v-1.1"/>
	</g>
	<g class="st1">
		<polyline class="st11" points="87.8,2.9 104,2.9 104,93 87.8,93 		"/>
		<polyline class="st11" points="19.4,93 3.1,93 3.1,2.9 19.4,2.9 		"/>
	</g>
	<g class="st1">
		<rect x="127.9" y="22.6" class="st12" width="531" height="56.9"/>
		<text transform="matrix(1 0 0 1 127.8806 69.2576)" class="st6 st16 st14">MOD L CARDS</text>
		<polyline class="st10" points="279.4,34.9 289.7,24.6 299.9,34.9 		"/>
	</g>
</g>
<g id="Capa_2_copia_6" class="st0">
	<circle class="st9" cx="53.5" cy="35.1" r="12.9"/>
	<g class="st1">
		<path class="st10" d="M20.6,75.4L20.6,75.4c0-5.4,4.4-9.8,9.8-9.8h13.3c5.4,0,9.8-4.4,9.8-9.8v-1.1"/>
		<path class="st10" d="M86.5,75.4L86.5,75.4c0-5.4-4.4-9.8-9.8-9.8H63.4c-5.4,0-9.8-4.4-9.8-9.8v-1.1"/>
	</g>
	<g class="st1">
		<polyline class="st11" points="87.8,2.9 104,2.9 104,93 87.8,93 		"/>
		<polyline class="st11" points="19.4,93 3.1,93 3.1,2.9 19.4,2.9 		"/>
	</g>
	<g class="st1">
		<g>
			<path class="st6" d="M130.6,78.1c-1.2,0-2.1-0.4-2.6-1.1c-0.5-0.8-0.8-1.8-0.8-3c0-1.1,0.2-2.2,0.5-3.2c0.3-1,0.7-1.9,1.1-2.7
				c0.4-0.8,1.7-2.4,3.9-4.8c2.2-2.4,3.7-5.4,4.5-9.1c0.8-3.7,1.8-8.2,3-13.6c0.8-2.1,1.7-3.3,3-3.5c1.2-0.2,2-0.3,2.3-0.3
				c1.1,0,2.1,0.4,2.8,1.2c0.8,0.8,1.1,1.8,0.9,3c-0.7,8.2-1.5,14.7-2.3,19.4c-0.8,4.7-2.5,8.8-5,12.4
				C139.3,76.3,135.6,78.1,130.6,78.1z M173.7,36.1c-2.2,1.3-4,3.5-5.4,6.3c-1.4,2.9-2.9,6.7-4.4,11.3c-1.5,4.7-2.6,7.7-3.3,9
				c-0.7,1.3-1.6,2.4-2.6,3.1c-1.1,0.8-2.2,1.1-3.2,1.1c-1.2,0-2-0.5-2.5-1.6c-0.5-1.1-0.8-2.2-1-3.4c-0.2-1.2-0.3-2.5-0.3-3.9
				c0-1.6,0.2-3.9,0.6-7.1c0.4-3.2,0.6-5.5,0.6-7.1c0-1-0.1-2-0.2-3.1c-0.1-1-0.3-1.9-0.5-2.6c-0.2-0.7-0.5-1.4-0.9-1.9
				c-0.4-0.5-0.8-0.8-1.1-0.8c-0.4,0-0.7-0.1-0.9-0.1c-0.2,0-0.4,0-0.5,0c-0.5,0-1.4,0.1-2.5,0.2c-1.1,0.1-1.9,0.2-2.4,0.2
				c-0.7,0-1.2-0.1-1.7-0.2c-0.4-0.1-1-0.3-1.7-0.7c-0.7-0.4-1.2-1-1.6-1.8c-0.4-0.8-0.6-1.7-0.6-2.6c0-1,0.3-2.3,1-3.9
				c0.7-1.5,2-2.8,3.9-3.8c1.9-1,4-1.5,6.4-1.5c1.8,0,3.7,0.3,5.7,1c2,0.7,3.6,2.2,4.9,4.4c1.2,2.2,1.8,4.7,1.8,7.4
				c0,1.1-0.1,2.1-0.3,3c2.1-3.1,4-5.8,5.7-7.9c1.8-2.1,3.8-4,6.1-5.4c2.3-1.5,4.9-2.2,7.7-2.2c1.5,0,2.9,0.2,4.4,0.7
				c1.5,0.4,2.6,1.1,3.3,2.1c0.7,1,1.1,2.1,1.1,3.4c0,0.2,0,0.4,0,0.7c0,0.3-0.3,1.4-0.9,3.4c-0.6,2-3.1,3.2-7.6,3.5
				C176.3,35.7,174,36,173.7,36.1z M170,66.5c-0.9-0.4-1.6-1.1-2.2-2.1c-0.6-1-0.9-2.1-0.9-3.3c0-0.4,0.1-1.8,0.4-4.1
				c0.3-2.3,0.9-5,1.8-8.1c0.9-3.1,2-5.7,3.2-7.7c1.2-2,2.4-3.3,3.4-3.9c1-0.6,2.1-0.9,3.1-0.9c1.4,0,2.3,0.5,2.5,1.4
				c0.2,1,0.3,1.9,0.3,2.8c0,1-0.2,2-0.5,3c-0.4,1-0.7,2.1-0.9,3.2c-0.3,1.1-0.4,2.2-0.4,3.2c0,0.9,0.1,1.7,0.3,2.4
				c0.2,0.7,0.5,1.4,0.9,2c0.4,0.6,0.7,1.2,0.9,1.9c0.1,0.7,0.2,1.4,0.2,2.1c0,2.1-0.9,4.1-2.7,6c-1.8,1.8-3.8,2.8-6.1,2.8
				C172.2,67.2,171.1,67,170,66.5z"/>
			<path class="st6" d="M220.4,63c-3.3,4.4-7.7,6.6-13.1,6.6c-2,0-3.9-0.3-5.5-0.9s-2.9-1.4-3.7-2.5c-0.8-1.1-1.5-2.2-2-3.4
				c-0.5-1.2-0.9-2.5-1.1-3.9s-0.4-2.7-0.4-4c0-3.6,0.8-6.8,2.4-9.7c1.6-2.9,3.3-4.7,5.1-5.3c1.8-0.7,3-1,3.6-1c1,0,1.8,0.2,2.4,0.7
				c0.6,0.4,0.9,1.1,0.9,2c0,0.9-0.5,2.6-1.5,5.1c-1,2.5-1.5,4.2-1.5,5.3c0,0.5,0,1.1,0.1,1.7c0.1,0.6,0.5,1.3,1.1,2
				c0.7,0.7,1.4,1.1,2.3,1.1c0.5,0,1.5-0.5,2.8-1.4c1.3-0.9,2.5-2.6,3.4-4.9c0.9-2.4,1.4-5,1.4-7.8c0-2-0.1-3.6-0.3-4.9
				c-0.2-1.3-0.5-2.2-1-2.8c-0.5-0.6-1-0.9-1.8-0.9c-0.3,0-0.5,0.1-0.9,0.2c-2.1,1.1-4.2,2.2-6.3,3.3c-0.5,0.1-0.9,0.2-1.3,0.2
				c-1.4,0-2.7-0.4-3.7-1.3c-1.1-0.8-1.6-2-1.6-3.4c0-0.4,0.2-1.5,0.6-3.2c0.4-1.7,1.7-3.4,4.1-5.2c2.4-1.8,4.5-2.8,6.5-3.1
				c2-0.3,3.4-0.4,4.2-0.4c2.1,0,3.9,0.4,5.5,1.1c1.6,0.7,3,2,4.2,3.8c1.2,1.8,2.1,3.9,2.8,6.1c0.7,2.3,1,4.6,1,7.1
				c0,4-0.8,8.1-2.3,12.1C225.2,55.5,223.1,59.3,220.4,63z"/>
			<path class="st6" d="M262.8,73.6c-2.2,2.4-4.8,4.3-7.8,5.6c-3,1.3-6.1,2-9.4,2c-3.1,0-6.1-0.6-9.1-1.8c-2.9-1.2-4.4-3.4-4.4-6.6
				c0-0.3,0.1-1,0.2-2.1c0.1-1.1,1-2.3,2.6-3.5c1.6-1.2,3.3-1.9,5.3-1.9c0.8,0,1.6,0.1,2.5,0.4c0.9,0.3,1.9,0.5,3,0.8
				c1.1,0.2,2.1,0.3,3.1,0.3c2.1,0,3.9-0.4,5.5-1.2c1.6-0.8,3-2.6,4.4-5.3c1.4-2.7,2.5-5.5,3.3-8.2c0.8-2.8,1.2-5.1,1.2-7.1
				c0-2.3-0.5-4.2-1.5-5.9c-1-1.7-2.2-2.8-3.5-3.2c-1.4-0.5-2.2-0.7-2.6-0.8c-0.4,0-0.9-0.1-1.5-0.1c-0.7,0-1.7,0.1-3.1,0.3
				c-1.4,0.2-2.4,0.3-3.1,0.3c-1.1,0-2.1-0.1-2.9-0.4c-0.8-0.3-1.6-0.8-2.4-1.7c-0.8-0.9-1.2-1.9-1.2-3.2c0-1.1,0.3-2.2,1-3.2
				c0.7-1.1,1.6-2,2.7-2.8c1.1-0.8,2.3-1.3,3.6-1.7c1.3-0.4,2.5-0.6,3.6-0.7c1.1-0.1,1.9-0.2,2.3-0.2c0.4,0,0.7,0,1,0
				c4.2,0,7.9,1,11.2,3c3.3,2,5.5,4.8,6.7,8.5c1.2,3.7,1.8,7.4,1.8,11c0,5.4-1.1,10.6-3.3,15.8C269.7,64.9,266.7,69.5,262.8,73.6z
				 M255.1,49c0.3,1.1,0.4,2.3,0.4,3.4c0,3.3-0.9,6.1-2.7,8.5c-1.8,2.4-4.1,3.6-6.9,3.6c-1.5,0-2.8-0.3-3.9-0.8
				c-1.1-0.5-1.9-1.2-2.3-2.1c-0.4-0.9-0.6-1.9-0.6-3c0-2.1,0.7-4,2-5.7c1.4-1.8,2.2-3.1,2.6-4.1c0.3-0.9,0.7-2.5,1-4.6
				c0.3-2.1,1.3-3.9,2.9-5.3c1.6-1.4,3.3-2,5.2-2c1,0,1.9,0.3,2.9,0.8c0.7,0.4,1.1,0.8,1.4,1.2c0.3,0.4,0.4,0.9,0.4,1.5
				c0,0.6-0.4,1.8-1.3,3.7c-0.8,1.9-1.3,3.2-1.3,4C255,48.3,255.1,48.6,255.1,49z"/>
			<path class="st6" d="M335.4,38.3c-0.4,0.1-0.7,0.2-0.9,0.3c-0.2,0-0.5,0.1-0.9,0.1c-1.2,0-2.6-0.4-4.2-1.3
				c-1.3-0.8-2.4-1.5-3.1-2c-0.7-0.5-1.3-0.7-1.6-0.7c-0.5,0-1,0.2-1.5,0.5c-0.5,0.3-0.7,0.6-0.7,0.9c0.2,2,0.5,4,0.7,6
				c0.3,2,0.4,3.4,0.4,4.2c0,1.2-0.3,2.5-1,4c-0.8,1.5-1.5,2.8-2,3.8c-0.4,0.4-0.7,0.8-1,1.1c-0.3,0.3-0.3,0.7-0.1,0.9
				c0.2,0.3,0.5,0.5,1.1,0.7c0.6,0.2,1.2,0.3,1.8,0.3c0.6,0,1.5-0.3,2.5-0.8c1-0.5,2.6-0.8,4.6-0.8c1.6,0,2.8,0.3,3.7,1
				s1.4,1.7,1.4,3.1c0,1.8-0.3,3.5-1,4.9c-0.7,1.5-1.8,2.7-3.4,3.6c-1.6,0.9-3.3,1.3-5,1.3c-1.5,0-3-0.3-4.3-0.8
				c-1.4-0.5-2.8-1.1-4.4-1.8c-1.6-0.7-2.6-1-3-1c-0.8,0-2,0.4-3.7,1.2c-1.7,0.8-2.9,1.2-3.8,1.2c-0.5,0-1-0.1-1.4-0.3
				c-0.5-0.2-1-0.6-1.6-1.1c-0.6-0.6-0.9-1.4-0.9-2.6c0-0.6,0.1-1.2,0.2-1.7c0.1-0.5,0.3-1,0.5-1.4c0.2-0.5,1.8-2.3,4.8-5.5
				c3-3.2,4.5-5.6,4.5-7.4c0-0.5-0.2-1.5-0.5-3.1c-0.4-1.6-0.6-3-0.8-4.1c-0.2-1.1-0.3-2.5-0.3-4.1c0-1.6,0.2-3,0.5-4.2
				c0.4-1.2,1.2-2.7,2.6-4.5c1.4-1.8,3.4-3.3,6-4.6c2.6-1.3,5.5-1.9,8.5-1.9c0.6,0,1.3,0,1.9,0.1c0.6,0,1.7,0.2,3.2,0.4
				c1.5,0.3,3.1,0.9,4.8,1.8c1.7,1,2.6,2.1,2.9,3.3c0.3,1.2,0.4,2.3,0.4,3.2c0,1.8-0.5,3.4-1.4,4.9
				C338.7,36.6,337.3,37.6,335.4,38.3z"/>
			<path class="st6" d="M392.5,37.4c-0.5,0.1-0.8,0.1-1,0.1c-0.8,0-1.9-0.3-3.3-1c-1.4-0.7-2.5-1-3.1-1c-0.5,0-1.4,0.3-2.6,1
				c-1.2,0.7-2.4,2.4-3.6,5.3c-1.2,2.8-1.8,5.6-1.8,8.4c0,1.6,0.2,2.9,0.7,4c0.4,1.1,0.9,1.8,1.4,2c0.5,0.3,1,0.4,1.4,0.4
				c0.6,0,1.9-0.4,3.9-1.1c2-0.7,3.6-1.1,4.7-1.1c1,0,1.9,0.3,2.7,0.8c0.7,0.5,1.2,1.4,1.5,2.5c0.3,1.1,0.4,2,0.4,2.6
				c0,2.8-1.3,5.2-3.9,7.1c-2.6,1.9-5.6,2.9-8.8,2.9c-5.3,0-9.2-1.5-11.6-4.6c-2.4-3.1-3.6-7.1-3.6-12.1c0-3.2,0.4-6.3,1.2-9.5
				c0.8-3.2,2-6.4,3.6-9.8s3.9-6.3,7.1-8.6c3.1-2.4,6.8-3.6,10.9-3.6c3,0,5.2,0.3,6.5,0.8c1.3,0.5,2.2,1.2,2.6,2.1
				c0.5,0.9,0.8,1.6,0.9,2.1c0.1,0.6,0.2,1.2,0.2,1.9c0,1.9-0.6,3.6-1.7,5.1C396,35.9,394.4,36.9,392.5,37.4z"/>
			<path class="st6" d="M438.5,36.4c-0.5-0.2-0.9-0.3-1.4-0.3c-1.7,0-2.9,0.9-3.7,2.6c-0.8,1.7-1.5,4.1-2.3,7.2
				c-0.2,0.8,0,1.4,0.6,1.8c0.6,0.5,1.1,0.6,1.4,0.3c0.8-0.6,2-2.4,3.6-5.3s3.4-4.4,5.4-4.4c0.3,0,0.7,0.1,1.5,0.2
				c0.7,0.1,1.4,0.5,1.9,1.2c0.5,0.7,0.8,1.4,0.8,2.3c0,0.3-0.1,0.8-0.3,1.6c-0.2,0.8-0.4,1.9-0.6,3.3c-0.2,1.3-0.3,2.6-0.3,3.7
				c0,1.3,0.1,2.5,0.3,3.6c0.2,1.2,0.6,2.2,1,3.2c0.4,0.9,0.6,2,0.6,3.1c0,2.1-0.8,3.9-2.4,5.5c-1.6,1.5-3.5,2.3-5.8,2.3
				c-0.8,0-2-0.2-3.5-0.7c-1.5-0.5-2.5-1.6-3-3.2c-0.5-1.7-0.8-3-0.8-4.1c0-0.3,0-0.8,0.1-1.4c0-0.6,0.1-1,0.1-1.3
				c0-0.8-0.1-1.4-0.3-1.8c-0.2-0.3-0.5-0.7-0.8-0.9s-0.6-0.4-1-0.4c-0.5,0-0.8,0.2-1,0.6c-0.2,0.4-0.9,3.1-2.1,8
				c-1.2,4.9-3,8.9-5.3,12.1c-2.3,3.1-4.7,4.9-7.3,5.3s-4,0.6-4.4,0.6c-1.5,0-2.8-0.4-3.8-1.2c-1.1-0.8-1.7-1.6-1.9-2.4
				c-0.2-0.8-0.3-1.4-0.3-1.9c0-0.4-0.1-0.8-0.1-1.2c0-2.6,1.6-4.8,4.7-6.7s5-3.3,5.7-4.4c0.6-1.1,1.4-2.9,2.3-5.4
				c0.9-2.5,1.4-4.5,1.5-5.8c0-0.2-0.1-0.3-0.1-0.5c0-0.1,0-0.2,0-0.3c0-0.4-0.3-0.7-0.9-0.9c-1.5,1.5-3.2,2.3-4.9,2.3
				c-1.3,0-2.4-0.6-3-1.9c-0.4-0.8-0.6-1.6-0.6-2.4c0-1.6,0.6-3,1.8-4.3c1.2-1.3,2.4-2.1,3.6-2.4c1.2-0.3,2.1-0.5,2.8-0.5
				c0.7-0.1,1.5-0.1,2.4-0.1h1.1c0.3,0,0.6-0.2,0.8-0.5c0.3-0.5,0.6-1.2,1.1-2.1c0.5-1,1.2-2.4,2.1-4.2c1.8-3.1,4.1-5.8,7-8.1
				c2.9-2.2,6.4-3.4,10.7-3.4c1.6,0,3.2,0.2,4.9,0.5c1.7,0.4,3,1.1,3.9,2.2c0.9,1.1,1.3,2.4,1.3,3.8c0,0.6-0.2,1.5-0.6,2.8
				c-0.4,1.3-1.4,2.4-3.2,3.5c-1.7,1.1-3.7,1.6-5.8,1.6C441.1,37.1,439.9,36.9,438.5,36.4z"/>
			<path class="st6" d="M484.5,47.3c-1,0.6-1.4,1.1-1.4,1.6c0,0.3,0.3,0.7,0.9,1.4c0.6,0.7,1,1.5,1.3,2.5s0.4,2,0.4,3.3v2.3
				c0,0.6,0,1.3,0,1.9c0,0.6,0.1,1.2,0.3,1.9c0.2,0.7,0.8,1.7,2,3c1.2,1.3,1.8,2.7,1.8,4c0,0.6-0.2,1.6-0.6,3
				c-0.4,1.4-1.4,2.6-2.9,3.7c-1.5,1.1-3.3,1.7-5.2,1.7c-2.6,0-4.4-0.9-5.6-2.8c-1.2-1.9-1.8-4.2-1.8-7c0-0.5,0-1,0-1.2
				c0-0.3,0.1-0.9,0.2-1.8c0.5-2.3,1-4.6,1.5-7c0-1-0.3-2-0.8-3c-0.2-0.3-0.5-0.3-0.9,0c-0.4,0.3-0.7,0.5-0.8,0.8
				c-0.4,3.4-1.6,6.5-3.5,9.4c-1.9,2.9-4.3,4.3-7.1,4.3c-1.3,0-2.5-0.3-3.5-0.8c-1.1-0.5-1.8-1.2-2.1-2c-0.4-0.8-0.6-1.6-0.6-2.6
				c0-1.1,0.2-2.1,0.6-2.9c0.4-0.8,0.9-1.8,1.5-2.8c0.6-1,1.4-2.1,2.2-3.2c0.9-1.1,1.4-1.9,1.5-2.3c0.1-0.4,0.2-1.7,0.2-3.8
				c0-0.5,0-0.9,0-1.4c0-0.5,0-0.9,0-1.3c0-0.9,0.1-1.7,0.3-2.4c0.2-0.7,0.7-1.6,1.3-2.5c0.7-1,1.4-1.7,2.3-2.2
				c0.9-0.5,1.9-0.7,2.9-0.7c0.6,0,1.2,0.1,1.7,0.4s1,0.7,1.4,1.4c0.5,0.7,0.8,1.3,0.9,1.9c0.2,0.5,0.3,1.1,0.3,1.6
				c0,0.5,0,0.8-0.1,1.1c0.1,0,0.3,0.2,0.5,0.6c0.3,0.4,0.6,0.5,0.9,0.4c1.2-0.2,2.3-0.7,3.2-1.3c0.9-0.7,1.5-1.4,1.8-2.2
				c0.3-0.8,0.5-1.5,0.5-2c0-1.4-0.4-2.3-1.3-2.7c-0.8-0.4-1.6-0.6-2.2-0.7s-1.4-0.1-2.2-0.1c-0.9,0-2.4,0.1-4.5,0.3
				s-3.4,0.3-3.9,0.3c-1.6,0-2.9-0.3-3.7-0.9c-0.9-0.6-1.3-1.3-1.4-2.3c-0.1-1-0.2-1.7-0.2-2.2c0-3.3,1.4-5.7,4.3-7.2
				c2.9-1.5,6.4-2.3,10.6-2.3c3.2,0,6.2,0.4,8.8,1.2c2.6,0.8,4.6,2.3,5.9,4.5s2,4.6,2,7.3c0,0.4,0,0.8,0,1.3
				c-0.1,0.4-0.2,1.1-0.3,2.2c-0.1,1.1-1,2.5-2.5,4.3C488,44.9,486.3,46.3,484.5,47.3z"/>
			<path class="st6" d="M525.5,73.6c-2.2,2.4-4.8,4.3-7.8,5.6c-3,1.3-6.1,2-9.4,2c-3.1,0-6.1-0.6-9.1-1.8c-2.9-1.2-4.4-3.4-4.4-6.6
				c0-0.3,0.1-1,0.2-2.1c0.1-1.1,1-2.3,2.6-3.5c1.6-1.2,3.3-1.9,5.3-1.9c0.8,0,1.6,0.1,2.5,0.4c0.9,0.3,1.9,0.5,3,0.8
				c1.1,0.2,2.1,0.3,3.1,0.3c2.1,0,3.9-0.4,5.5-1.2c1.6-0.8,3-2.6,4.4-5.3c1.4-2.7,2.5-5.5,3.3-8.2c0.8-2.8,1.2-5.1,1.2-7.1
				c0-2.3-0.5-4.2-1.5-5.9c-1-1.7-2.2-2.8-3.5-3.2c-1.4-0.5-2.2-0.7-2.6-0.8c-0.4,0-0.9-0.1-1.5-0.1c-0.7,0-1.7,0.1-3.1,0.3
				c-1.4,0.2-2.4,0.3-3.1,0.3c-1.1,0-2.1-0.1-2.9-0.4c-0.8-0.3-1.6-0.8-2.4-1.7c-0.8-0.9-1.2-1.9-1.2-3.2c0-1.1,0.3-2.2,1-3.2
				c0.7-1.1,1.6-2,2.7-2.8c1.1-0.8,2.3-1.3,3.6-1.7c1.3-0.4,2.5-0.6,3.6-0.7c1.1-0.1,1.9-0.2,2.3-0.2c0.4,0,0.7,0,1,0
				c4.2,0,7.9,1,11.2,3c3.3,2,5.5,4.8,6.7,8.5c1.2,3.7,1.8,7.4,1.8,11c0,5.4-1.1,10.6-3.3,15.8C532.4,64.9,529.4,69.5,525.5,73.6z
				 M517.8,49c0.3,1.1,0.4,2.3,0.4,3.4c0,3.3-0.9,6.1-2.7,8.5c-1.8,2.4-4.1,3.6-6.9,3.6c-1.5,0-2.8-0.3-3.9-0.8
				c-1.1-0.5-1.9-1.2-2.3-2.1c-0.4-0.9-0.6-1.9-0.6-3c0-2.1,0.7-4,2-5.7c1.4-1.8,2.2-3.1,2.6-4.1c0.3-0.9,0.7-2.5,1-4.6
				c0.3-2.1,1.3-3.9,2.9-5.3c1.6-1.4,3.3-2,5.2-2c1,0,1.9,0.3,2.9,0.8c0.7,0.4,1.1,0.8,1.4,1.2c0.3,0.4,0.4,0.9,0.4,1.5
				c0,0.6-0.4,1.8-1.3,3.7c-0.8,1.9-1.3,3.2-1.3,4C517.7,48.3,517.8,48.6,517.8,49z"/>
			<path class="st6" d="M572.7,38.8c-0.9,0-2.3-0.6-4.2-1.9c-1.9-1.3-3.2-1.9-4-1.9c-1,0-1.8,0.7-2.4,2.1c-0.2,0.5-0.1,1.1,0.3,2
				c0.4,0.8,1.7,1.5,3.9,2c2.2,0.5,4.4,2,6.6,4.5c2.2,2.5,3.3,5.3,3.3,8.4c0,2.1-0.7,4.5-2,7.1c-1.3,2.6-3.7,4.9-7,6.9
				c-3.4,2-6.9,2.9-10.6,2.9c-2.5,0-4.8-0.5-6.9-1.4c-2.1-0.9-3.7-2.2-4.8-3.8c-1.1-1.6-1.7-2.9-1.7-3.9c0-0.7,0.2-1.5,0.5-2.3
				c0.4-0.8,0.9-1.7,1.6-2.6c0.7-0.9,1.7-1.7,2.8-2.4s2.4-1,3.7-1c0.3,0,0.8,0,1.3,0.1s1.6,0.8,3.3,2.1c1.7,1.3,3,2,3.9,2
				c1-0.1,1.9-0.5,2.6-1.1c0.7-0.7,1-1.4,1-2.2c0-0.4-0.2-0.9-0.6-1.7c-0.4-0.8-2.3-2.1-5.6-4c-3.3-1.9-5.4-3.7-6.3-5.4
				c-0.8-1.7-1.3-3.6-1.3-5.6c0-4.2,1.8-7.9,5.4-11c3.6-3.1,7.7-4.7,12.4-4.7c2.3,0,4.3,0.3,6,0.8c1.7,0.6,3,1.4,3.9,2.5
				c0.9,1.1,1.4,2.1,1.7,3c0.3,0.9,0.4,1.8,0.4,2.6c0,2.1-0.7,3.9-2.1,5.4S574.8,38.8,572.7,38.8z"/>
		</g>
		<g>
			<polygon class="st6" points="298,36.8 289.7,28.5 281.3,36.8 277.5,33 289.7,20.7 301.9,33 			"/>
		</g>
	</g>
</g>
<g id="Capa_2_copia_4" class="st0">
	<rect x="127.9" y="22.6" class="st17" width="531" height="56.9"/>
	<text transform="matrix(1 0 0 1 127.8806 72.1678)" class="st18 st19 st14">MOD^L CARDS</text>
	<circle class="st9" cx="53.5" cy="35.1" r="12.9"/>
	<g class="st1">
		<path class="st10" d="M20.6,75.4L20.6,75.4c0-5.4,4.4-9.8,9.8-9.8h13.3c5.4,0,9.8-4.4,9.8-9.8v-1.1"/>
		<path class="st10" d="M86.5,75.4L86.5,75.4c0-5.4-4.4-9.8-9.8-9.8H63.4c-5.4,0-9.8-4.4-9.8-9.8v-1.1"/>
	</g>
	<g class="st1">
		<polyline class="st11" points="87.8,2.9 104,2.9 104,93 87.8,93 		"/>
		<polyline class="st11" points="19.4,93 3.1,93 3.1,2.9 19.4,2.9 		"/>
	</g>
</g>
<g id="Capa_2" class="st0">
	<rect x="130.9" y="22.6" class="st17" width="531" height="56.9"/>
	<text transform="matrix(1 0 0 1 130.8807 69.4217)" class="st18 st20 st21">MOD^L CARDS</text>
	<circle class="st22" cx="53.5" cy="35.1" r="12.9"/>
	<g class="st1">
		<path class="st23" d="M20.6,75.4L20.6,75.4c0-5.4,4.4-9.8,9.8-9.8h13.3c5.4,0,9.8-4.4,9.8-9.8v-1.1"/>
		<path class="st23" d="M86.5,75.4L86.5,75.4c0-5.4-4.4-9.8-9.8-9.8H63.4c-5.4,0-9.8-4.4-9.8-9.8v-1.1"/>
	</g>
	<g class="st1">
		<polyline class="st24" points="87.8,2.9 104,2.9 104,93 87.8,93 		"/>
		<polyline class="st24" points="19.4,93 3.1,93 3.1,2.9 19.4,2.9 		"/>
	</g>
</g>
<g id="Capa_2_copia" class="st0">
	<rect x="130.9" y="22.6" class="st17" width="531" height="56.9"/>
	<text transform="matrix(1 0 0 1 130.8807 76.3582)" class="st18 st25 st21">MOD^L </text>
	<circle class="st22" cx="53.5" cy="35.1" r="12.9"/>
	<g class="st1">
		<path class="st23" d="M20.6,75.4L20.6,75.4c0-5.4,4.4-9.8,9.8-9.8h13.3c5.4,0,9.8-4.4,9.8-9.8v-1.1"/>
		<path class="st23" d="M86.5,75.4L86.5,75.4c0-5.4-4.4-9.8-9.8-9.8H63.4c-5.4,0-9.8-4.4-9.8-9.8v-1.1"/>
	</g>
	<g class="st1">
		<polyline class="st24" points="87.8,2.9 104,2.9 104,93 87.8,93 		"/>
		<polyline class="st24" points="19.4,93 3.1,93 3.1,2.9 19.4,2.9 		"/>
	</g>
</g>
</svg>
