<?xml version="1.0" encoding="utf-8"?>
<!-- Generator: Adobe Illustrator 25.0.1, SVG Export Plug-In . SVG Version: 6.00 Build 0)  -->
<svg version="1.1" xmlns="http://www.w3.org/2000/svg" xmlns:xlink="http://www.w3.org/1999/xlink" x="0px" y="0px"
	 viewBox="0 0 422.9 156.4" style="enable-background:new 0 0 422.9 156.4;" xml:space="preserve">
<style type="text/css">
	.st0{display:none;}
	.st1{display:inline;}
	.st2{fill-rule:evenodd;clip-rule:evenodd;fill:#A2DEAF;}
	.st3{fill-rule:evenodd;clip-rule:evenodd;fill:#114E4E;}
	.st4{fill-rule:evenodd;clip-rule:evenodd;fill:#FFFFFF;}
	.st5{fill-rule:evenodd;clip-rule:evenodd;fill:#E17334;}
	.st6{fill:#9B59B6;}
	.st7{fill:none;stroke:#9B59B6;stroke-width:5;stroke-miterlimit:10;}
</style>
<g id="Capa_1" class="st0">
	<desc>Created with Sketch.</desc>
	<g id="Tablet_x2B_" class="st1">
		<g id="_x30_0---App---Tablet_x2B_" transform="translate(-177.000000, -351.000000)">
			<g id="Group-4" transform="translate(175.000000, 348.000000)">
				<g id="Tarjetas-molonas">
					<g id="Group-2">
						
							<g id="Group" transform="translate(63.191223, 54.437060) rotate(-10.000000) translate(-63.191223, -54.437060) translate(7.318166, 11.294573)">
							<path id="Path" class="st2" d="M-41.8,59.7c2.9,0,5.3,1,7.3,3c2,2,3,4.4,3,7.3l0,62c0,2.9-1,5.3-3,7.3c-2,2-4.4,3-7.3,3
								l-89.5,0c-2.9,0-5.3-1-7.3-3c-2-2-3-4.4-3-7.3l0-62c0-2.9,1-5.3,3-7.3c2-2,4.4-3,7.3-3L-41.8,59.7z"/>
							<path id="Path-Copy" class="st3" d="M-42.9,58.1c2.9,0,5.3,1,7.3,3c2,2,3,4.4,3,7.3l0,62c0,2.9-1,5.3-3,7.3c-2,2-4.4,3-7.3,3
								l-89.5,0c-2.9,0-5.3-1-7.3-3c-2-2-3-4.4-3-7.3l0-62c0-2.9,1-5.3,3-7.3c2-2,4.4-3,7.3-3L-42.9,58.1z"/>
							<path id="Path_1_" class="st4" d="M-39.5,130.4l0-62c0-1-0.3-1.8-1-2.5c-0.6-0.6-1.5-1-2.5-1l-89.5,0c-1,0-1.8,0.3-2.5,1
								c-0.6,0.6-1,1.5-1,2.5l0,62c0,1,0.3,1.8,1,2.5c0.6,0.6,1.5,1,2.5,1l89.5,0c1,0,1.8-0.3,2.5-1
								C-39.8,132.2-39.5,131.4-39.5,130.4z"/>
							<path id="Combined-Shape" class="st5" d="M-71.3,113.2c-0.7,0-1.3-0.3-1.8-0.8c-0.5-0.5-0.8-1.1-0.8-1.8v-1.7
								c0-0.7,0.3-1.3,0.8-1.8c0.5-0.5,1.1-0.8,1.8-0.8l22.4,0c0.7,0,1.3,0.3,1.8,0.8c0.5,0.5,0.8,1.1,0.8,1.8v1.7
								c0,0.7-0.3,1.3-0.8,1.8s-1.1,0.8-1.8,0.8L-71.3,113.2z M-71.3,99.4c-0.7,0-1.3-0.3-1.8-0.8c-0.5-0.5-0.8-1.1-0.8-1.8v-1.7
								c0-0.7,0.3-1.3,0.8-1.8c0.5-0.5,1.1-0.8,1.8-0.8l22.4,0c0.7,0,1.3,0.3,1.8,0.8c0.5,0.5,0.8,1.1,0.8,1.8v1.7
								c0,0.7-0.3,1.3-0.8,1.8c-0.5,0.5-1.1,0.8-1.8,0.8L-71.3,99.4z M-71.3,85.6c-0.7,0-1.3-0.3-1.8-0.8c-0.5-0.5-0.8-1.1-0.8-1.8
								v-1.7c0-0.7,0.3-1.3,0.8-1.8c0.5-0.5,1.1-0.8,1.8-0.8l22.4,0c0.7,0,1.3,0.3,1.8,0.8c0.5,0.5,0.8,1.1,0.8,1.8V83
								c0,0.7-0.3,1.3-0.8,1.8c-0.5,0.5-1.1,0.8-1.8,0.8L-71.3,85.6z"/>
							<path id="Combined-Shape_1_" class="st2" d="M-91.5,99.8c3.7,1.1,6.6,3.4,8.6,6.7c1.4,2.6,2.2,5.2,2.2,8v3
								c0,2.6-0.9,4.8-2.8,6.7s-4.1,2.8-6.7,2.8l-29.3,0c-2.6,0-4.8-0.9-6.7-2.8c-1.9-1.9-2.8-4.1-2.8-6.7v-3c0-2.7,0.7-5.4,2.2-8
								c2-3.3,4.9-5.5,8.6-6.7c-2.6-3.2-3.9-6.7-3.9-10.8c0-4.7,1.7-8.8,5.1-12.2c3.4-3.4,7.4-5.1,12.2-5.1c4.7,0,8.8,1.7,12.2,5.1
								c3.4,3.4,5.1,7.4,5.1,12.2C-87.7,93.1-89,96.7-91.5,99.8z M-104.9,78.7c-2.9,0-5.3,1-7.3,3c-2,2-3,4.4-3,7.3
								c0,2.9,1,5.3,3,7.3s4.4,3,7.3,3c2.9,0,5.3-1,7.3-3s3-4.4,3-7.3c0-2.9-1-5.3-3-7.3C-99.6,79.7-102,78.7-104.9,78.7z
								 M-87.7,117.5v-3c0-1.9-0.6-3.5-1.7-5.1c-1.1-1.5-2.7-2.5-4.5-3.1l-4.5-1.3c-2,0.9-4.2,1.3-6.5,1.3c-2.3,0-4.4-0.4-6.5-1.3
								l-4.5,1.3c-1.9,0.6-3.4,1.6-4.5,3.1c-1.1,1.5-1.7,3.2-1.7,5.1v3c0,0.7,0.3,1.3,0.8,1.8c0.5,0.5,1.1,0.8,1.8,0.8h29.3
								c0.7,0,1.3-0.3,1.8-0.8C-87.9,118.8-87.7,118.2-87.7,117.5z"/>
						</g>
						<path id="Awesome" class="st2" d="M7.3,134.8c-1.4,0-2.6-0.1-3.7-0.3c-1.1-0.2-2-0.8-2.7-1.6s-1.2-2.2-1.2-4
							c0-2.5,0.8-5.9,2.3-10.2s3.5-8.5,6-12.8c-1.9,0.1-3.4,0.4-4.5,0.8c-1.1,0.5-1.8,1.2-2.2,2.1c0.2,0,0.3,0.2,0.5,0.6
							c0.2,0.4,0.3,0.8,0.3,1.2c0,0.7-0.3,1.2-0.9,1.6c-0.6,0.4-1.4,0.6-2.3,0.6c-1.1,0-1.9-0.3-2.5-0.8c-0.6-0.6-1-1.4-1-2.4
							c0-1.3,0.5-2.5,1.5-3.5c1-1.1,2.4-1.9,4.2-2.5c1.8-0.6,3.7-0.9,5.9-0.9c0.8,0,1.8,0.1,2.9,0.2c3.1-4.9,6.4-8.9,9.8-12
							c3.5-3.1,6.7-4.7,9.9-4.7c1.8,0,3.3,0.3,4.5,0.8l-8.9,41.6h-8.1l4.4-20.5c-1.4-0.6-2.7-1.1-3.8-1.4c-1.2-0.3-2.4-0.5-3.7-0.6
							c-2.2,4.6-3.9,9.4-5.3,14.2c-1.4,4.8-2.1,8.7-2.1,11.6C6.5,133,6.8,134.1,7.3,134.8z M25.3,89.9c-1.6,0.9-3.3,2.5-5.1,4.8
							c-1.8,2.4-3.5,5.2-5.1,8.6c2.7,0.5,5,1.2,6.9,2L25.3,89.9z M38.4,128.7c-1.8,0-3.3-0.6-4.4-1.7c-1.1-1.1-1.7-2.8-1.7-5.1
							c0-0.9,0.2-2.2,0.5-3.7l3.8-18.2h8.1l-4.1,19.2c-0.1,0.5-0.2,0.9-0.2,1.4c0,1.7,0.6,2.5,1.7,2.5c1.1,0,2-0.4,2.7-1.3
							c0.8-0.9,1.4-2.1,1.8-3.6l3.8-18.2h8.1l-4.1,19.2c-0.2,0.9-0.3,1.6-0.3,2c0,1.2,0.6,1.9,1.9,1.9c1.7,0,3.3-1.1,4.8-3.3
							c1.5-2.2,2.7-4.8,3.6-7.8s1.4-5.6,1.4-7.8c-0.1,0.2-0.3,0.3-0.7,0.4c-0.4,0.1-0.8,0.1-1.1,0.1c-0.6,0-1.1-0.3-1.5-0.9
							c-0.4-0.6-0.5-1.3-0.5-2c0-0.9,0.3-1.6,0.9-2.2c0.6-0.6,1.5-0.8,2.6-0.8c1.2,0,2.2,0.5,2.7,1.4c0.6,0.9,0.8,2.1,0.8,3.5
							c0,3.4-0.6,7-1.8,10.9c-1.2,3.9-3,7.2-5.4,9.9s-5.4,4.1-9,4.1c-1.8,0-3.4-0.4-4.5-1.2c-1.2-0.8-1.9-2-2.3-3.6
							C44.3,127.1,41.6,128.7,38.4,128.7z M78.3,128.7c-2.8,0-5-0.7-6.5-2.2c-1.5-1.5-2.3-3.7-2.3-6.8c0-2.6,0.5-5.5,1.5-8.6
							c1-3.1,2.7-5.8,5-8.1c2.3-2.3,5.2-3.4,8.8-3.4c4.1,0,6.2,1.8,6.2,5.4c0,2.1-0.6,4.1-1.8,5.8c-1.2,1.8-2.8,3.2-4.8,4.3
							c-2,1.1-4.1,1.7-6.4,1.8c-0.1,1.1-0.1,1.9-0.1,2.3c0,1.8,0.3,3.1,1,3.8c0.6,0.7,1.7,1,3.1,1c2,0,3.8-0.5,5.2-1.4
							c1.5-0.9,3-2.4,4.8-4.3h1.9C89.6,125.2,84.5,128.7,78.3,128.7z M78.4,114.2c1.4-0.1,2.7-0.6,4-1.5c1.3-0.9,2.3-2.1,3.1-3.5
							c0.8-1.4,1.2-2.9,1.2-4.4c0-1.5-0.5-2.3-1.4-2.3c-1.4,0-2.7,1.2-4,3.6C79.9,108.5,79,111.2,78.4,114.2z M98.4,128.7
							c-1.8,0-3.3-0.3-4.6-1c-1.2-0.7-2.2-1.6-2.8-2.7c-0.6-1.1-0.9-2.3-0.9-3.5c0-1.2,0.3-2.3,0.9-3.3c0.6-0.9,1.3-1.6,2.1-2
							c1.5-2.6,2.8-5.3,3.8-8c1.1-2.7,2.1-5.6,3.1-8.7l8.4-1.1c0.2,4.8,0.5,10.1,1,15.7c0.2,2.3,0.3,3.9,0.3,4.9
							c0,0.9-0.1,1.6-0.2,2.2c1.8-1,3.1-2,4.1-2.8h2.4c-2.4,2.8-5.3,5.1-8.7,7.1c-1.1,1.2-2.4,2-4,2.6
							C101.6,128.4,100,128.7,98.4,128.7z M96.5,124.2c1.4,0,2.6-0.4,3.5-1.2s1.4-2.2,1.4-4c0-1.1-0.1-2.7-0.3-4.8
							c-0.4-4.3-0.6-7.2-0.7-8.7c-0.9,3-2.4,6.5-4.6,10.7c0.9,0.5,1.3,1.1,1.3,2c0,0.7-0.2,1.4-0.7,1.9c-0.5,0.6-1.1,0.8-1.8,0.8
							c-0.8,0-1.3-0.2-1.5-0.7c0,1.4,0.3,2.4,0.8,3C94.5,123.9,95.3,124.2,96.5,124.2z M121.8,128.6c-2.8,0-5-0.7-6.6-2.2
							c-1.6-1.4-2.4-3.7-2.4-6.8c0-2.6,0.5-5.4,1.6-8.5c1.1-3.1,2.8-5.8,5.1-8.1s5.3-3.4,8.8-3.4c4.8,0,7.2,3,7.2,9.1v0.1
							c0.1,0,0.3,0.1,0.6,0.1c1.2,0,2.7-0.3,4.3-1s3.1-1.5,4.4-2.4l0.5,1.5c-1.1,1.2-2.5,2.2-4.3,3c-1.8,0.8-3.7,1.4-5.7,1.7
							c-0.3,3.4-1.1,6.4-2.3,9s-2.8,4.5-4.8,5.9C126.2,127.9,124.1,128.6,121.8,128.6z M124,123.5c0.9,0,1.8-0.5,2.7-1.6
							c0.9-1,1.7-2.5,2.4-4.2c0.7-1.8,1.2-3.8,1.5-6c-1-0.2-1.5-1-1.5-2.4c0-1.5,0.6-2.6,1.8-3.1c-0.1-1.2-0.3-2.1-0.6-2.6
							s-0.8-0.7-1.6-0.7c-1.2,0-2.5,0.9-3.6,2.7c-1.2,1.8-2.1,4-2.8,6.5c-0.7,2.5-1.1,4.8-1.1,6.7c0,1.8,0.2,3,0.6,3.6
							C122.2,123.1,123,123.5,124,123.5z M172.8,128.7c-2.3,0-4-0.6-5.1-1.8c-1.1-1.2-1.6-2.7-1.6-4.6c0-0.8,0.1-1.7,0.3-2.7
							c0.2-1,0.4-2,0.6-2.9c0.2-0.9,0.3-1.5,0.4-1.8c0.3-1.3,0.6-2.6,0.8-3.9s0.4-2.3,0.4-3.1c0-1.9-0.7-2.9-2-2.9
							c-1,0-1.8,0.5-2.6,1.4c-0.8,1-1.4,2.2-1.8,3.8l-3.8,18.2h-8.1l4.1-19.5c0.1-0.5,0.2-0.9,0.2-1.4c0-1.7-0.6-2.5-1.7-2.5
							c-1.1,0-2,0.5-2.7,1.4c-0.8,1-1.4,2.2-1.8,3.8l-3.8,18.2h-8.1l6-28.3h8.1l-0.6,2.9c1.9-2.2,4.2-3.2,6.9-3.2
							c3.3,0,5.3,1.6,5.8,4.9c2.1-3.2,4.7-4.8,7.9-4.8c1.9,0,3.5,0.5,4.6,1.6c1.1,1.1,1.7,2.7,1.7,4.8c0,1.1-0.1,2.3-0.4,3.6
							c-0.3,1.3-0.6,3-1.1,4.9c-0.3,1.2-0.6,2.3-0.8,3.4c-0.2,1.1-0.4,2-0.4,2.6c0,0.8,0.2,1.3,0.5,1.8c0.3,0.4,0.9,0.6,1.8,0.6
							c1.1,0,2-0.4,2.7-1.2c0.7-0.8,1.4-2.1,2-3.8h2.4c-1.4,4.1-3,6.9-4.8,8.3C176.6,128,174.7,128.7,172.8,128.7z M188.9,128.7
							c-2.8,0-4.9-0.7-6.5-2.2c-1.5-1.5-2.3-3.7-2.3-6.8c0-2.6,0.5-5.5,1.5-8.6c1-3.1,2.7-5.8,5-8.1c2.3-2.3,5.2-3.4,8.8-3.4
							c4.1,0,6.2,1.8,6.2,5.4c0,2.1-0.6,4.1-1.8,5.8s-2.8,3.2-4.8,4.3c-2,1.1-4.1,1.7-6.4,1.8c-0.1,0.8-0.1,1.4-0.1,1.7
							c0,3.1,1.2,4.7,3.5,4.7c1.1,0,2.2-0.3,3.4-0.8c1.2-0.6,2.3-1.3,3.3-2.2C197.7,125.9,194.4,128.7,188.9,128.7z M189,114.2
							c1.4,0,2.8-0.5,4-1.4c1.3-0.9,2.3-2.1,3.1-3.5c0.8-1.4,1.2-2.9,1.2-4.4c0-1.5-0.5-2.3-1.4-2.3c-1.3,0-2.6,1.2-3.9,3.6
							C190.6,108.5,189.6,111.2,189,114.2z"/>
						<path id="profile-cards" class="st2" d="M16.3,146h8.1l-0.9,4.2c1.9-1.6,4.1-2.4,6.6-2.4c2.1,0,3.8,0.7,5,2.1
							c1.2,1.4,1.9,3.7,1.9,6.8c0,3-0.4,6-1.3,9c-0.9,3-2.3,5.6-4.4,7.8c-2.1,2.1-4.8,3.2-8.2,3.2c-2.4,0-4-0.7-4.8-2l-2.9,13.8
							l-8.5,2L16.3,146z M21.4,171.8c1.8,0,3.3-0.8,4.5-2.5c1.2-1.7,2.1-3.7,2.6-6.1c0.5-2.4,0.8-4.6,0.8-6.6c0-3.1-0.9-4.7-2.8-4.7
							c-0.7,0-1.4,0.2-2.1,0.7c-0.7,0.5-1.3,1.2-1.8,2l-3.3,15.8C19.5,171.4,20.2,171.8,21.4,171.8z M42.3,148.1h8.1l-0.7,3.5
							c1.3-1.1,2.4-2,3.5-2.6c1-0.6,2.2-0.9,3.4-0.9c1.2,0,2.2,0.4,2.9,1.2s1,1.8,1,3c0,1.1-0.4,2.1-1.1,2.9s-1.7,1.2-3,1.2
							c-0.8,0-1.4-0.2-1.7-0.6c-0.3-0.4-0.5-1-0.7-1.7c-0.1-0.5-0.2-0.8-0.3-1.1s-0.3-0.3-0.6-0.3c-0.8,0-1.5,0.2-2,0.5
							s-1.3,0.9-2.1,1.7l-4.5,21.5h-8.1L42.3,148.1z M68,176.6c-2.8,0-5-0.7-6.6-2.2c-1.6-1.4-2.4-3.7-2.4-6.8
							c0-2.6,0.5-5.4,1.6-8.5s2.8-5.8,5.1-8.1c2.3-2.3,5.3-3.4,8.8-3.4c4.8,0,7.2,3,7.2,9.1v0.1c0.1,0,0.3,0.1,0.6,0.1
							c1.2,0,2.7-0.3,4.3-1s3.1-1.5,4.4-2.4l0.5,1.5c-1.1,1.2-2.5,2.2-4.3,3s-3.7,1.4-5.7,1.7c-0.3,3.4-1.1,6.4-2.3,9
							c-1.2,2.6-2.8,4.5-4.8,5.9C72.4,175.9,70.3,176.6,68,176.6z M70.2,171.6c0.9,0,1.8-0.5,2.7-1.6s1.7-2.5,2.4-4.2
							c0.7-1.8,1.2-3.8,1.5-6c-1-0.2-1.5-1-1.5-2.4c0-1.5,0.6-2.6,1.8-3.1c-0.1-1.2-0.3-2.1-0.6-2.6c-0.3-0.5-0.8-0.7-1.6-0.7
							c-1.2,0-2.5,0.9-3.6,2.7c-1.2,1.8-2.1,4-2.8,6.5c-0.7,2.5-1.1,4.8-1.1,6.7c0,1.8,0.2,3,0.6,3.6
							C68.4,171.2,69.1,171.6,70.2,171.6z M79.9,190.6c-2.1,0-3.8-0.6-5.1-1.7c-1.3-1.2-2-2.7-2-4.6c0-1.6,0.5-2.9,1.4-3.9
							s2-1.8,3.3-2.4c1.3-0.6,3-1.2,5.1-1.9l6.3-29.8c1-4.7,2.7-7.9,5.1-9.6s5.1-2.6,8.1-2.6c2.8,0,5.2,0.5,7.2,1.4
							c2,0.9,2.9,2.6,2.9,5.1c0,1.6-0.4,2.7-1.3,3.5s-1.9,1.1-3.2,1.1c-1,0-1.8-0.2-2.4-0.7c-0.6-0.5-1-1.3-1-2.3
							c0-0.7,0.2-1.4,0.5-1.9s0.8-0.8,1.4-0.8c0.3,0,0.4,0,0.5,0.1c0-0.8-0.3-1.3-0.9-1.7c-0.5-0.4-1.3-0.6-2.2-0.6
							c-1.7,0-3,0.6-4,1.8c-1,1.2-1.7,2.7-2,4.6l-1,4.6h4.5l-0.5,2.3h-4.5l-6.5,30.6c-0.8,3.5-2.1,6-3.9,7.5
							C84.1,189.8,82,190.6,79.9,190.6z M105.3,176.8c-1.8,0-3.3-0.6-4.4-1.7c-1.1-1.1-1.7-2.8-1.7-5.1c0-0.9,0.2-2.2,0.5-3.7
							l3.8-18.2h8.1l-4.1,19.2c-0.2,0.6-0.2,1.2-0.2,1.8c0,0.8,0.2,1.3,0.5,1.6c0.4,0.3,1,0.5,1.8,0.5c1.1,0,2.1-0.5,3.1-1.4
							c0.9-0.9,1.6-2.1,2-3.6h2.4c-1.4,4.1-3.2,6.8-5.4,8.3C109.6,176,107.4,176.8,105.3,176.8z M78.3,185.5c0.6,0,1.3-0.4,1.9-1.1
							c0.6-0.7,1.1-1.8,1.4-3.3l0.7-3.3c-1.9,0.6-3.5,1.4-4.6,2.3c-1.1,0.9-1.7,2-1.7,3.1c0,0.8,0.3,1.4,0.8,1.8
							C77.3,185.4,77.8,185.5,78.3,185.5z M120.4,176.8c-1.8,0-3.3-0.6-4.4-1.7c-1.1-1.1-1.7-2.8-1.7-5.1c0-0.9,0.2-2.2,0.5-3.7
							l6.1-28.3l8.4-1.1l-6.5,30.6c-0.2,0.6-0.2,1.2-0.2,1.8c0,0.8,0.2,1.3,0.5,1.6c0.4,0.3,1,0.5,1.8,0.5c1.1,0,2.1-0.5,3.1-1.4
							c0.9-0.9,1.6-2.1,2-3.6h2.4c-1.4,4.1-3.2,6.8-5.4,8.3C124.7,176,122.5,176.8,120.4,176.8z M137.9,176.8
							c-2.8,0-4.9-0.7-6.5-2.2c-1.5-1.5-2.3-3.7-2.3-6.8c0-2.6,0.5-5.5,1.5-8.6c1-3.1,2.7-5.8,5-8.1c2.3-2.3,5.2-3.4,8.8-3.4
							c4.1,0,6.2,1.8,6.2,5.4c0,2.1-0.6,4.1-1.8,5.8c-1.2,1.8-2.8,3.2-4.8,4.3c-2,1.1-4.1,1.7-6.4,1.8c-0.1,0.8-0.1,1.4-0.1,1.7
							c0,3.1,1.2,4.7,3.5,4.7c1.1,0,2.2-0.3,3.4-0.8c1.2-0.6,2.3-1.3,3.3-2.2C146.6,174,143.4,176.8,137.9,176.8z M138,162.3
							c1.4,0,2.8-0.5,4-1.4s2.3-2.1,3.1-3.5c0.8-1.4,1.2-2.9,1.2-4.4s-0.5-2.3-1.4-2.3c-1.3,0-2.6,1.2-3.9,3.6
							C139.6,156.6,138.6,159.3,138,162.3z M152.7,159.4H164l-1,4.5h-11.4L152.7,159.4z M175.1,176.8c-2.8,0-5-0.7-6.5-2.2
							s-2.3-3.7-2.3-6.8c0-2.6,0.5-5.5,1.6-8.6c1-3.1,2.7-5.8,5-8.1c2.3-2.3,5.2-3.4,8.7-3.4c2.3,0,3.9,0.5,4.8,1.5
							c1,1,1.4,2.2,1.4,3.7c0,1.3-0.3,2.3-0.8,3.1c-0.6,0.7-1.3,1.1-2.2,1.1c-0.6,0-1.3-0.2-2-0.7c0.5-1.2,0.7-2.4,0.7-3.3
							c0-0.7-0.1-1.3-0.4-1.7c-0.3-0.4-0.7-0.6-1.2-0.6c-1.1,0-2.3,0.9-3.4,2.8c-1.1,1.8-2.1,4.1-2.8,6.7s-1.1,5-1.1,7.1
							c0,1.8,0.3,3.1,1,3.8s1.7,1,3.1,1c2,0,3.8-0.5,5.2-1.4c1.5-0.9,3-2.4,4.8-4.3h1.9C186.5,173.3,181.3,176.8,175.1,176.8z
							 M195.5,176.8c-2.2,0-3.9-0.7-5.4-2.2s-2.2-3.8-2.2-6.9c0-2.8,0.6-5.7,1.7-8.8c1.1-3.1,2.8-5.7,5-7.8c2.2-2.1,4.8-3.2,7.9-3.2
							c1.5,0,2.7,0.3,3.5,0.8c0.8,0.5,1.1,1.2,1.1,2.1v0.4l0.6-3h8.1l-4.1,19.2c-0.2,0.6-0.2,1.2-0.2,1.8c0,1.6,0.8,2.4,2.3,2.4
							c1.1,0,2-0.5,2.7-1.5c0.8-1,1.4-2.3,1.8-3.8h2.4c-1.4,4.1-3.1,6.8-5.2,8.3s-4.1,2.2-6.2,2.2c-1.6,0-2.9-0.4-3.8-1.3
							c-1-0.9-1.5-2.2-1.7-3.9c-1.1,1.5-2.3,2.8-3.6,3.8C198.9,176.3,197.4,176.8,195.5,176.8z M199.2,171.3c0.9,0,1.9-0.4,2.8-1.3
							s1.6-2.1,1.9-3.6l2.7-12.8c0-0.5-0.2-1-0.6-1.4c-0.4-0.5-1-0.7-1.8-0.7c-1.5,0-2.9,0.9-4.1,2.6c-1.2,1.8-2.2,3.9-2.8,6.3
							s-1,4.6-1,6.5c0,1.9,0.3,3.1,0.8,3.6C197.7,171,198.4,171.3,199.2,171.3z M222.3,148.1h8.1l-0.7,3.5c1.3-1.1,2.4-2,3.5-2.6
							c1-0.6,2.2-0.9,3.4-0.9c1.2,0,2.2,0.4,2.9,1.2c0.7,0.8,1,1.8,1,3c0,1.1-0.4,2.1-1.1,2.9c-0.7,0.8-1.7,1.2-3,1.2
							c-0.8,0-1.4-0.2-1.7-0.6c-0.3-0.4-0.5-1-0.7-1.7c-0.1-0.5-0.2-0.8-0.3-1.1s-0.3-0.3-0.6-0.3c-0.8,0-1.5,0.2-2,0.5
							s-1.3,0.9-2.1,1.7l-4.5,21.5h-8.1L222.3,148.1z M246.5,176.8c-2.2,0-3.9-0.7-5.4-2.2c-1.4-1.5-2.2-3.8-2.2-6.9
							c0-2.8,0.6-5.7,1.7-8.8c1.1-3.1,2.8-5.7,5-7.8c2.2-2.1,4.8-3.2,7.9-3.2c1.5,0,2.7,0.3,3.5,0.8c0.8,0.5,1.1,1.2,1.1,2.1v0.2
							l2.8-13l8.4-1.1l-6.5,30.6c-0.2,0.6-0.2,1.2-0.2,1.8c0,0.8,0.2,1.3,0.5,1.6c0.4,0.3,1,0.5,1.8,0.5c1.1,0,2-0.5,2.7-1.4
							c0.8-0.9,1.4-2.1,1.8-3.6h2.4c-2.3,6.8-6.1,10.1-11.4,10.1c-1.5,0-2.8-0.4-3.8-1.2c-1-0.8-1.6-2-1.8-3.6
							c-1,1.5-2.2,2.8-3.5,3.7C250,176.3,248.4,176.8,246.5,176.8z M250.2,171.3c0.9,0,1.8-0.4,2.7-1.2c0.9-0.8,1.6-2,1.9-3.5v-0.3
							l2.8-13c-0.3-1.3-1.1-2-2.3-2c-1.5,0-2.9,0.9-4.1,2.6c-1.2,1.8-2.2,3.9-2.8,6.3c-0.7,2.5-1,4.6-1,6.5c0,1.9,0.3,3.1,0.8,3.6
							C248.8,171,249.4,171.3,250.2,171.3z M275.9,176.8c-1.8,0-3.3-0.3-4.6-1s-2.2-1.6-2.8-2.7c-0.6-1.1-0.9-2.3-0.9-3.5
							c0-1.2,0.3-2.3,0.9-3.3c0.6-0.9,1.3-1.6,2.1-2c1.5-2.6,2.8-5.3,3.8-8c1.1-2.7,2.1-5.6,3.1-8.7l8.4-1.1
							c0.2,4.8,0.5,10.1,1,15.7c0.2,2.3,0.3,3.9,0.3,4.9c0,2.3-0.6,4.2-1.8,5.7c-1.2,1.5-2.6,2.5-4.3,3.2S277.7,176.8,275.9,176.8z
							 M274.1,172.3c1.4,0,2.6-0.4,3.5-1.2c0.9-0.8,1.4-2.2,1.4-4c0-1.1-0.1-2.7-0.3-4.8c-0.4-4.3-0.6-7.2-0.7-8.7
							c-0.9,3-2.4,6.5-4.6,10.7c0.9,0.5,1.3,1.1,1.3,2c0,0.7-0.2,1.4-0.7,1.9c-0.5,0.6-1.1,0.8-1.8,0.8c-0.8,0-1.3-0.2-1.5-0.7
							c0,1.4,0.3,2.4,0.8,3S272.9,172.3,274.1,172.3z"/>
						<path id="Awesome_1_" class="st3" d="M5.9,133.4c-1.4,0-2.6-0.1-3.7-0.3s-2-0.8-2.7-1.6s-1.2-2.2-1.2-4
							c0-2.5,0.8-5.9,2.3-10.2s3.5-8.5,6-12.8c-1.9,0.1-3.4,0.4-4.5,0.8s-1.8,1.2-2.2,2.1c0.2,0,0.3,0.2,0.5,0.6s0.3,0.8,0.3,1.2
							c0,0.7-0.3,1.2-0.9,1.6s-1.4,0.6-2.3,0.6c-1.1,0-1.9-0.3-2.5-0.8c-0.6-0.6-1-1.4-1-2.4c0-1.3,0.5-2.5,1.5-3.5
							c1-1.1,2.4-1.9,4.2-2.5c1.8-0.6,3.7-0.9,5.9-0.9c0.8,0,1.8,0.1,2.9,0.2c3.1-4.9,6.4-8.9,9.8-12s6.7-4.7,9.9-4.7
							c1.8,0,3.3,0.3,4.5,0.8l-8.9,41.6h-8.1l4.4-20.5c-1.4-0.6-2.7-1.1-3.8-1.4c-1.2-0.3-2.4-0.5-3.7-0.6
							c-2.2,4.6-3.9,9.4-5.3,14.2c-1.4,4.8-2.1,8.7-2.1,11.6C5.1,131.6,5.4,132.7,5.9,133.4z M23.8,88.5c-1.6,0.9-3.3,2.5-5.1,4.8
							c-1.8,2.4-3.5,5.2-5.1,8.6c2.7,0.5,5,1.2,6.9,2L23.8,88.5z M37,127.2c-1.8,0-3.3-0.6-4.4-1.7c-1.1-1.1-1.7-2.8-1.7-5.1
							c0-0.9,0.2-2.2,0.5-3.7l3.8-18.2h8.1l-4.1,19.2c-0.1,0.5-0.2,0.9-0.2,1.4c0,1.7,0.6,2.5,1.7,2.5c1.1,0,2-0.4,2.7-1.3
							s1.4-2.1,1.8-3.6l3.8-18.2h8.1l-4.1,19.2c-0.2,0.9-0.3,1.6-0.3,2c0,1.2,0.6,1.9,1.9,1.9c1.7,0,3.3-1.1,4.8-3.3
							s2.7-4.8,3.6-7.8s1.4-5.6,1.4-7.8c-0.1,0.2-0.3,0.3-0.7,0.4c-0.4,0.1-0.8,0.1-1.1,0.1c-0.6,0-1.1-0.3-1.5-0.9
							c-0.4-0.6-0.5-1.3-0.5-2c0-0.9,0.3-1.6,0.9-2.2c0.6-0.6,1.5-0.8,2.6-0.8c1.2,0,2.2,0.5,2.7,1.4c0.6,0.9,0.8,2.1,0.8,3.5
							c0,3.4-0.6,7-1.8,10.9c-1.2,3.9-3,7.2-5.4,9.9c-2.4,2.7-5.4,4.1-9,4.1c-1.8,0-3.4-0.4-4.5-1.2c-1.2-0.8-1.9-2-2.3-3.6
							C42.9,125.7,40.2,127.2,37,127.2z M76.9,127.2c-2.8,0-5-0.7-6.5-2.2c-1.5-1.5-2.3-3.7-2.3-6.8c0-2.6,0.5-5.5,1.5-8.6
							c1-3.1,2.7-5.8,5-8.1c2.3-2.3,5.2-3.4,8.8-3.4c4.1,0,6.2,1.8,6.2,5.4c0,2.1-0.6,4.1-1.8,5.8c-1.2,1.8-2.8,3.2-4.8,4.3
							c-2,1.1-4.1,1.7-6.4,1.8c-0.1,1.1-0.1,1.9-0.1,2.3c0,1.8,0.3,3.1,1,3.8c0.6,0.7,1.7,1,3.1,1c2,0,3.8-0.5,5.2-1.4
							s3-2.4,4.8-4.3h1.9C88.2,123.8,83,127.2,76.9,127.2z M77,112.8c1.4-0.1,2.7-0.6,4-1.5c1.3-0.9,2.3-2.1,3.1-3.5
							c0.8-1.4,1.2-2.9,1.2-4.4c0-1.5-0.5-2.3-1.4-2.3c-1.4,0-2.7,1.2-4,3.6C78.5,107,77.5,109.7,77,112.8z M96.9,127.2
							c-1.8,0-3.3-0.3-4.6-1c-1.2-0.7-2.2-1.6-2.8-2.7c-0.6-1.1-0.9-2.3-0.9-3.5c0-1.2,0.3-2.3,0.9-3.3s1.3-1.6,2.1-2
							c1.5-2.6,2.8-5.3,3.8-8c1.1-2.7,2.1-5.6,3.1-8.7l8.4-1.1c0.2,4.8,0.5,10.1,1,15.7c0.2,2.3,0.3,3.9,0.3,4.9
							c0,0.9-0.1,1.6-0.2,2.2c1.8-1,3.1-2,4.1-2.8h2.4c-2.4,2.8-5.3,5.1-8.7,7.1c-1.1,1.2-2.4,2-4,2.6S98.6,127.2,96.9,127.2z
							 M95.1,122.8c1.4,0,2.6-0.4,3.5-1.2s1.4-2.2,1.4-4c0-1.1-0.1-2.7-0.3-4.8c-0.4-4.3-0.6-7.2-0.7-8.7c-0.9,3-2.4,6.5-4.6,10.7
							c0.9,0.5,1.3,1.1,1.3,2c0,0.7-0.2,1.4-0.7,1.9c-0.5,0.6-1.1,0.8-1.8,0.8c-0.8,0-1.3-0.2-1.5-0.7c0,1.4,0.3,2.4,0.8,3
							C93,122.5,93.9,122.8,95.1,122.8z M120.4,127.1c-2.8,0-5-0.7-6.6-2.2c-1.6-1.4-2.4-3.7-2.4-6.8c0-2.6,0.5-5.4,1.6-8.5
							c1.1-3.1,2.8-5.8,5.1-8.1c2.3-2.3,5.3-3.4,8.8-3.4c4.8,0,7.2,3,7.2,9.1v0.1c0.1,0,0.3,0.1,0.6,0.1c1.2,0,2.7-0.3,4.3-1
							c1.6-0.7,3.1-1.5,4.4-2.4l0.5,1.5c-1.1,1.2-2.5,2.2-4.3,3s-3.7,1.4-5.7,1.7c-0.3,3.4-1.1,6.4-2.3,9c-1.2,2.6-2.8,4.5-4.8,5.9
							C124.8,126.4,122.7,127.1,120.4,127.1z M122.6,122c0.9,0,1.8-0.5,2.7-1.6c0.9-1,1.7-2.5,2.4-4.2c0.7-1.8,1.2-3.8,1.5-6
							c-1-0.2-1.5-1-1.5-2.4c0-1.5,0.6-2.6,1.8-3.1c-0.1-1.2-0.3-2.1-0.6-2.6c-0.3-0.5-0.8-0.7-1.6-0.7c-1.2,0-2.5,0.9-3.6,2.7
							c-1.2,1.8-2.1,4-2.8,6.5s-1.1,4.8-1.1,6.7c0,1.8,0.2,3,0.6,3.6C120.8,121.7,121.5,122,122.6,122z M171.3,127.2
							c-2.3,0-4-0.6-5.1-1.8c-1.1-1.2-1.6-2.7-1.6-4.6c0-0.8,0.1-1.7,0.3-2.7c0.2-1,0.4-2,0.6-2.9c0.2-0.9,0.3-1.5,0.4-1.8
							c0.3-1.3,0.6-2.6,0.8-3.9s0.4-2.3,0.4-3.1c0-1.9-0.7-2.9-2-2.9c-1,0-1.8,0.5-2.6,1.4c-0.8,1-1.4,2.2-1.8,3.8l-3.8,18.2h-8.1
							l4.1-19.5c0.1-0.5,0.2-0.9,0.2-1.4c0-1.7-0.6-2.5-1.7-2.5c-1.1,0-2,0.5-2.7,1.4c-0.8,1-1.4,2.2-1.8,3.8l-3.8,18.2h-8.1l6-28.3
							h8.1l-0.6,2.9c1.9-2.2,4.2-3.2,6.9-3.2c3.3,0,5.3,1.6,5.8,4.9c2.1-3.2,4.7-4.8,7.9-4.8c1.9,0,3.5,0.5,4.6,1.6
							c1.1,1.1,1.7,2.7,1.7,4.8c0,1.1-0.1,2.3-0.4,3.6s-0.6,3-1.1,4.9c-0.3,1.2-0.6,2.3-0.8,3.4s-0.4,2-0.4,2.6
							c0,0.8,0.2,1.3,0.5,1.8s0.9,0.6,1.8,0.6c1.1,0,2-0.4,2.7-1.2c0.7-0.8,1.4-2.1,2-3.8h2.4c-1.4,4.1-3,6.9-4.8,8.3
							S173.3,127.2,171.3,127.2z M187.5,127.2c-2.8,0-4.9-0.7-6.5-2.2c-1.5-1.5-2.3-3.7-2.3-6.8c0-2.6,0.5-5.5,1.5-8.6
							c1-3.1,2.7-5.8,5-8.1c2.3-2.3,5.2-3.4,8.8-3.4c4.1,0,6.2,1.8,6.2,5.4c0,2.1-0.6,4.1-1.8,5.8c-1.2,1.8-2.8,3.2-4.8,4.3
							c-2,1.1-4.1,1.7-6.4,1.8c-0.1,0.8-0.1,1.4-0.1,1.7c0,3.1,1.2,4.7,3.5,4.7c1.1,0,2.2-0.3,3.4-0.8c1.2-0.6,2.3-1.3,3.3-2.2
							C196.2,124.5,193,127.2,187.5,127.2z M187.6,112.8c1.4,0,2.8-0.5,4-1.4c1.3-0.9,2.3-2.1,3.1-3.5c0.8-1.4,1.2-2.9,1.2-4.4
							c0-1.5-0.5-2.3-1.4-2.3c-1.3,0-2.6,1.2-3.9,3.6S188.2,109.8,187.6,112.8z"/>
						<path id="profile-cards_1_" class="st3" d="M14.8,144.6H23l-0.9,4.2c1.9-1.6,4.1-2.4,6.6-2.4c2.1,0,3.8,0.7,5,2.1
							c1.2,1.4,1.9,3.7,1.9,6.8c0,3-0.4,6-1.3,9c-0.9,3-2.3,5.6-4.4,7.8c-2.1,2.1-4.8,3.2-8.2,3.2c-2.4,0-4-0.7-4.8-2l-2.9,13.8
							l-8.5,2L14.8,144.6z M19.9,170.4c1.8,0,3.3-0.8,4.5-2.5c1.2-1.7,2.1-3.7,2.6-6.1s0.8-4.6,0.8-6.6c0-3.1-0.9-4.7-2.8-4.7
							c-0.7,0-1.4,0.2-2.1,0.7c-0.7,0.5-1.3,1.2-1.8,2l-3.3,15.8C18.1,170,18.8,170.4,19.9,170.4z M40.9,146.7H49l-0.7,3.5
							c1.3-1.1,2.4-2,3.5-2.6c1-0.6,2.2-0.9,3.4-0.9c1.2,0,2.2,0.4,2.9,1.2s1,1.8,1,3c0,1.1-0.4,2.1-1.1,2.9s-1.7,1.2-3,1.2
							c-0.8,0-1.4-0.2-1.7-0.6c-0.3-0.4-0.5-1-0.7-1.7c-0.1-0.5-0.2-0.8-0.3-1.1s-0.3-0.3-0.6-0.3c-0.8,0-1.5,0.2-2,0.5
							c-0.5,0.3-1.3,0.9-2.1,1.7L43,175h-8.1L40.9,146.7z M66.6,175.2c-2.8,0-5-0.7-6.6-2.2c-1.6-1.4-2.4-3.7-2.4-6.8
							c0-2.6,0.5-5.4,1.6-8.5c1.1-3.1,2.8-5.8,5.1-8.1s5.3-3.4,8.8-3.4c4.8,0,7.2,3,7.2,9.1v0.1c0.1,0,0.3,0.1,0.6,0.1
							c1.2,0,2.7-0.3,4.3-1c1.6-0.7,3.1-1.5,4.4-2.4l0.5,1.5c-1.1,1.2-2.5,2.2-4.3,3s-3.7,1.4-5.7,1.7c-0.3,3.4-1.1,6.4-2.3,9
							c-1.2,2.6-2.8,4.5-4.8,5.9C71,174.5,68.9,175.2,66.6,175.2z M68.8,170.1c0.9,0,1.8-0.5,2.7-1.6s1.7-2.5,2.4-4.2s1.2-3.8,1.5-6
							c-1-0.2-1.5-1-1.5-2.4c0-1.5,0.6-2.6,1.8-3.1c-0.1-1.2-0.3-2.1-0.6-2.6c-0.3-0.5-0.8-0.7-1.6-0.7c-1.2,0-2.5,0.9-3.6,2.7
							c-1.2,1.8-2.1,4-2.8,6.5s-1.1,4.8-1.1,6.7c0,1.8,0.2,3,0.6,3.6C67,169.8,67.7,170.1,68.8,170.1z M78.4,189.1
							c-2.1,0-3.8-0.6-5.1-1.7c-1.3-1.2-2-2.7-2-4.6c0-1.6,0.5-2.9,1.4-3.9c0.9-1,2-1.8,3.3-2.4c1.3-0.6,3-1.2,5.1-1.9l6.3-29.8
							c1-4.7,2.7-7.9,5.1-9.6c2.4-1.7,5.1-2.6,8.1-2.6c2.8,0,5.2,0.5,7.2,1.4c2,0.9,2.9,2.6,2.9,5.1c0,1.6-0.4,2.7-1.3,3.5
							s-1.9,1.1-3.2,1.1c-1,0-1.8-0.2-2.4-0.7c-0.6-0.5-1-1.3-1-2.3c0-0.7,0.2-1.4,0.5-1.9c0.4-0.6,0.8-0.8,1.4-0.8
							c0.3,0,0.4,0,0.5,0.1c0-0.8-0.3-1.3-0.9-1.7c-0.5-0.4-1.3-0.6-2.2-0.6c-1.7,0-3,0.6-4,1.8c-1,1.2-1.7,2.7-2,4.6l-1,4.6h4.5
							l-0.5,2.3h-4.5l-6.5,30.6c-0.8,3.5-2.1,6-3.9,7.5C82.6,188.4,80.6,189.1,78.4,189.1z M103.8,175.3c-1.8,0-3.3-0.6-4.4-1.7
							c-1.1-1.1-1.7-2.8-1.7-5.1c0-0.9,0.2-2.2,0.5-3.7l3.8-18.2h8.1l-4.1,19.2c-0.2,0.6-0.2,1.2-0.2,1.8c0,0.8,0.2,1.3,0.5,1.6
							c0.4,0.3,1,0.5,1.8,0.5c1.1,0,2.1-0.5,3.1-1.4s1.6-2.1,2-3.6h2.4c-1.4,4.1-3.2,6.8-5.4,8.3C108.2,174.6,106,175.3,103.8,175.3
							z M76.9,184.1c0.6,0,1.3-0.4,1.9-1.1s1.1-1.8,1.4-3.3l0.7-3.3c-1.9,0.6-3.5,1.4-4.6,2.3s-1.7,2-1.7,3.1c0,0.8,0.3,1.4,0.8,1.8
							C75.9,183.9,76.4,184.1,76.9,184.1z M119,175.3c-1.8,0-3.3-0.6-4.4-1.7s-1.7-2.8-1.7-5.1c0-0.9,0.2-2.2,0.5-3.7l6.1-28.3
							l8.4-1.1l-6.5,30.6c-0.2,0.6-0.2,1.2-0.2,1.8c0,0.8,0.2,1.3,0.5,1.6c0.4,0.3,1,0.5,1.8,0.5c1.1,0,2.1-0.5,3.1-1.4
							c0.9-0.9,1.6-2.1,2-3.6h2.4c-1.4,4.1-3.2,6.8-5.4,8.3C123.3,174.6,121.1,175.3,119,175.3z M136.4,175.3
							c-2.8,0-4.9-0.7-6.5-2.2c-1.5-1.5-2.3-3.7-2.3-6.8c0-2.6,0.5-5.5,1.5-8.6c1-3.1,2.7-5.8,5-8.1c2.3-2.3,5.2-3.4,8.8-3.4
							c4.1,0,6.2,1.8,6.2,5.4c0,2.1-0.6,4.1-1.8,5.8s-2.8,3.2-4.8,4.3s-4.1,1.7-6.4,1.8c-0.1,0.8-0.1,1.4-0.1,1.7
							c0,3.1,1.2,4.7,3.5,4.7c1.1,0,2.2-0.3,3.4-0.8c1.2-0.6,2.3-1.3,3.3-2.2C145.2,172.6,141.9,175.3,136.4,175.3z M136.5,160.9
							c1.4,0,2.8-0.5,4-1.4c1.3-0.9,2.3-2.1,3.1-3.5c0.8-1.4,1.2-2.9,1.2-4.4c0-1.5-0.5-2.3-1.4-2.3c-1.3,0-2.6,1.2-3.9,3.6
							S137.2,157.9,136.5,160.9z M151.3,158h11.3l-1,4.5h-11.4L151.3,158z M173.7,175.3c-2.8,0-5-0.7-6.5-2.2
							c-1.5-1.5-2.3-3.7-2.3-6.8c0-2.6,0.5-5.5,1.6-8.6c1-3.1,2.7-5.8,5-8.1c2.3-2.3,5.2-3.4,8.7-3.4c2.3,0,3.9,0.5,4.8,1.5
							c1,1,1.4,2.2,1.4,3.7c0,1.3-0.3,2.3-0.8,3.1s-1.3,1.1-2.2,1.1c-0.6,0-1.3-0.2-2-0.7c0.5-1.2,0.7-2.4,0.7-3.3
							c0-0.7-0.1-1.3-0.4-1.7c-0.3-0.4-0.7-0.6-1.2-0.6c-1.1,0-2.3,0.9-3.4,2.8c-1.1,1.8-2.1,4.1-2.8,6.7c-0.7,2.6-1.1,5-1.1,7.1
							c0,1.8,0.3,3.1,1,3.8c0.6,0.7,1.7,1,3.1,1c2,0,3.8-0.5,5.2-1.4s3-2.4,4.8-4.3h1.9C185,171.9,179.9,175.3,173.7,175.3z
							 M194.1,175.3c-2.2,0-3.9-0.7-5.4-2.2c-1.4-1.5-2.2-3.8-2.2-6.9c0-2.8,0.6-5.7,1.7-8.8c1.1-3.1,2.8-5.7,5-7.8
							c2.2-2.1,4.8-3.2,7.9-3.2c1.5,0,2.7,0.3,3.5,0.8c0.8,0.5,1.1,1.2,1.1,2.1v0.4l0.6-3h8.1l-4.1,19.2c-0.2,0.6-0.2,1.2-0.2,1.8
							c0,1.6,0.8,2.4,2.3,2.4c1.1,0,2-0.5,2.7-1.5c0.8-1,1.4-2.3,1.8-3.8h2.4c-1.4,4.1-3.1,6.8-5.2,8.3c-2.1,1.5-4.1,2.2-6.2,2.2
							c-1.6,0-2.9-0.4-3.8-1.3s-1.5-2.2-1.7-3.9c-1.1,1.5-2.3,2.8-3.6,3.8C197.5,174.9,195.9,175.3,194.1,175.3z M197.8,169.9
							c0.9,0,1.9-0.4,2.8-1.3c0.9-0.9,1.6-2.1,1.9-3.6l2.7-12.8c0-0.5-0.2-1-0.6-1.4c-0.4-0.5-1-0.7-1.8-0.7c-1.5,0-2.9,0.9-4.1,2.6
							c-1.2,1.8-2.2,3.9-2.8,6.3c-0.7,2.5-1,4.6-1,6.5s0.3,3.1,0.8,3.6C196.3,169.6,197,169.9,197.8,169.9z M220.9,146.7h8.1
							l-0.7,3.5c1.3-1.1,2.4-2,3.5-2.6c1-0.6,2.2-0.9,3.4-0.9s2.2,0.4,2.9,1.2s1,1.8,1,3c0,1.1-0.4,2.1-1.1,2.9s-1.7,1.2-3,1.2
							c-0.8,0-1.4-0.2-1.7-0.6c-0.3-0.4-0.5-1-0.7-1.7c-0.1-0.5-0.2-0.8-0.3-1.1s-0.3-0.3-0.6-0.3c-0.8,0-1.5,0.2-2,0.5
							c-0.5,0.3-1.3,0.9-2.1,1.7l-4.5,21.5h-8.1L220.9,146.7z M245.1,175.3c-2.2,0-3.9-0.7-5.4-2.2c-1.4-1.5-2.2-3.8-2.2-6.9
							c0-2.8,0.6-5.7,1.7-8.8c1.1-3.1,2.8-5.7,5-7.8c2.2-2.1,4.8-3.2,7.9-3.2c1.5,0,2.7,0.3,3.5,0.8c0.8,0.5,1.1,1.2,1.1,2.1v0.2
							l2.8-13l8.4-1.1l-6.5,30.6c-0.2,0.6-0.2,1.2-0.2,1.8c0,0.8,0.2,1.3,0.5,1.6c0.4,0.3,1,0.5,1.8,0.5c1.1,0,2-0.5,2.7-1.4
							c0.8-0.9,1.4-2.1,1.8-3.6h2.4c-2.3,6.8-6.1,10.1-11.4,10.1c-1.5,0-2.8-0.4-3.8-1.2c-1-0.8-1.6-2-1.8-3.6
							c-1,1.5-2.2,2.8-3.5,3.7S247,175.3,245.1,175.3z M248.8,169.9c0.9,0,1.8-0.4,2.7-1.2c0.9-0.8,1.6-2,1.9-3.5v-0.3l2.8-13
							c-0.3-1.3-1.1-2-2.3-2c-1.5,0-2.9,0.9-4.1,2.6c-1.2,1.8-2.2,3.9-2.8,6.3c-0.7,2.5-1,4.6-1,6.5s0.3,3.1,0.8,3.6
							C247.3,169.6,248,169.9,248.8,169.9z M274.5,175.3c-1.8,0-3.3-0.3-4.6-1c-1.2-0.7-2.2-1.6-2.8-2.7c-0.6-1.1-0.9-2.3-0.9-3.5
							c0-1.2,0.3-2.3,0.9-3.3c0.6-0.9,1.3-1.6,2.1-2c1.5-2.6,2.8-5.3,3.8-8c1.1-2.7,2.1-5.6,3.1-8.7l8.4-1.1
							c0.2,4.8,0.5,10.1,1,15.7c0.2,2.3,0.3,3.9,0.3,4.9c0,2.3-0.6,4.2-1.8,5.7c-1.2,1.5-2.6,2.5-4.3,3.2
							C278,175,276.3,175.3,274.5,175.3z M272.7,170.9c1.4,0,2.6-0.4,3.5-1.2s1.4-2.2,1.4-4c0-1.1-0.1-2.7-0.3-4.8
							c-0.4-4.3-0.6-7.2-0.7-8.7c-0.9,3-2.4,6.5-4.6,10.7c0.9,0.5,1.3,1.1,1.3,2c0,0.7-0.2,1.4-0.7,1.9c-0.5,0.6-1.1,0.8-1.8,0.8
							c-0.8,0-1.3-0.2-1.5-0.7c0,1.4,0.3,2.4,0.8,3C270.6,170.6,271.5,170.9,272.7,170.9z"/>
					</g>
				</g>
			</g>
		</g>
	</g>
</g>
<g id="Capa_2">
	<g class="st0">
		<path class="st1" d="M-77.7,138.3c9,0,16.4-7.4,16.4-16.4s-7.4-16.4-16.4-16.4s-16.4,7.4-16.4,16.4S-86.7,138.3-77.7,138.3z
			 M-77.7,112.4c5.3,0,9.5,4.3,9.5,9.5s-4.3,9.5-9.5,9.5c-5.3,0-9.5-4.3-9.5-9.5S-82.9,112.4-77.7,112.4z"/>
		<path class="st1" d="M-54.3,149.3h-13.4c-3.5,0-6.4-2.9-6.4-6.4v-1.1h-0.1H-81h-0.1v1.1c0,3.5-2.9,6.4-6.4,6.4H-101
			c-7.3,0-13.3,6-13.3,13.3h6.9c0-3.5,2.9-6.4,6.4-6.4h13.4c3.9,0,7.5-1.7,9.9-4.4c2.4,2.7,6,4.4,9.9,4.4h13.4
			c3.5,0,6.4,2.9,6.4,6.4h6.9C-41,155.3-47,149.3-54.3,149.3z"/>
		<polygon class="st1" points="-43.2,86 -43.2,92.9 -30.2,92.9 -30.2,176.9 -43.2,176.9 -43.2,183.8 -23.3,183.8 -23.3,86 		"/>
		<polygon class="st1" points="-125.1,92.9 -112.1,92.9 -112.1,86 -132,86 -132,183.8 -112.1,183.8 -112.1,176.9 -125.1,176.9 		"/>
	</g>
	<g>
		<g>
			<path class="st6" d="M0,156.4v-4.9h5.4v-33.9H0v-4.9h7c3.6,4.6,7.1,9.2,10.7,13.8c3.5,4.6,7.1,9.2,10.7,13.8
				c3.6-4.6,7.1-9.2,10.7-13.8c3.5-4.6,7.1-9.2,10.7-13.8h7v4.9h-5.4v33.9h5.4v4.9H41.5v-4.9H46V127c0-0.3,0.1-0.7,0.1-1
				c0-0.3,0.1-0.7,0.1-1c-0.3,0.5-0.7,0.9-1,1.4c-0.3,0.5-0.7,1-1,1.4l-15.9,20.7l-16.6-21.7c-0.3-0.4-0.5-0.7-0.7-0.9
				s-0.4-0.6-0.6-0.9c0,0.3,0.1,0.7,0.1,1c0,0.3,0.1,0.7,0.1,1v24.4h4.5v4.9H0z"/>
			<path class="st6" d="M92,155.1c-2.7,1.2-5.6,1.8-8.7,1.8c-3.1,0-6-0.6-8.7-1.8c-2.7-1.2-5.1-2.8-7.1-4.8c-2-2-3.6-4.4-4.8-7.1
				c-1.2-2.7-1.8-5.6-1.8-8.7c0-3,0.6-5.9,1.8-8.7c1.2-2.7,2.8-5.1,4.8-7.2c2-2,4.4-3.7,7.1-4.8c2.7-1.2,5.6-1.8,8.7-1.8
				c3,0,5.9,0.6,8.7,1.8c2.7,1.2,5.1,2.8,7.2,4.8c2,2,3.7,4.4,4.8,7.2c1.2,2.7,1.8,5.6,1.8,8.7c0,3.1-0.6,6-1.8,8.7
				c-1.2,2.7-2.8,5.1-4.8,7.1C97.1,152.4,94.7,154,92,155.1z M76.7,150.6c2.1,0.9,4.3,1.4,6.7,1.4s4.6-0.5,6.7-1.4
				c2.1-0.9,3.9-2.2,5.5-3.8c1.5-1.5,2.8-3.4,3.7-5.5c0.9-2.1,1.3-4.4,1.3-6.8c0-2.4-0.4-4.7-1.3-6.8c-0.9-2.1-2.1-3.9-3.7-5.5
				c-1.6-1.6-3.4-2.8-5.5-3.8c-2.1-0.9-4.3-1.4-6.7-1.4s-4.6,0.5-6.7,1.4c-2.1,0.9-3.9,2.2-5.4,3.8c-1.6,1.6-2.8,3.4-3.7,5.5
				c-0.9,2.1-1.3,4.4-1.3,6.8c0,2.4,0.4,4.7,1.3,6.8c0.9,2.1,2.1,3.9,3.7,5.5C72.8,148.4,74.6,149.7,76.7,150.6z"/>
			<path class="st6" d="M110.1,156.4v-5h2.9v-33.8h-2.9v-4.9h13.1c3,0,5.8,0.5,8.5,1.5c2.7,1,5,2.5,7,4.4c2,1.9,3.6,4.2,4.8,6.9
				c1.2,2.7,1.8,5.7,1.8,9.1c0,2.5-0.4,5-1.3,7.6c-0.9,2.6-2.2,4.9-4.2,7c-1.9,2.1-4.4,3.9-7.5,5.2c-3.1,1.4-6.8,2-11.2,2H110.1z
				 M118.3,151.4h4.4c2.5,0,4.8-0.4,6.9-1.2c2.1-0.8,4-1.9,5.6-3.4c1.5-1.5,2.8-3.2,3.7-5.3c0.9-2.1,1.3-4.4,1.3-7
				c0-2.6-0.4-4.9-1.3-7c-0.9-2.1-2.1-3.9-3.7-5.4c-1.6-1.5-3.4-2.6-5.6-3.4c-2.1-0.8-4.4-1.2-6.9-1.2h-4.4V151.4z"/>
			<path class="st6" d="M154.4,126.4c1.2-1.9,2.5-3.8,3.8-5.7c1.2-1.9,2.5-3.8,3.8-5.7c1.2,1.9,2.5,3.8,3.8,5.7
				c1.2,1.9,2.5,3.8,3.8,5.7h-3.7c-0.6-0.8-1.3-1.5-1.9-2.2c-0.6-0.8-1.3-1.5-1.9-2.3c-0.6,0.8-1.3,1.5-1.9,2.3
				c-0.6,0.8-1.3,1.5-1.9,2.2H154.4z"/>
			<path class="st6" d="M179,156.4v-4.9h3.5v-33.9H179v-4.9h13.9v4.9h-5.2v33.9h17.7v-4.7h4.9v9.6H179z"/>
			<path class="st6" d="M261.8,156c-1.9,0.6-3.9,0.8-6,0.8c-3.1,0-6-0.6-8.7-1.8c-2.7-1.2-5.1-2.8-7.1-4.8c-2-2-3.6-4.4-4.8-7.1
				c-1.2-2.7-1.8-5.6-1.8-8.7c0-3.1,0.6-6,1.8-8.7c1.2-2.7,2.8-5.1,4.8-7.2c2-2,4.4-3.6,7.1-4.8c2.7-1.2,5.6-1.8,8.7-1.8
				c2.1,0,4.1,0.3,6,0.8c1.9,0.5,3.7,1.3,5.4,2.3v7h-4.9v-3.8c-1-0.5-2.1-0.8-3.2-1c-1.1-0.2-2.2-0.3-3.3-0.3
				c-2.4,0-4.6,0.5-6.7,1.4c-2.1,0.9-3.9,2.2-5.4,3.8c-1.6,1.6-2.8,3.5-3.7,5.6c-0.9,2.1-1.3,4.4-1.3,6.8c0,2.4,0.4,4.6,1.3,6.8
				c0.9,2.1,2.1,4,3.7,5.5c1.5,1.6,3.3,2.8,5.4,3.8c2.1,0.9,4.3,1.4,6.7,1.4c1.5,0,3-0.2,4.5-0.6c1.4-0.4,2.8-1,4.1-1.7l2.8,4.1
				C265.5,154.7,263.7,155.5,261.8,156z"/>
			<path class="st6" d="M271.6,156.4v-4.9h5.1c2.9-6.9,5.8-13.7,8.7-20.4c2.9-6.7,5.8-13.5,8.7-20.4c2.9,6.9,5.8,13.7,8.7,20.4
				c2.9,6.7,5.8,13.5,8.7,20.4h5.1v4.9h-13.9v-4.9h3.5c-0.9-2.1-1.7-4.1-2.6-6.2c-0.9-2-1.7-4.1-2.6-6.2h-13.8
				c-1.2,2.8-2,4.8-2.6,6.2c-0.6,1.4-1.5,3.4-2.6,6.2h3.6v4.9H271.6z M291.2,129.3c-0.7,1.8-1.3,3.4-1.9,4.8h9.5l-4.2-9.9l-0.6-2.1
				c-0.2,0.7-0.3,1.1-0.4,1.4c-0.1,0.3-0.2,0.5-0.2,0.6C292.6,125.8,291.9,127.5,291.2,129.3z"/>
			<path class="st6" d="M320.8,156.4v-4.9h2.8v-33.9h-2.8v-4.9H334c1.4,0,3,0.2,4.7,0.7c1.7,0.4,3.3,1.1,4.8,2.1
				c1.5,1,2.8,2.2,3.8,3.7c1,1.5,1.5,3.3,1.5,5.4c0,3.1-0.8,5.7-2.3,7.8c-1.6,2.1-3.8,3.5-6.8,4.1l7,15h5.9v4.9h-9.1l-9.2-19.6
				c-0.6,0-1,0-1.3,0c-0.3,0-0.8,0-1.3,0h-2.6v14.6h7.1v4.9H320.8z M328.8,131.9h5.4c1.8,0,3.3-0.2,4.5-0.7c1.2-0.5,2.1-1.1,2.8-1.8
				c0.7-0.7,1.2-1.5,1.5-2.4c0.3-0.9,0.4-1.7,0.4-2.5c0-0.9-0.2-1.8-0.7-2.6c-0.5-0.8-1.1-1.6-1.9-2.2c-0.8-0.6-1.8-1.1-3-1.5
				c-1.1-0.4-2.4-0.6-3.7-0.6h-5.5V131.9z"/>
			<path class="st6" d="M356.8,156.4v-5h2.9v-33.8h-2.9v-4.9H370c3,0,5.8,0.5,8.5,1.5c2.7,1,5,2.5,7,4.4c2,1.9,3.6,4.2,4.8,6.9
				c1.2,2.7,1.8,5.7,1.8,9.1c0,2.5-0.4,5-1.3,7.6c-0.9,2.6-2.2,4.9-4.2,7c-1.9,2.1-4.4,3.9-7.5,5.2c-3.1,1.4-6.8,2-11.2,2H356.8z
				 M365,151.4h4.4c2.5,0,4.8-0.4,6.9-1.2c2.1-0.8,4-1.9,5.6-3.4c1.5-1.5,2.8-3.2,3.7-5.3c0.9-2.1,1.3-4.4,1.3-7
				c0-2.6-0.4-4.9-1.3-7c-0.9-2.1-2.1-3.9-3.7-5.4c-1.6-1.5-3.4-2.6-5.6-3.4c-2.1-0.8-4.4-1.2-6.9-1.2H365V151.4z"/>
			<path class="st6" d="M414.8,156c-1.6,0.6-3.2,0.8-5,0.8c-1.6,0-3.1-0.2-4.6-0.5c-1.5-0.4-2.9-0.8-4.1-1.4c-1.2-0.6-2.4-1.2-3.3-2
				c-1-0.8-1.7-1.5-2.3-2.4v-7.2h4.9v5.6c1.1,0.8,2.4,1.6,3.9,2.2c1.5,0.6,3.2,0.9,5.1,0.9c1.1,0,2.1-0.2,3.1-0.5
				c1-0.3,1.9-0.8,2.7-1.3c0.8-0.6,1.4-1.4,1.8-2.3c0.5-0.9,0.7-2,0.7-3.2c0-0.8-0.1-1.5-0.2-2.2c-0.1-0.8-0.3-1.4-0.7-1.9
				c-0.5-0.9-1.2-1.6-1.9-2.1c-0.7-0.5-1.6-1-2.5-1.5c-1.5-0.6-3.1-1.2-4.9-1.6c-1.8-0.5-3.4-1.1-4.9-1.9c-1.5-0.8-2.8-1.9-3.8-3.3
				c-1-1.4-1.6-3.4-1.6-6c0-1.4,0.1-2.8,0.6-4.1c0.4-1.4,1.1-2.6,2.1-3.8c1-1.1,2.2-2,3.8-2.8c1.6-0.7,3.5-1.1,5.8-1.1
				c0.8,0,1.6,0,2.4,0.1c0.9,0.1,1.8,0.2,2.8,0.5c1,0.2,1.9,0.6,3,1.1c1,0.5,2,1.2,3,2v6.1h-4.9v-3.7c-0.8-0.3-1.7-0.6-2.8-0.9
				c-1-0.2-2.2-0.4-3.4-0.4s-2.3,0.2-3.2,0.6c-0.9,0.4-1.7,0.9-2.2,1.6c-0.5,0.6-0.9,1.3-1.2,2.2c-0.3,0.8-0.4,1.7-0.4,2.6
				c0,1.2,0.3,2.3,0.9,3c0.6,0.8,1.4,1.4,2.3,2c1.5,0.8,3.3,1.5,5.4,2.1c2.1,0.6,4.1,1.4,6,2.3c1.8,0.8,3.2,2.1,4.2,3.9
				c1.1,1.8,1.6,4.1,1.6,7.2c0,1.9-0.3,3.6-1,5.1s-1.6,2.8-2.8,3.9C417.8,154.7,416.4,155.5,414.8,156z"/>
		</g>
	</g>
	<g>
		<circle class="st7" cx="210.9" cy="27.3" r="9.9"/>
		<g>
			<path class="st7" d="M185.6,58.2L185.6,58.2c0-4.2,3.4-7.5,7.5-7.5h10.2c4.2,0,7.5-3.4,7.5-7.5v-0.9"/>
			<path class="st7" d="M236.2,58.2L236.2,58.2c0-4.2-3.4-7.5-7.5-7.5h-10.2c-4.2,0-7.5-3.4-7.5-7.5v-0.9"/>
		</g>
		<g>
			<polyline class="st7" points="237.2,2.6 249.7,2.6 249.7,71.7 237.2,71.7 			"/>
			<polyline class="st7" points="184.7,71.7 172.2,71.7 172.2,2.6 184.7,2.6 			"/>
		</g>
	</g>
</g>
</svg>
