<?xml version="1.0" encoding="utf-8"?>
<!-- Generator: Adobe Illustrator 25.0.1, SVG Export Plug-In . SVG Version: 6.00 Build 0)  -->
<svg version="1.1" xmlns="http://www.w3.org/2000/svg" xmlns:xlink="http://www.w3.org/1999/xlink" x="0px" y="0px"
	 viewBox="0 0 423.7 158.9" style="enable-background:new 0 0 423.7 158.9;" xml:space="preserve">
<style type="text/css">
	.st0{display:none;}
	.st1{display:inline;}
	.st2{fill-rule:evenodd;clip-rule:evenodd;fill:#A2DEAF;}
	.st3{fill-rule:evenodd;clip-rule:evenodd;fill:#114E4E;}
	.st4{fill-rule:evenodd;clip-rule:evenodd;fill:#FFFFFF;}
	.st5{fill-rule:evenodd;clip-rule:evenodd;fill:#E17334;}
	.st6{fill:#9B59B6;}
	.st7{fill:none;stroke:#9B59B6;stroke-width:5;stroke-miterlimit:10;}
	.st8{fill:none;stroke:#1ABC9C;stroke-width:5;stroke-miterlimit:10;}
	.st9{fill:none;stroke:#9B59B6;stroke-width:5.5;stroke-miterlimit:10;}
	.st10{fill:none;stroke:#1ABC9C;stroke-width:5.5;stroke-miterlimit:10;}
	.st11{display:inline;fill:none;}
	.st12{font-family:'PermanentMarker';}
	.st13{font-size:63px;}
	.st14{font-size:10px;}
	.st15{display:inline;fill:none;stroke:#9B59B6;stroke-width:5.5;stroke-miterlimit:10;}
</style>
<g id="Capa_1">
	<g id="Capa_1_1_" class="st0">
		<desc>Created with Sketch.</desc>
		<g id="Tablet_x2B_" class="st1">
			<g id="_x30_0---App---Tablet_x2B_" transform="translate(-177.000000, -351.000000)">
				<g id="Group-4" transform="translate(175.000000, 348.000000)">
					<g id="Tarjetas-molonas">
						<g id="Group-2">
							
								<g id="Group" transform="translate(63.191223, 54.437060) rotate(-10.000000) translate(-63.191223, -54.437060) translate(7.318166, 11.294573)">
								<path id="Path" class="st2" d="M-41.7,60.4c2.9,0,5.3,1,7.3,3c2,2,3,4.4,3,7.3l0,62c0,2.9-1,5.3-3,7.3s-4.4,3-7.3,3l-89.5,0
									c-2.9,0-5.3-1-7.3-3c-2-2-3-4.4-3-7.3l0-62c0-2.9,1-5.3,3-7.3c2-2,4.4-3,7.3-3L-41.7,60.4z"/>
								<path id="Path-Copy" class="st3" d="M-42.8,58.8c2.9,0,5.3,1,7.3,3s3,4.4,3,7.3l0,62c0,2.9-1,5.3-3,7.3s-4.4,3-7.3,3
									l-89.5,0c-2.9,0-5.3-1-7.3-3s-3-4.4-3-7.3l0-62c0-2.9,1-5.3,3-7.3s4.4-3,7.3-3L-42.8,58.8z"/>
								<path id="Path_1_" class="st4" d="M-39.4,131.1l0-62c0-1-0.3-1.8-1-2.5c-0.6-0.6-1.5-1-2.5-1l-89.5,0c-1,0-1.8,0.3-2.5,1
									c-0.6,0.6-1,1.5-1,2.5l0,62c0,1,0.3,1.8,1,2.5c0.6,0.6,1.5,1,2.5,1l89.5,0c1,0,1.8-0.3,2.5-1S-39.4,132.1-39.4,131.1z"/>
								<path id="Combined-Shape" class="st5" d="M-71.2,113.9c-0.7,0-1.3-0.3-1.8-0.8s-0.8-1.1-0.8-1.8v-1.7c0-0.7,0.3-1.3,0.8-1.8
									s1.1-0.8,1.8-0.8h22.4c0.7,0,1.3,0.3,1.8,0.8s0.8,1.1,0.8,1.8v1.7c0,0.7-0.3,1.3-0.8,1.8s-1.1,0.8-1.8,0.8L-71.2,113.9z
									 M-71.2,100.1c-0.7,0-1.3-0.3-1.8-0.8s-0.8-1.1-0.8-1.8v-1.7c0-0.7,0.3-1.3,0.8-1.8s1.1-0.8,1.8-0.8l22.4,0
									c0.7,0,1.3,0.3,1.8,0.8s0.8,1.1,0.8,1.8v1.7c0,0.7-0.3,1.3-0.8,1.8s-1.1,0.8-1.8,0.8H-71.2z M-71.2,86.3
									c-0.7,0-1.3-0.3-1.8-0.8s-0.8-1.1-0.8-1.8V82c0-0.7,0.3-1.3,0.8-1.8s1.1-0.8,1.8-0.8l22.4,0c0.7,0,1.3,0.3,1.8,0.8
									s0.8,1.1,0.8,1.8v1.7c0,0.7-0.3,1.3-0.8,1.8c-0.5,0.5-1.1,0.8-1.8,0.8H-71.2z"/>
								<path id="Combined-Shape_1_" class="st2" d="M-91.4,100.5c3.7,1.1,6.6,3.4,8.6,6.7c1.4,2.6,2.2,5.2,2.2,8v3
									c0,2.6-0.9,4.8-2.8,6.7c-1.9,1.9-4.1,2.8-6.7,2.8l-29.3,0c-2.6,0-4.8-0.9-6.7-2.8c-1.9-1.9-2.8-4.1-2.8-6.7v-3
									c0-2.7,0.7-5.4,2.2-8c2-3.3,4.9-5.5,8.6-6.7c-2.6-3.2-3.9-6.7-3.9-10.8c0-4.7,1.7-8.8,5.1-12.2c3.4-3.4,7.4-5.1,12.2-5.1
									c4.7,0,8.8,1.7,12.2,5.1c3.4,3.4,5.1,7.4,5.1,12.2C-87.6,93.8-88.9,97.4-91.4,100.5z M-104.8,79.4c-2.9,0-5.3,1-7.3,3
									s-3,4.4-3,7.3c0,2.9,1,5.3,3,7.3s4.4,3,7.3,3c2.9,0,5.3-1,7.3-3s3-4.4,3-7.3s-1-5.3-3-7.3S-101.9,79.4-104.8,79.4z
									 M-87.6,118.2v-3c0-1.9-0.6-3.5-1.7-5.1c-1.1-1.5-2.7-2.5-4.5-3.1l-4.5-1.3c-2,0.9-4.2,1.3-6.5,1.3s-4.4-0.4-6.5-1.3
									l-4.5,1.3c-1.9,0.6-3.4,1.6-4.5,3.1c-1.1,1.5-1.7,3.2-1.7,5.1v3c0,0.7,0.3,1.3,0.8,1.8s1.1,0.8,1.8,0.8l29.3,0
									c0.7,0,1.3-0.3,1.8-0.8C-87.8,119.5-87.6,118.9-87.6,118.2z"/>
							</g>
							<path id="Awesome" class="st2" d="M7.5,135.5c-1.4,0-2.6-0.1-3.7-0.3s-2-0.8-2.7-1.6s-1.2-2.2-1.2-4c0-2.5,0.8-5.9,2.3-10.2
								s3.5-8.5,6-12.8c-1.9,0.1-3.4,0.4-4.5,0.8c-1.1,0.5-1.8,1.2-2.2,2.1c0.2,0,0.3,0.2,0.5,0.6s0.3,0.8,0.3,1.2
								c0,0.7-0.3,1.2-0.9,1.6s-1.4,0.6-2.3,0.6c-1.1,0-1.9-0.3-2.5-0.8c-0.6-0.6-1-1.4-1-2.4c0-1.3,0.5-2.5,1.5-3.5
								c1-1.1,2.4-1.9,4.2-2.5s3.7-0.9,5.9-0.9c0.8,0,1.8,0.1,2.9,0.2c3.1-4.9,6.4-8.9,9.8-12c3.5-3.1,6.7-4.7,9.9-4.7
								c1.8,0,3.3,0.3,4.5,0.8l-8.9,41.6h-8.1l4.4-20.5c-1.4-0.6-2.7-1.1-3.8-1.4c-1.2-0.3-2.4-0.5-3.7-0.6
								c-2.2,4.6-3.9,9.4-5.3,14.2c-1.4,4.8-2.1,8.7-2.1,11.6C6.7,133.7,7,134.8,7.5,135.5z M25.5,90.6c-1.6,0.9-3.3,2.5-5.1,4.8
								c-1.8,2.4-3.5,5.2-5.1,8.6c2.7,0.5,5,1.2,6.9,2L25.5,90.6z M38.6,129.4c-1.8,0-3.3-0.6-4.4-1.7c-1.1-1.1-1.7-2.8-1.7-5.1
								c0-0.9,0.2-2.2,0.5-3.7l3.8-18.2h8.1l-4.1,19.2c-0.1,0.5-0.2,0.9-0.2,1.4c0,1.7,0.6,2.5,1.7,2.5c1.1,0,2-0.4,2.7-1.3
								c0.8-0.9,1.4-2.1,1.8-3.6l3.8-18.2h8.1l-4.1,19.2c-0.2,0.9-0.3,1.6-0.3,2c0,1.2,0.6,1.9,1.9,1.9c1.7,0,3.3-1.1,4.8-3.3
								c1.5-2.2,2.7-4.8,3.6-7.8s1.4-5.6,1.4-7.8c-0.1,0.2-0.3,0.3-0.7,0.4c-0.4,0.1-0.8,0.1-1.1,0.1c-0.6,0-1.1-0.3-1.5-0.9
								s-0.5-1.3-0.5-2c0-0.9,0.3-1.6,0.9-2.2c0.6-0.6,1.5-0.8,2.6-0.8c1.2,0,2.2,0.5,2.7,1.4c0.6,0.9,0.8,2.1,0.8,3.5
								c0,3.4-0.6,7-1.8,10.9c-1.2,3.9-3,7.2-5.4,9.9c-2.4,2.7-5.4,4.1-9,4.1c-1.8,0-3.4-0.4-4.5-1.2c-1.2-0.8-1.9-2-2.3-3.6
								C44.5,127.8,41.8,129.4,38.6,129.4z M78.5,129.4c-2.8,0-5-0.7-6.5-2.2s-2.3-3.7-2.3-6.8c0-2.6,0.5-5.5,1.5-8.6s2.7-5.8,5-8.1
								c2.3-2.3,5.2-3.4,8.8-3.4c4.1,0,6.2,1.8,6.2,5.4c0,2.1-0.6,4.1-1.8,5.8c-1.2,1.8-2.8,3.2-4.8,4.3c-2,1.1-4.1,1.7-6.4,1.8
								c-0.1,1.1-0.1,1.9-0.1,2.3c0,1.8,0.3,3.1,1,3.8c0.6,0.7,1.7,1,3.1,1c2,0,3.8-0.5,5.2-1.4c1.5-0.9,3-2.4,4.8-4.3h1.9
								C89.8,125.9,84.7,129.4,78.5,129.4z M78.6,114.9c1.4-0.1,2.7-0.6,4-1.5s2.3-2.1,3.1-3.5c0.8-1.4,1.2-2.9,1.2-4.4
								s-0.5-2.3-1.4-2.3c-1.4,0-2.7,1.2-4,3.6C80.1,109.2,79.2,111.9,78.6,114.9z M98.6,129.4c-1.8,0-3.3-0.3-4.6-1
								c-1.2-0.7-2.2-1.6-2.8-2.7c-0.6-1.1-0.9-2.3-0.9-3.5s0.3-2.3,0.9-3.3c0.6-0.9,1.3-1.6,2.1-2c1.5-2.6,2.8-5.3,3.8-8
								c1.1-2.7,2.1-5.6,3.1-8.7l8.4-1.1c0.2,4.8,0.5,10.1,1,15.7c0.2,2.3,0.3,3.9,0.3,4.9c0,0.9-0.1,1.6-0.2,2.2
								c1.8-1,3.1-2,4.1-2.8h2.4c-2.4,2.8-5.3,5.1-8.7,7.1c-1.1,1.2-2.4,2-4,2.6C101.8,129.1,100.2,129.4,98.6,129.4z M96.7,124.9
								c1.4,0,2.6-0.4,3.5-1.2s1.4-2.2,1.4-4c0-1.1-0.1-2.7-0.3-4.8c-0.4-4.3-0.6-7.2-0.7-8.7c-0.9,3-2.4,6.5-4.6,10.7
								c0.9,0.5,1.3,1.1,1.3,2c0,0.7-0.2,1.4-0.7,1.9c-0.5,0.6-1.1,0.8-1.8,0.8c-0.8,0-1.3-0.2-1.5-0.7c0,1.4,0.3,2.4,0.8,3
								C94.7,124.6,95.5,124.9,96.7,124.9z M122,129.3c-2.8,0-5-0.7-6.6-2.2c-1.6-1.4-2.4-3.7-2.4-6.8c0-2.6,0.5-5.4,1.6-8.5
								s2.8-5.8,5.1-8.1s5.3-3.4,8.8-3.4c4.8,0,7.2,3,7.2,9.1v0.1c0.1,0,0.3,0.1,0.6,0.1c1.2,0,2.7-0.3,4.3-1s3.1-1.5,4.4-2.4
								l0.5,1.5c-1.1,1.2-2.5,2.2-4.3,3s-3.7,1.4-5.7,1.7c-0.3,3.4-1.1,6.4-2.3,9s-2.8,4.5-4.8,5.9
								C126.4,128.6,124.3,129.3,122,129.3z M124.2,124.2c0.9,0,1.8-0.5,2.7-1.6c0.9-1,1.7-2.5,2.4-4.2c0.7-1.8,1.2-3.8,1.5-6
								c-1-0.2-1.5-1-1.5-2.4c0-1.5,0.6-2.6,1.8-3.1c-0.1-1.2-0.3-2.1-0.6-2.6s-0.8-0.7-1.6-0.7c-1.2,0-2.5,0.9-3.6,2.7
								c-1.2,1.8-2.1,4-2.8,6.5c-0.7,2.5-1.1,4.8-1.1,6.7c0,1.8,0.2,3,0.6,3.6C122.4,123.8,123.2,124.2,124.2,124.2z M173,129.4
								c-2.3,0-4-0.6-5.1-1.8s-1.6-2.7-1.6-4.6c0-0.8,0.1-1.7,0.3-2.7s0.4-2,0.6-2.9c0.2-0.9,0.3-1.5,0.4-1.8
								c0.3-1.3,0.6-2.6,0.8-3.9s0.4-2.3,0.4-3.1c0-1.9-0.7-2.9-2-2.9c-1,0-1.8,0.5-2.6,1.4c-0.8,1-1.4,2.2-1.8,3.8l-3.8,18.2h-8.1
								l4.1-19.5c0.1-0.5,0.2-0.9,0.2-1.4c0-1.7-0.6-2.5-1.7-2.5c-1.1,0-2,0.5-2.7,1.4c-0.8,1-1.4,2.2-1.8,3.8l-3.8,18.2h-8.1
								l6-28.3h8.1l-0.6,2.9c1.9-2.2,4.2-3.2,6.9-3.2c3.3,0,5.3,1.6,5.8,4.9c2.1-3.2,4.7-4.8,7.9-4.8c1.9,0,3.5,0.5,4.6,1.6
								s1.7,2.7,1.7,4.8c0,1.1-0.1,2.3-0.4,3.6c-0.3,1.3-0.6,3-1.1,4.9c-0.3,1.2-0.6,2.3-0.8,3.4s-0.4,2-0.4,2.6
								c0,0.8,0.2,1.3,0.5,1.8c0.3,0.4,0.9,0.6,1.8,0.6c1.1,0,2-0.4,2.7-1.2c0.7-0.8,1.4-2.1,2-3.8h2.4c-1.4,4.1-3,6.9-4.8,8.3
								C176.8,128.7,174.9,129.4,173,129.4z M189.1,129.4c-2.8,0-4.9-0.7-6.5-2.2c-1.5-1.5-2.3-3.7-2.3-6.8c0-2.6,0.5-5.5,1.5-8.6
								s2.7-5.8,5-8.1c2.3-2.3,5.2-3.4,8.8-3.4c4.1,0,6.2,1.8,6.2,5.4c0,2.1-0.6,4.1-1.8,5.8s-2.8,3.2-4.8,4.3
								c-2,1.1-4.1,1.7-6.4,1.8c-0.1,0.8-0.1,1.4-0.1,1.7c0,3.1,1.2,4.7,3.5,4.7c1.1,0,2.2-0.3,3.4-0.8c1.2-0.6,2.3-1.3,3.3-2.2
								C197.9,126.6,194.6,129.4,189.1,129.4z M189.2,114.9c1.4,0,2.8-0.5,4-1.4c1.3-0.9,2.3-2.1,3.1-3.5s1.2-2.9,1.2-4.4
								s-0.5-2.3-1.4-2.3c-1.3,0-2.6,1.2-3.9,3.6C190.8,109.2,189.8,111.9,189.2,114.9z"/>
							<path id="profile-cards" class="st2" d="M16.5,146.7h8.1l-0.9,4.2c1.9-1.6,4.1-2.4,6.6-2.4c2.1,0,3.8,0.7,5,2.1
								c1.2,1.4,1.9,3.7,1.9,6.8c0,3-0.4,6-1.3,9c-0.9,3-2.3,5.6-4.4,7.8c-2.1,2.1-4.8,3.2-8.2,3.2c-2.4,0-4-0.7-4.8-2l-2.9,13.8
								l-8.5,2L16.5,146.7z M21.6,172.5c1.8,0,3.3-0.8,4.5-2.5s2.1-3.7,2.6-6.1c0.5-2.4,0.8-4.6,0.8-6.6c0-3.1-0.9-4.7-2.8-4.7
								c-0.7,0-1.4,0.2-2.1,0.7s-1.3,1.2-1.8,2l-3.3,15.8C19.7,172.1,20.4,172.5,21.6,172.5z M42.5,148.8h8.1l-0.7,3.5
								c1.3-1.1,2.4-2,3.5-2.6c1-0.6,2.2-0.9,3.4-0.9s2.2,0.4,2.9,1.2s1,1.8,1,3c0,1.1-0.4,2.1-1.1,2.9s-1.7,1.2-3,1.2
								c-0.8,0-1.4-0.2-1.7-0.6c-0.3-0.4-0.5-1-0.7-1.7c-0.1-0.5-0.2-0.8-0.3-1.1s-0.3-0.3-0.6-0.3c-0.8,0-1.5,0.2-2,0.5
								s-1.3,0.9-2.1,1.7l-4.5,21.5h-8.1L42.5,148.8z M68.2,177.3c-2.8,0-5-0.7-6.6-2.2c-1.6-1.4-2.4-3.7-2.4-6.8
								c0-2.6,0.5-5.4,1.6-8.5s2.8-5.8,5.1-8.1s5.3-3.4,8.8-3.4c4.8,0,7.2,3,7.2,9.1v0.1c0.1,0,0.3,0.1,0.6,0.1c1.2,0,2.7-0.3,4.3-1
								s3.1-1.5,4.4-2.4l0.5,1.5c-1.1,1.2-2.5,2.2-4.3,3s-3.7,1.4-5.7,1.7c-0.3,3.4-1.1,6.4-2.3,9c-1.2,2.6-2.8,4.5-4.8,5.9
								C72.6,176.6,70.5,177.3,68.2,177.3z M70.4,172.3c0.9,0,1.8-0.5,2.7-1.6s1.7-2.5,2.4-4.2c0.7-1.8,1.2-3.8,1.5-6
								c-1-0.2-1.5-1-1.5-2.4c0-1.5,0.6-2.6,1.8-3.1c-0.1-1.2-0.3-2.1-0.6-2.6c-0.3-0.5-0.8-0.7-1.6-0.7c-1.2,0-2.5,0.9-3.6,2.7
								c-1.2,1.8-2.1,4-2.8,6.5c-0.7,2.5-1.1,4.8-1.1,6.7c0,1.8,0.2,3,0.6,3.6C68.6,171.9,69.3,172.3,70.4,172.3z M80.1,191.3
								c-2.1,0-3.8-0.6-5.1-1.7c-1.3-1.2-2-2.7-2-4.6c0-1.6,0.5-2.9,1.4-3.9s2-1.8,3.3-2.4c1.3-0.6,3-1.2,5.1-1.9l6.3-29.8
								c1-4.7,2.7-7.9,5.1-9.6s5.1-2.6,8.1-2.6c2.8,0,5.2,0.5,7.2,1.4s2.9,2.6,2.9,5.1c0,1.6-0.4,2.7-1.3,3.5s-1.9,1.1-3.2,1.1
								c-1,0-1.8-0.2-2.4-0.7s-1-1.3-1-2.3c0-0.7,0.2-1.4,0.5-1.9s0.8-0.8,1.4-0.8c0.3,0,0.4,0,0.5,0.1c0-0.8-0.3-1.3-0.9-1.7
								c-0.5-0.4-1.3-0.6-2.2-0.6c-1.7,0-3,0.6-4,1.8s-1.7,2.7-2,4.6l-1,4.6h4.5l-0.5,2.3h-4.5l-6.5,30.6c-0.8,3.5-2.1,6-3.9,7.5
								C84.3,190.5,82.2,191.3,80.1,191.3z M105.5,177.5c-1.8,0-3.3-0.6-4.4-1.7c-1.1-1.1-1.7-2.8-1.7-5.1c0-0.9,0.2-2.2,0.5-3.7
								l3.8-18.2h8.1l-4.1,19.2c-0.2,0.6-0.2,1.2-0.2,1.8c0,0.8,0.2,1.3,0.5,1.6c0.4,0.3,1,0.5,1.8,0.5c1.1,0,2.1-0.5,3.1-1.4
								c0.9-0.9,1.6-2.1,2-3.6h2.4c-1.4,4.1-3.2,6.8-5.4,8.3C109.8,176.7,107.6,177.5,105.5,177.5z M78.5,186.2
								c0.6,0,1.3-0.4,1.9-1.1c0.6-0.7,1.1-1.8,1.4-3.3l0.7-3.3c-1.9,0.6-3.5,1.4-4.6,2.3c-1.1,0.9-1.7,2-1.7,3.1
								c0,0.8,0.3,1.4,0.8,1.8C77.5,186.1,78,186.2,78.5,186.2z M120.6,177.5c-1.8,0-3.3-0.6-4.4-1.7c-1.1-1.1-1.7-2.8-1.7-5.1
								c0-0.9,0.2-2.2,0.5-3.7l6.1-28.3l8.4-1.1l-6.5,30.6c-0.2,0.6-0.2,1.2-0.2,1.8c0,0.8,0.2,1.3,0.5,1.6c0.4,0.3,1,0.5,1.8,0.5
								c1.1,0,2.1-0.5,3.1-1.4c0.9-0.9,1.6-2.1,2-3.6h2.4c-1.4,4.1-3.2,6.8-5.4,8.3C124.9,176.7,122.7,177.5,120.6,177.5z
								 M138.1,177.5c-2.8,0-4.9-0.7-6.5-2.2c-1.5-1.5-2.3-3.7-2.3-6.8c0-2.6,0.5-5.5,1.5-8.6s2.7-5.8,5-8.1s5.2-3.4,8.8-3.4
								c4.1,0,6.2,1.8,6.2,5.4c0,2.1-0.6,4.1-1.8,5.8c-1.2,1.8-2.8,3.2-4.8,4.3s-4.1,1.7-6.4,1.8c-0.1,0.8-0.1,1.4-0.1,1.7
								c0,3.1,1.2,4.7,3.5,4.7c1.1,0,2.2-0.3,3.4-0.8c1.2-0.6,2.3-1.3,3.3-2.2C146.8,174.7,143.6,177.5,138.1,177.5z M138.2,163
								c1.4,0,2.8-0.5,4-1.4s2.3-2.1,3.1-3.5s1.2-2.9,1.2-4.4s-0.5-2.3-1.4-2.3c-1.3,0-2.6,1.2-3.9,3.6
								C139.8,157.3,138.8,160,138.2,163z M152.9,160.1h11.3l-1,4.5h-11.4L152.9,160.1z M175.3,177.5c-2.8,0-5-0.7-6.5-2.2
								s-2.3-3.7-2.3-6.8c0-2.6,0.5-5.5,1.6-8.6c1-3.1,2.7-5.8,5-8.1s5.2-3.4,8.7-3.4c2.3,0,3.9,0.5,4.8,1.5c1,1,1.4,2.2,1.4,3.7
								c0,1.3-0.3,2.3-0.8,3.1c-0.6,0.7-1.3,1.1-2.2,1.1c-0.6,0-1.3-0.2-2-0.7c0.5-1.2,0.7-2.4,0.7-3.3c0-0.7-0.1-1.3-0.4-1.7
								c-0.3-0.4-0.7-0.6-1.2-0.6c-1.1,0-2.3,0.9-3.4,2.8c-1.1,1.8-2.1,4.1-2.8,6.7s-1.1,5-1.1,7.1c0,1.8,0.3,3.1,1,3.8s1.7,1,3.1,1
								c2,0,3.8-0.5,5.2-1.4c1.5-0.9,3-2.4,4.8-4.3h1.9C186.7,174,181.5,177.5,175.3,177.5z M195.7,177.5c-2.2,0-3.9-0.7-5.4-2.2
								s-2.2-3.8-2.2-6.9c0-2.8,0.6-5.7,1.7-8.8c1.1-3.1,2.8-5.7,5-7.8s4.8-3.2,7.9-3.2c1.5,0,2.7,0.3,3.5,0.8s1.1,1.2,1.1,2.1v0.4
								l0.6-3h8.1l-4.1,19.2c-0.2,0.6-0.2,1.2-0.2,1.8c0,1.6,0.8,2.4,2.3,2.4c1.1,0,2-0.5,2.7-1.5c0.8-1,1.4-2.3,1.8-3.8h2.4
								c-1.4,4.1-3.1,6.8-5.2,8.3s-4.1,2.2-6.2,2.2c-1.6,0-2.9-0.4-3.8-1.3c-1-0.9-1.5-2.2-1.7-3.9c-1.1,1.5-2.3,2.8-3.6,3.8
								C199.1,177,197.6,177.5,195.7,177.5z M199.4,172c0.9,0,1.9-0.4,2.8-1.3s1.6-2.1,1.9-3.6l2.7-12.8c0-0.5-0.2-1-0.6-1.4
								c-0.4-0.5-1-0.7-1.8-0.7c-1.5,0-2.9,0.9-4.1,2.6c-1.2,1.8-2.2,3.9-2.8,6.3s-1,4.6-1,6.5s0.3,3.1,0.8,3.6
								C197.9,171.7,198.6,172,199.4,172z M222.5,148.8h8.1l-0.7,3.5c1.3-1.1,2.4-2,3.5-2.6c1-0.6,2.2-0.9,3.4-0.9s2.2,0.4,2.9,1.2
								s1,1.8,1,3c0,1.1-0.4,2.1-1.1,2.9c-0.7,0.8-1.7,1.2-3,1.2c-0.8,0-1.4-0.2-1.7-0.6c-0.3-0.4-0.5-1-0.7-1.7
								c-0.1-0.5-0.2-0.8-0.3-1.1s-0.3-0.3-0.6-0.3c-0.8,0-1.5,0.2-2,0.5s-1.3,0.9-2.1,1.7l-4.5,21.5h-8.1L222.5,148.8z
								 M246.7,177.5c-2.2,0-3.9-0.7-5.4-2.2c-1.4-1.5-2.2-3.8-2.2-6.9c0-2.8,0.6-5.7,1.7-8.8c1.1-3.1,2.8-5.7,5-7.8
								s4.8-3.2,7.9-3.2c1.5,0,2.7,0.3,3.5,0.8s1.1,1.2,1.1,2.1v0.2l2.8-13l8.4-1.1l-6.5,30.6c-0.2,0.6-0.2,1.2-0.2,1.8
								c0,0.8,0.2,1.3,0.5,1.6c0.4,0.3,1,0.5,1.8,0.5c1.1,0,2-0.5,2.7-1.4c0.8-0.9,1.4-2.1,1.8-3.6h2.4c-2.3,6.8-6.1,10.1-11.4,10.1
								c-1.5,0-2.8-0.4-3.8-1.2c-1-0.8-1.6-2-1.8-3.6c-1,1.5-2.2,2.8-3.5,3.7C250.2,177,248.6,177.5,246.7,177.5z M250.4,172
								c0.9,0,1.8-0.4,2.7-1.2s1.6-2,1.9-3.5V167l2.8-13c-0.3-1.3-1.1-2-2.3-2c-1.5,0-2.9,0.9-4.1,2.6c-1.2,1.8-2.2,3.9-2.8,6.3
								c-0.7,2.5-1,4.6-1,6.5s0.3,3.1,0.8,3.6C249,171.7,249.6,172,250.4,172z M276.1,177.5c-1.8,0-3.3-0.3-4.6-1s-2.2-1.6-2.8-2.7
								c-0.6-1.1-0.9-2.3-0.9-3.5s0.3-2.3,0.9-3.3c0.6-0.9,1.3-1.6,2.1-2c1.5-2.6,2.8-5.3,3.8-8c1.1-2.7,2.1-5.6,3.1-8.7l8.4-1.1
								c0.2,4.8,0.5,10.1,1,15.7c0.2,2.3,0.3,3.9,0.3,4.9c0,2.3-0.6,4.2-1.8,5.7c-1.2,1.5-2.6,2.5-4.3,3.2S277.9,177.5,276.1,177.5z
								 M274.3,173c1.4,0,2.6-0.4,3.5-1.2s1.4-2.2,1.4-4c0-1.1-0.1-2.7-0.3-4.8c-0.4-4.3-0.6-7.2-0.7-8.7c-0.9,3-2.4,6.5-4.6,10.7
								c0.9,0.5,1.3,1.1,1.3,2c0,0.7-0.2,1.4-0.7,1.9c-0.5,0.6-1.1,0.8-1.8,0.8c-0.8,0-1.3-0.2-1.5-0.7c0,1.4,0.3,2.4,0.8,3
								S273.1,173,274.3,173z"/>
							<path id="Awesome_1_" class="st3" d="M6.1,134.1c-1.4,0-2.6-0.1-3.7-0.3s-2-0.8-2.7-1.6s-1.2-2.2-1.2-4
								c0-2.5,0.8-5.9,2.3-10.2s3.5-8.5,6-12.8c-1.9,0.1-3.4,0.4-4.5,0.8s-1.8,1.2-2.2,2.1c0.2,0,0.3,0.2,0.5,0.6s0.3,0.8,0.3,1.2
								c0,0.7-0.3,1.2-0.9,1.6s-1.4,0.6-2.3,0.6c-1.1,0-1.9-0.3-2.5-0.8c-0.6-0.6-1-1.4-1-2.4c0-1.3,0.5-2.5,1.5-3.5
								c1-1.1,2.4-1.9,4.2-2.5s3.7-0.9,5.9-0.9c0.8,0,1.8,0.1,2.9,0.2c3.1-4.9,6.4-8.9,9.8-12s6.7-4.7,9.9-4.7
								c1.8,0,3.3,0.3,4.5,0.8L24,127.9h-8.1l4.4-20.5c-1.4-0.6-2.7-1.1-3.8-1.4c-1.2-0.3-2.4-0.5-3.7-0.6
								c-2.2,4.6-3.9,9.4-5.3,14.2c-1.4,4.8-2.1,8.7-2.1,11.6C5.3,132.3,5.6,133.4,6.1,134.1z M24,89.2c-1.6,0.9-3.3,2.5-5.1,4.8
								c-1.8,2.4-3.5,5.2-5.1,8.6c2.7,0.5,5,1.2,6.9,2L24,89.2z M37.2,127.9c-1.8,0-3.3-0.6-4.4-1.7c-1.1-1.1-1.7-2.8-1.7-5.1
								c0-0.9,0.2-2.2,0.5-3.7l3.8-18.2h8.1l-4.1,19.2c-0.1,0.5-0.2,0.9-0.2,1.4c0,1.7,0.6,2.5,1.7,2.5c1.1,0,2-0.4,2.7-1.3
								s1.4-2.1,1.8-3.6l3.8-18.2h8.1l-4.1,19.2c-0.2,0.9-0.3,1.6-0.3,2c0,1.2,0.6,1.9,1.9,1.9c1.7,0,3.3-1.1,4.8-3.3
								s2.7-4.8,3.6-7.8s1.4-5.6,1.4-7.8c-0.1,0.2-0.3,0.3-0.7,0.4s-0.8,0.1-1.1,0.1c-0.6,0-1.1-0.3-1.5-0.9s-0.5-1.3-0.5-2
								c0-0.9,0.3-1.6,0.9-2.2c0.6-0.6,1.5-0.8,2.6-0.8c1.2,0,2.2,0.5,2.7,1.4c0.6,0.9,0.8,2.1,0.8,3.5c0,3.4-0.6,7-1.8,10.9
								c-1.2,3.9-3,7.2-5.4,9.9c-2.4,2.7-5.4,4.1-9,4.1c-1.8,0-3.4-0.4-4.5-1.2c-1.2-0.8-1.9-2-2.3-3.6
								C43.1,126.4,40.4,127.9,37.2,127.9z M77.1,127.9c-2.8,0-5-0.7-6.5-2.2s-2.3-3.7-2.3-6.8c0-2.6,0.5-5.5,1.5-8.6s2.7-5.8,5-8.1
								c2.3-2.3,5.2-3.4,8.8-3.4c4.1,0,6.2,1.8,6.2,5.4c0,2.1-0.6,4.1-1.8,5.8c-1.2,1.8-2.8,3.2-4.8,4.3c-2,1.1-4.1,1.7-6.4,1.8
								c-0.1,1.1-0.1,1.9-0.1,2.3c0,1.8,0.3,3.1,1,3.8c0.6,0.7,1.7,1,3.1,1c2,0,3.8-0.5,5.2-1.4s3-2.4,4.8-4.3h1.9
								C88.4,124.5,83.2,127.9,77.1,127.9z M77.2,113.5c1.4-0.1,2.7-0.6,4-1.5s2.3-2.1,3.1-3.5c0.8-1.4,1.2-2.9,1.2-4.4
								s-0.5-2.3-1.4-2.3c-1.4,0-2.7,1.2-4,3.6C78.7,107.7,77.7,110.4,77.2,113.5z M97.1,127.9c-1.8,0-3.3-0.3-4.6-1
								c-1.2-0.7-2.2-1.6-2.8-2.7c-0.6-1.1-0.9-2.3-0.9-3.5s0.3-2.3,0.9-3.3s1.3-1.6,2.1-2c1.5-2.6,2.8-5.3,3.8-8
								c1.1-2.7,2.1-5.6,3.1-8.7l8.4-1.1c0.2,4.8,0.5,10.1,1,15.7c0.2,2.3,0.3,3.9,0.3,4.9c0,0.9-0.1,1.6-0.2,2.2
								c1.8-1,3.1-2,4.1-2.8h2.4c-2.4,2.8-5.3,5.1-8.7,7.1c-1.1,1.2-2.4,2-4,2.6S98.8,127.9,97.1,127.9z M95.3,123.5
								c1.4,0,2.6-0.4,3.5-1.2s1.4-2.2,1.4-4c0-1.1-0.1-2.7-0.3-4.8c-0.4-4.3-0.6-7.2-0.7-8.7c-0.9,3-2.4,6.5-4.6,10.7
								c0.9,0.5,1.3,1.1,1.3,2c0,0.7-0.2,1.4-0.7,1.9c-0.5,0.6-1.1,0.8-1.8,0.8c-0.8,0-1.3-0.2-1.5-0.7c0,1.4,0.3,2.4,0.8,3
								C93.2,123.2,94.1,123.5,95.3,123.5z M120.6,127.8c-2.8,0-5-0.7-6.6-2.2c-1.6-1.4-2.4-3.7-2.4-6.8c0-2.6,0.5-5.4,1.6-8.5
								s2.8-5.8,5.1-8.1c2.3-2.3,5.3-3.4,8.8-3.4c4.8,0,7.2,3,7.2,9.1v0.1c0.1,0,0.3,0.1,0.6,0.1c1.2,0,2.7-0.3,4.3-1
								s3.1-1.5,4.4-2.4l0.5,1.5c-1.1,1.2-2.5,2.2-4.3,3s-3.7,1.4-5.7,1.7c-0.3,3.4-1.1,6.4-2.3,9s-2.8,4.5-4.8,5.9
								C125,127.1,122.9,127.8,120.6,127.8z M122.8,122.7c0.9,0,1.8-0.5,2.7-1.6c0.9-1,1.7-2.5,2.4-4.2c0.7-1.8,1.2-3.8,1.5-6
								c-1-0.2-1.5-1-1.5-2.4c0-1.5,0.6-2.6,1.8-3.1c-0.1-1.2-0.3-2.1-0.6-2.6s-0.8-0.7-1.6-0.7c-1.2,0-2.5,0.9-3.6,2.7
								c-1.2,1.8-2.1,4-2.8,6.5s-1.1,4.8-1.1,6.7c0,1.8,0.2,3,0.6,3.6C121,122.4,121.7,122.7,122.8,122.7z M171.5,127.9
								c-2.3,0-4-0.6-5.1-1.8c-1.1-1.2-1.6-2.7-1.6-4.6c0-0.8,0.1-1.7,0.3-2.7s0.4-2,0.6-2.9c0.2-0.9,0.3-1.5,0.4-1.8
								c0.3-1.3,0.6-2.6,0.8-3.9s0.4-2.3,0.4-3.1c0-1.9-0.7-2.9-2-2.9c-1,0-1.8,0.5-2.6,1.4c-0.8,1-1.4,2.2-1.8,3.8l-3.8,18.2H149
								l4.1-19.5c0.1-0.5,0.2-0.9,0.2-1.4c0-1.7-0.6-2.5-1.7-2.5c-1.1,0-2,0.5-2.7,1.4c-0.8,1-1.4,2.2-1.8,3.8l-3.8,18.2h-8.1
								l6-28.3h8.1l-0.6,2.9c1.9-2.2,4.2-3.2,6.9-3.2c3.3,0,5.3,1.6,5.8,4.9c2.1-3.2,4.7-4.8,7.9-4.8c1.9,0,3.5,0.5,4.6,1.6
								s1.7,2.7,1.7,4.8c0,1.1-0.1,2.3-0.4,3.6s-0.6,3-1.1,4.9c-0.3,1.2-0.6,2.3-0.8,3.4s-0.4,2-0.4,2.6c0,0.8,0.2,1.3,0.5,1.8
								s0.9,0.6,1.8,0.6c1.1,0,2-0.4,2.7-1.2c0.7-0.8,1.4-2.1,2-3.8h2.4c-1.4,4.1-3,6.9-4.8,8.3S173.5,127.9,171.5,127.9z
								 M187.7,127.9c-2.8,0-4.9-0.7-6.5-2.2c-1.5-1.5-2.3-3.7-2.3-6.8c0-2.6,0.5-5.5,1.5-8.6s2.7-5.8,5-8.1
								c2.3-2.3,5.2-3.4,8.8-3.4c4.1,0,6.2,1.8,6.2,5.4c0,2.1-0.6,4.1-1.8,5.8c-1.2,1.8-2.8,3.2-4.8,4.3c-2,1.1-4.1,1.7-6.4,1.8
								c-0.1,0.8-0.1,1.4-0.1,1.7c0,3.1,1.2,4.7,3.5,4.7c1.1,0,2.2-0.3,3.4-0.8c1.2-0.6,2.3-1.3,3.3-2.2
								C196.4,125.2,193.2,127.9,187.7,127.9z M187.8,113.5c1.4,0,2.8-0.5,4-1.4c1.3-0.9,2.3-2.1,3.1-3.5s1.2-2.9,1.2-4.4
								s-0.5-2.3-1.4-2.3c-1.3,0-2.6,1.2-3.9,3.6S188.4,110.5,187.8,113.5z"/>
							<path id="profile-cards_1_" class="st3" d="M15,145.3h8.2l-0.9,4.2c1.9-1.6,4.1-2.4,6.6-2.4c2.1,0,3.8,0.7,5,2.1
								c1.2,1.4,1.9,3.7,1.9,6.8c0,3-0.4,6-1.3,9c-0.9,3-2.3,5.6-4.4,7.8c-2.1,2.1-4.8,3.2-8.2,3.2c-2.4,0-4-0.7-4.8-2l-2.9,13.8
								l-8.5,2L15,145.3z M20.1,171.1c1.8,0,3.3-0.8,4.5-2.5s2.1-3.7,2.6-6.1s0.8-4.6,0.8-6.6c0-3.1-0.9-4.7-2.8-4.7
								c-0.7,0-1.4,0.2-2.1,0.7s-1.3,1.2-1.8,2L18,169.7C18.3,170.7,19,171.1,20.1,171.1z M41.1,147.4h8.1l-0.7,3.5
								c1.3-1.1,2.4-2,3.5-2.6c1-0.6,2.2-0.9,3.4-0.9s2.2,0.4,2.9,1.2s1,1.8,1,3c0,1.1-0.4,2.1-1.1,2.9s-1.7,1.2-3,1.2
								c-0.8,0-1.4-0.2-1.7-0.6c-0.3-0.4-0.5-1-0.7-1.7c-0.1-0.5-0.2-0.8-0.3-1.1s-0.3-0.3-0.6-0.3c-0.8,0-1.5,0.2-2,0.5
								s-1.3,0.9-2.1,1.7l-4.6,21.5h-8.1L41.1,147.4z M66.8,175.9c-2.8,0-5-0.7-6.6-2.2c-1.6-1.4-2.4-3.7-2.4-6.8
								c0-2.6,0.5-5.4,1.6-8.5s2.8-5.8,5.1-8.1c2.3-2.3,5.3-3.4,8.8-3.4c4.8,0,7.2,3,7.2,9.1v0.1c0.1,0,0.3,0.1,0.6,0.1
								c1.2,0,2.7-0.3,4.3-1c1.6-0.7,3.1-1.5,4.4-2.4l0.5,1.5c-1.1,1.2-2.5,2.2-4.3,3s-3.7,1.4-5.7,1.7c-0.3,3.4-1.1,6.4-2.3,9
								c-1.2,2.6-2.8,4.5-4.8,5.9C71.2,175.2,69.1,175.9,66.8,175.9z M69,170.8c0.9,0,1.8-0.5,2.7-1.6s1.7-2.5,2.4-4.2
								s1.2-3.8,1.5-6c-1-0.2-1.5-1-1.5-2.4c0-1.5,0.6-2.6,1.8-3.1c-0.1-1.2-0.3-2.1-0.6-2.6c-0.3-0.5-0.8-0.7-1.6-0.7
								c-1.2,0-2.5,0.9-3.6,2.7c-1.2,1.8-2.1,4-2.8,6.5s-1.1,4.8-1.1,6.7c0,1.8,0.2,3,0.6,3.6C67.2,170.5,67.9,170.8,69,170.8z
								 M78.6,189.8c-2.1,0-3.8-0.6-5.1-1.7c-1.3-1.2-2-2.7-2-4.6c0-1.6,0.5-2.9,1.4-3.9s2-1.8,3.3-2.4c1.3-0.6,3-1.2,5.1-1.9
								l6.3-29.8c1-4.7,2.7-7.9,5.1-9.6c2.4-1.7,5.1-2.6,8.1-2.6c2.8,0,5.2,0.5,7.2,1.4s2.9,2.6,2.9,5.1c0,1.6-0.4,2.7-1.3,3.5
								s-1.9,1.1-3.2,1.1c-1,0-1.8-0.2-2.4-0.7s-1-1.3-1-2.3c0-0.7,0.2-1.4,0.5-1.9c0.4-0.6,0.8-0.8,1.4-0.8c0.3,0,0.4,0,0.5,0.1
								c0-0.8-0.3-1.3-0.9-1.7c-0.5-0.4-1.3-0.6-2.2-0.6c-1.7,0-3,0.6-4,1.8s-1.7,2.7-2,4.6l-1,4.6h4.5l-0.5,2.3h-4.5l-6.5,30.6
								c-0.8,3.5-2.1,6-3.9,7.5C82.8,189.1,80.8,189.8,78.6,189.8z M104,176c-1.8,0-3.3-0.6-4.4-1.7c-1.1-1.1-1.7-2.8-1.7-5.1
								c0-0.9,0.2-2.2,0.5-3.7l3.8-18.2h8.1l-4.1,19.2c-0.2,0.6-0.2,1.2-0.2,1.8c0,0.8,0.2,1.3,0.5,1.6c0.4,0.3,1,0.5,1.8,0.5
								c1.1,0,2.1-0.5,3.1-1.4s1.6-2.1,2-3.6h2.4c-1.4,4.1-3.2,6.8-5.4,8.3C108.4,175.3,106.2,176,104,176z M77.1,184.8
								c0.6,0,1.3-0.4,1.9-1.1s1.1-1.8,1.4-3.3l0.7-3.3c-1.9,0.6-3.5,1.4-4.6,2.3s-1.7,2-1.7,3.1c0,0.8,0.3,1.4,0.8,1.8
								C76.1,184.6,76.6,184.8,77.1,184.8z M119.2,176c-1.8,0-3.3-0.6-4.4-1.7s-1.7-2.8-1.7-5.1c0-0.9,0.2-2.2,0.5-3.7l6.1-28.3
								l8.4-1.1l-6.5,30.6c-0.2,0.6-0.2,1.2-0.2,1.8c0,0.8,0.2,1.3,0.5,1.6c0.4,0.3,1,0.5,1.8,0.5c1.1,0,2.1-0.5,3.1-1.4
								c0.9-0.9,1.6-2.1,2-3.6h2.4c-1.4,4.1-3.2,6.8-5.4,8.3C123.5,175.3,121.3,176,119.2,176z M136.6,176c-2.8,0-4.9-0.7-6.5-2.2
								c-1.5-1.5-2.3-3.7-2.3-6.8c0-2.6,0.5-5.5,1.5-8.6s2.7-5.8,5-8.1s5.2-3.4,8.8-3.4c4.1,0,6.2,1.8,6.2,5.4
								c0,2.1-0.6,4.1-1.8,5.8s-2.8,3.2-4.8,4.3s-4.1,1.7-6.4,1.8c-0.1,0.8-0.1,1.4-0.1,1.7c0,3.1,1.2,4.7,3.5,4.7
								c1.1,0,2.2-0.3,3.4-0.8c1.2-0.6,2.3-1.3,3.3-2.2C145.4,173.3,142.1,176,136.6,176z M136.7,161.6c1.4,0,2.8-0.5,4-1.4
								c1.3-0.9,2.3-2.1,3.1-3.5s1.2-2.9,1.2-4.4s-0.5-2.3-1.4-2.3c-1.3,0-2.6,1.2-3.9,3.6S137.4,158.6,136.7,161.6z M151.5,158.7
								h11.3l-1,4.5h-11.4L151.5,158.7z M173.9,176c-2.8,0-5-0.7-6.5-2.2s-2.3-3.7-2.3-6.8c0-2.6,0.5-5.5,1.6-8.6
								c1-3.1,2.7-5.8,5-8.1s5.2-3.4,8.7-3.4c2.3,0,3.9,0.5,4.8,1.5c1,1,1.4,2.2,1.4,3.7c0,1.3-0.3,2.3-0.8,3.1s-1.3,1.1-2.2,1.1
								c-0.6,0-1.3-0.2-2-0.7c0.5-1.2,0.7-2.4,0.7-3.3c0-0.7-0.1-1.3-0.4-1.7c-0.3-0.4-0.7-0.6-1.2-0.6c-1.1,0-2.3,0.9-3.4,2.8
								c-1.1,1.8-2.1,4.1-2.8,6.7c-0.7,2.6-1.1,5-1.1,7.1c0,1.8,0.3,3.1,1,3.8c0.6,0.7,1.7,1,3.1,1c2,0,3.8-0.5,5.2-1.4
								s3-2.4,4.8-4.3h1.9C185.2,172.6,180.1,176,173.9,176z M194.3,176c-2.2,0-3.9-0.7-5.4-2.2c-1.4-1.5-2.2-3.8-2.2-6.9
								c0-2.8,0.6-5.7,1.7-8.8c1.1-3.1,2.8-5.7,5-7.8s4.8-3.2,7.9-3.2c1.5,0,2.7,0.3,3.5,0.8s1.1,1.2,1.1,2.1v0.4l0.6-3h8.1
								l-4.1,19.2c-0.2,0.6-0.2,1.2-0.2,1.8c0,1.6,0.8,2.4,2.3,2.4c1.1,0,2-0.5,2.7-1.5c0.8-1,1.4-2.3,1.8-3.8h2.4
								c-1.4,4.1-3.1,6.8-5.2,8.3c-2.1,1.5-4.1,2.2-6.2,2.2c-1.6,0-2.9-0.4-3.8-1.3s-1.5-2.2-1.7-3.9c-1.1,1.5-2.3,2.8-3.6,3.8
								C197.7,175.6,196.1,176,194.3,176z M198,170.6c0.9,0,1.9-0.4,2.8-1.3c0.9-0.9,1.6-2.1,1.9-3.6l2.7-12.8c0-0.5-0.2-1-0.6-1.4
								c-0.4-0.5-1-0.7-1.8-0.7c-1.5,0-2.9,0.9-4.1,2.6c-1.2,1.8-2.2,3.9-2.8,6.3c-0.7,2.5-1,4.6-1,6.5s0.3,3.1,0.8,3.6
								C196.5,170.3,197.2,170.6,198,170.6z M221.1,147.4h8.1l-0.7,3.5c1.3-1.1,2.4-2,3.5-2.6c1-0.6,2.2-0.9,3.4-0.9
								s2.2,0.4,2.9,1.2s1,1.8,1,3c0,1.1-0.4,2.1-1.1,2.9s-1.7,1.2-3,1.2c-0.8,0-1.4-0.2-1.7-0.6c-0.3-0.4-0.5-1-0.7-1.7
								c-0.1-0.5-0.2-0.8-0.3-1.1s-0.3-0.3-0.6-0.3c-0.8,0-1.5,0.2-2,0.5s-1.3,0.9-2.1,1.7l-4.5,21.5h-8.1L221.1,147.4z M245.3,176
								c-2.2,0-3.9-0.7-5.4-2.2c-1.4-1.5-2.2-3.8-2.2-6.9c0-2.8,0.6-5.7,1.7-8.8c1.1-3.1,2.8-5.7,5-7.8s4.8-3.2,7.9-3.2
								c1.5,0,2.7,0.3,3.5,0.8c0.8,0.5,1.1,1.2,1.1,2.1v0.2l2.8-13l8.4-1.1l-6.5,30.6c-0.2,0.6-0.2,1.2-0.2,1.8
								c0,0.8,0.2,1.3,0.5,1.6c0.4,0.3,1,0.5,1.8,0.5c1.1,0,2-0.5,2.7-1.4c0.8-0.9,1.4-2.1,1.8-3.6h2.4c-2.3,6.8-6.1,10.1-11.4,10.1
								c-1.5,0-2.8-0.4-3.8-1.2s-1.6-2-1.8-3.6c-1,1.5-2.2,2.8-3.5,3.7S247.2,176,245.3,176z M249,170.6c0.9,0,1.8-0.4,2.7-1.2
								s1.6-2,1.9-3.5v-0.3l2.8-13c-0.3-1.3-1.1-2-2.3-2c-1.5,0-2.9,0.9-4.1,2.6c-1.2,1.8-2.2,3.9-2.8,6.3c-0.7,2.5-1,4.6-1,6.5
								s0.3,3.1,0.8,3.6C247.5,170.3,248.2,170.6,249,170.6z M274.7,176c-1.8,0-3.3-0.3-4.6-1c-1.2-0.7-2.2-1.6-2.8-2.7
								c-0.6-1.1-0.9-2.3-0.9-3.5s0.3-2.3,0.9-3.3c0.6-0.9,1.3-1.6,2.1-2c1.5-2.6,2.8-5.3,3.8-8c1.1-2.7,2.1-5.6,3.1-8.7l8.4-1.1
								c0.2,4.8,0.5,10.1,1,15.7c0.2,2.3,0.3,3.9,0.3,4.9c0,2.3-0.6,4.2-1.8,5.7c-1.2,1.5-2.6,2.5-4.3,3.2
								C278.2,175.7,276.5,176,274.7,176z M272.9,171.6c1.4,0,2.6-0.4,3.5-1.2s1.4-2.2,1.4-4c0-1.1-0.1-2.7-0.3-4.8
								c-0.4-4.3-0.6-7.2-0.7-8.7c-0.9,3-2.4,6.5-4.6,10.7c0.9,0.5,1.3,1.1,1.3,2c0,0.7-0.2,1.4-0.7,1.9c-0.5,0.6-1.1,0.8-1.8,0.8
								c-0.8,0-1.3-0.2-1.5-0.7c0,1.4,0.3,2.4,0.8,3C270.8,171.3,271.7,171.6,272.9,171.6z"/>
						</g>
					</g>
				</g>
			</g>
		</g>
	</g>
	<g id="Capa_2_1_">
		<g class="st0">
			<path class="st1" d="M-77.5,139c9,0,16.4-7.4,16.4-16.4s-7.4-16.4-16.4-16.4s-16.4,7.4-16.4,16.4S-86.5,139-77.5,139z
				 M-77.5,113.1c5.3,0,9.5,4.3,9.5,9.5s-4.3,9.5-9.5,9.5c-5.3,0-9.5-4.3-9.5-9.5S-82.7,113.1-77.5,113.1z"/>
			<path class="st1" d="M-54.1,150h-13.4c-3.5,0-6.4-2.9-6.4-6.4v-1.1H-74h-6.8h-0.1v1.1c0,3.5-2.9,6.4-6.4,6.4h-13.5
				c-7.3,0-13.3,6-13.3,13.3h6.9c0-3.5,2.9-6.4,6.4-6.4h13.4c3.9,0,7.5-1.7,9.9-4.4c2.4,2.7,6,4.4,9.9,4.4h13.4
				c3.5,0,6.4,2.9,6.4,6.4h6.9C-40.8,156-46.8,150-54.1,150z"/>
			<polygon class="st1" points="-43,86.7 -43,93.6 -30,93.6 -30,177.6 -43,177.6 -43,184.5 -23.1,184.5 -23.1,86.7 			"/>
			<polygon class="st1" points="-124.9,93.6 -111.9,93.6 -111.9,86.7 -131.8,86.7 -131.8,184.5 -111.9,184.5 -111.9,177.6 
				-124.9,177.6 			"/>
		</g>
		<g>
			<g>
				<path class="st6" d="M0.2,157.1v-4.9h5.4v-33.9H0.2v-4.9h7c3.6,4.6,7.1,9.2,10.7,13.8c3.5,4.6,7.1,9.2,10.7,13.8
					c3.6-4.6,7.1-9.2,10.7-13.8c3.5-4.6,7.1-9.2,10.7-13.8h7v4.9h-5.4v33.9H57v4.9H41.7v-4.9h4.5v-24.5c0-0.3,0.1-0.7,0.1-1
					s0.1-0.7,0.1-1c-0.3,0.5-0.7,0.9-1,1.4s-0.7,1-1,1.4l-15.9,20.7l-16.6-21.7c-0.3-0.4-0.5-0.7-0.7-0.9s-0.4-0.6-0.6-0.9
					c0,0.3,0.1,0.7,0.1,1s0.1,0.7,0.1,1v24.4h4.5v4.9H0.2V157.1z"/>
				<path class="st6" d="M92.2,155.8c-2.7,1.2-5.6,1.8-8.7,1.8s-6-0.6-8.7-1.8s-5.1-2.8-7.1-4.8s-3.6-4.4-4.8-7.1
					c-1.2-2.7-1.8-5.6-1.8-8.7c0-3,0.6-5.9,1.8-8.7c1.2-2.7,2.8-5.1,4.8-7.2c2-2,4.4-3.7,7.1-4.8c2.7-1.2,5.6-1.8,8.7-1.8
					c3,0,5.9,0.6,8.7,1.8c2.7,1.2,5.1,2.8,7.2,4.8c2,2,3.7,4.4,4.8,7.2c1.2,2.7,1.8,5.6,1.8,8.7c0,3.1-0.6,6-1.8,8.7
					c-1.2,2.7-2.8,5.1-4.8,7.1C97.3,153.1,94.9,154.7,92.2,155.8z M76.9,151.3c2.1,0.9,4.3,1.4,6.7,1.4s4.6-0.5,6.7-1.4
					s3.9-2.2,5.5-3.8c1.5-1.5,2.8-3.4,3.7-5.5c0.9-2.1,1.3-4.4,1.3-6.8c0-2.4-0.4-4.7-1.3-6.8c-0.9-2.1-2.1-3.9-3.7-5.5
					s-3.4-2.8-5.5-3.8c-2.1-0.9-4.3-1.4-6.7-1.4s-4.6,0.5-6.7,1.4s-3.9,2.2-5.4,3.8c-1.6,1.6-2.8,3.4-3.7,5.5
					c-0.9,2.1-1.3,4.4-1.3,6.8c0,2.4,0.4,4.7,1.3,6.8s2.1,3.9,3.7,5.5C73,149.1,74.8,150.4,76.9,151.3z"/>
				<path class="st6" d="M110.3,157.1v-5h2.9v-33.8h-2.9v-4.9h13.1c3,0,5.8,0.5,8.5,1.5s5,2.5,7,4.4s3.6,4.2,4.8,6.9
					s1.8,5.7,1.8,9.1c0,2.5-0.4,5-1.3,7.6c-0.9,2.6-2.2,4.9-4.2,7c-1.9,2.1-4.4,3.9-7.5,5.2c-3.1,1.4-6.8,2-11.2,2H110.3z
					 M118.5,152.1h4.4c2.5,0,4.8-0.4,6.9-1.2c2.1-0.8,4-1.9,5.6-3.4c1.5-1.5,2.8-3.2,3.7-5.3s1.3-4.4,1.3-7s-0.4-4.9-1.3-7
					c-0.9-2.1-2.1-3.9-3.7-5.4c-1.6-1.5-3.4-2.6-5.6-3.4c-2.1-0.8-4.4-1.2-6.9-1.2h-4.4V152.1z"/>
				<path class="st6" d="M154.6,127.1c1.2-1.9,2.5-3.8,3.8-5.7c1.2-1.9,2.5-3.8,3.8-5.7c1.2,1.9,2.5,3.8,3.8,5.7
					c1.2,1.9,2.5,3.8,3.8,5.7h-3.7c-0.6-0.8-1.3-1.5-1.9-2.2c-0.6-0.8-1.3-1.5-1.9-2.3c-0.6,0.8-1.3,1.5-1.9,2.3
					c-0.6,0.8-1.3,1.5-1.9,2.2H154.6z"/>
				<path class="st6" d="M179.2,157.1v-4.9h3.5v-33.9h-3.5v-4.9h13.9v4.9h-5.2v33.9h17.7v-4.7h4.9v9.6L179.2,157.1L179.2,157.1z"/>
				<path class="st6" d="M262,156.7c-1.9,0.6-3.9,0.8-6,0.8c-3.1,0-6-0.6-8.7-1.8s-5.1-2.8-7.1-4.8s-3.6-4.4-4.8-7.1
					c-1.2-2.7-1.8-5.6-1.8-8.7c0-3.1,0.6-6,1.8-8.7s2.8-5.1,4.8-7.2c2-2,4.4-3.6,7.1-4.8c2.7-1.2,5.6-1.8,8.7-1.8
					c2.1,0,4.1,0.3,6,0.8s3.7,1.3,5.4,2.3v7h-4.9v-3.8c-1-0.5-2.1-0.8-3.2-1s-2.2-0.3-3.3-0.3c-2.4,0-4.6,0.5-6.7,1.4
					c-2.1,0.9-3.9,2.2-5.4,3.8c-1.6,1.6-2.8,3.5-3.7,5.6c-0.9,2.1-1.3,4.4-1.3,6.8c0,2.4,0.4,4.6,1.3,6.8c0.9,2.1,2.1,4,3.7,5.5
					c1.5,1.6,3.3,2.8,5.4,3.8c2.1,0.9,4.3,1.4,6.7,1.4c1.5,0,3-0.2,4.5-0.6c1.4-0.4,2.8-1,4.1-1.7l2.8,4.1
					C265.7,155.4,263.9,156.2,262,156.7z"/>
				<path class="st6" d="M271.8,157.1v-4.9h5.1c2.9-6.9,5.8-13.7,8.7-20.4c2.9-6.7,5.8-13.5,8.7-20.4c2.9,6.9,5.8,13.7,8.7,20.4
					c2.9,6.7,5.8,13.5,8.7,20.4h5.1v4.9h-13.9v-4.9h3.5c-0.9-2.1-1.7-4.1-2.6-6.2c-0.9-2-1.7-4.1-2.6-6.2h-13.8
					c-1.2,2.8-2,4.8-2.6,6.2s-1.5,3.4-2.6,6.2h3.6v4.9H271.8z M291.4,130c-0.7,1.8-1.3,3.4-1.9,4.8h9.5l-4.2-9.9l-0.6-2.1
					c-0.2,0.7-0.3,1.1-0.4,1.4s-0.2,0.5-0.2,0.6C292.8,126.5,292.1,128.2,291.4,130z"/>
				<path class="st6" d="M321,157.1v-4.9h2.8v-33.9H321v-4.9h13.2c1.4,0,3,0.2,4.7,0.7c1.7,0.4,3.3,1.1,4.8,2.1s2.8,2.2,3.8,3.7
					s1.5,3.3,1.5,5.4c0,3.1-0.8,5.7-2.3,7.8c-1.6,2.1-3.8,3.5-6.8,4.1l7,15h5.9v4.9h-9.1l-9.2-19.6c-0.6,0-1,0-1.3,0s-0.8,0-1.3,0
					h-2.6v14.6h7.1v4.9H321V157.1z M329,132.6h5.4c1.8,0,3.3-0.2,4.5-0.7s2.1-1.1,2.8-1.8c0.7-0.7,1.2-1.5,1.5-2.4s0.4-1.7,0.4-2.5
					c0-0.9-0.2-1.8-0.7-2.6c-0.5-0.8-1.1-1.6-1.9-2.2s-1.8-1.1-3-1.5c-1.1-0.4-2.4-0.6-3.7-0.6h-5.5v14.3H329z"/>
				<path class="st6" d="M357,157.1v-5h2.9v-33.8H357v-4.9h13.2c3,0,5.8,0.5,8.5,1.5s5,2.5,7,4.4s3.6,4.2,4.8,6.9
					c1.2,2.7,1.8,5.7,1.8,9.1c0,2.5-0.4,5-1.3,7.6s-2.2,4.9-4.2,7c-1.9,2.1-4.4,3.9-7.5,5.2c-3.1,1.4-6.8,2-11.2,2H357z
					 M365.2,152.1h4.4c2.5,0,4.8-0.4,6.9-1.2s4-1.9,5.6-3.4c1.5-1.5,2.8-3.2,3.7-5.3c0.9-2.1,1.3-4.4,1.3-7s-0.4-4.9-1.3-7
					c-0.9-2.1-2.1-3.9-3.7-5.4s-3.4-2.6-5.6-3.4c-2.1-0.8-4.4-1.2-6.9-1.2h-4.4V152.1z"/>
				<path class="st6" d="M415,156.7c-1.6,0.6-3.2,0.8-5,0.8c-1.6,0-3.1-0.2-4.6-0.5c-1.5-0.4-2.9-0.8-4.1-1.4
					c-1.2-0.6-2.4-1.2-3.3-2c-1-0.8-1.7-1.5-2.3-2.4V144h4.9v5.6c1.1,0.8,2.4,1.6,3.9,2.2c1.5,0.6,3.2,0.9,5.1,0.9
					c1.1,0,2.1-0.2,3.1-0.5s1.9-0.8,2.7-1.3c0.8-0.6,1.4-1.4,1.8-2.3c0.5-0.9,0.7-2,0.7-3.2c0-0.8-0.1-1.5-0.2-2.2
					c-0.1-0.8-0.3-1.4-0.7-1.9c-0.5-0.9-1.2-1.6-1.9-2.1c-0.7-0.5-1.6-1-2.5-1.5c-1.5-0.6-3.1-1.2-4.9-1.6c-1.8-0.5-3.4-1.1-4.9-1.9
					c-1.5-0.8-2.8-1.9-3.8-3.3c-1-1.4-1.6-3.4-1.6-6c0-1.4,0.1-2.8,0.6-4.1c0.4-1.4,1.1-2.6,2.1-3.8c1-1.1,2.2-2,3.8-2.8
					c1.6-0.7,3.5-1.1,5.8-1.1c0.8,0,1.6,0,2.4,0.1c0.9,0.1,1.8,0.2,2.8,0.5c1,0.2,1.9,0.6,3,1.1c1,0.5,2,1.2,3,2v6.1H416v-3.7
					c-0.8-0.3-1.7-0.6-2.8-0.9c-1-0.2-2.2-0.4-3.4-0.4s-2.3,0.2-3.2,0.6c-0.9,0.4-1.7,0.9-2.2,1.6c-0.5,0.6-0.9,1.3-1.2,2.2
					c-0.3,0.8-0.4,1.7-0.4,2.6c0,1.2,0.3,2.3,0.9,3c0.6,0.8,1.4,1.4,2.3,2c1.5,0.8,3.3,1.5,5.4,2.1s4.1,1.4,6,2.3
					c1.8,0.8,3.2,2.1,4.2,3.9c1.1,1.8,1.6,4.1,1.6,7.2c0,1.9-0.3,3.6-1,5.1s-1.6,2.8-2.8,3.9C418,155.4,416.6,156.2,415,156.7z"/>
			</g>
		</g>
		<g>
			<circle class="st7" cx="211.1" cy="28" r="9.9"/>
			<g>
				<path class="st7" d="M185.8,58.9L185.8,58.9c0-4.2,3.4-7.5,7.5-7.5h10.2c4.2,0,7.5-3.4,7.5-7.5V43"/>
				<path class="st7" d="M236.4,58.9L236.4,58.9c0-4.2-3.4-7.5-7.5-7.5h-10.2c-4.2,0-7.5-3.4-7.5-7.5V43"/>
			</g>
			<g>
				<polyline class="st8" points="237.4,3.3 249.9,3.3 249.9,72.4 237.4,72.4 				"/>
				<polyline class="st8" points="184.9,72.4 172.4,72.4 172.4,3.3 184.9,3.3 				"/>
			</g>
		</g>
	</g>
</g>
<g id="Capa_3" class="st0">
	<g class="st1">
		<circle class="st9" cx="211.7" cy="9.4" r="11.6"/>
		<g>
			<path class="st9" d="M182.2,45.6L182.2,45.6c0-4.8,3.9-8.8,8.8-8.8h11.9c4.8,0,8.8-3.9,8.8-8.8v-1"/>
			<path class="st9" d="M241.3,45.6L241.3,45.6c0-4.8-3.9-8.8-8.8-8.8h-11.9c-4.8,0-8.8-3.9-8.8-8.8v-1"/>
		</g>
		<g>
			<polyline class="st10" points="242.5,-19.4 257,-19.4 257,61.4 242.5,61.4 			"/>
			<polyline class="st10" points="181.1,61.4 166.5,61.4 166.5,-19.4 181.1,-19.4 			"/>
		</g>
	</g>
	<g class="st1">
		<g>
			<path class="st6" d="M-11.2,161.2c-1.2,0-2.1-0.4-2.6-1.1s-0.8-1.8-0.8-3c0-1.1,0.2-2.2,0.5-3.2c0.3-1,0.7-1.9,1.1-2.7
				c0.4-0.8,1.7-2.4,3.9-4.8c2.2-2.4,3.7-5.4,4.5-9.1c0.8-3.7,1.8-8.2,3-13.6c0.8-2.1,1.7-3.3,3-3.5c1.2-0.2,2-0.3,2.3-0.3
				c1.1,0,2.1,0.4,2.8,1.2c0.8,0.8,1.1,1.8,0.9,3c-0.7,8.2-1.5,14.7-2.3,19.4c-0.8,4.7-2.5,8.8-5,12.4
				C-2.5,159.4-6.2,161.2-11.2,161.2z M31.9,119.2c-2.2,1.3-4,3.5-5.4,6.3c-1.4,2.9-2.9,6.7-4.4,11.3c-1.5,4.7-2.6,7.7-3.3,9
				c-0.7,1.3-1.6,2.4-2.6,3.1c-1.1,0.8-2.2,1.1-3.2,1.1c-1.2,0-2-0.5-2.5-1.6c-0.5-1.1-0.8-2.2-1-3.4c-0.2-1.2-0.3-2.5-0.3-3.9
				c0-1.6,0.2-3.9,0.6-7.1c0.4-3.2,0.6-5.5,0.6-7.1c0-1-0.1-2-0.2-3.1c-0.1-1-0.3-1.9-0.5-2.6c-0.2-0.7-0.5-1.4-0.9-1.9
				c-0.4-0.5-0.8-0.8-1.1-0.8c-0.4,0-0.7-0.1-0.9-0.1c-0.2,0-0.4,0-0.5,0c-0.5,0-1.4,0.1-2.5,0.2c-1.1,0.1-1.9,0.2-2.4,0.2
				c-0.7,0-1.2-0.1-1.7-0.2c-0.4-0.1-1-0.3-1.7-0.7c-0.7-0.4-1.2-1-1.6-1.8c-0.4-0.8-0.6-1.7-0.6-2.6c0-1,0.3-2.3,1-3.9
				c0.7-1.5,2-2.8,3.9-3.8c1.9-1,4-1.5,6.4-1.5c1.8,0,3.7,0.3,5.7,1c2,0.7,3.6,2.2,4.9,4.4c1.2,2.2,1.8,4.7,1.8,7.4
				c0,1.1-0.1,2.1-0.3,3c2.1-3.1,4-5.8,5.7-7.9c1.8-2.1,3.8-4,6.1-5.4c2.3-1.5,4.9-2.2,7.7-2.2c1.5,0,2.9,0.2,4.4,0.7
				c1.5,0.4,2.6,1.1,3.3,2.1c0.7,1,1.1,2.1,1.1,3.4c0,0.2,0,0.4,0,0.7c0,0.3-0.3,1.4-0.9,3.4c-0.6,2-3.1,3.2-7.6,3.5
				C34.5,118.8,32.2,119,31.9,119.2z M28.2,149.6c-0.9-0.4-1.6-1.1-2.2-2.1c-0.6-1-0.9-2.1-0.9-3.3c0-0.4,0.1-1.8,0.4-4.1
				c0.3-2.3,0.9-5,1.8-8.1c0.9-3.1,2-5.7,3.2-7.7c1.2-2,2.4-3.3,3.4-3.9c1-0.6,2.1-0.9,3.1-0.9c1.4,0,2.3,0.5,2.5,1.4
				c0.2,1,0.3,1.9,0.3,2.8c0,1-0.2,2-0.5,3c-0.4,1-0.7,2.1-0.9,3.2c-0.3,1.1-0.4,2.2-0.4,3.2c0,0.9,0.1,1.7,0.3,2.4
				c0.2,0.7,0.5,1.4,0.9,2c0.4,0.6,0.7,1.2,0.9,1.9c0.1,0.7,0.2,1.4,0.2,2.1c0,2.1-0.9,4.1-2.7,6c-1.8,1.8-3.8,2.8-6.1,2.8
				C30.4,150.3,29.3,150.1,28.2,149.6z"/>
			<path class="st6" d="M78.6,146c-3.3,4.4-7.7,6.6-13.1,6.6c-2,0-3.9-0.3-5.5-0.9s-2.9-1.4-3.7-2.5c-0.8-1.1-1.5-2.2-2-3.4
				c-0.5-1.2-0.9-2.5-1.1-3.9s-0.4-2.7-0.4-4c0-3.6,0.8-6.8,2.4-9.7c1.6-2.9,3.3-4.7,5.1-5.3c1.8-0.7,3-1,3.6-1c1,0,1.8,0.2,2.4,0.7
				c0.6,0.4,0.9,1.1,0.9,2c0,0.9-0.5,2.6-1.5,5.1c-1,2.5-1.5,4.2-1.5,5.3c0,0.5,0,1.1,0.1,1.7c0.1,0.6,0.5,1.3,1.1,2
				c0.7,0.7,1.4,1.1,2.3,1.1c0.5,0,1.5-0.5,2.8-1.4c1.3-0.9,2.5-2.6,3.4-4.9c0.9-2.4,1.4-5,1.4-7.8c0-2-0.1-3.6-0.3-4.9
				c-0.2-1.3-0.5-2.2-1-2.8c-0.5-0.6-1-0.9-1.8-0.9c-0.3,0-0.5,0.1-0.9,0.2c-2.1,1.1-4.2,2.2-6.3,3.3c-0.5,0.1-0.9,0.2-1.3,0.2
				c-1.4,0-2.7-0.4-3.7-1.3c-1.1-0.8-1.6-2-1.6-3.4c0-0.4,0.2-1.5,0.6-3.2c0.4-1.7,1.7-3.4,4.1-5.2c2.4-1.8,4.5-2.8,6.5-3.1
				c2-0.3,3.4-0.4,4.2-0.4c2.1,0,3.9,0.4,5.5,1.1c1.6,0.7,3,2,4.2,3.8c1.2,1.8,2.1,3.9,2.8,6.1c0.7,2.3,1,4.6,1,7.1
				c0,4-0.8,8.1-2.3,12.1C83.4,138.6,81.3,142.4,78.6,146z"/>
			<path class="st6" d="M121,156.7c-2.2,2.4-4.8,4.3-7.8,5.6c-3,1.3-6.1,2-9.4,2c-3.1,0-6.1-0.6-9.1-1.8c-2.9-1.2-4.4-3.4-4.4-6.6
				c0-0.3,0.1-1,0.2-2.1c0.1-1.1,1-2.3,2.6-3.5c1.6-1.2,3.3-1.9,5.3-1.9c0.8,0,1.6,0.1,2.5,0.4c0.9,0.3,1.9,0.5,3,0.8
				c1.1,0.2,2.1,0.3,3.1,0.3c2.1,0,3.9-0.4,5.5-1.2c1.6-0.8,3-2.6,4.4-5.3c1.4-2.7,2.5-5.5,3.3-8.2c0.8-2.8,1.2-5.1,1.2-7.1
				c0-2.3-0.5-4.2-1.5-5.9c-1-1.7-2.2-2.8-3.5-3.2c-1.4-0.5-2.2-0.7-2.6-0.8c-0.4,0-0.9-0.1-1.5-0.1c-0.7,0-1.7,0.1-3.1,0.3
				c-1.4,0.2-2.4,0.3-3.1,0.3c-1.1,0-2.1-0.1-2.9-0.4c-0.8-0.3-1.6-0.8-2.4-1.7c-0.8-0.9-1.2-1.9-1.2-3.2c0-1.1,0.3-2.2,1-3.2
				c0.7-1.1,1.6-2,2.7-2.8c1.1-0.8,2.3-1.3,3.6-1.7c1.3-0.4,2.5-0.6,3.6-0.7c1.1-0.1,1.9-0.2,2.3-0.2c0.4,0,0.7,0,1,0
				c4.2,0,7.9,1,11.2,3c3.3,2,5.5,4.8,6.7,8.5c1.2,3.7,1.8,7.4,1.8,11c0,5.4-1.1,10.6-3.3,15.8C127.9,148,124.9,152.6,121,156.7z
				 M113.3,132.1c0.3,1.1,0.4,2.3,0.4,3.4c0,3.3-0.9,6.1-2.7,8.5c-1.8,2.4-4.1,3.6-6.9,3.6c-1.5,0-2.8-0.3-3.9-0.8s-1.9-1.2-2.3-2.1
				c-0.4-0.9-0.6-1.9-0.6-3c0-2.1,0.7-4,2-5.7c1.4-1.8,2.2-3.1,2.6-4.1c0.3-0.9,0.7-2.5,1-4.6c0.3-2.1,1.3-3.9,2.9-5.3
				c1.6-1.4,3.3-2,5.2-2c1,0,1.9,0.3,2.9,0.8c0.7,0.4,1.1,0.8,1.4,1.2c0.3,0.4,0.4,0.9,0.4,1.5c0,0.6-0.4,1.8-1.3,3.7
				c-0.8,1.9-1.3,3.2-1.3,4C113.2,131.4,113.2,131.7,113.3,132.1z"/>
			<path class="st6" d="M193.6,121.4c-0.4,0.1-0.7,0.2-0.9,0.3c-0.2,0-0.5,0.1-0.9,0.1c-1.2,0-2.6-0.4-4.2-1.3
				c-1.3-0.8-2.4-1.5-3.1-2c-0.7-0.5-1.3-0.7-1.6-0.7c-0.5,0-1,0.2-1.5,0.5c-0.5,0.3-0.7,0.6-0.7,0.9c0.2,2,0.5,4,0.7,6
				c0.3,2,0.4,3.4,0.4,4.2c0,1.2-0.3,2.5-1,4c-0.8,1.5-1.5,2.8-2,3.8c-0.4,0.4-0.7,0.8-1,1.1c-0.3,0.3-0.3,0.7-0.1,0.9
				c0.2,0.3,0.5,0.5,1.1,0.7c0.6,0.2,1.2,0.3,1.8,0.3c0.6,0,1.5-0.3,2.5-0.8c1-0.5,2.6-0.8,4.6-0.8c1.6,0,2.8,0.3,3.7,1
				s1.4,1.7,1.4,3.1c0,1.8-0.3,3.5-1,4.9c-0.7,1.5-1.8,2.7-3.4,3.6c-1.6,0.9-3.3,1.3-5,1.3c-1.5,0-3-0.3-4.3-0.8
				c-1.4-0.5-2.8-1.1-4.4-1.8c-1.6-0.7-2.6-1-3-1c-0.8,0-2,0.4-3.7,1.2c-1.7,0.8-2.9,1.2-3.8,1.2c-0.5,0-1-0.1-1.4-0.3
				c-0.5-0.2-1-0.6-1.6-1.1c-0.6-0.6-0.9-1.4-0.9-2.6c0-0.6,0.1-1.2,0.2-1.7c0.1-0.5,0.3-1,0.5-1.4c0.2-0.5,1.8-2.3,4.8-5.5
				c3-3.2,4.5-5.6,4.5-7.4c0-0.5-0.2-1.5-0.5-3.1c-0.4-1.6-0.6-3-0.8-4.1c-0.2-1.1-0.3-2.5-0.3-4.1c0-1.6,0.2-3,0.5-4.2
				c0.4-1.2,1.2-2.8,2.6-4.5c1.4-1.8,3.4-3.3,6-4.6c2.6-1.3,5.5-1.9,8.5-1.9c0.6,0,1.3,0,1.9,0.1c0.6,0,1.7,0.2,3.2,0.4
				c1.5,0.3,3.1,0.9,4.8,1.8c1.7,1,2.6,2.1,2.9,3.3c0.3,1.2,0.4,2.3,0.4,3.2c0,1.8-0.5,3.4-1.4,4.9
				C196.8,119.7,195.4,120.7,193.6,121.4z"/>
			<path class="st6" d="M250.6,120.5c-0.5,0.1-0.8,0.1-1,0.1c-0.8,0-1.9-0.3-3.3-1c-1.4-0.7-2.5-1-3.1-1c-0.5,0-1.4,0.3-2.6,1
				c-1.2,0.7-2.4,2.4-3.6,5.3c-1.2,2.8-1.8,5.6-1.8,8.4c0,1.6,0.2,2.9,0.7,4c0.4,1.1,0.9,1.8,1.4,2c0.5,0.3,1,0.4,1.4,0.4
				c0.6,0,1.9-0.4,3.9-1.1c2-0.7,3.6-1.1,4.7-1.1c1,0,1.9,0.3,2.7,0.8c0.7,0.5,1.2,1.4,1.5,2.5c0.3,1.1,0.4,2,0.4,2.6
				c0,2.8-1.3,5.2-3.9,7.1c-2.6,1.9-5.6,2.9-8.8,2.9c-5.3,0-9.2-1.5-11.6-4.6c-2.4-3.1-3.6-7.1-3.6-12.1c0-3.2,0.4-6.3,1.2-9.5
				c0.8-3.2,2-6.4,3.6-9.8s3.9-6.3,7.1-8.6c3.1-2.4,6.8-3.6,10.9-3.6c3,0,5.2,0.3,6.5,0.8c1.3,0.5,2.2,1.2,2.6,2.1
				c0.5,0.9,0.8,1.6,0.9,2.1c0.1,0.6,0.2,1.2,0.2,1.9c0,1.9-0.6,3.6-1.7,5.1C254.1,118.9,252.6,120,250.6,120.5z"/>
			<path class="st6" d="M296.7,119.5c-0.5-0.2-0.9-0.3-1.4-0.3c-1.7,0-2.9,0.9-3.7,2.6c-0.8,1.7-1.5,4.1-2.3,7.2
				c-0.2,0.8,0,1.4,0.6,1.8c0.6,0.5,1.1,0.6,1.4,0.3c0.8-0.6,2-2.4,3.6-5.3c1.6-3,3.4-4.4,5.4-4.4c0.3,0,0.7,0.1,1.5,0.2
				c0.7,0.1,1.4,0.5,1.9,1.2c0.5,0.7,0.8,1.4,0.8,2.3c0,0.3-0.1,0.8-0.3,1.6c-0.2,0.8-0.4,1.9-0.6,3.3c-0.2,1.3-0.3,2.6-0.3,3.7
				c0,1.3,0.1,2.5,0.3,3.6c0.2,1.2,0.6,2.2,1,3.2c0.4,0.9,0.6,2,0.6,3.1c0,2.1-0.8,3.9-2.4,5.5c-1.6,1.5-3.5,2.3-5.8,2.3
				c-0.8,0-2-0.2-3.5-0.7c-1.5-0.5-2.5-1.6-3-3.2c-0.5-1.7-0.8-3-0.8-4.1c0-0.3,0-0.8,0.1-1.4c0-0.6,0.1-1,0.1-1.3
				c0-0.8-0.1-1.4-0.3-1.8c-0.2-0.3-0.5-0.7-0.8-0.9s-0.6-0.4-1-0.4c-0.5,0-0.8,0.2-1,0.6c-0.2,0.4-0.9,3.1-2.1,8
				c-1.2,4.9-3,8.9-5.3,12.1c-2.3,3.1-4.7,4.9-7.3,5.3s-4,0.6-4.4,0.6c-1.5,0-2.8-0.4-3.8-1.2c-1.1-0.8-1.7-1.6-1.9-2.4
				c-0.2-0.8-0.3-1.4-0.3-1.9c0-0.4-0.1-0.8-0.1-1.2c0-2.6,1.6-4.8,4.7-6.7s5-3.3,5.7-4.4c0.6-1.1,1.4-2.9,2.3-5.4
				c0.9-2.5,1.4-4.5,1.5-5.8c0-0.2-0.1-0.3-0.1-0.5c0-0.1,0-0.2,0-0.3c0-0.4-0.3-0.7-0.9-0.9c-1.5,1.5-3.2,2.3-4.9,2.3
				c-1.3,0-2.4-0.6-3-1.9c-0.4-0.8-0.6-1.6-0.6-2.4c0-1.6,0.6-3,1.8-4.3c1.2-1.3,2.4-2.1,3.6-2.4c1.2-0.3,2.1-0.5,2.8-0.5
				c0.7-0.1,1.5-0.1,2.4-0.1h1.1c0.3,0,0.6-0.2,0.8-0.5c0.3-0.5,0.6-1.2,1.1-2.1c0.5-1,1.2-2.4,2.1-4.2c1.8-3.1,4.1-5.8,7-8.1
				c2.9-2.2,6.4-3.4,10.7-3.4c1.6,0,3.2,0.2,4.9,0.5c1.7,0.4,3,1.1,3.9,2.2c0.9,1.1,1.3,2.4,1.3,3.8c0,0.6-0.2,1.5-0.6,2.8
				s-1.4,2.4-3.2,3.5c-1.7,1.1-3.7,1.6-5.8,1.6C299.3,120.2,298,119.9,296.7,119.5z"/>
			<path class="st6" d="M342.7,130.4c-1,0.6-1.4,1.1-1.4,1.6c0,0.3,0.3,0.7,0.9,1.4c0.6,0.7,1,1.5,1.3,2.5s0.4,2,0.4,3.3v2.3
				c0,0.6,0,1.3,0,1.9c0,0.6,0.1,1.2,0.3,1.9c0.2,0.7,0.8,1.7,2,3c1.2,1.3,1.8,2.7,1.8,4c0,0.6-0.2,1.6-0.6,3
				c-0.4,1.4-1.4,2.6-2.9,3.7c-1.5,1.1-3.3,1.7-5.2,1.7c-2.6,0-4.4-0.9-5.6-2.8c-1.2-1.9-1.8-4.2-1.8-7c0-0.5,0-1,0-1.2
				c0-0.3,0.1-0.9,0.2-1.8c0.5-2.3,1-4.6,1.5-7c0-1-0.3-2-0.8-3c-0.2-0.3-0.5-0.3-0.9,0c-0.4,0.3-0.7,0.5-0.8,0.8
				c-0.4,3.4-1.6,6.5-3.5,9.4c-1.9,2.9-4.3,4.3-7.1,4.3c-1.3,0-2.5-0.3-3.5-0.8c-1.1-0.5-1.8-1.2-2.1-2c-0.4-0.8-0.6-1.6-0.6-2.6
				c0-1.1,0.2-2.1,0.6-2.9c0.4-0.8,0.9-1.8,1.5-2.8c0.6-1,1.4-2.1,2.2-3.2c0.9-1.1,1.4-1.9,1.5-2.3c0.1-0.4,0.2-1.7,0.2-3.8
				c0-0.5,0-0.9,0-1.4c0-0.5,0-0.9,0-1.3c0-0.9,0.1-1.7,0.3-2.4c0.2-0.7,0.7-1.6,1.3-2.5c0.7-1,1.4-1.7,2.3-2.2
				c0.9-0.5,1.9-0.7,2.9-0.7c0.6,0,1.2,0.1,1.7,0.4s1,0.7,1.4,1.4c0.5,0.7,0.8,1.3,0.9,1.9c0.2,0.5,0.3,1.1,0.3,1.6
				c0,0.5,0,0.8-0.1,1.1c0.1,0,0.3,0.2,0.5,0.6c0.3,0.4,0.6,0.5,0.9,0.4c1.2-0.2,2.3-0.7,3.2-1.3c0.9-0.7,1.5-1.4,1.8-2.2
				c0.3-0.8,0.5-1.5,0.5-2c0-1.4-0.4-2.3-1.3-2.7c-0.8-0.4-1.6-0.6-2.2-0.7s-1.4-0.1-2.2-0.1c-0.9,0-2.4,0.1-4.5,0.3
				s-3.4,0.3-3.9,0.3c-1.6,0-2.9-0.3-3.7-0.9c-0.9-0.6-1.3-1.3-1.4-2.3c-0.1-1-0.2-1.7-0.2-2.2c0-3.3,1.4-5.7,4.3-7.2
				c2.9-1.5,6.4-2.3,10.6-2.3c3.2,0,6.2,0.4,8.8,1.2c2.6,0.8,4.6,2.3,5.9,4.5s2,4.6,2,7.3c0,0.4,0,0.8,0,1.3
				c-0.1,0.4-0.2,1.1-0.3,2.2c-0.1,1.1-1,2.5-2.5,4.3C346.2,128,344.5,129.4,342.7,130.4z"/>
			<path class="st6" d="M383.7,156.7c-2.2,2.4-4.8,4.3-7.8,5.6c-3,1.3-6.1,2-9.4,2c-3.1,0-6.1-0.6-9.1-1.8c-2.9-1.2-4.4-3.4-4.4-6.6
				c0-0.3,0.1-1,0.2-2.1c0.1-1.1,1-2.3,2.6-3.5c1.6-1.2,3.3-1.9,5.3-1.9c0.8,0,1.6,0.1,2.5,0.4c0.9,0.3,1.9,0.5,3,0.8
				c1.1,0.2,2.1,0.3,3.1,0.3c2.1,0,3.9-0.4,5.5-1.2c1.6-0.8,3-2.6,4.4-5.3c1.4-2.7,2.5-5.5,3.3-8.2c0.8-2.8,1.2-5.1,1.2-7.1
				c0-2.3-0.5-4.2-1.5-5.9c-1-1.7-2.2-2.8-3.5-3.2c-1.4-0.5-2.2-0.7-2.6-0.8c-0.4,0-0.9-0.1-1.5-0.1c-0.7,0-1.7,0.1-3.1,0.3
				c-1.4,0.2-2.4,0.3-3.1,0.3c-1.1,0-2.1-0.1-2.9-0.4c-0.8-0.3-1.6-0.8-2.4-1.7c-0.8-0.9-1.2-1.9-1.2-3.2c0-1.1,0.3-2.2,1-3.2
				c0.7-1.1,1.6-2,2.7-2.8c1.1-0.8,2.3-1.3,3.6-1.7c1.3-0.4,2.5-0.6,3.6-0.7c1.1-0.1,1.9-0.2,2.3-0.2c0.4,0,0.7,0,1,0
				c4.2,0,7.9,1,11.2,3c3.3,2,5.5,4.8,6.7,8.5c1.2,3.7,1.8,7.4,1.8,11c0,5.4-1.1,10.6-3.3,15.8C390.6,148,387.6,152.6,383.7,156.7z
				 M376,132.1c0.3,1.1,0.4,2.3,0.4,3.4c0,3.3-0.9,6.1-2.7,8.5c-1.8,2.4-4.1,3.6-6.9,3.6c-1.5,0-2.8-0.3-3.9-0.8s-1.9-1.2-2.3-2.1
				c-0.4-0.9-0.6-1.9-0.6-3c0-2.1,0.7-4,2-5.7c1.4-1.8,2.2-3.1,2.6-4.1c0.3-0.9,0.7-2.5,1-4.6c0.3-2.1,1.3-3.9,2.9-5.3
				c1.6-1.4,3.3-2,5.2-2c1,0,1.9,0.3,2.9,0.8c0.7,0.4,1.1,0.8,1.4,1.2c0.3,0.4,0.4,0.9,0.4,1.5c0,0.6-0.4,1.8-1.3,3.7
				c-0.8,1.9-1.3,3.2-1.3,4C375.9,131.4,375.9,131.7,376,132.1z"/>
			<path class="st6" d="M430.9,121.9c-0.9,0-2.3-0.6-4.2-1.9c-1.9-1.3-3.2-1.9-4-1.9c-1,0-1.8,0.7-2.4,2.1c-0.2,0.5-0.1,1.1,0.3,2
				c0.4,0.8,1.7,1.5,3.9,2c2.2,0.5,4.4,2,6.6,4.5c2.2,2.5,3.3,5.3,3.3,8.4c0,2.1-0.7,4.5-2,7.1c-1.3,2.6-3.7,4.9-7,6.9
				c-3.4,2-6.9,2.9-10.6,2.9c-2.5,0-4.8-0.5-6.9-1.4c-2.1-0.9-3.7-2.2-4.8-3.8c-1.1-1.6-1.7-2.9-1.7-3.9c0-0.7,0.2-1.5,0.5-2.3
				c0.4-0.8,0.9-1.7,1.6-2.6c0.7-0.9,1.7-1.7,2.8-2.4s2.4-1,3.7-1c0.3,0,0.8,0,1.3,0.1s1.6,0.8,3.3,2.1c1.7,1.3,3,2,3.9,2
				c1-0.1,1.9-0.5,2.6-1.1c0.7-0.7,1-1.4,1-2.2c0-0.4-0.2-0.9-0.6-1.7c-0.4-0.8-2.3-2.1-5.6-4c-3.3-1.9-5.4-3.7-6.3-5.4
				c-0.8-1.7-1.3-3.6-1.3-5.6c0-4.2,1.8-7.9,5.4-11c3.6-3.1,7.7-4.7,12.4-4.7c2.3,0,4.3,0.3,6,0.8c1.7,0.6,3,1.4,3.9,2.5
				c0.9,1.1,1.4,2.1,1.7,3c0.3,0.9,0.4,1.8,0.4,2.6c0,2.1-0.7,3.9-2.1,5.4S432.9,121.9,430.9,121.9z"/>
		</g>
		<g>
			<polygon class="st6" points="156.2,119.9 147.8,111.6 139.5,119.9 135.6,116 147.8,103.8 160.1,116 			"/>
		</g>
	</g>
</g>
<g id="Capa_2" class="st0">
	<rect x="-18.2" y="120.6" class="st11" width="531" height="56.9"/>
	<text transform="matrix(1 0 0 1 -18.2386 158.4934)" class="st1"><tspan x="0" y="0" class="st6 st12 st13">MOD </tspan><tspan x="181.2" y="0" class="st6 st12 st14"> </tspan><tspan x="185.4" y="0" class="st6 st12 st13">L CARDS</tspan></text>
	<g class="st1">
		<circle class="st9" cx="213.4" cy="15.1" r="12.9"/>
		<g>
			<path class="st9" d="M180.5,55.4L180.5,55.4c0-5.4,4.4-9.8,9.8-9.8h13.3c5.4,0,9.8-4.4,9.8-9.8v-1.1"/>
			<path class="st9" d="M246.4,55.4L246.4,55.4c0-5.4-4.4-9.8-9.8-9.8h-13.3c-5.4,0-9.8-4.4-9.8-9.8v-1.1"/>
		</g>
		<g>
			<polyline class="st10" points="247.7,-17.1 263.9,-17.1 263.9,73 247.7,73 			"/>
			<polyline class="st10" points="179.3,73 163,73 163,-17.1 179.3,-17.1 			"/>
		</g>
	</g>
	<polyline class="st15" points="138.4,129.8 150.7,117.6 163,129.8 	"/>
</g>
</svg>
