<?xml version="1.0" encoding="utf-8"?>
<!-- Generator: Adobe Illustrator 25.0.1, SVG Export Plug-In . SVG Version: 6.00 Build 0)  -->
<svg version="1.1" id="Capa_1" xmlns="http://www.w3.org/2000/svg" xmlns:xlink="http://www.w3.org/1999/xlink" x="0px" y="0px"
	 viewBox="0 0 471.2 181.2" style="enable-background:new 0 0 471.2 181.2;" xml:space="preserve">
<style type="text/css">
	.st0{display:none;}
	.st1{display:inline;}
	.st2{fill-rule:evenodd;clip-rule:evenodd;fill:#A2DEAF;}
	.st3{fill-rule:evenodd;clip-rule:evenodd;fill:#114E4E;}
	.st4{fill-rule:evenodd;clip-rule:evenodd;fill:#FFFFFF;}
	.st5{fill-rule:evenodd;clip-rule:evenodd;fill:#E17334;}
	.st6{fill:#9B59B6;}
	.st7{fill:none;stroke:#9B59B6;stroke-width:5;stroke-miterlimit:10;}
	.st8{fill:none;stroke:#1ABC9C;stroke-width:5;stroke-miterlimit:10;}
	.st9{fill:none;stroke:#9B59B6;stroke-width:5.5;stroke-miterlimit:10;}
	.st10{fill:none;stroke:#1ABC9C;stroke-width:5.5;stroke-miterlimit:10;}
	.st11{fill:none;}
	.st12{fill:#1ABC9C;}
</style>
<g id="Capa_1_2_" class="st0">
	<g id="Capa_1_1_" class="st1">
		<desc>Created with Sketch.</desc>
		<g id="Tablet_x2B_">
			<g id="_x30_0---App---Tablet_x2B_" transform="translate(-177.000000, -351.000000)">
				<g id="Group-4" transform="translate(175.000000, 348.000000)">
					<g id="Tarjetas-molonas">
						<g id="Group-2">
							
								<g id="Group" transform="translate(63.191223, 54.437060) rotate(-10.000000) translate(-63.191223, -54.437060) translate(7.318166, 11.294573)">
								<path id="Path" class="st2" d="M-27.3,83.4c2.9,0,5.3,1,7.3,3s3,4.4,3,7.3l0,62c0,2.9-1,5.3-3,7.3s-4.4,3-7.3,3l-89.5,0
									c-2.9,0-5.3-1-7.3-3s-3-4.4-3-7.3l0-62c0-2.9,1-5.3,3-7.3s4.4-3,7.3-3L-27.3,83.4z"/>
								<path id="Path-Copy" class="st3" d="M-28.4,81.8c2.9,0,5.3,1,7.3,3s3,4.4,3,7.3l0,62c0,2.9-1,5.3-3,7.3s-4.4,3-7.3,3
									l-89.5,0c-2.9,0-5.3-1-7.3-3s-3-4.4-3-7.3l0-62c0-2.9,1-5.3,3-7.3s4.4-3,7.3-3L-28.4,81.8z"/>
								<path id="Path_1_" class="st4" d="M-25,154.1l0-62c0-1-0.3-1.8-1-2.5c-0.6-0.6-1.5-1-2.5-1l-89.5,0c-1,0-1.8,0.3-2.5,1
									c-0.6,0.6-1,1.5-1,2.5l0,62c0,1,0.3,1.8,1,2.5c0.6,0.6,1.5,1,2.5,1l89.5,0c1,0,1.8-0.3,2.5-1C-25.3,155.9-25,155.1-25,154.1
									z"/>
								<path id="Combined-Shape" class="st5" d="M-56.8,136.9c-0.7,0-1.3-0.3-1.8-0.8s-0.8-1.1-0.8-1.8l0-1.7
									c0-0.7,0.3-1.3,0.8-1.8s1.1-0.8,1.8-0.8l22.4,0c0.7,0,1.3,0.3,1.8,0.8s0.8,1.1,0.8,1.8l0,1.7c0,0.7-0.3,1.3-0.8,1.8
									s-1.1,0.8-1.8,0.8L-56.8,136.9z M-56.8,123.1c-0.7,0-1.3-0.3-1.8-0.8s-0.8-1.1-0.8-1.8v-1.7c0-0.7,0.3-1.3,0.8-1.8
									c0.5-0.5,1.1-0.8,1.8-0.8l22.4,0c0.7,0,1.3,0.3,1.8,0.8s0.8,1.1,0.8,1.8v1.7c0,0.7-0.3,1.3-0.8,1.8s-1.1,0.8-1.8,0.8
									L-56.8,123.1z M-56.8,109.3c-0.7,0-1.3-0.3-1.8-0.8s-0.8-1.1-0.8-1.8V105c0-0.7,0.3-1.3,0.8-1.8s1.1-0.8,1.8-0.8h22.4
									c0.7,0,1.3,0.3,1.8,0.8s0.8,1.1,0.8,1.8v1.7c0,0.7-0.3,1.3-0.8,1.8s-1.1,0.8-1.8,0.8H-56.8z"/>
								<path id="Combined-Shape_1_" class="st2" d="M-77,123.5c3.7,1.1,6.6,3.4,8.6,6.7c1.4,2.6,2.2,5.2,2.2,8v3
									c0,2.6-0.9,4.8-2.8,6.7c-1.9,1.9-4.1,2.8-6.7,2.8H-105c-2.6,0-4.8-0.9-6.7-2.8c-1.9-1.9-2.8-4.1-2.8-6.7v-3
									c0-2.7,0.7-5.4,2.2-8c2-3.3,4.9-5.5,8.6-6.7c-2.6-3.2-3.9-6.7-3.9-10.8c0-4.7,1.7-8.8,5.1-12.2c3.4-3.4,7.4-5.1,12.2-5.1
									c4.7,0,8.8,1.7,12.2,5.1c3.4,3.4,5.1,7.4,5.1,12.2C-73.2,116.8-74.5,120.4-77,123.5z M-90.4,102.4c-2.9,0-5.3,1-7.3,3
									s-3,4.4-3,7.3c0,2.9,1,5.3,3,7.3s4.4,3,7.3,3s5.3-1,7.3-3s3-4.4,3-7.3s-1-5.3-3-7.3S-87.5,102.4-90.4,102.4z M-73.2,141.2
									v-3c0-1.9-0.6-3.5-1.7-5.1c-1.1-1.5-2.7-2.5-4.5-3.1l-4.5-1.3c-2,0.9-4.2,1.3-6.5,1.3s-4.4-0.4-6.5-1.3l-4.5,1.3
									c-1.9,0.6-3.4,1.6-4.5,3.1s-1.7,3.2-1.7,5.1v3c0,0.7,0.3,1.3,0.8,1.8s1.1,0.8,1.8,0.8h29.3c0.7,0,1.3-0.3,1.8-0.8
									C-73.4,142.5-73.2,141.9-73.2,141.2z"/>
							</g>
							<path id="Awesome" class="st2" d="M25.7,155.6c-1.4,0-2.6-0.1-3.7-0.3s-2-0.8-2.7-1.6s-1.2-2.2-1.2-4c0-2.5,0.8-5.9,2.3-10.2
								s3.5-8.5,6-12.8c-1.9,0.1-3.4,0.4-4.5,0.8c-1.1,0.5-1.8,1.2-2.2,2.1c0.2,0,0.3,0.2,0.5,0.6c0.2,0.4,0.3,0.8,0.3,1.2
								c0,0.7-0.3,1.2-0.9,1.6c-0.6,0.4-1.4,0.6-2.3,0.6c-1.1,0-1.9-0.3-2.5-0.8c-0.6-0.6-1-1.4-1-2.4c0-1.3,0.5-2.5,1.5-3.5
								c1-1.1,2.4-1.9,4.2-2.5s3.7-0.9,5.9-0.9c0.8,0,1.8,0.1,2.9,0.2c3.1-4.9,6.4-8.9,9.8-12c3.5-3.1,6.7-4.7,9.9-4.7
								c1.8,0,3.3,0.3,4.5,0.8l-8.9,41.6h-8.1l4.4-20.5c-1.4-0.6-2.7-1.1-3.8-1.4c-1.2-0.3-2.4-0.5-3.7-0.6
								c-2.2,4.6-3.9,9.4-5.3,14.2s-2.1,8.7-2.1,11.6C24.9,153.8,25.2,154.9,25.7,155.6z M43.7,110.7c-1.6,0.9-3.3,2.5-5.1,4.8
								c-1.8,2.4-3.5,5.2-5.1,8.6c2.7,0.5,5,1.2,6.9,2L43.7,110.7z M56.8,149.5c-1.8,0-3.3-0.6-4.4-1.7c-1.1-1.1-1.7-2.8-1.7-5.1
								c0-0.9,0.2-2.2,0.5-3.7l3.8-18.2h8.1L59,140c-0.1,0.5-0.2,0.9-0.2,1.4c0,1.7,0.6,2.5,1.7,2.5c1.1,0,2-0.4,2.7-1.3
								c0.8-0.9,1.4-2.1,1.8-3.6l3.8-18.2h8.1L72.8,140c-0.2,0.9-0.3,1.6-0.3,2c0,1.2,0.6,1.9,1.9,1.9c1.7,0,3.3-1.1,4.8-3.3
								s2.7-4.8,3.6-7.8s1.4-5.6,1.4-7.8c-0.1,0.2-0.3,0.3-0.7,0.4c-0.4,0.1-0.8,0.1-1.1,0.1c-0.6,0-1.1-0.3-1.5-0.9s-0.5-1.3-0.5-2
								c0-0.9,0.3-1.6,0.9-2.2s1.5-0.8,2.6-0.8c1.2,0,2.2,0.5,2.7,1.4c0.6,0.9,0.8,2.1,0.8,3.5c0,3.4-0.6,7-1.8,10.9
								c-1.2,3.9-3,7.2-5.4,9.9s-5.4,4.1-9,4.1c-1.8,0-3.4-0.4-4.5-1.2c-1.2-0.8-1.9-2-2.3-3.6C62.7,147.9,60,149.5,56.8,149.5z
								 M96.7,149.5c-2.8,0-5-0.7-6.5-2.2s-2.3-3.7-2.3-6.8c0-2.6,0.5-5.5,1.5-8.6s2.7-5.8,5-8.1c2.3-2.3,5.2-3.4,8.8-3.4
								c4.1,0,6.2,1.8,6.2,5.4c0,2.1-0.6,4.1-1.8,5.8c-1.2,1.8-2.8,3.2-4.8,4.3s-4.1,1.7-6.4,1.8c-0.1,1.1-0.1,1.9-0.1,2.3
								c0,1.8,0.3,3.1,1,3.8c0.6,0.7,1.7,1,3.1,1c2,0,3.8-0.5,5.2-1.4c1.5-0.9,3-2.4,4.8-4.3h1.9C108,146,102.9,149.5,96.7,149.5z
								 M96.8,135c1.4-0.1,2.7-0.6,4-1.5s2.3-2.1,3.1-3.5c0.8-1.4,1.2-2.9,1.2-4.4s-0.5-2.3-1.4-2.3c-1.4,0-2.7,1.2-4,3.6
								C98.3,129.3,97.4,132,96.8,135z M116.8,149.5c-1.8,0-3.3-0.3-4.6-1c-1.2-0.7-2.2-1.6-2.8-2.7c-0.6-1.1-0.9-2.3-0.9-3.5
								s0.3-2.3,0.9-3.3c0.6-0.9,1.3-1.6,2.1-2c1.5-2.6,2.8-5.3,3.8-8c1.1-2.7,2.1-5.6,3.1-8.7l8.4-1.1c0.2,4.8,0.5,10.1,1,15.7
								c0.2,2.3,0.3,3.9,0.3,4.9c0,0.9-0.1,1.6-0.2,2.2c1.8-1,3.1-2,4.1-2.8h2.4c-2.4,2.8-5.3,5.1-8.7,7.1c-1.1,1.2-2.4,2-4,2.6
								C120,149.2,118.4,149.5,116.8,149.5z M114.9,145c1.4,0,2.6-0.4,3.5-1.2s1.4-2.2,1.4-4c0-1.1-0.1-2.7-0.3-4.8
								c-0.4-4.3-0.6-7.2-0.7-8.7c-0.9,3-2.4,6.5-4.6,10.7c0.9,0.5,1.3,1.1,1.3,2c0,0.7-0.2,1.4-0.7,1.9c-0.5,0.6-1.1,0.8-1.8,0.8
								c-0.8,0-1.3-0.2-1.5-0.7c0,1.4,0.3,2.4,0.8,3C112.9,144.7,113.7,145,114.9,145z M140.2,149.4c-2.8,0-5-0.7-6.6-2.2
								c-1.6-1.4-2.4-3.7-2.4-6.8c0-2.6,0.5-5.4,1.6-8.5s2.8-5.8,5.1-8.1c2.3-2.3,5.3-3.4,8.8-3.4c4.8,0,7.2,3,7.2,9.1v0.1
								c0.1,0,0.3,0.1,0.6,0.1c1.2,0,2.7-0.3,4.3-1s3.1-1.5,4.4-2.4l0.5,1.5c-1.1,1.2-2.5,2.2-4.3,3s-3.7,1.4-5.7,1.7
								c-0.3,3.4-1.1,6.4-2.3,9s-2.8,4.5-4.8,5.9C144.6,148.7,142.5,149.4,140.2,149.4z M142.4,144.3c0.9,0,1.8-0.5,2.7-1.6
								c0.9-1,1.7-2.5,2.4-4.2c0.7-1.8,1.2-3.8,1.5-6c-1-0.2-1.5-1-1.5-2.4c0-1.5,0.6-2.6,1.8-3.1c-0.1-1.2-0.3-2.1-0.6-2.6
								s-0.8-0.7-1.6-0.7c-1.2,0-2.5,0.9-3.6,2.7c-1.2,1.8-2.1,4-2.8,6.5s-1.1,4.8-1.1,6.7c0,1.8,0.2,3,0.6,3.6
								C140.6,143.9,141.4,144.3,142.4,144.3z M191.2,149.5c-2.3,0-4-0.6-5.1-1.8s-1.6-2.7-1.6-4.6c0-0.8,0.1-1.7,0.3-2.7
								s0.4-2,0.6-2.9c0.2-0.9,0.3-1.5,0.4-1.8c0.3-1.3,0.6-2.6,0.8-3.9s0.4-2.3,0.4-3.1c0-1.9-0.7-2.9-2-2.9c-1,0-1.8,0.5-2.6,1.4
								c-0.8,1-1.4,2.2-1.8,3.8l-3.8,18.2h-8.1l4.1-19.5c0.1-0.5,0.2-0.9,0.2-1.4c0-1.7-0.6-2.5-1.7-2.5c-1.1,0-2,0.5-2.7,1.4
								c-0.8,1-1.4,2.2-1.8,3.8l-3.8,18.2h-8.1l6-28.3h8.1l-0.6,2.9c1.9-2.2,4.2-3.2,6.9-3.2c3.3,0,5.3,1.6,5.8,4.9
								c2.1-3.2,4.7-4.8,7.9-4.8c1.9,0,3.5,0.5,4.6,1.6s1.7,2.7,1.7,4.8c0,1.1-0.1,2.3-0.4,3.6c-0.3,1.3-0.6,3-1.1,4.9
								c-0.3,1.2-0.6,2.3-0.8,3.4c-0.2,1.1-0.4,2-0.4,2.6c0,0.8,0.2,1.3,0.5,1.8c0.3,0.4,0.9,0.6,1.8,0.6c1.1,0,2-0.4,2.7-1.2
								s1.4-2.1,2-3.8h2.4c-1.4,4.1-3,6.9-4.8,8.3C195,148.8,193.1,149.5,191.2,149.5z M207.3,149.5c-2.8,0-4.9-0.7-6.5-2.2
								c-1.5-1.5-2.3-3.7-2.3-6.8c0-2.6,0.5-5.5,1.5-8.6s2.7-5.8,5-8.1c2.3-2.3,5.2-3.4,8.8-3.4c4.1,0,6.2,1.8,6.2,5.4
								c0,2.1-0.6,4.1-1.8,5.8s-2.8,3.2-4.8,4.3s-4.1,1.7-6.4,1.8c-0.1,0.8-0.1,1.4-0.1,1.7c0,3.1,1.2,4.7,3.5,4.7
								c1.1,0,2.2-0.3,3.4-0.8c1.2-0.6,2.3-1.3,3.3-2.2C216.1,146.7,212.8,149.5,207.3,149.5z M207.4,135c1.4,0,2.8-0.5,4-1.4
								c1.3-0.9,2.3-2.1,3.1-3.5s1.2-2.9,1.2-4.4s-0.5-2.3-1.4-2.3c-1.3,0-2.6,1.2-3.9,3.6C209,129.3,208,132,207.4,135z"/>
							<path id="profile-cards" class="st2" d="M34.7,166.8h8.1l-0.9,4.2c1.9-1.6,4.1-2.4,6.6-2.4c2.1,0,3.8,0.7,5,2.1
								c1.2,1.4,1.9,3.7,1.9,6.8c0,3-0.4,6-1.3,9c-0.9,3-2.3,5.6-4.4,7.8c-2.1,2.1-4.8,3.2-8.2,3.2c-2.4,0-4-0.7-4.8-2l-2.9,13.8
								l-8.5,2L34.7,166.8z M39.8,192.6c1.8,0,3.3-0.8,4.5-2.5s2.1-3.7,2.6-6.1c0.5-2.4,0.8-4.6,0.8-6.6c0-3.1-0.9-4.7-2.8-4.7
								c-0.7,0-1.4,0.2-2.1,0.7s-1.3,1.2-1.8,2l-3.3,15.8C37.9,192.2,38.6,192.6,39.8,192.6z M60.7,168.9h8.1l-0.7,3.5
								c1.3-1.1,2.4-2,3.5-2.6c1-0.6,2.2-0.9,3.4-0.9c1.2,0,2.2,0.4,2.9,1.2c0.7,0.8,1,1.8,1,3c0,1.1-0.4,2.1-1.1,2.9
								s-1.7,1.2-3,1.2c-0.8,0-1.4-0.2-1.7-0.6c-0.3-0.4-0.5-1-0.7-1.7c-0.1-0.5-0.2-0.8-0.3-1.1s-0.3-0.3-0.6-0.3
								c-0.8,0-1.5,0.2-2,0.5s-1.3,0.9-2.1,1.7l-4.5,21.5h-8.1L60.7,168.9z M86.4,197.4c-2.8,0-5-0.7-6.6-2.2
								c-1.6-1.4-2.4-3.7-2.4-6.8c0-2.6,0.5-5.4,1.6-8.5s2.8-5.8,5.1-8.1c2.3-2.3,5.3-3.4,8.8-3.4c4.8,0,7.2,3,7.2,9.1v0.1
								c0.1,0,0.3,0.1,0.6,0.1c1.2,0,2.7-0.3,4.3-1s3.1-1.5,4.4-2.4l0.5,1.5c-1.1,1.2-2.5,2.2-4.3,3s-3.7,1.4-5.7,1.7
								c-0.3,3.4-1.1,6.4-2.3,9c-1.2,2.6-2.8,4.5-4.8,5.9C90.8,196.7,88.7,197.4,86.4,197.4z M88.6,192.4c0.9,0,1.8-0.5,2.7-1.6
								s1.7-2.5,2.4-4.2c0.7-1.8,1.2-3.8,1.5-6c-1-0.2-1.5-1-1.5-2.4c0-1.5,0.6-2.6,1.8-3.1c-0.1-1.2-0.3-2.1-0.6-2.6
								c-0.3-0.5-0.8-0.7-1.6-0.7c-1.2,0-2.5,0.9-3.6,2.7c-1.2,1.8-2.1,4-2.8,6.5c-0.7,2.5-1.1,4.8-1.1,6.7c0,1.8,0.2,3,0.6,3.6
								C86.8,192,87.5,192.4,88.6,192.4z M98.3,211.4c-2.1,0-3.8-0.6-5.1-1.7c-1.3-1.2-2-2.7-2-4.6c0-1.6,0.5-2.9,1.4-3.9
								s2-1.8,3.3-2.4c1.3-0.6,3-1.2,5.1-1.9l6.3-29.8c1-4.7,2.7-7.9,5.1-9.6s5.1-2.6,8.1-2.6c2.8,0,5.2,0.5,7.2,1.4
								c2,0.9,2.9,2.6,2.9,5.1c0,1.6-0.4,2.7-1.3,3.5c-0.9,0.8-1.9,1.1-3.2,1.1c-1,0-1.8-0.2-2.4-0.7s-1-1.3-1-2.3
								c0-0.7,0.2-1.4,0.5-1.9s0.8-0.8,1.4-0.8c0.3,0,0.4,0,0.5,0.1c0-0.8-0.3-1.3-0.9-1.7c-0.5-0.4-1.3-0.6-2.2-0.6
								c-1.7,0-3,0.6-4,1.8s-1.7,2.7-2,4.6l-1,4.6h4.5l-0.5,2.3h-4.5L108,202c-0.8,3.5-2.1,6-3.9,7.5
								C102.5,210.6,100.4,211.4,98.3,211.4z M123.7,197.6c-1.8,0-3.3-0.6-4.4-1.7c-1.1-1.1-1.7-2.8-1.7-5.1c0-0.9,0.2-2.2,0.5-3.7
								l3.8-18.2h8.1l-4.1,19.2c-0.2,0.6-0.2,1.2-0.2,1.8c0,0.8,0.2,1.3,0.5,1.6c0.4,0.3,1,0.5,1.8,0.5c1.1,0,2.1-0.5,3.1-1.4
								c0.9-0.9,1.6-2.1,2-3.6h2.4c-1.4,4.1-3.2,6.8-5.4,8.3C128,196.8,125.8,197.6,123.7,197.6z M96.7,206.3c0.6,0,1.3-0.4,1.9-1.1
								c0.6-0.7,1.1-1.8,1.4-3.3l0.7-3.3c-1.9,0.6-3.5,1.4-4.6,2.3c-1.1,0.9-1.7,2-1.7,3.1c0,0.8,0.3,1.4,0.8,1.8
								C95.7,206.2,96.2,206.3,96.7,206.3z M138.8,197.6c-1.8,0-3.3-0.6-4.4-1.7c-1.1-1.1-1.7-2.8-1.7-5.1c0-0.9,0.2-2.2,0.5-3.7
								l6.1-28.3l8.4-1.1l-6.5,30.6c-0.2,0.6-0.2,1.2-0.2,1.8c0,0.8,0.2,1.3,0.5,1.6c0.4,0.3,1,0.5,1.8,0.5c1.1,0,2.1-0.5,3.1-1.4
								c0.9-0.9,1.6-2.1,2-3.6h2.4c-1.4,4.1-3.2,6.8-5.4,8.3C143.1,196.8,140.9,197.6,138.8,197.6z M156.3,197.6
								c-2.8,0-4.9-0.7-6.5-2.2c-1.5-1.5-2.3-3.7-2.3-6.8c0-2.6,0.5-5.5,1.5-8.6s2.7-5.8,5-8.1s5.2-3.4,8.8-3.4
								c4.1,0,6.2,1.8,6.2,5.4c0,2.1-0.6,4.1-1.8,5.8c-1.2,1.8-2.8,3.2-4.8,4.3s-4.1,1.7-6.4,1.8c-0.1,0.8-0.1,1.4-0.1,1.7
								c0,3.1,1.2,4.7,3.5,4.7c1.1,0,2.2-0.3,3.4-0.8c1.2-0.6,2.3-1.3,3.3-2.2C165,194.8,161.8,197.6,156.3,197.6z M156.4,183.1
								c1.4,0,2.8-0.5,4-1.4s2.3-2.1,3.1-3.5s1.2-2.9,1.2-4.4s-0.5-2.3-1.4-2.3c-1.3,0-2.6,1.2-3.9,3.6
								C158,177.4,157,180.1,156.4,183.1z M171.1,180.2h11.3l-1,4.5H170L171.1,180.2z M193.5,197.6c-2.8,0-5-0.7-6.5-2.2
								s-2.3-3.7-2.3-6.8c0-2.6,0.5-5.5,1.6-8.6c1-3.1,2.7-5.8,5-8.1s5.2-3.4,8.7-3.4c2.3,0,3.9,0.5,4.8,1.5c1,1,1.4,2.2,1.4,3.7
								c0,1.3-0.3,2.3-0.8,3.1c-0.6,0.7-1.3,1.1-2.2,1.1c-0.6,0-1.3-0.2-2-0.7c0.5-1.2,0.7-2.4,0.7-3.3c0-0.7-0.1-1.3-0.4-1.7
								c-0.3-0.4-0.7-0.6-1.2-0.6c-1.1,0-2.3,0.9-3.4,2.8c-1.1,1.8-2.1,4.1-2.8,6.7s-1.1,5-1.1,7.1c0,1.8,0.3,3.1,1,3.8s1.7,1,3.1,1
								c2,0,3.8-0.5,5.2-1.4c1.5-0.9,3-2.4,4.8-4.3h1.9C204.9,194.1,199.7,197.6,193.5,197.6z M213.9,197.6c-2.2,0-3.9-0.7-5.4-2.2
								s-2.2-3.8-2.2-6.9c0-2.8,0.6-5.7,1.7-8.8c1.1-3.1,2.8-5.7,5-7.8s4.8-3.2,7.9-3.2c1.5,0,2.7,0.3,3.5,0.8s1.1,1.2,1.1,2.1v0.4
								l0.6-3h8.1l-4.1,19.2c-0.2,0.6-0.2,1.2-0.2,1.8c0,1.6,0.8,2.4,2.3,2.4c1.1,0,2-0.5,2.7-1.5c0.8-1,1.4-2.3,1.8-3.8h2.4
								c-1.4,4.1-3.1,6.8-5.2,8.3s-4.1,2.2-6.2,2.2c-1.6,0-2.9-0.4-3.8-1.3c-1-0.9-1.5-2.2-1.7-3.9c-1.1,1.5-2.3,2.8-3.6,3.8
								C217.3,197.1,215.8,197.6,213.9,197.6z M217.6,192.1c0.9,0,1.9-0.4,2.8-1.3s1.6-2.1,1.9-3.6l2.7-12.8c0-0.5-0.2-1-0.6-1.4
								c-0.4-0.5-1-0.7-1.8-0.7c-1.5,0-2.9,0.9-4.1,2.6c-1.2,1.8-2.2,3.9-2.8,6.3s-1,4.6-1,6.5s0.3,3.1,0.8,3.6
								C216.1,191.8,216.8,192.1,217.6,192.1z M240.7,168.9h8.1l-0.7,3.5c1.3-1.1,2.4-2,3.5-2.6c1-0.6,2.2-0.9,3.4-0.9
								c1.2,0,2.2,0.4,2.9,1.2c0.7,0.8,1,1.8,1,3c0,1.1-0.4,2.1-1.1,2.9c-0.7,0.8-1.7,1.2-3,1.2c-0.8,0-1.4-0.2-1.7-0.6
								c-0.3-0.4-0.5-1-0.7-1.7c-0.1-0.5-0.2-0.8-0.3-1.1s-0.3-0.3-0.6-0.3c-0.8,0-1.5,0.2-2,0.5s-1.3,0.9-2.1,1.7l-4.5,21.5h-8.1
								L240.7,168.9z M264.9,197.6c-2.2,0-3.9-0.7-5.4-2.2c-1.4-1.5-2.2-3.8-2.2-6.9c0-2.8,0.6-5.7,1.7-8.8s2.8-5.7,5-7.8
								s4.8-3.2,7.9-3.2c1.5,0,2.7,0.3,3.5,0.8s1.1,1.2,1.1,2.1v0.2l2.8-13l8.4-1.1l-6.5,30.6c-0.2,0.6-0.2,1.2-0.2,1.8
								c0,0.8,0.2,1.3,0.5,1.6c0.4,0.3,1,0.5,1.8,0.5c1.1,0,2-0.5,2.7-1.4c0.8-0.9,1.4-2.1,1.8-3.6h2.4c-2.3,6.8-6.1,10.1-11.4,10.1
								c-1.5,0-2.8-0.4-3.8-1.2s-1.6-2-1.8-3.6c-1,1.5-2.2,2.8-3.5,3.7C268.4,197.1,266.8,197.6,264.9,197.6z M268.6,192.1
								c0.9,0,1.8-0.4,2.7-1.2s1.6-2,1.9-3.5v-0.3l2.8-13c-0.3-1.3-1.1-2-2.3-2c-1.5,0-2.9,0.9-4.1,2.6c-1.2,1.8-2.2,3.9-2.8,6.3
								c-0.7,2.5-1,4.6-1,6.5s0.3,3.1,0.8,3.6C267.2,191.8,267.8,192.1,268.6,192.1z M294.3,197.6c-1.8,0-3.3-0.3-4.6-1
								s-2.2-1.6-2.8-2.7c-0.6-1.1-0.9-2.3-0.9-3.5s0.3-2.3,0.9-3.3c0.6-0.9,1.3-1.6,2.1-2c1.5-2.6,2.8-5.3,3.8-8
								c1.1-2.7,2.1-5.6,3.1-8.7l8.4-1.1c0.2,4.8,0.5,10.1,1,15.7c0.2,2.3,0.3,3.9,0.3,4.9c0,2.3-0.6,4.2-1.8,5.7
								c-1.2,1.5-2.6,2.5-4.3,3.2S296.1,197.6,294.3,197.6z M292.5,193.1c1.4,0,2.6-0.4,3.5-1.2s1.4-2.2,1.4-4
								c0-1.1-0.1-2.7-0.3-4.8c-0.4-4.3-0.6-7.2-0.7-8.7c-0.9,3-2.4,6.5-4.6,10.7c0.9,0.5,1.3,1.1,1.3,2c0,0.7-0.2,1.4-0.7,1.9
								c-0.5,0.6-1.1,0.8-1.8,0.8c-0.8,0-1.3-0.2-1.5-0.7c0,1.4,0.3,2.4,0.8,3S291.3,193.1,292.5,193.1z"/>
							<path id="Awesome_1_" class="st3" d="M24.3,154.2c-1.4,0-2.6-0.1-3.7-0.3s-2-0.8-2.7-1.6s-1.2-2.2-1.2-4
								c0-2.5,0.8-5.9,2.3-10.2s3.5-8.5,6-12.8c-1.9,0.1-3.4,0.4-4.5,0.8s-1.8,1.2-2.2,2.1c0.2,0,0.3,0.2,0.5,0.6
								c0.2,0.4,0.3,0.8,0.3,1.2c0,0.7-0.3,1.2-0.9,1.6c-0.6,0.4-1.4,0.6-2.3,0.6c-1.1,0-1.9-0.3-2.5-0.8c-0.6-0.6-1-1.4-1-2.4
								c0-1.3,0.5-2.5,1.5-3.5c1-1.1,2.4-1.9,4.2-2.5s3.7-0.9,5.9-0.9c0.8,0,1.8,0.1,2.9,0.2c3.1-4.9,6.4-8.9,9.8-12
								c3.4-3.1,6.7-4.7,9.9-4.7c1.8,0,3.3,0.3,4.5,0.8L42.2,148h-8.1l4.4-20.5c-1.4-0.6-2.7-1.1-3.8-1.4c-1.2-0.3-2.4-0.5-3.7-0.6
								c-2.2,4.6-3.9,9.4-5.3,14.2s-2.1,8.7-2.1,11.6C23.5,152.4,23.8,153.5,24.3,154.2z M42.2,109.3c-1.6,0.9-3.3,2.5-5.1,4.8
								c-1.8,2.4-3.5,5.2-5.1,8.6c2.7,0.5,5,1.2,6.9,2L42.2,109.3z M55.4,148c-1.8,0-3.3-0.6-4.4-1.7c-1.1-1.1-1.7-2.8-1.7-5.1
								c0-0.9,0.2-2.2,0.5-3.7l3.8-18.2h8.1l-4.1,19.2c-0.1,0.5-0.2,0.9-0.2,1.4c0,1.7,0.6,2.5,1.7,2.5c1.1,0,2-0.4,2.7-1.3
								c0.7-0.9,1.4-2.1,1.8-3.6l3.8-18.2h8.1l-4.1,19.2c-0.2,0.9-0.3,1.6-0.3,2c0,1.2,0.6,1.9,1.9,1.9c1.7,0,3.3-1.1,4.8-3.3
								s2.7-4.8,3.6-7.8s1.4-5.6,1.4-7.8c-0.1,0.2-0.3,0.3-0.7,0.4c-0.4,0.1-0.8,0.1-1.1,0.1c-0.6,0-1.1-0.3-1.5-0.9s-0.5-1.3-0.5-2
								c0-0.9,0.3-1.6,0.9-2.2s1.5-0.8,2.6-0.8c1.2,0,2.2,0.5,2.7,1.4c0.6,0.9,0.8,2.1,0.8,3.5c0,3.4-0.6,7-1.8,10.9
								c-1.2,3.9-3,7.2-5.4,9.9s-5.4,4.1-9,4.1c-1.8,0-3.4-0.4-4.5-1.2c-1.2-0.8-1.9-2-2.3-3.6C61.3,146.5,58.6,148,55.4,148z
								 M95.3,148c-2.8,0-5-0.7-6.5-2.2s-2.3-3.7-2.3-6.8c0-2.6,0.5-5.5,1.5-8.6c1-3.1,2.7-5.8,5-8.1c2.3-2.3,5.2-3.4,8.8-3.4
								c4.1,0,6.2,1.8,6.2,5.4c0,2.1-0.6,4.1-1.8,5.8c-1.2,1.8-2.8,3.2-4.8,4.3s-4.1,1.7-6.4,1.8c-0.1,1.1-0.1,1.9-0.1,2.3
								c0,1.8,0.3,3.1,1,3.8c0.6,0.7,1.7,1,3.1,1c2,0,3.8-0.5,5.2-1.4c1.4-0.9,3-2.4,4.8-4.3h1.9C106.6,144.6,101.4,148,95.3,148z
								 M95.4,133.6c1.4-0.1,2.7-0.6,4-1.5s2.3-2.1,3.1-3.5c0.8-1.4,1.2-2.9,1.2-4.4s-0.5-2.3-1.4-2.3c-1.4,0-2.7,1.2-4,3.6
								C96.9,127.8,95.9,130.5,95.4,133.6z M115.3,148c-1.8,0-3.3-0.3-4.6-1c-1.2-0.7-2.2-1.6-2.8-2.7c-0.6-1.1-0.9-2.3-0.9-3.5
								s0.3-2.3,0.9-3.3s1.3-1.6,2.1-2c1.5-2.6,2.8-5.3,3.8-8c1.1-2.7,2.1-5.6,3.1-8.7l8.4-1.1c0.2,4.8,0.5,10.1,1,15.7
								c0.2,2.3,0.3,3.9,0.3,4.9c0,0.9-0.1,1.6-0.2,2.2c1.8-1,3.1-2,4.1-2.8h2.4c-2.4,2.8-5.3,5.1-8.7,7.1c-1.1,1.2-2.4,2-4,2.6
								C118.6,148,117,148,115.3,148z M113.5,143.6c1.4,0,2.6-0.4,3.5-1.2s1.4-2.2,1.4-4c0-1.1-0.1-2.7-0.3-4.8
								c-0.4-4.3-0.6-7.2-0.7-8.7c-0.9,3-2.4,6.5-4.6,10.7c0.9,0.5,1.3,1.1,1.3,2c0,0.7-0.2,1.4-0.7,1.9c-0.5,0.6-1.1,0.8-1.8,0.8
								c-0.8,0-1.3-0.2-1.5-0.7c0,1.4,0.3,2.4,0.8,3C111.4,143.3,112.3,143.6,113.5,143.6z M138.8,147.9c-2.8,0-5-0.7-6.6-2.2
								c-1.6-1.4-2.4-3.7-2.4-6.8c0-2.6,0.5-5.4,1.6-8.5c1.1-3.1,2.8-5.8,5.1-8.1c2.3-2.3,5.3-3.4,8.8-3.4c4.8,0,7.2,3,7.2,9.1v0.1
								c0.1,0,0.3,0.1,0.6,0.1c1.2,0,2.7-0.3,4.3-1s3.1-1.5,4.4-2.4l0.5,1.5c-1.1,1.2-2.5,2.2-4.3,3s-3.7,1.4-5.7,1.7
								c-0.3,3.4-1.1,6.4-2.3,9s-2.8,4.5-4.8,5.9C143.2,147.2,141.1,147.9,138.8,147.9z M141,142.8c0.9,0,1.8-0.5,2.7-1.6
								c0.9-1,1.7-2.5,2.4-4.2c0.7-1.8,1.2-3.8,1.5-6c-1-0.2-1.5-1-1.5-2.4c0-1.5,0.6-2.6,1.8-3.1c-0.1-1.2-0.3-2.1-0.6-2.6
								s-0.8-0.7-1.6-0.7c-1.2,0-2.5,0.9-3.6,2.7c-1.2,1.8-2.1,4-2.8,6.5s-1.1,4.8-1.1,6.7c0,1.8,0.2,3,0.6,3.6
								C139.2,142.5,139.9,142.8,141,142.8z M189.7,148c-2.3,0-4-0.6-5.1-1.8s-1.6-2.7-1.6-4.6c0-0.8,0.1-1.7,0.3-2.7s0.4-2,0.6-2.9
								c0.2-0.9,0.3-1.5,0.4-1.8c0.3-1.3,0.6-2.6,0.8-3.9s0.4-2.3,0.4-3.1c0-1.9-0.7-2.9-2-2.9c-1,0-1.8,0.5-2.6,1.4
								c-0.8,1-1.4,2.2-1.8,3.8l-3.8,18.2h-8.1l4.1-19.5c0.1-0.5,0.2-0.9,0.2-1.4c0-1.7-0.6-2.5-1.7-2.5c-1.1,0-2,0.5-2.7,1.4
								c-0.8,1-1.4,2.2-1.8,3.8l-3.8,18.2h-8.1l6-28.3h8.1l-0.6,2.9c1.9-2.2,4.2-3.2,6.9-3.2c3.3,0,5.3,1.6,5.8,4.9
								c2.1-3.2,4.7-4.8,7.9-4.8c1.9,0,3.5,0.5,4.6,1.6s1.7,2.7,1.7,4.8c0,1.1-0.1,2.3-0.4,3.6c-0.3,1.3-0.6,3-1.1,4.9
								c-0.3,1.2-0.6,2.3-0.8,3.4c-0.2,1.1-0.4,2-0.4,2.6c0,0.8,0.2,1.3,0.5,1.8s0.9,0.6,1.8,0.6c1.1,0,2-0.4,2.7-1.2s1.4-2.1,2-3.8
								h2.4c-1.4,4.1-3,6.9-4.8,8.3C193.9,147.2,191.7,148,189.7,148z M205.9,148c-2.8,0-4.9-0.7-6.5-2.2c-1.5-1.5-2.3-3.7-2.3-6.8
								c0-2.6,0.5-5.5,1.5-8.6c1-3.1,2.7-5.8,5-8.1c2.3-2.3,5.2-3.4,8.8-3.4c4.1,0,6.2,1.8,6.2,5.4c0,2.1-0.6,4.1-1.8,5.8
								c-1.2,1.8-2.8,3.2-4.8,4.3s-4.1,1.7-6.4,1.8c-0.1,0.8-0.1,1.4-0.1,1.7c0,3.1,1.2,4.7,3.5,4.7c1.1,0,2.2-0.3,3.4-0.8
								c1.2-0.6,2.3-1.3,3.3-2.2C214.6,145.3,211.4,148,205.9,148z M206,133.6c1.4,0,2.8-0.5,4-1.4c1.3-0.9,2.3-2.1,3.1-3.5
								c0.8-1.4,1.2-2.9,1.2-4.4s-0.5-2.3-1.4-2.3c-1.3,0-2.6,1.2-3.9,3.6C207.7,128,206.6,130.6,206,133.6z"/>
							<path id="profile-cards_1_" class="st3" d="M33.2,165.4h8.2l-0.9,4.2c1.9-1.6,4.1-2.4,6.6-2.4c2.1,0,3.8,0.7,5,2.1
								c1.2,1.4,1.9,3.7,1.9,6.8c0,3-0.4,6-1.3,9c-0.9,3-2.3,5.6-4.4,7.8c-2.1,2.1-4.8,3.2-8.2,3.2c-2.4,0-4-0.7-4.8-2l-2.9,13.8
								l-8.5,2L33.2,165.4z M38.3,191.2c1.8,0,3.3-0.8,4.5-2.5s2.1-3.7,2.6-6.1s0.8-4.6,0.8-6.6c0-3.1-0.9-4.7-2.8-4.7
								c-0.7,0-1.4,0.2-2.1,0.7s-1.3,1.2-1.8,2l-3.3,15.8C36.5,190.8,37.2,191.2,38.3,191.2z M59.3,167.5h8.1l-0.7,3.5
								c1.3-1.1,2.4-2,3.5-2.6c1-0.6,2.2-0.9,3.4-0.9c1.2,0,2.2,0.4,2.9,1.2c0.7,0.8,1,1.8,1,3c0,1.1-0.4,2.1-1.1,2.9
								s-1.7,1.2-3,1.2c-0.8,0-1.4-0.2-1.7-0.6c-0.3-0.4-0.5-1-0.7-1.7c-0.1-0.5-0.2-0.8-0.3-1.1s-0.3-0.3-0.6-0.3
								c-0.8,0-1.5,0.2-2,0.5s-1.3,0.9-2.1,1.7l-4.6,21.5h-8.1L59.3,167.5z M85,196c-2.8,0-5-0.7-6.6-2.2c-1.6-1.4-2.4-3.7-2.4-6.8
								c0-2.6,0.5-5.4,1.6-8.5s2.8-5.8,5.1-8.1s5.3-3.4,8.8-3.4c4.8,0,7.2,3,7.2,9.1v0.1c0.1,0,0.3,0.1,0.6,0.1c1.2,0,2.7-0.3,4.3-1
								c1.6-0.7,3.1-1.5,4.4-2.4l0.5,1.5c-1.1,1.2-2.5,2.2-4.3,3s-3.7,1.4-5.7,1.7c-0.3,3.4-1.1,6.4-2.3,9c-1.2,2.6-2.8,4.5-4.8,5.9
								C89.4,195.3,87.3,196,85,196z M87.2,190.9c0.9,0,1.8-0.5,2.7-1.6s1.7-2.5,2.4-4.2s1.2-3.8,1.5-6c-1-0.2-1.5-1-1.5-2.4
								c0-1.5,0.6-2.6,1.8-3.1c-0.1-1.2-0.3-2.1-0.6-2.6c-0.3-0.5-0.8-0.7-1.6-0.7c-1.2,0-2.5,0.9-3.6,2.7c-1.2,1.8-2.1,4-2.8,6.5
								s-1.1,4.8-1.1,6.7c0,1.8,0.2,3,0.6,3.6C85.4,190.6,86.1,190.9,87.2,190.9z M96.8,209.9c-2.1,0-3.8-0.6-5.1-1.7
								c-1.3-1.2-2-2.7-2-4.6c0-1.6,0.5-2.9,1.4-3.9s2-1.8,3.3-2.4c1.3-0.6,3-1.2,5.1-1.9l6.3-29.8c1-4.7,2.7-7.9,5.1-9.6
								c2.4-1.7,5.1-2.6,8.1-2.6c2.8,0,5.2,0.5,7.2,1.4c2,0.9,2.9,2.6,2.9,5.1c0,1.6-0.4,2.7-1.3,3.5c-0.9,0.8-1.9,1.1-3.2,1.1
								c-1,0-1.8-0.2-2.4-0.7s-1-1.3-1-2.3c0-0.7,0.2-1.4,0.5-1.9c0.4-0.6,0.8-0.8,1.4-0.8c0.3,0,0.4,0,0.5,0.1
								c0-0.8-0.3-1.3-0.9-1.7c-0.5-0.4-1.3-0.6-2.2-0.6c-1.7,0-3,0.6-4,1.8s-1.7,2.7-2,4.6l-1,4.6h4.5l-0.5,2.3H113l-6.5,30.6
								c-0.8,3.5-2.1,6-3.9,7.5C101,209.2,99,209.9,96.8,209.9z M122.2,196.1c-1.8,0-3.3-0.6-4.4-1.7c-1.1-1.1-1.7-2.8-1.7-5.1
								c0-0.9,0.2-2.2,0.5-3.7l3.8-18.2h8.1l-4.1,19.2c-0.2,0.6-0.2,1.2-0.2,1.8c0,0.8,0.2,1.3,0.5,1.6c0.4,0.3,1,0.5,1.8,0.5
								c1.1,0,2.1-0.5,3.1-1.4s1.6-2.1,2-3.6h2.4c-1.4,4.1-3.2,6.8-5.4,8.3C126.6,195.4,124.4,196.1,122.2,196.1z M95.3,204.9
								c0.6,0,1.3-0.4,1.9-1.1s1.1-1.8,1.4-3.3l0.7-3.3c-1.9,0.6-3.5,1.4-4.6,2.3s-1.7,2-1.7,3.1c0,0.8,0.3,1.4,0.8,1.8
								C94.3,204.7,94.8,204.9,95.3,204.9z M137.4,196.1c-1.8,0-3.3-0.6-4.4-1.7c-1.1-1.1-1.7-2.8-1.7-5.1c0-0.9,0.2-2.2,0.5-3.7
								l6.1-28.3l8.4-1.1l-6.5,30.6c-0.2,0.6-0.2,1.2-0.2,1.8c0,0.8,0.2,1.3,0.5,1.6c0.4,0.3,1,0.5,1.8,0.5c1.1,0,2.1-0.5,3.1-1.4
								c0.9-0.9,1.6-2.1,2-3.6h2.4c-1.4,4.1-3.2,6.8-5.4,8.3C141.7,195.4,139.5,196.1,137.4,196.1z M154.8,196.1
								c-2.8,0-4.9-0.7-6.5-2.2c-1.5-1.5-2.3-3.7-2.3-6.8c0-2.6,0.5-5.5,1.5-8.6s2.7-5.8,5-8.1s5.2-3.4,8.8-3.4
								c4.1,0,6.2,1.8,6.2,5.4c0,2.1-0.6,4.1-1.8,5.8s-2.8,3.2-4.8,4.3s-4.1,1.7-6.4,1.8c-0.1,0.8-0.1,1.4-0.1,1.7
								c0,3.1,1.2,4.7,3.5,4.7c1.1,0,2.2-0.3,3.4-0.8c1.2-0.6,2.3-1.3,3.3-2.2C163.6,193.4,160.3,196.1,154.8,196.1z M154.9,181.7
								c1.4,0,2.8-0.5,4-1.4c1.3-0.9,2.3-2.1,3.1-3.5s1.2-2.9,1.2-4.4s-0.5-2.3-1.4-2.3c-1.3,0-2.6,1.2-3.9,3.6
								S155.6,178.7,154.9,181.7z M169.7,178.8H181l-1,4.5h-11.4L169.7,178.8z M192.1,196.1c-2.8,0-5-0.7-6.5-2.2s-2.3-3.7-2.3-6.8
								c0-2.6,0.5-5.5,1.6-8.6c1-3.1,2.7-5.8,5-8.1s5.2-3.4,8.7-3.4c2.3,0,3.9,0.5,4.8,1.5c1,1,1.4,2.2,1.4,3.7
								c0,1.3-0.3,2.3-0.8,3.1s-1.3,1.1-2.2,1.1c-0.6,0-1.3-0.2-2-0.7c0.5-1.2,0.7-2.4,0.7-3.3c0-0.7-0.1-1.3-0.4-1.7
								c-0.3-0.4-0.7-0.6-1.2-0.6c-1.1,0-2.3,0.9-3.4,2.8c-1.1,1.8-2.1,4.1-2.8,6.7c-0.7,2.6-1.1,5-1.1,7.1c0,1.8,0.3,3.1,1,3.8
								c0.6,0.7,1.7,1,3.1,1c2,0,3.8-0.5,5.2-1.4s3-2.4,4.8-4.3h1.9C203.4,192.7,198.3,196.1,192.1,196.1z M212.5,196.1
								c-2.2,0-3.9-0.7-5.4-2.2c-1.4-1.5-2.2-3.8-2.2-6.9c0-2.8,0.6-5.7,1.7-8.8c1.1-3.1,2.8-5.7,5-7.8s4.8-3.2,7.9-3.2
								c1.5,0,2.7,0.3,3.5,0.8s1.1,1.2,1.1,2.1v0.4l0.6-3h8.1l-4.1,19.2c-0.2,0.6-0.2,1.2-0.2,1.8c0,1.6,0.8,2.4,2.3,2.4
								c1.1,0,2-0.5,2.7-1.5c0.8-1,1.4-2.3,1.8-3.8h2.4c-1.4,4.1-3.1,6.8-5.2,8.3c-2.1,1.5-4.1,2.2-6.2,2.2c-1.6,0-2.9-0.4-3.8-1.3
								s-1.5-2.2-1.7-3.9c-1.1,1.5-2.3,2.8-3.6,3.8C215.9,195.7,214.3,196.1,212.5,196.1z M216.2,190.7c0.9,0,1.9-0.4,2.8-1.3
								c0.9-0.9,1.6-2.1,1.9-3.6l2.7-12.8c0-0.5-0.2-1-0.6-1.4c-0.4-0.5-1-0.7-1.8-0.7c-1.5,0-2.9,0.9-4.1,2.6
								c-1.2,1.8-2.2,3.9-2.8,6.3c-0.7,2.5-1,4.6-1,6.5s0.3,3.1,0.8,3.6C214.7,190.4,215.4,190.7,216.2,190.7z M239.3,167.5h8.1
								l-0.7,3.5c1.3-1.1,2.4-2,3.5-2.6c1-0.6,2.2-0.9,3.4-0.9s2.2,0.4,2.9,1.2c0.7,0.8,1,1.8,1,3c0,1.1-0.4,2.1-1.1,2.9
								c-0.7,0.8-1.7,1.2-3,1.2c-0.8,0-1.4-0.2-1.7-0.6c-0.3-0.4-0.5-1-0.7-1.7c-0.1-0.5-0.2-0.8-0.3-1.1s-0.3-0.3-0.6-0.3
								c-0.8,0-1.5,0.2-2,0.5s-1.3,0.9-2.1,1.7l-4.5,21.5h-8.1L239.3,167.5z M263.5,196.1c-2.2,0-3.9-0.7-5.4-2.2
								c-1.4-1.5-2.2-3.8-2.2-6.9c0-2.8,0.6-5.7,1.7-8.8s2.8-5.7,5-7.8s4.8-3.2,7.9-3.2c1.5,0,2.7,0.3,3.5,0.8s1.1,1.2,1.1,2.1v0.2
								l2.8-13l8.4-1.1l-6.5,30.6c-0.2,0.6-0.2,1.2-0.2,1.8c0,0.8,0.2,1.3,0.5,1.6c0.4,0.3,1,0.5,1.8,0.5c1.1,0,2-0.5,2.7-1.4
								c0.8-0.9,1.4-2.1,1.8-3.6h2.4c-2.3,6.8-6.1,10.1-11.4,10.1c-1.5,0-2.8-0.4-3.8-1.2s-1.6-2-1.8-3.6c-1,1.5-2.2,2.8-3.5,3.7
								C267,195.6,265.4,196.1,263.5,196.1z M267.2,190.7c0.9,0,1.8-0.4,2.7-1.2s1.6-2,1.9-3.5v-0.3l2.8-13c-0.3-1.3-1.1-2-2.3-2
								c-1.5,0-2.9,0.9-4.1,2.6c-1.2,1.8-2.2,3.9-2.8,6.3c-0.7,2.5-1,4.6-1,6.5s0.3,3.1,0.8,3.6
								C265.7,190.4,266.4,190.7,267.2,190.7z M292.9,196.1c-1.8,0-3.3-0.3-4.6-1c-1.2-0.7-2.2-1.6-2.8-2.7
								c-0.6-1.1-0.9-2.3-0.9-3.5s0.3-2.3,0.9-3.3c0.6-0.9,1.3-1.6,2.1-2c1.5-2.6,2.8-5.3,3.8-8c1.1-2.7,2.1-5.6,3.1-8.7l8.4-1.1
								c0.2,4.8,0.5,10.1,1,15.7c0.2,2.3,0.3,3.9,0.3,4.9c0,2.3-0.6,4.2-1.8,5.7c-1.2,1.5-2.6,2.5-4.3,3.2
								C296.4,195.8,294.7,196.1,292.9,196.1z M291.1,191.7c1.4,0,2.6-0.4,3.5-1.2s1.4-2.2,1.4-4c0-1.1-0.1-2.7-0.3-4.8
								c-0.4-4.3-0.6-7.2-0.7-8.7c-0.9,3-2.4,6.5-4.6,10.7c0.9,0.5,1.3,1.1,1.3,2c0,0.7-0.2,1.4-0.7,1.9c-0.5,0.6-1.1,0.8-1.8,0.8
								c-0.8,0-1.3-0.2-1.5-0.7c0,1.4,0.3,2.4,0.8,3C289,191.4,289.9,191.7,291.1,191.7z"/>
						</g>
					</g>
				</g>
			</g>
		</g>
	</g>
	<g id="Capa_2_1_" class="st1">
		<g class="st0">
			<path class="st1" d="M-59.3,159.1c9,0,16.4-7.4,16.4-16.4s-7.4-16.4-16.4-16.4s-16.4,7.4-16.4,16.4S-68.3,159.1-59.3,159.1z
				 M-59.3,133.2c5.3,0,9.5,4.3,9.5,9.5s-4.3,9.5-9.5,9.5c-5.3,0-9.5-4.3-9.5-9.5S-64.5,133.2-59.3,133.2z"/>
			<path class="st1" d="M-35.9,170.1h-13.4c-3.5,0-6.4-2.9-6.4-6.4v-1.1h-0.1h-6.8h-0.1v1.1c0,3.5-2.9,6.4-6.4,6.4h-13.5
				c-7.3,0-13.3,6-13.3,13.3h6.9c0-3.5,2.9-6.4,6.4-6.4h13.4c3.9,0,7.5-1.7,9.9-4.4c2.4,2.7,6,4.4,9.9,4.4H-36
				c3.5,0,6.4,2.9,6.4,6.4h6.9C-22.6,176.1-28.6,170.1-35.9,170.1z"/>
			<polygon class="st1" points="-24.8,106.8 -24.8,113.7 -11.8,113.7 -11.8,197.7 -24.8,197.7 -24.8,204.6 -4.9,204.6 -4.9,106.8 
							"/>
			<polygon class="st1" points="-106.7,113.7 -93.7,113.7 -93.7,106.8 -113.6,106.8 -113.6,204.6 -93.7,204.6 -93.7,197.7 
				-106.7,197.7 			"/>
		</g>
		<g>
			<g>
				<path class="st6" d="M18.4,177.2v-4.9h5.4v-33.9h-5.4v-4.9h7c3.6,4.6,7.1,9.2,10.7,13.8c3.5,4.6,7.1,9.2,10.7,13.8
					c3.6-4.6,7.1-9.2,10.7-13.8c3.5-4.6,7.1-9.2,10.7-13.8h7v4.9h-5.4v33.9h5.4v4.9H59.9v-4.9h4.5v-24.5c0-0.3,0.1-0.7,0.1-1
					s0.1-0.7,0.1-1c-0.3,0.5-0.7,0.9-1,1.4s-0.7,1-1,1.4l-15.9,20.7l-16.6-21.7c-0.3-0.4-0.5-0.7-0.7-0.9s-0.4-0.6-0.6-0.9
					c0,0.3,0.1,0.7,0.1,1s0.1,0.7,0.1,1v24.4h4.5v4.9H18.4V177.2z"/>
				<path class="st6" d="M110.4,175.9c-2.7,1.2-5.6,1.8-8.7,1.8s-6-0.6-8.7-1.8s-5.1-2.8-7.1-4.8s-3.6-4.4-4.8-7.1
					c-1.2-2.7-1.8-5.6-1.8-8.7c0-3,0.6-5.9,1.8-8.7c1.2-2.7,2.8-5.1,4.8-7.2c2-2,4.4-3.7,7.1-4.8c2.7-1.2,5.6-1.8,8.7-1.8
					c3,0,5.9,0.6,8.7,1.8c2.7,1.2,5.1,2.8,7.2,4.8c2,2,3.7,4.4,4.8,7.2c1.2,2.7,1.8,5.6,1.8,8.7c0,3.1-0.6,6-1.8,8.7
					c-1.2,2.7-2.8,5.1-4.8,7.1C115.5,173.2,113.1,174.8,110.4,175.9z M95.1,171.4c2.1,0.9,4.3,1.4,6.7,1.4s4.6-0.5,6.7-1.4
					s3.9-2.2,5.5-3.8c1.5-1.5,2.8-3.4,3.7-5.5c0.9-2.1,1.3-4.4,1.3-6.8c0-2.4-0.4-4.7-1.3-6.8s-2.1-3.9-3.7-5.5s-3.4-2.8-5.5-3.8
					c-2.1-0.9-4.3-1.4-6.7-1.4s-4.6,0.5-6.7,1.4s-3.9,2.2-5.4,3.8c-1.6,1.6-2.8,3.4-3.7,5.5c-0.9,2.1-1.3,4.4-1.3,6.8
					c0,2.4,0.4,4.7,1.3,6.8s2.1,3.9,3.7,5.5C91.2,169.2,93,170.5,95.1,171.4z"/>
				<path class="st6" d="M128.5,177.2v-5h2.9v-33.8h-2.9v-4.9h13.1c3,0,5.8,0.5,8.5,1.5s5,2.5,7,4.4s3.6,4.2,4.8,6.9
					s1.8,5.7,1.8,9.1c0,2.5-0.4,5-1.3,7.6c-0.9,2.6-2.2,4.9-4.2,7c-1.9,2.1-4.4,3.9-7.5,5.2c-3.1,1.4-6.8,2-11.2,2H128.5z
					 M136.7,172.2h4.4c2.5,0,4.8-0.4,6.9-1.2s4-1.9,5.6-3.4c1.5-1.5,2.8-3.2,3.7-5.3s1.3-4.4,1.3-7s-0.4-4.9-1.3-7
					c-0.9-2.1-2.1-3.9-3.7-5.4c-1.6-1.5-3.4-2.6-5.6-3.4c-2.1-0.8-4.4-1.2-6.9-1.2h-4.4V172.2z"/>
				<path class="st6" d="M172.8,147.2c1.2-1.9,2.5-3.8,3.8-5.7c1.2-1.9,2.5-3.8,3.8-5.7c1.2,1.9,2.5,3.8,3.8,5.7
					c1.2,1.9,2.5,3.8,3.8,5.7h-3.7c-0.6-0.8-1.3-1.5-1.9-2.2c-0.6-0.8-1.3-1.5-1.9-2.3c-0.6,0.8-1.3,1.5-1.9,2.3
					c-0.6,0.8-1.3,1.5-1.9,2.2H172.8z"/>
				<path class="st6" d="M197.4,177.2v-4.9h3.5v-33.9h-3.5v-4.9h13.9v4.9h-5.2v33.9h17.7v-4.7h4.9v9.6H197.4L197.4,177.2z"/>
				<path class="st6" d="M280.2,176.8c-1.9,0.6-3.9,0.8-6,0.8c-3.1,0-6-0.6-8.7-1.8s-5.1-2.8-7.1-4.8s-3.6-4.4-4.8-7.1
					c-1.2-2.7-1.8-5.6-1.8-8.7c0-3.1,0.6-6,1.8-8.7s2.8-5.1,4.8-7.2c2-2,4.4-3.6,7.1-4.8s5.6-1.8,8.7-1.8c2.1,0,4.1,0.3,6,0.8
					s3.7,1.3,5.4,2.3v7h-4.9V139c-1-0.5-2.1-0.8-3.2-1s-2.2-0.3-3.3-0.3c-2.4,0-4.6,0.5-6.7,1.4s-3.9,2.2-5.4,3.8
					c-1.6,1.6-2.8,3.5-3.7,5.6s-1.3,4.4-1.3,6.8c0,2.4,0.4,4.6,1.3,6.8c0.9,2.1,2.1,4,3.7,5.5c1.5,1.6,3.3,2.8,5.4,3.8
					c2.1,0.9,4.3,1.4,6.7,1.4c1.5,0,3-0.2,4.5-0.6c1.4-0.4,2.8-1,4.1-1.7l2.8,4.1C283.9,175.5,282.1,176.3,280.2,176.8z"/>
				<path class="st6" d="M290,177.2v-4.9h5.1c2.9-6.9,5.8-13.7,8.7-20.4c2.9-6.7,5.8-13.5,8.7-20.4c2.9,6.9,5.8,13.7,8.7,20.4
					c2.9,6.7,5.8,13.5,8.7,20.4h5.1v4.9h-13.9v-4.9h3.5c-0.9-2.1-1.7-4.1-2.6-6.2c-0.9-2-1.7-4.1-2.6-6.2h-13.8
					c-1.2,2.8-2,4.8-2.6,6.2s-1.5,3.4-2.6,6.2h3.6v4.9H290z M309.6,150.1c-0.7,1.8-1.3,3.4-1.9,4.8h9.5L313,145l-0.6-2.1
					c-0.2,0.7-0.3,1.1-0.4,1.4s-0.2,0.5-0.2,0.6C311,146.6,310.3,148.3,309.6,150.1z"/>
				<path class="st6" d="M339.2,177.2v-4.9h2.8v-33.9h-2.8v-4.9h13.2c1.4,0,3,0.2,4.7,0.7c1.7,0.4,3.3,1.1,4.8,2.1s2.8,2.2,3.8,3.7
					s1.5,3.3,1.5,5.4c0,3.1-0.8,5.7-2.3,7.8c-1.6,2.1-3.8,3.5-6.8,4.1l7,15h5.9v4.9h-9.1l-9.2-19.6c-0.6,0-1,0-1.3,0s-0.8,0-1.3,0
					h-2.6v14.6h7.1v4.9h-15.4L339.2,177.2L339.2,177.2z M347.2,152.7h5.4c1.8,0,3.3-0.2,4.5-0.7s2.1-1.1,2.8-1.8
					c0.7-0.7,1.2-1.5,1.5-2.4s0.4-1.7,0.4-2.5c0-0.9-0.2-1.8-0.7-2.6s-1.1-1.6-1.9-2.2c-0.8-0.6-1.8-1.1-3-1.5
					c-1.1-0.4-2.4-0.6-3.7-0.6H347v14.3H347.2z"/>
				<path class="st6" d="M375.2,177.2v-5h2.9v-33.8h-2.9v-4.9h13.2c3,0,5.8,0.5,8.5,1.5s5,2.5,7,4.4s3.6,4.2,4.8,6.9
					c1.2,2.7,1.8,5.7,1.8,9.1c0,2.5-0.4,5-1.3,7.6s-2.2,4.9-4.2,7c-1.9,2.1-4.4,3.9-7.5,5.2c-3.1,1.4-6.8,2-11.2,2H375.2z
					 M383.4,172.2h4.4c2.5,0,4.8-0.4,6.9-1.2s4-1.9,5.6-3.4c1.5-1.5,2.8-3.2,3.7-5.3c0.9-2.1,1.3-4.4,1.3-7s-0.4-4.9-1.3-7
					s-2.1-3.9-3.7-5.4s-3.4-2.6-5.6-3.4c-2.1-0.8-4.4-1.2-6.9-1.2h-4.4V172.2z"/>
				<path class="st6" d="M433.2,176.8c-1.6,0.6-3.2,0.8-5,0.8c-1.6,0-3.1-0.2-4.6-0.5c-1.5-0.4-2.9-0.8-4.1-1.4
					c-1.2-0.6-2.4-1.2-3.3-2c-1-0.8-1.7-1.5-2.3-2.4v-7.2h4.9v5.6c1.1,0.8,2.4,1.6,3.9,2.2c1.5,0.6,3.2,0.9,5.1,0.9
					c1.1,0,2.1-0.2,3.1-0.5s1.9-0.8,2.7-1.3c0.8-0.6,1.4-1.4,1.8-2.3c0.5-0.9,0.7-2,0.7-3.2c0-0.8-0.1-1.5-0.2-2.2
					c-0.1-0.8-0.3-1.4-0.7-1.9c-0.5-0.9-1.2-1.6-1.9-2.1c-0.7-0.5-1.6-1-2.5-1.5c-1.5-0.6-3.1-1.2-4.9-1.6c-1.8-0.5-3.4-1.1-4.9-1.9
					c-1.5-0.8-2.8-1.9-3.8-3.3c-1-1.4-1.6-3.4-1.6-6c0-1.4,0.1-2.8,0.6-4.1c0.4-1.4,1.1-2.6,2.1-3.8c1-1.1,2.2-2,3.8-2.8
					c1.6-0.7,3.5-1.1,5.8-1.1c0.8,0,1.6,0,2.4,0.1c0.9,0.1,1.8,0.2,2.8,0.5c1,0.2,1.9,0.6,3,1.1c1,0.5,2,1.2,3,2v6.1h-4.9v-3.7
					c-0.8-0.3-1.7-0.6-2.8-0.9c-1-0.2-2.2-0.4-3.4-0.4s-2.3,0.2-3.2,0.6c-0.9,0.4-1.7,0.9-2.2,1.6c-0.5,0.6-0.9,1.3-1.2,2.2
					c-0.3,0.8-0.4,1.7-0.4,2.6c0,1.2,0.3,2.3,0.9,3c0.6,0.8,1.4,1.4,2.3,2c1.5,0.8,3.3,1.5,5.4,2.1s4.1,1.4,6,2.3
					c1.8,0.8,3.2,2.1,4.2,3.9c1.1,1.8,1.6,4.1,1.6,7.2c0,1.9-0.3,3.6-1,5.1s-1.6,2.8-2.8,3.9C436.2,175.5,434.8,176.3,433.2,176.8z"
					/>
			</g>
		</g>
		<g>
			<circle class="st7" cx="229.3" cy="48.1" r="9.9"/>
			<g>
				<path class="st7" d="M204,79L204,79c0-4.2,3.4-7.5,7.5-7.5h10.2c4.2,0,7.5-3.4,7.5-7.5v-0.9"/>
				<path class="st7" d="M254.6,79L254.6,79c0-4.2-3.4-7.5-7.5-7.5h-10.2c-4.2,0-7.5-3.4-7.5-7.5v-0.9"/>
			</g>
			<g>
				<polyline class="st8" points="255.6,23.4 268.1,23.4 268.1,92.5 255.6,92.5 				"/>
				<polyline class="st8" points="203.1,92.5 190.6,92.5 190.6,23.4 203.1,23.4 				"/>
			</g>
		</g>
	</g>
</g>
<g id="Capa_3" class="st0">
	<g class="st1">
		<circle class="st9" cx="229.9" cy="29.5" r="11.6"/>
		<g>
			<path class="st9" d="M200.4,65.7L200.4,65.7c0-4.8,3.9-8.8,8.8-8.8h11.9c4.8,0,8.8-3.9,8.8-8.8v-1"/>
			<path class="st9" d="M259.5,65.7L259.5,65.7c0-4.8-3.9-8.8-8.8-8.8h-11.9c-4.8,0-8.8-3.9-8.8-8.8v-1"/>
		</g>
		<g>
			<polyline class="st10" points="260.7,0.6 275.3,0.6 275.3,81.5 260.7,81.5 			"/>
			<polyline class="st10" points="199.3,81.5 184.7,81.5 184.7,0.6 199.3,0.6 			"/>
		</g>
	</g>
	<g class="st1">
		<g>
			<path class="st6" d="M7,181.3c-1.2,0-2.1-0.4-2.6-1.1s-0.8-1.8-0.8-3c0-1.1,0.2-2.2,0.5-3.2s0.7-1.9,1.1-2.7s1.7-2.4,3.9-4.8
				c2.2-2.4,3.7-5.4,4.5-9.1c0.8-3.7,1.8-8.2,3-13.6c0.8-2.1,1.7-3.3,3-3.5c1.2-0.2,2-0.3,2.3-0.3c1.1,0,2.1,0.4,2.8,1.2
				c0.8,0.8,1.1,1.8,0.9,3c-0.7,8.2-1.5,14.7-2.3,19.4s-2.5,8.8-5,12.4C15.8,179.5,12,181.3,7,181.3z M50.2,139.3
				c-2.2,1.3-4,3.5-5.4,6.3c-1.4,2.9-2.9,6.7-4.4,11.3c-1.5,4.7-2.6,7.7-3.3,9s-1.6,2.4-2.6,3.1c-1.1,0.8-2.2,1.1-3.2,1.1
				c-1.2,0-2-0.5-2.5-1.6s-0.8-2.2-1-3.4s-0.3-2.5-0.3-3.9c0-1.6,0.2-3.9,0.6-7.1c0.4-3.2,0.6-5.5,0.6-7.1c0-1-0.1-2-0.2-3.1
				c-0.1-1-0.3-1.9-0.5-2.6c-0.2-0.7-0.5-1.4-0.9-1.9s-0.8-0.8-1.1-0.8c-0.4,0-0.7-0.1-0.9-0.1c-0.2,0-0.4,0-0.5,0
				c-0.5,0-1.4,0.1-2.5,0.2c-1.1,0.1-1.9,0.2-2.4,0.2c-0.7,0-1.2-0.1-1.7-0.2c-0.4-0.1-1-0.3-1.7-0.7c-0.7-0.4-1.2-1-1.6-1.8
				c-0.4-0.8-0.6-1.7-0.6-2.6c0-1,0.3-2.3,1-3.9c0.7-1.5,2-2.8,3.9-3.8s4-1.5,6.4-1.5c1.8,0,3.7,0.3,5.7,1s3.6,2.2,4.9,4.4
				c1.2,2.2,1.8,4.7,1.8,7.4c0,1.1-0.1,2.1-0.3,3c2.1-3.1,4-5.8,5.7-7.9c1.8-2.1,3.8-4,6.1-5.4c2.3-1.5,4.9-2.2,7.7-2.2
				c1.5,0,2.9,0.2,4.4,0.7c1.5,0.4,2.6,1.1,3.3,2.1c0.7,1,1.1,2.1,1.1,3.4c0,0.2,0,0.4,0,0.7s-0.3,1.4-0.9,3.4s-3.1,3.2-7.6,3.5
				C52.8,138.9,50.4,139.1,50.2,139.3z M46.4,169.7c-0.9-0.4-1.6-1.1-2.2-2.1c-0.6-1-0.9-2.1-0.9-3.3c0-0.4,0.1-1.8,0.4-4.1
				c0.3-2.3,0.9-5,1.8-8.1c0.9-3.1,2-5.7,3.2-7.7s2.4-3.3,3.4-3.9c1-0.6,2.1-0.9,3.1-0.9c1.4,0,2.3,0.5,2.5,1.4
				c0.2,1,0.3,1.9,0.3,2.8c0,1-0.2,2-0.5,3c-0.4,1-0.7,2.1-0.9,3.2c-0.3,1.1-0.4,2.2-0.4,3.2c0,0.9,0.1,1.7,0.3,2.4s0.5,1.4,0.9,2
				s0.7,1.2,0.9,1.9c0.1,0.7,0.2,1.4,0.2,2.1c0,2.1-0.9,4.1-2.7,6c-1.8,1.8-3.8,2.8-6.1,2.8C48.6,170.4,47.5,170.2,46.4,169.7z"/>
			<path class="st6" d="M96.8,166.1c-3.3,4.4-7.7,6.6-13.1,6.6c-2,0-3.9-0.3-5.5-0.9s-2.9-1.4-3.7-2.5c-0.8-1.1-1.5-2.2-2-3.4
				s-0.9-2.5-1.1-3.9s-0.4-2.7-0.4-4c0-3.6,0.8-6.8,2.4-9.7s3.3-4.7,5.1-5.3c1.8-0.7,3-1,3.6-1c1,0,1.8,0.2,2.4,0.7
				c0.6,0.4,0.9,1.1,0.9,2s-0.5,2.6-1.5,5.1s-1.5,4.2-1.5,5.3c0,0.5,0,1.1,0.1,1.7c0.1,0.6,0.5,1.3,1.1,2c0.7,0.7,1.4,1.1,2.3,1.1
				c0.5,0,1.5-0.5,2.8-1.4s2.5-2.6,3.4-4.9c0.9-2.4,1.4-5,1.4-7.8c0-2-0.1-3.6-0.3-4.9c-0.2-1.3-0.5-2.2-1-2.8s-1-0.9-1.8-0.9
				c-0.3,0-0.5,0.1-0.9,0.2c-2.1,1.1-4.2,2.2-6.3,3.3c-0.5,0.1-0.9,0.2-1.3,0.2c-1.4,0-2.7-0.4-3.7-1.3c-1.1-0.8-1.6-2-1.6-3.4
				c0-0.4,0.2-1.5,0.6-3.2s1.7-3.4,4.1-5.2s4.5-2.8,6.5-3.1c2-0.3,3.4-0.4,4.2-0.4c2.1,0,3.9,0.4,5.5,1.1s3,2,4.2,3.8
				c1.2,1.8,2.1,3.9,2.8,6.1c0.7,2.3,1,4.6,1,7.1c0,4-0.8,8.1-2.3,12.1C101.6,158.7,99.5,162.5,96.8,166.1z"/>
			<path class="st6" d="M139.2,176.8c-2.2,2.4-4.8,4.3-7.8,5.6s-6.1,2-9.4,2c-3.1,0-6.1-0.6-9.1-1.8c-2.9-1.2-4.4-3.4-4.4-6.6
				c0-0.3,0.1-1,0.2-2.1s1-2.3,2.6-3.5s3.3-1.9,5.3-1.9c0.8,0,1.6,0.1,2.5,0.4c0.9,0.3,1.9,0.5,3,0.8c1.1,0.2,2.1,0.3,3.1,0.3
				c2.1,0,3.9-0.4,5.5-1.2c1.6-0.8,3-2.6,4.4-5.3s2.5-5.5,3.3-8.2c0.8-2.8,1.2-5.1,1.2-7.1c0-2.3-0.5-4.2-1.5-5.9s-2.2-2.8-3.5-3.2
				c-1.4-0.5-2.2-0.7-2.6-0.8c-0.4,0-0.9-0.1-1.5-0.1c-0.7,0-1.7,0.1-3.1,0.3s-2.4,0.3-3.1,0.3c-1.1,0-2.1-0.1-2.9-0.4
				c-0.8-0.3-1.6-0.8-2.4-1.7s-1.2-1.9-1.2-3.2c0-1.1,0.3-2.2,1-3.2c0.7-1.1,1.6-2,2.7-2.8s2.3-1.3,3.6-1.7c1.3-0.4,2.5-0.6,3.6-0.7
				c1.1-0.1,1.9-0.2,2.3-0.2c0.4,0,0.7,0,1,0c4.2,0,7.9,1,11.2,3s5.5,4.8,6.7,8.5s1.8,7.4,1.8,11c0,5.4-1.1,10.6-3.3,15.8
				C146.1,168.1,143.1,172.7,139.2,176.8z M131.5,152.2c0.3,1.1,0.4,2.3,0.4,3.4c0,3.3-0.9,6.1-2.7,8.5s-4.1,3.6-6.9,3.6
				c-1.5,0-2.8-0.3-3.9-0.8s-1.9-1.2-2.3-2.1c-0.4-0.9-0.6-1.9-0.6-3c0-2.1,0.7-4,2-5.7c1.4-1.8,2.2-3.1,2.6-4.1
				c0.3-0.9,0.7-2.5,1-4.6s1.3-3.9,2.9-5.3c1.6-1.4,3.3-2,5.2-2c1,0,1.9,0.3,2.9,0.8c0.7,0.4,1.1,0.8,1.4,1.2
				c0.3,0.4,0.4,0.9,0.4,1.5s-0.4,1.8-1.3,3.7c-0.8,1.9-1.3,3.2-1.3,4C131.4,151.5,131.5,151.8,131.5,152.2z"/>
			<path class="st6" d="M211.8,141.4c-0.4,0.1-0.7,0.2-0.9,0.3c-0.2,0-0.5,0.1-0.9,0.1c-1.2,0-2.6-0.4-4.2-1.3
				c-1.3-0.8-2.4-1.5-3.1-2c-0.7-0.5-1.3-0.7-1.6-0.7c-0.5,0-1,0.2-1.5,0.5s-0.7,0.6-0.7,0.9c0.2,2,0.5,4,0.7,6
				c0.3,2,0.4,3.4,0.4,4.2c0,1.2-0.3,2.5-1,4c-0.8,1.5-1.5,2.8-2,3.8c-0.4,0.4-0.7,0.8-1,1.1s-0.3,0.7-0.1,0.9
				c0.2,0.3,0.5,0.5,1.1,0.7s1.2,0.3,1.8,0.3s1.5-0.3,2.5-0.8s2.6-0.8,4.6-0.8c1.6,0,2.8,0.3,3.7,1s1.4,1.7,1.4,3.1
				c0,1.8-0.3,3.5-1,4.9c-0.7,1.5-1.8,2.7-3.4,3.6c-1.6,0.9-3.3,1.3-5,1.3c-1.5,0-3-0.3-4.3-0.8c-1.4-0.5-2.8-1.1-4.4-1.8
				c-1.6-0.7-2.6-1-3-1c-0.8,0-2,0.4-3.7,1.2s-2.9,1.2-3.8,1.2c-0.5,0-1-0.1-1.4-0.3c-0.5-0.2-1-0.6-1.6-1.1
				c-0.6-0.6-0.9-1.4-0.9-2.6c0-0.6,0.1-1.2,0.2-1.7c0.1-0.5,0.3-1,0.5-1.4c0.2-0.5,1.8-2.3,4.8-5.5s4.5-5.6,4.5-7.4
				c0-0.5-0.2-1.5-0.5-3.1c-0.4-1.6-0.6-3-0.8-4.1s-0.3-2.5-0.3-4.1s0.2-3,0.5-4.2c0.4-1.2,1.2-2.8,2.6-4.5c1.4-1.8,3.4-3.3,6-4.6
				c2.6-1.3,5.5-1.9,8.5-1.9c0.6,0,1.3,0,1.9,0.1c0.6,0,1.7,0.2,3.2,0.4c1.5,0.3,3.1,0.9,4.8,1.8c1.7,1,2.6,2.1,2.9,3.3
				c0.3,1.2,0.4,2.3,0.4,3.2c0,1.8-0.5,3.4-1.4,4.9C215.1,139.8,213.7,140.8,211.8,141.4z"/>
			<path class="st6" d="M268.9,140.6c-0.5,0.1-0.8,0.1-1,0.1c-0.8,0-1.9-0.3-3.3-1s-2.5-1-3.1-1c-0.5,0-1.4,0.3-2.6,1
				s-2.4,2.4-3.6,5.3c-1.2,2.8-1.8,5.6-1.8,8.4c0,1.6,0.2,2.9,0.7,4c0.4,1.1,0.9,1.8,1.4,2c0.5,0.3,1,0.4,1.4,0.4
				c0.6,0,1.9-0.4,3.9-1.1c2-0.7,3.6-1.1,4.7-1.1c1,0,1.9,0.3,2.7,0.8c0.7,0.5,1.2,1.4,1.5,2.5s0.4,2,0.4,2.6c0,2.8-1.3,5.2-3.9,7.1
				c-2.6,1.9-5.6,2.9-8.8,2.9c-5.3,0-9.2-1.5-11.6-4.6c-2.4-3.1-3.6-7.1-3.6-12.1c0-3.2,0.4-6.3,1.2-9.5s2-6.4,3.6-9.8
				s3.9-6.3,7.1-8.6c3.1-2.4,6.8-3.6,10.9-3.6c3,0,5.2,0.3,6.5,0.8s2.2,1.2,2.6,2.1c0.5,0.9,0.8,1.6,0.9,2.1
				c0.1,0.6,0.2,1.2,0.2,1.9c0,1.9-0.6,3.6-1.7,5.1C272.4,139,270.8,140.1,268.9,140.6z"/>
			<path class="st6" d="M314.9,139.6c-0.5-0.2-0.9-0.3-1.4-0.3c-1.7,0-2.9,0.9-3.7,2.6c-0.8,1.7-1.5,4.1-2.3,7.2
				c-0.2,0.8,0,1.4,0.6,1.8c0.6,0.5,1.1,0.6,1.4,0.3c0.8-0.6,2-2.4,3.6-5.3s3.4-4.4,5.4-4.4c0.3,0,0.7,0.1,1.5,0.2
				c0.7,0.1,1.4,0.5,1.9,1.2s0.8,1.4,0.8,2.3c0,0.3-0.1,0.8-0.3,1.6c-0.2,0.8-0.4,1.9-0.6,3.3c-0.2,1.3-0.3,2.6-0.3,3.7
				c0,1.3,0.1,2.5,0.3,3.6c0.2,1.2,0.6,2.2,1,3.2c0.4,0.9,0.6,2,0.6,3.1c0,2.1-0.8,3.9-2.4,5.5c-1.6,1.5-3.5,2.3-5.8,2.3
				c-0.8,0-2-0.2-3.5-0.7s-2.5-1.6-3-3.2c-0.5-1.7-0.8-3-0.8-4.1c0-0.3,0-0.8,0.1-1.4c0-0.6,0.1-1,0.1-1.3c0-0.8-0.1-1.4-0.3-1.8
				c-0.2-0.3-0.5-0.7-0.8-0.9s-0.6-0.4-1-0.4c-0.5,0-0.8,0.2-1,0.6c-0.2,0.4-0.9,3.1-2.1,8s-3,8.9-5.3,12.1
				c-2.3,3.1-4.7,4.9-7.3,5.3s-4,0.6-4.4,0.6c-1.5,0-2.8-0.4-3.8-1.2c-1.1-0.8-1.7-1.6-1.9-2.4c-0.2-0.8-0.3-1.4-0.3-1.9
				c0-0.4-0.1-0.8-0.1-1.2c0-2.6,1.6-4.8,4.7-6.7s5-3.3,5.7-4.4c0.6-1.1,1.4-2.9,2.3-5.4s1.4-4.5,1.5-5.8c0-0.2-0.1-0.3-0.1-0.5
				c0-0.1,0-0.2,0-0.3c0-0.4-0.3-0.7-0.9-0.9c-1.5,1.5-3.2,2.3-4.9,2.3c-1.3,0-2.4-0.6-3-1.9c-0.4-0.8-0.6-1.6-0.6-2.4
				c0-1.6,0.6-3,1.8-4.3c1.2-1.3,2.4-2.1,3.6-2.4c1.2-0.3,2.1-0.5,2.8-0.5c0.7-0.1,1.5-0.1,2.4-0.1h1.1c0.3,0,0.6-0.2,0.8-0.5
				c0.3-0.5,0.6-1.2,1.1-2.1c0.5-1,1.2-2.4,2.1-4.2c1.8-3.1,4.1-5.8,7-8.1c2.9-2.2,6.4-3.4,10.7-3.4c1.6,0,3.2,0.2,4.9,0.5
				c1.7,0.4,3,1.1,3.9,2.2s1.3,2.4,1.3,3.8c0,0.6-0.2,1.5-0.6,2.8s-1.4,2.4-3.2,3.5c-1.7,1.1-3.7,1.6-5.8,1.6
				C317.5,140.2,316.3,140,314.9,139.6z"/>
			<path class="st6" d="M360.9,150.5c-1,0.6-1.4,1.1-1.4,1.6c0,0.3,0.3,0.7,0.9,1.4s1,1.5,1.3,2.5s0.4,2,0.4,3.3v2.3
				c0,0.6,0,1.3,0,1.9c0,0.6,0.1,1.2,0.3,1.9c0.2,0.7,0.8,1.7,2,3s1.8,2.7,1.8,4c0,0.6-0.2,1.6-0.6,3s-1.4,2.6-2.9,3.7
				c-1.5,1.1-3.3,1.7-5.2,1.7c-2.6,0-4.4-0.9-5.6-2.8c-1.2-1.9-1.8-4.2-1.8-7c0-0.5,0-1,0-1.2c0-0.3,0.1-0.9,0.2-1.8
				c0.5-2.3,1-4.6,1.5-7c0-1-0.3-2-0.8-3c-0.2-0.3-0.5-0.3-0.9,0s-0.7,0.5-0.8,0.8c-0.4,3.4-1.6,6.5-3.5,9.4s-4.3,4.3-7.1,4.3
				c-1.3,0-2.5-0.3-3.5-0.8c-1.1-0.5-1.8-1.2-2.1-2c-0.4-0.8-0.6-1.6-0.6-2.6c0-1.1,0.2-2.1,0.6-2.9c0.4-0.8,0.9-1.8,1.5-2.8
				s1.4-2.1,2.2-3.2c0.9-1.1,1.4-1.9,1.5-2.3c0.1-0.4,0.2-1.7,0.2-3.8c0-0.5,0-0.9,0-1.4s0-0.9,0-1.3c0-0.9,0.1-1.7,0.3-2.4
				c0.2-0.7,0.7-1.6,1.3-2.5c0.7-1,1.4-1.7,2.3-2.2s1.9-0.7,2.9-0.7c0.6,0,1.2,0.1,1.7,0.4s1,0.7,1.4,1.4c0.5,0.7,0.8,1.3,0.9,1.9
				c0.2,0.5,0.3,1.1,0.3,1.6s0,0.8-0.1,1.1c0.1,0,0.3,0.2,0.5,0.6c0.3,0.4,0.6,0.5,0.9,0.4c1.2-0.2,2.3-0.7,3.2-1.3
				c0.9-0.7,1.5-1.4,1.8-2.2s0.5-1.5,0.5-2c0-1.4-0.4-2.3-1.3-2.7c-0.8-0.4-1.6-0.6-2.2-0.7s-1.4-0.1-2.2-0.1
				c-0.9,0-2.4,0.1-4.5,0.3s-3.4,0.3-3.9,0.3c-1.6,0-2.9-0.3-3.7-0.9c-0.9-0.6-1.3-1.3-1.4-2.3s-0.2-1.7-0.2-2.2
				c0-3.3,1.4-5.7,4.3-7.2s6.4-2.3,10.6-2.3c3.2,0,6.2,0.4,8.8,1.2c2.6,0.8,4.6,2.3,5.9,4.5s2,4.6,2,7.3c0,0.4,0,0.8,0,1.3
				c-0.1,0.4-0.2,1.1-0.3,2.2c-0.1,1.1-1,2.5-2.5,4.3C364.4,148,362.7,149.5,360.9,150.5z"/>
			<path class="st6" d="M401.9,176.8c-2.2,2.4-4.8,4.3-7.8,5.6s-6.1,2-9.4,2c-3.1,0-6.1-0.6-9.1-1.8c-2.9-1.2-4.4-3.4-4.4-6.6
				c0-0.3,0.1-1,0.2-2.1s1-2.3,2.6-3.5s3.3-1.9,5.3-1.9c0.8,0,1.6,0.1,2.5,0.4c0.9,0.3,1.9,0.5,3,0.8c1.1,0.2,2.1,0.3,3.1,0.3
				c2.1,0,3.9-0.4,5.5-1.2s3-2.6,4.4-5.3s2.5-5.5,3.3-8.2c0.8-2.8,1.2-5.1,1.2-7.1c0-2.3-0.5-4.2-1.5-5.9s-2.2-2.8-3.5-3.2
				c-1.4-0.5-2.2-0.7-2.6-0.8c-0.4,0-0.9-0.1-1.5-0.1c-0.7,0-1.7,0.1-3.1,0.3s-2.4,0.3-3.1,0.3c-1.1,0-2.1-0.1-2.9-0.4
				c-0.8-0.3-1.6-0.8-2.4-1.7s-1.2-1.9-1.2-3.2c0-1.1,0.3-2.2,1-3.2c0.7-1.1,1.6-2,2.7-2.8s2.3-1.3,3.6-1.7c1.3-0.4,2.5-0.6,3.6-0.7
				s1.9-0.2,2.3-0.2s0.7,0,1,0c4.2,0,7.9,1,11.2,3c3.3,2,5.5,4.8,6.7,8.5s1.8,7.4,1.8,11c0,5.4-1.1,10.6-3.3,15.8
				C408.8,168.1,405.8,172.7,401.9,176.8z M394.3,152.2c0.3,1.1,0.4,2.3,0.4,3.4c0,3.3-0.9,6.1-2.7,8.5c-1.8,2.4-4.1,3.6-6.9,3.6
				c-1.5,0-2.8-0.3-3.9-0.8s-1.9-1.2-2.3-2.1c-0.4-0.9-0.6-1.9-0.6-3c0-2.1,0.7-4,2-5.7c1.4-1.8,2.2-3.1,2.6-4.1
				c0.3-0.9,0.7-2.5,1-4.6s1.3-3.9,2.9-5.3c1.6-1.4,3.3-2,5.2-2c1,0,1.9,0.3,2.9,0.8c0.7,0.4,1.1,0.8,1.4,1.2s0.4,0.9,0.4,1.5
				s-0.4,1.8-1.3,3.7c-0.8,1.9-1.3,3.2-1.3,4C394.1,151.5,394.2,151.8,394.3,152.2z"/>
			<path class="st6" d="M449.1,141.9c-0.9,0-2.3-0.6-4.2-1.9c-1.9-1.3-3.2-1.9-4-1.9c-1,0-1.8,0.7-2.4,2.1c-0.2,0.5-0.1,1.1,0.3,2
				c0.4,0.8,1.7,1.5,3.9,2c2.2,0.5,4.4,2,6.6,4.5s3.3,5.3,3.3,8.4c0,2.1-0.7,4.5-2,7.1s-3.7,4.9-7,6.9c-3.4,2-6.9,2.9-10.6,2.9
				c-2.5,0-4.8-0.5-6.9-1.4s-3.7-2.2-4.8-3.8c-1.1-1.6-1.7-2.9-1.7-3.9c0-0.7,0.2-1.5,0.5-2.3c0.4-0.8,0.9-1.7,1.6-2.6
				c0.7-0.9,1.7-1.7,2.8-2.4s2.4-1,3.7-1c0.3,0,0.8,0,1.3,0.1s1.6,0.8,3.3,2.1c1.7,1.3,3,2,3.9,2c1-0.1,1.9-0.5,2.6-1.1
				c0.7-0.7,1-1.4,1-2.2c0-0.4-0.2-0.9-0.6-1.7s-2.3-2.1-5.6-4c-3.3-1.9-5.4-3.7-6.3-5.4c-0.8-1.7-1.3-3.6-1.3-5.6
				c0-4.2,1.8-7.9,5.4-11c3.6-3.1,7.7-4.7,12.4-4.7c2.3,0,4.3,0.3,6,0.8c1.7,0.6,3,1.4,3.9,2.5c0.9,1.1,1.4,2.1,1.7,3
				c0.3,0.9,0.4,1.8,0.4,2.6c0,2.1-0.7,3.9-2.1,5.4S451.2,141.9,449.1,141.9z"/>
		</g>
		<g>
			<polygon class="st6" points="174.4,140 166.1,131.7 157.8,140 153.9,136.1 166.1,123.9 178.3,136.1 			"/>
		</g>
	</g>
</g>
<g>
	<rect y="140.7" class="st11" width="531" height="56.9"/>
</g>
<g>
	<g>
		<path class="st6" d="M235.6,50.9c-8.6,0-15.7-7-15.7-15.6s7-15.7,15.7-15.7c8.6,0,15.6,7,15.6,15.7
			C251.2,43.8,244.2,50.9,235.6,50.9z M235.6,25c-5.6,0-10.2,4.6-10.2,10.2s4.6,10.1,10.2,10.1c5.6,0,10.1-4.6,10.1-10.1
			C245.7,29.6,241.2,25,235.6,25z"/>
	</g>
	<g>
		<g>
			<path class="st6" d="M205.4,75.5h-5.5c0-6.9,5.6-12.5,12.6-12.5h13.3c3.9,0,7.1-3.2,7.1-7.1v-1.1h5.5v1.1
				c0,6.9-5.6,12.6-12.6,12.6h-13.3C208.6,68.5,205.4,71.6,205.4,75.5z"/>
		</g>
		<g>
			<path class="st6" d="M271.4,75.5h-5.5c0-3.9-3.2-7-7-7h-13.3c-6.9,0-12.5-5.6-12.5-12.6v-1.1h5.5v1.1c0,3.9,3.2,7.1,7,7.1h13.3
				C265.7,63,271.4,68.6,271.4,75.5z"/>
		</g>
	</g>
	<g>
		<g>
			<polygon class="st12" points="288.9,95.8 269.9,95.8 269.9,90.3 283.4,90.3 283.4,5.8 269.9,5.8 269.9,0.2 288.9,0.2 			"/>
		</g>
		<g>
			<polygon class="st12" points="201.5,95.8 182.4,95.8 182.4,0.2 201.5,0.2 201.5,5.8 187.9,5.8 187.9,90.3 201.5,90.3 			"/>
		</g>
	</g>
</g>
<g>
	<g>
		<path class="st6" d="M5.6,179.4c-0.4,0-1-0.1-1.9-0.2c-0.7-0.7-1.2-1.7-1.8-2.9c-0.5-1.2-0.9-2.5-1.2-3.9s-0.4-2.7-0.4-4.1
			c0-1.4,0.3-2.6,0.7-3.7c0,0,0.2-0.5,0.6-1.5c0.4-0.9,0.9-2.1,1.5-3.6s1.3-3.1,2.1-4.9c0.8-1.8,1.6-3.5,2.3-5.3
			c0.8-1.7,1.5-3.3,2.2-4.7s1.3-2.5,1.9-3.3c0.4-0.6,0.7-1.1,1-1.7c0.3-0.5,0.6-1,0.9-1.5c0.5-0.7,0.9-1.4,1.3-2.1
			c0.4-0.6,0.8-1.2,1.3-1.7c0.5-0.5,1-1,1.6-1.4s1.3-0.7,2.1-1c0.5,0.2,0.9,0.4,1.3,0.6c0.4,0.2,0.7,0.5,1,0.8l0.2,0.9
			c0.1,0.3,0.2,0.5,0.4,0.6s0.3,0.2,0.5,0.2c0.5,0.1,1,0.3,1.4,0.4c0.4,0.1,0.8,0.2,1.3,0.3c0.2,0.2,0.3,0.5,0.5,0.7
			c0.1,0.2,0.3,0.5,0.5,0.7c0.8,1.2,1.5,2.3,2,3.4c0.5,1.1,0.5,2.3,0,3.6l0.1,0.7c0.2,0.3,0.3,0.6,0.3,0.8s0,0.6-0.1,1
			c0,0.3-0.1,0.7-0.1,1.1c0,0.4,0,0.8,0.2,1.3l0.4,0.5c0.7,0.3,1.3,0.5,1.9,0.5c0.8,0,1.6-0.2,2.2-0.6c0.7-0.4,1.3-0.7,1.8-1.1
			c0.5-0.3,0.9-0.6,1.3-0.8c0.4-0.2,0.8-0.3,1.1-0.4c0.9-0.8,1.7-1.5,2.4-2.2c0.7-0.6,1.5-1.3,2.2-1.9c1.5-1.2,2.9-2.5,4.3-3.8
			c1.4-1.4,2.5-3.1,3.3-5.1c0.5-0.3,1-0.4,1.5-0.4c0.6,0,1.1,0.1,1.7,0.3c0.6,0.2,1.1,0.5,1.7,0.8c0.1,0.1,0.2,0.1,0.3,0.2
			c0.1,0,0.2,0.1,0.3,0.2c0,0.5,0.2,0.9,0.6,1.2c0.2,0.2,0.3,0.3,0.4,0.3c0.1,0,0.2,0.1,0.2,0.1c0.3,0.2,0.6,0.4,0.8,0.6
			c0.2,0.2,0.4,0.4,0.5,0.7c0.4,1.1,1,2,1.8,2.6c-0.1,0.5-0.1,0.9,0.1,1.3c0.1,0.4,0.3,0.9,0.4,1.3c0.1,0.2,0.1,0.3,0.2,0.5
			c0,0.1,0.1,0.3,0.2,0.5l-1.4-0.1l0.2,1.4c0.1,0.7,0.1,1.5-0.2,2.3c-0.2,0.9-0.5,1.5-0.8,2c0.1,1.2,0.1,2.2,0.1,2.9s0,1.4-0.1,2
			s-0.2,1.2-0.4,1.8s-0.4,1.1-0.7,1.8c0.2,3.1-0.2,6-1.1,8.6c-0.9,2.6-1.8,5-2.9,7.3c-0.1,0.3-0.2,0.6-0.4,0.8s-0.2,0.5-0.3,0.7
			c-0.5,0.1-0.9,0.3-1.2,0.4c-0.4,0.2-0.7,0.3-1,0.6c-0.5,0.3-0.9,0.5-1.4,0.7s-0.9,0.3-1.4,0.3c-2-1.4-3-3.9-3-7.4
			c-0.1-3.5,0.7-8,2.2-13.5c0.3-0.2,0.4-0.5,0.4-0.9v-0.7l-0.6-0.1c-0.2,0-0.4,0-0.6,0.1c-0.2,0-0.3,0.2-0.4,0.6
			c-1.3,0.9-2.7,1.9-4.3,2.9c-1.5,1-3.1,1.9-4.8,2.8c-1.6,0.8-3.3,1.5-5,2.1s-3.4,0.8-5,0.8c-4.1,0-7.2-2.1-9.3-6.3l-0.6-1.1l-0.6,1
			c-0.1,0.2-0.3,0.6-0.6,1.2c-0.3,0.6-0.6,1.3-0.9,2.1c-0.3,0.8-0.6,1.6-0.8,2.4c-0.2,0.8-0.3,1.5-0.2,2.2c-0.5,0.5-1,1-1.4,1.5
			c-0.5,0.6-0.8,1.2-1,2c-0.1,0.2-0.1,0.4-0.1,0.6c0,0.2,0.1,0.4,0.2,0.6c0,0.3-0.1,0.5-0.2,0.6s-0.3,0.2-0.4,0.4
			c-0.2,0.2-0.4,0.4-0.6,0.6c-0.2,0.2-0.4,0.5-0.6,0.8c-0.1,0.2-0.1,0.5-0.2,0.8c0,0.3-0.1,0.5-0.1,0.7c0,0.5-0.1,0.8-0.2,0.9
			c-0.4,0.9-0.8,1.6-1.1,2.1c-0.3,0.6-0.6,1-0.9,1.3s-0.6,0.5-0.9,0.6S6,179.4,5.6,179.4z"/>
		<path class="st6" d="M76.3,178.8c-1.8,0.2-3.4,0.2-4.9-0.2s-2.8-1-4-1.9s-2.2-1.9-3-3.1c-0.8-1.2-1.5-2.5-2.1-3.8
			c-0.4-2.8-0.3-5.3,0.3-7.6s1.4-4.4,2.5-6.3c1.1-1.9,2.4-3.7,3.8-5.4s2.8-3.3,4.1-4.9c0.3,0.1,0.5,0.1,0.7,0s0.3-0.3,0.5-0.5
			c0.1-0.2,0.3-0.4,0.5-0.6c0.2-0.2,0.4-0.3,0.6-0.4c0.2-0.4,0.4-0.7,0.6-0.9c0.3-0.2,0.6-0.5,0.9-0.7s0.6-0.5,0.9-0.7
			s0.5-0.6,0.7-0.9c0.4-0.1,0.8-0.2,1.1-0.4c0.3-0.2,0.6-0.4,0.9-0.7c0.3-0.2,0.5-0.5,0.8-0.7s0.6-0.4,1-0.5v-0.8
			c0.9-0.4,1.6-0.9,2-1.4s0.9-1.1,1.5-1.9c0.5,0,0.8-0.1,1.1-0.1c0.3,0,0.7,0,1.3-0.1c0.4-0.7,0.7-1.2,1-1.5s0.8-0.7,1.4-1.1
			c0.6,0.3,1.3,0.5,2,0.6s1.3,0.4,1.9,1c0,0.5,0.2,0.9,0.4,1.1s0.5,0.5,0.8,0.7s0.6,0.5,0.9,0.7s0.5,0.6,0.6,1c0.2,0,0.3,0,0.4-0.1
			s0.2-0.1,0.4-0.1c0.1,0.3,0.2,0.6,0.2,0.8c0.1,0.2,0.2,0.4,0.3,0.6c0.1,0.2,0.2,0.3,0.3,0.6c0.1,0.2,0.2,0.5,0.3,0.7
			c-0.2,0.5-0.4,1-0.6,1.6s-0.5,0.9-1,1.1c0,0.3,0.1,0.5,0.4,0.5c0.2,0,0.4,0.2,0.4,0.5c0,0.4,0,0.7-0.2,0.9
			c1.1,1.9,2.2,3.9,3.1,6.1c0.9,2.1,2,4.1,3.2,6.1c-0.1,0.6-0.1,1.1,0.1,1.7c0.1,0.6,0.3,1.1,0.6,1.6c0.2,0.5,0.4,1.1,0.6,1.6
			s0.3,1.1,0.4,1.6c0.1,0.7,0.1,1.4,0,2.2s-0.2,1.6-0.5,2.3s-0.6,1.4-1,2.1c-0.4,0.6-0.9,1.1-1.4,1.4c-0.7,0.8-1.5,1.5-2.5,2
			s-1.9,1.1-2.7,1.8c-0.6,0.3-1.2,0.6-1.8,0.7c-0.7,0.1-1.3,0.3-2,0.5c-0.5,0.3-1.2,0.6-1.9,1c-0.7,0.3-1.5,0.6-2.3,0.8
			s-1.6,0.4-2.3,0.6c-0.8,0.1-1.5,0.2-2.1,0.1c-1.5,0.5-2.9,0.9-4.3,1.1C79.8,179.3,78.2,179.2,76.3,178.8z M77.1,156.4
			c-0.4,0.9-0.9,1.8-1.4,2.6c-0.6,0.8-1.1,1.5-1.6,2.3s-1,1.6-1.4,2.5s-0.6,1.9-0.6,3.1c0.8,0.7,1.8,1.1,2.9,1.3
			c1.1,0.1,2.3,0.2,3.5,0.1c1.2-0.1,2.4-0.3,3.6-0.5s2.3-0.3,3.2-0.3c0-0.4,0.2-0.6,0.5-0.6c1.7-0.2,3.3-0.6,4.8-1.4
			c1.5-0.8,3-1.6,4.6-2.4c0.2-0.5,0.5-0.9,0.8-1.3c0.3-0.4,0.5-0.9,0.6-1.6c-0.2-0.4-0.3-0.7-0.4-0.9s-0.1-0.6-0.1-1.1
			c-1.1-1.5-2-3.1-2.8-4.8s-1.7-3.4-2.7-5c-0.1,0.2-0.2,0.4-0.5,0.6c-0.2,0.2-0.5,0.2-0.8-0.1c-0.1,0.4-0.3,0.7-0.6,0.8
			c-0.2,0.1-0.5,0.2-0.8,0.2s-0.6-0.1-0.9-0.2s-0.6-0.3-0.8-0.5c-1.4,1.1-2.9,2.3-4.3,3.3c-1.4,1.1-2.7,2.3-3.8,3.8
			c-0.2,0.1-0.3,0.2-0.4,0.1C77.5,156.3,77.3,156.4,77.1,156.4z"/>
		<path class="st6" d="M114.3,179.3c-1.2-0.3-2.1-0.8-2.7-1.4c-0.6-0.7-1.1-1.5-1.4-2.4s-0.5-1.9-0.6-3s-0.2-2.3-0.3-3.4
			c0.2-0.5,0.4-1,0.6-1.4c0.3-0.4,0.4-0.9,0.3-1.5c0.5-1.3,0.9-2.6,1.2-3.8s0.6-2.5,0.7-3.8c0.2-0.4,0.5-0.6,0.7-0.7
			c0.3-2.3,0.4-4.7,0.1-7.2s-0.7-4.7-1.2-6.8c0-0.5,0.1-0.8,0.2-1s0.1-0.4,0-0.6c-0.1-0.4,0-0.6,0.4-0.6c0.3,0,0.7,0,1,0
			c0-0.7-0.1-1.5-0.4-2.2s-0.5-1.5-0.8-2.5c0.3-0.7,0.6-1.5,0.7-2.2s0.3-1.3,0.7-1.9c1.3,0.4,2.6,0.9,3.9,1.4s2.5,1.1,3.8,1.6
			c1.2,0.5,2.4,1,3.6,1.5s2.4,0.9,3.5,1.1c1.8,1.3,3.6,2.5,5.4,3.8c1.9,1.3,3.6,2.6,5.1,4.1s2.8,3.2,3.8,5.1c1,1.9,1.6,4.2,1.8,6.8
			c-0.1,0.2-0.1,0.5-0.2,0.6c0,0.2-0.1,0.3-0.1,0.5s-0.1,0.3-0.1,0.6c0,0.2,0,0.5,0,0.9c-1.5,2.6-3.3,4.8-5.6,6.5
			c-2.3,1.8-4.7,3.3-7.4,4.7s-5.4,2.6-8.3,3.7C119.9,176.8,117.1,178,114.3,179.3z M120.4,144.4c-0.4,0-0.6,0.1-0.8,0.2
			c0.5,1.8,0.9,3.6,1.1,5.2c0.2,1.6,0.4,3.3,0.4,4.9c0,1.6-0.1,3.3-0.3,5c-0.2,1.7-0.5,3.6-0.9,5.6c0.5,0,1-0.1,1.4-0.3
			s0.8-0.3,1.3-0.6c0.4-0.2,0.9-0.4,1.4-0.6c0.5-0.2,1-0.3,1.6-0.3c0.2-0.3,0.4-0.6,0.6-0.8c0.3-0.2,0.5-0.4,0.7-0.6
			c1-0.4,2.1-0.8,3.1-1.3s2-1,2.8-1.5c0.9-0.6,1.6-1.2,2.3-2c0.7-0.7,1.3-1.6,1.7-2.6c-0.3-0.6-0.7-1.1-1.2-1.6
			c-0.5-0.4-1-0.9-1.5-1.3c-0.5-0.4-1-0.9-1.5-1.4s-0.9-1-1.1-1.6c-0.7-0.1-1.2-0.3-1.7-0.5c-0.5-0.3-1-0.5-1.4-0.8
			c-0.5-0.3-0.9-0.5-1.4-0.8c-0.5-0.2-1.1-0.4-1.8-0.4c-1.1-0.6-2-1-2.9-1.2C121.5,145.1,120.8,144.8,120.4,144.4z"/>
	</g>
	<g>
		<path class="st6" d="M189,176.3c-0.2-0.2-0.3-0.4-0.4-0.6c-0.1-0.2-0.2-0.5-0.3-0.9c-0.6-0.7-1-1.5-1.4-2.4
			c-0.3-0.9-0.6-1.8-0.7-2.8s-0.1-1.9-0.1-2.9c0.1-1,0.2-1.9,0.4-2.8c0.1-0.4,0.2-0.8,0.3-1.3c0.2-0.8,0.4-1.5,0.6-2.3
			c0.2-0.8,0.5-1.4,0.9-1.9c-0.2-0.5-0.1-0.9,0.1-1.5c0.2-0.5,0.4-1,0.6-1.5c0.1-0.1,0.1-0.2,0.2-0.3c0-0.1,0.1-0.2,0.1-0.3
			c0.5-1.4,1-2.8,1.4-4.2c0.5-1.3,0.9-2.6,1.4-3.8c0.8-2.3,1.6-4.5,2.4-6.6c0.8-2.2,1.4-4.5,2.1-7c0.3-0.2,0.6-0.4,0.9-0.5
			c0.1,0,0.2-0.1,0.3-0.1s0.3-0.1,0.4-0.1c0.9,0.5,1.9,0.9,3,1.3c1.2,0.4,2.2,0.6,3,0.6l1,0.9c0.5,0.6,1,1.3,1.4,1.9
			c0.4,0.7,0.5,1.5,0.3,2.6c-0.2,0.4-0.5,0.6-0.6,0.7c-0.2,0.9-0.5,1.8-0.8,2.5s-0.6,1.4-0.9,2.1c-0.3,0.7-0.6,1.5-0.9,2.2
			c-0.3,0.7-0.5,1.6-0.7,2.7c-0.2,0.3-0.4,0.5-0.5,0.7s-0.1,0.4-0.2,0.6c-0.1,0.2-0.2,0.5-0.3,0.8s-0.3,0.5-0.6,0.7
			c-0.2,1.3-0.4,2.3-0.7,3.1s-0.7,1.6-1,2.4c-0.6,1.4-1.1,2.9-1.6,4.3c-0.5,1.4-0.8,3-0.9,4.8c0.5-0.1,0.9-0.2,1.4-0.2
			s1,0.1,1.5,0.2c1.5-0.7,3.1-1.2,4.8-1.4s3.5-0.3,5.2-0.3c1.4,0,2.8-0.1,4-0.2c0.4,0.3,0.7,0.4,0.8,0.5s0.3,0,0.6,0
			c0.1,0,0.2,0,0.4,0s0.3,0,0.5,0.1c0.6,0.6,1.1,1,1.7,1.2c0.5,0.2,1.1,0.4,1.7,0.6c0.5,0.2,1.1,0.4,1.6,0.6c0.5,0.2,1,0.5,1.5,0.9
			l0.6,3.1c0.3,0.5,0.5,0.8,0.4,0.9c0,0.3-0.1,0.6-0.2,0.9l0.1,0.8c-0.8,0.2-1.3,0.3-1.5,0.5s-0.5,0.4-0.8,0.7
			c-0.5,0-0.9,0.1-1.3,0.1c-0.8,0-1.7,0.1-2.5,0.4c-1.2-0.5-2.6-0.7-4.1-0.7c-0.6,0-1.2,0-1.8,0.1c-0.6,0-1.2,0.1-1.8,0.2
			c-0.6,0.1-1.2,0.2-1.8,0.2c-0.6,0.1-1.2,0.1-1.8,0.1c-0.5,0.1-0.8,0.1-1,0.2c-0.2,0-0.4,0.1-0.6,0.2c-1.4,0.5-2.9,0.9-4.5,1.4
			s-3.3,0.7-4.9,0.7c-2.4,0-4.4-0.6-5.8-1.8c-0.2-0.4-0.3-0.6-0.4-0.7C189.2,176.6,189.1,176.5,189,176.3z"/>
		<path class="st6" d="M260.7,173.2c-1.2-0.9-2.2-2-2.9-3.4c-0.8-1.4-1.4-2.8-1.8-4.3s-0.7-3.1-0.9-4.7c-0.1-1.6-0.2-3.2-0.2-4.6
			c0.4-1.1,0.8-2.1,1.4-3c0.5-0.9,1.1-1.8,1.8-2.6c0.7-0.8,1.3-1.6,2.1-2.4c0.7-0.8,1.4-1.5,2.1-2.3c0.2,0,0.5,0.1,0.7,0.2
			c0.2-0.5,0.4-0.8,0.7-1.2c0.3-0.3,0.7-0.6,1-0.9s0.7-0.5,1.1-0.8s0.7-0.6,0.9-1c1-0.2,1.9-0.6,2.7-1c0.8-0.5,1.6-0.9,2.3-1.5
			c0.7-0.5,1.5-1,2.3-1.5s1.7-0.8,2.7-1c0.4-0.4,0.8-0.8,1.4-1c0.6-0.3,1.1-0.6,1.7-0.8s1.1-0.5,1.6-0.8s0.9-0.7,1.3-1.2
			c0.2,0.3,0.6,0.4,1,0.3c0.5-0.1,0.9-0.2,1.2-0.3c0.2,0,0.5,0,0.6,0.1s0.3,0.3,0.5,0.4c0.1,0.1,0.3,0.2,0.4,0.3
			c0.1,0,0.2-0.1,0.3-0.4c0.3,0,0.4,0.2,0.3,0.4s-0.2,0.4-0.3,0.5c0.4-0.1,0.7,0,1,0.2s0.7,0.4,1.3,0.5c0.2,0.2,0.3,0.4,0.2,0.5
			s-0.1,0.3-0.2,0.6c1.5,0.5,2.4,1.2,2.8,2.1c0.4,1,0.5,2,0.1,3c-0.3,1-0.9,2-1.8,2.9s-1.9,1.5-2.9,1.8c-1.3,0.3-2.5,0.7-3.5,1
			c-1.1,0.3-2.1,0.7-3.1,1.1c-1,0.4-1.9,0.9-2.8,1.4c-0.9,0.6-1.7,1.2-2.3,1.9c-1.1,0.3-2.2,0.8-3.1,1.4c-0.9,0.6-1.8,1.2-2.6,1.9
			c-0.8,0.7-1.6,1.4-2.3,2.2c-0.7,0.8-1.5,1.5-2.2,2.2c0,0.7-0.1,1.2-0.4,1.6s-0.5,0.7-0.8,1.1c0.1,0.8,0.3,1.4,0.5,2
			c0.3,0.6,0.5,1.1,0.8,1.7c3.3,1,6.8,1.6,10.4,1.8c3.7,0.2,7.3,0.4,10.9,0.4c0.4,0.5,0.8,1,1.3,1.4s0.9,0.9,1.3,1.3
			c0.4,0.5,0.7,1,0.9,1.6c0.2,0.6,0.3,1.3,0.2,2.1c-0.7,0.7-1.5,1.4-2.3,2s-1.6,1.3-2.5,1.9c-0.4,0-0.8,0-1.3,0s-1-0.1-1.6-0.1
			s-1.1,0-1.7,0.1s-1.1,0.2-1.6,0.4c-2.6-0.1-5.2-0.4-7.9-1c-2.7-0.6-5.2-1.2-7.5-2c-0.5-0.5-0.9-1-1.4-1.5
			C262.2,173.8,261.5,173.4,260.7,173.2z"/>
		<path class="st6" d="M295,172.7l0.8-0.6l0.1-1.3c1-2.5,2.1-4.9,3.2-7.2s2.2-4.7,3.4-7.1c0.4-0.8,0.7-1.6,1.1-2.3
			c0.4-0.8,0.8-1.6,1.1-2.4c0-0.2-0.1-0.3-0.1-0.5s0-0.4,0.1-0.6c0.6-0.8,1-1.6,1.4-2.2c0.3-0.7,0.7-1.3,1-2
			c0.4-0.8,0.8-1.6,1.2-2.5c0.4-0.8,1-1.6,1.6-2.4l0.4-0.6l0.7,0.1c0.2-0.1,0.3-0.2,0.5-0.2c0.2-0.1,0.4-0.1,0.7-0.1l1.1,0.2
			c1.4-0.6,2.6-1.5,3.6-2.7s2.1-2.6,3.2-4.2l0.7-1l1,0.6c0.2,0.1,0.5,0.2,1,0.4c0.5,0.1,0.9,0.3,1.4,0.4c0.9,0.2,1.7,0.4,2.5,0.7
			s1.5,0.6,1.9,1.1l0.3,0.6c0.1,0.5,0.2,0.9,0.2,1.2c0.1,0.4,0.1,0.7,0.2,1.1c0.2,0.9,0.3,1.7,0.4,2.6s0.2,1.8,0.2,2.8
			c0.2,0.8,0.4,1.7,0.6,2.5s0.4,1.7,0.5,2.5c0.2,1.2,0.4,2.3,0.7,3.4s0.6,2.1,1,3.1c0.4,0,0.7,0,0.7,0.1c0.5-0.2,1.1-0.3,1.7-0.4
			l0.8-0.1l0.2,0.7c0.1,0.1,0.2,0.2,0.3,0.4s0.3,0.2,0.4,0.4c0.7,0,1.1,0.2,1.4,0.4s0.6,0.4,0.8,0.6c0.1,0.1,0.2,0.2,0.3,0.3
			s0.2,0.2,0.3,0.2l1.1,0.4l-0.6,1.2c-0.5,0.9-1.1,1.7-2.1,2.5c-0.9,0.8-2,1.5-3.1,2c0.1,0.3,0.1,0.6,0.2,0.8c0,0.2,0.1,0.5,0.2,0.9
			c0.2,0.8,0.3,1.7,0.4,2.6s0.1,1.8,0,2.7c-0.4,1.1-0.9,2-1.4,2.9c-0.6,0.8-1.2,1.6-2,2.3s-1.6,1.2-2.6,1.7c-0.9,0.4-1.9,0.7-3,0.7
			c-0.6-0.1-1-0.3-1.3-0.4s-0.5-0.3-0.7-0.5c-0.3-0.2-0.6-0.4-0.8-0.5l-0.8-0.4l0.2-0.9c0.1-0.3,0.1-0.6,0-0.9s-0.4-0.6-0.9-1
			c-0.2-0.1-0.3-0.3-0.4-0.4s-0.3-0.3-0.4-0.5l-1.2-1.4l2-0.6c1.2-0.3,2.1-0.7,2.5-1.3c0.4-0.5,0.6-1.4,0.5-2.7
			c-1-0.2-1.9-0.2-2.5-0.1c-0.7,0.1-1.3,0.3-2,0.5c-0.9,0.2-1.9,0.5-2.8,0.6c-0.9,0.2-1.9,0.3-3,0.3c-0.7,0-1.4-0.1-2.2-0.2
			l-0.7-0.1l-0.2-0.7c0-0.1-0.1-0.2-0.2-0.3s-0.2-0.2-0.3-0.3c-0.2-0.2-0.5-0.6-0.7-1c-0.3-0.4-0.3-0.9-0.2-1.5
			c-0.3-0.5-0.5-0.9-0.5-1.4c-0.2,0.3-0.3,0.6-0.4,1c-0.1,0.3-0.2,0.6-0.3,0.9l-0.2,0.8l-0.8,0.1c-0.1,0.1-0.2,0.2-0.2,0.4
			c-0.1,0.2-0.1,0.3,0,0.4l0.2,0.7l-0.6,0.6c-0.1,0.1-0.2,0.2-0.3,0.3c-0.1,0.1-0.2,0.2-0.3,0.2c-0.1,0.5-0.2,0.9-0.3,1.3
			c-0.1,0.4-0.3,0.8-0.5,1.2c-0.2,0.7-0.4,1.3-0.6,1.9c-0.2,0.6-0.3,1.2-0.3,1.8l-0.2,0.8c-0.2,0.3-0.5,0.6-0.8,0.7
			c-0.3,0.2-0.6,0.3-0.9,0.4c-0.4,0.2-0.7,0.3-0.9,0.5l-0.2,0.8l-0.9,0.1c-0.5,0.1-0.9,0.2-1.1,0.2s-0.5,0.1-0.8,0.1l-0.8-0.1
			c-0.5-0.5-0.9-0.9-1.2-1.1c-0.3-0.3-0.7-0.5-1.1-0.7l-0.4-0.5c-0.2-0.3-0.3-0.6-0.3-0.9c0-0.3-0.1-0.5-0.2-0.8
			c-0.1-0.5-0.2-0.9-0.4-1.1L295,172.7z M314.7,156.7c-0.6,0.8-1.1,1.7-1.7,2.6c0.3,0,0.6-0.1,0.8-0.1s0.5,0,0.8-0.1
			c1.4-0.1,2.8-0.2,4-0.3s2.6-0.3,4-0.6c-0.3-1.5-0.7-3.1-1.1-4.6s-0.8-3.2-1.3-4.8l-0.3,0.6c-1,1.1-2,2.3-3,3.6
			C316.1,154.3,315.4,155.5,314.7,156.7L314.7,156.7z"/>
		<path class="st6" d="M345.8,173.3c-0.2,0-0.4-0.1-0.6-0.5c-0.2-0.3-0.3-0.7-0.6-1h0.7c-0.3-0.9-0.4-1.7-0.2-2.5
			c0.1-0.8,0.3-1.5,0.5-2.2s0.4-1.4,0.5-2.1c0.1-0.7,0.1-1.4-0.2-2.1c0.2,0.1,0.4,0.1,0.5-0.2c0.1-0.2,0.2-0.5,0.2-0.9
			c0.1-0.3,0.1-0.7,0.1-1.1s-0.1-0.7-0.1-1c0.5-1.3,1-2.6,1.3-3.9c0.3-1.4,0.6-2.7,0.8-4c0.2-1.3,0.5-2.6,0.8-3.9
			c0.3-1.3,0.7-2.4,1.2-3.5c0.6-0.1,1.2,0,1.8,0.2c0.6,0.2,1.1,0.5,1.3,0.8c1.3-1,2.4-2.2,3.4-3.6c1-1.4,2-2.8,3-4.1
			s2.1-2.5,3.4-3.5s2.9-1.6,4.7-1.8c1,0.7,2.1,1.4,3.3,2.2c1.2,0.8,2.2,1.8,3,3c0.3,0.2,0.6,0.4,1,0.6c0.3,0.2,0.6,0.4,1,0.6v0.9
			c0.6,0.5,1.1,1.2,1.4,1.9c0.4,0.7,0.7,1.5,1,2.3s0.6,1.6,0.9,2.4c0.3,0.8,0.6,1.6,1,2.3c-0.1,0.2-0.1,0.5-0.1,0.6
			c0,0.2,0.1,0.4,0.1,0.6c0.1,0.2,0.1,0.4,0.2,0.6c0,0.2,0.1,0.5,0.1,0.8c-0.2,2.2-0.9,3.9-2.1,5.3c-1.3,1.3-2.8,2.4-4.6,3.3
			c-1.8,0.8-3.7,1.6-5.7,2.2c-2,0.6-3.8,1.2-5.5,1.9c0,0.2,0.1,0.2,0.3,0.2c0.2,0,0.2,0.1,0.2,0.4c1.2,0.7,2.2,1.3,2.9,1.8
			c0.7,0.5,1.3,0.8,1.9,1.1s1.2,0.6,2,0.8c0.7,0.2,1.7,0.5,3,0.7c1.3,0.3,2.3,0.5,3,0.7s1.4,0.3,1.9,0.4c0.6,0.1,1.2,0.2,1.8,0.3
			c0.7,0.1,1.5,0.2,2.6,0.3c0.5,0.5,0.8,1,1.1,1.6c0.3,0.6,0.5,1.2,0.6,1.8s0.2,1.2,0.1,1.8s-0.2,1-0.5,1.3c0,0.2,0.2,0.2,0.3,0.2
			c0.2,0,0.4,0,0.6,0c-0.3,0.2-0.5,0.5-0.7,0.7c-0.2,0.3-0.4,0.6-0.6,0.9c-0.2,0.3-0.4,0.6-0.7,0.8c-0.3,0.2-0.6,0.4-1,0.4
			c-1.5,0.6-3.4,0.6-5.7,0.1c-2.3-0.5-5.2-1.5-8.8-2.8c-1.8-0.7-3.2-1.3-4.3-1.8c-1.1-0.5-2.1-1.1-2.9-1.6s-1.6-1.1-2.3-1.7
			c-0.7-0.6-1.5-1.3-2.4-2.1c-0.1,0-0.2,0.1-0.2,0.2c0,0.1-0.1,0.2-0.2,0.2c-0.2,1.6-0.5,3-1,4c-0.4,1-1.1,2.1-1.9,3.1
			c-0.7-0.1-1.1-0.1-1.3,0.2s-0.5,0.5-0.8,0.7c-0.4,0.1-0.7,0.1-0.9,0c-0.2-0.1-0.4-0.2-0.6-0.3s-0.3-0.2-0.6-0.4
			c-0.2-0.1-0.5-0.2-1-0.1c-0.1-0.4-0.2-0.7-0.4-1.1s-0.5-0.5-1-0.5c0.1-0.4,0.2-0.7,0.1-1c0-0.3-0.1-0.5-0.2-0.7s-0.2-0.5-0.2-0.7
			C345.6,173.9,345.6,173.6,345.8,173.3z M366.3,145.2c-0.5,0.8-1.1,1.5-1.8,2.1c-0.7,0.6-1.3,1.3-1.9,2s-1.2,1.4-1.7,2.2
			s-0.8,1.8-1,2.9c1.7-0.2,3.5-0.7,5.4-1.4c1.9-0.8,3.7-1.5,5.4-2.2c-0.2-1.5-0.7-2.7-1.6-3.7C368.1,146.1,367.2,145.5,366.3,145.2z
			"/>
		<path class="st6" d="M393.9,179.3c-1.2-0.3-2.1-0.8-2.7-1.4c-0.6-0.7-1.1-1.5-1.4-2.4s-0.5-1.9-0.6-3s-0.2-2.3-0.3-3.4
			c0.2-0.5,0.4-1,0.6-1.4s0.4-0.9,0.3-1.5c0.5-1.3,0.9-2.6,1.2-3.8s0.6-2.5,0.7-3.8c0.2-0.4,0.5-0.6,0.7-0.7
			c0.3-2.3,0.4-4.7,0.1-7.2s-0.7-4.7-1.2-6.8c0-0.5,0.1-0.8,0.2-1s0.1-0.4,0-0.6c-0.1-0.4,0-0.6,0.4-0.6c0.3,0,0.7,0,1,0
			c0-0.7-0.1-1.5-0.4-2.2s-0.5-1.5-0.8-2.5c0.3-0.7,0.6-1.5,0.7-2.2s0.3-1.3,0.7-1.9c1.3,0.4,2.6,0.9,3.9,1.4s2.5,1.1,3.8,1.6
			c1.2,0.5,2.4,1,3.6,1.5s2.4,0.9,3.5,1.1c1.8,1.3,3.6,2.5,5.4,3.8c1.9,1.3,3.6,2.6,5.1,4.1s2.8,3.2,3.8,5.1c1,1.9,1.6,4.2,1.8,6.8
			c-0.1,0.2-0.1,0.5-0.2,0.6c0,0.2-0.1,0.3-0.1,0.5s-0.1,0.3-0.1,0.6c0,0.2,0,0.5,0,0.9c-1.5,2.6-3.3,4.8-5.6,6.5
			c-2.3,1.8-4.7,3.3-7.4,4.7c-2.7,1.4-5.4,2.6-8.3,3.7C399.5,176.8,396.7,178,393.9,179.3z M400,144.4c-0.4,0-0.6,0.1-0.8,0.2
			c0.5,1.8,0.9,3.6,1.1,5.2c0.2,1.6,0.4,3.3,0.4,4.9c0,1.6-0.1,3.3-0.3,5c-0.2,1.7-0.5,3.6-0.9,5.6c0.5,0,1-0.1,1.4-0.3
			s0.8-0.3,1.3-0.6c0.4-0.2,0.9-0.4,1.4-0.6c0.5-0.2,1-0.3,1.6-0.3c0.2-0.3,0.4-0.6,0.6-0.8c0.3-0.2,0.5-0.4,0.7-0.6
			c1-0.4,2.1-0.8,3.1-1.3s2-1,2.8-1.5c0.9-0.6,1.6-1.2,2.3-2c0.7-0.7,1.3-1.6,1.7-2.6c-0.3-0.6-0.7-1.1-1.2-1.6
			c-0.5-0.4-1-0.9-1.5-1.3c-0.5-0.4-1-0.9-1.5-1.4s-0.9-1-1.1-1.6c-0.7-0.1-1.2-0.3-1.7-0.5c-0.5-0.3-1-0.5-1.4-0.8
			c-0.5-0.3-0.9-0.5-1.4-0.8c-0.5-0.2-1.1-0.4-1.8-0.4c-1.1-0.6-2-1-2.9-1.2C401.1,145.1,400.4,144.8,400,144.4z"/>
		<path class="st6" d="M428.3,150.8c0.1-0.6,0.2-1.1,0.2-1.5s-0.1-0.8-0.4-1.3c0.2-0.7,0.3-1.2,0.4-1.5c0.1-0.4,0.1-0.9,0-1.5
			c0.4-1.1,0.9-2,1.7-2.7c0.8-0.7,1.6-1.4,2.5-1.9s1.8-0.9,2.8-1.3s1.9-0.6,2.8-0.9c0-0.2-0.1-0.2-0.2-0.2c-0.2,0-0.2-0.1-0.1-0.3
			c2.2-0.4,4.4-1,6.7-1.8c2.2-0.8,4.5-1.5,6.9-2.1s4.7-1,7.2-1.1s5,0.2,7.8,1c0.2,0.5,0.4,1,0.7,1.4c0.3,0.5,0.6,0.9,0.9,1.3
			c0.3,0.4,0.6,0.9,0.8,1.3c0.2,0.4,0.4,0.8,0.4,1.3c0.5,0.5,0.9,0.9,1.2,1.4c0.3,0.5,0.4,1.2,0.2,2.1c-0.5,0.3-0.9,0.7-1.4,1
			s-1,0.6-1.5,0.9c-1.8-0.5-3.7-0.6-5.5-0.5s-3.5,0.3-5,0.4c-0.5-0.5-1-0.7-1.6-0.7s-1.3,0.1-1.9,0.3c-0.7,0.2-1.3,0.4-2,0.6
			c-0.7,0.2-1.3,0.2-1.8,0.2c-0.5,0.4-1,0.7-1.8,0.8s-1.5,0.3-2.3,0.3c0,0.2,0,0.3,0.1,0.4c0.1,0.1,0.1,0.2,0.1,0.5
			c0.3,0.4,0.7,0.6,1.2,0.8c0.5,0.1,1,0.3,1.5,0.4s1,0.3,1.4,0.5s0.7,0.6,0.8,1.1c0.7,0,1.4,0.2,1.9,0.6c0.5,0.3,1,0.8,1.4,1.3
			s0.6,1,0.8,1.6c0.2,0.6,0.2,1.1,0.2,1.5c0.2,0.4,0.3,0.6,0.5,0.5s0.4,0,0.6,0.3c0.2,0.6,0.5,1.3,1.1,1.9c0.6,0.7,1.1,1.4,1.4,2.2
			c0.1,1.2,0.2,2.3,0.2,3.3c0.1,1-0.1,1.9-0.5,2.9c-0.7,1.8-1.7,3.4-3,4.9c-1.3,1.4-2.8,2.7-4.5,3.8s-3.4,2-5.3,2.8
			c-1.8,0.8-3.7,1.5-5.5,2c-0.2,0-0.4,0-0.6,0s-0.3-0.1-0.2-0.4c-0.4,0.3-0.8,0.5-1.3,0.6s-1,0.1-1.5,0.1c-0.6,0-1.1-0.1-1.7-0.1
			s-1.1,0-1.6,0.1c-0.3-0.3-0.6-0.7-0.9-1s-0.5-0.7-0.6-1.2c-0.2,0-0.3-0.2-0.3-0.4s-0.1-0.3-0.3-0.3c0-0.2,0-0.3,0.1-0.4
			c0-0.1,0.1-0.2,0.1-0.2c0.2-0.1,0.2-0.2,0.2-0.3s-0.1-0.1-0.2-0.2c-0.1-0.1-0.2-0.1-0.3-0.2c-0.1-0.1-0.1-0.2-0.1-0.3
			c0.2-0.4,0.3-0.8,0.2-1.3c-0.1-0.5-0.1-1-0.2-1.6c0-0.5,0-1,0.1-1.5s0.5-0.9,1-1.2c1.7,0.2,3.3,0.1,4.8-0.2s2.9-0.8,4.2-1.4
			c1.3-0.6,2.6-1.2,3.8-1.9c1.2-0.7,2.4-1.3,3.5-1.9c0.1-0.4,0.3-0.8,0.6-1c0.3-0.3,0.5-0.6,0.8-0.8c0.3-0.3,0.6-0.6,0.8-0.9
			c0.2-0.3,0.4-0.7,0.6-1.1c0-0.2,0-0.3,0-0.4c0-0.1-0.1-0.2-0.2-0.2c-0.1-0.1-0.2-0.1-0.2-0.2c-0.1-0.1-0.1-0.2-0.1-0.4
			c-0.1,0-0.2-0.1-0.3-0.1c-0.1,0-0.2-0.1-0.3-0.1c-1.1-0.5-2.2-1-3.4-1.4c-1.2-0.4-2.2-0.8-3-1.2c-0.5,0.3-1,0.4-1.5,0.2
			s-1.1-0.3-1.8-0.5c-1.7-0.1-3.4-0.2-4.9-0.5c-1.5-0.2-3-0.7-4.5-1.3c-0.1-0.2-0.2-0.5-0.3-0.6c-0.1-0.2-0.4-0.2-0.9-0.2
			c-0.3-0.4-0.6-0.8-0.9-1.1C428.9,151.7,428.6,151.3,428.3,150.8z"/>
	</g>
	<g>
		<polygon class="st6" points="177.5,151.8 167.1,141.5 156.7,151.8 152.9,148 167.1,133.7 181.3,148 		"/>
	</g>
</g>
</svg>
